<svg xmlns="http://www.w3.org/2000/svg" xmlns:xlink="http://www.w3.org/1999/xlink" contentStyleType="text/css" data-diagram-type="DESCRIPTION" height="486px" preserveAspectRatio="none" style="width:538px;height:486px;background:#FFFFFF;" version="1.1" viewBox="0 0 538 486" width="538px" zoomAndPan="magnify"><title>Context Diagram</title><defs/><g><text fill="#00008B" font-family="sans-serif" font-size="20" lengthAdjust="spacing" textLength="233.6914" x="291.1442" y="18.5645">Aetna Interview Project</text><g class="title" data-source-line="8"><text fill="#000000" font-family="sans-serif" font-size="30" font-weight="bold" lengthAdjust="spacing" textLength="286.0107" x="119.4124" y="62.1279">Context Diagram</text></g><!--cluster Amazon API Gateway--><g class="cluster" data-entity="Amazon API Gateway" data-source-line="12" data-uid="ent0003" id="cluster_Amazon API Gateway"><rect fill="#E6F9E6" height="119.6" rx="2.5" ry="2.5" style="stroke:#181818;stroke-width:1;" width="183" x="151.84" y="224.9931"/><text fill="#000000" font-family="sans-serif" font-size="14" font-style="italic" lengthAdjust="spacing" textLength="78.9756" x="203.8522" y="239.9882">&#171;Gateway&#187;</text><text fill="#000000" font-family="sans-serif" font-size="14" font-weight="bold" lengthAdjust="spacing" textLength="167.2891" x="159.6955" y="256.2851">Amazon API Gateway</text></g><!--entity API--><g class="entity" data-entity="API" data-source-line="13" data-uid="ent0004" id="entity_API"><rect fill="#F1F1F1" height="52.5938" rx="2.5" ry="2.5" style="stroke:#181818;stroke-width:0.5;" width="139.376" x="173.15" y="275.9931"/><text fill="#000000" font-family="sans-serif" font-size="14" lengthAdjust="spacing" textLength="85.9141" x="183.15" y="298.9882">ECS Fargate</text><text fill="#000000" font-family="sans-serif" font-size="14" lengthAdjust="spacing" textLength="119.376" x="183.15" y="315.2851">(Spring Boot API)</text></g><!--entity User--><g class="entity" data-entity="User" data-source-line="10" data-uid="ent0002" id="entity_User"><ellipse cx="242.8357" cy="94.2031" fill="#F1F1F1" rx="8" ry="8" style="stroke:#181818;stroke-width:0.5;"/><path d="M242.8357,102.2031 L242.8357,129.2031 M229.8357,110.2031 L255.8357,110.2031 M242.8357,129.2031 L229.8357,144.2031 M242.8357,129.2031 L255.8357,144.2031" fill="none" style="stroke:#181818;stroke-width:0.5;"/><text fill="#000000" font-family="sans-serif" font-size="14" lengthAdjust="spacing" textLength="94.6914" x="195.49" y="158.6982">External User</text></g><!--entity RDS--><g class="entity" data-entity="RDS" data-source-line="16" data-uid="ent0005" id="entity_RDS"><path d="M6,417.5931 C6,407.5931 61.8384,407.5931 61.8384,407.5931 C61.8384,407.5931 117.6768,407.5931 117.6768,417.5931 L117.6768,459.1869 C117.6768,469.1869 61.8384,469.1869 61.8384,469.1869 C61.8384,469.1869 6,469.1869 6,459.1869 L6,417.5931" fill="#F1F1F1" style="stroke:#181818;stroke-width:0.5;"/><path d="M6,417.5931 C6,427.5931 61.8384,427.5931 61.8384,427.5931 C61.8384,427.5931 117.6768,427.5931 117.6768,417.5931" fill="none" style="stroke:#181818;stroke-width:0.5;"/><text fill="#000000" font-family="sans-serif" font-size="14" lengthAdjust="spacing" textLength="90.4258" x="16" y="444.5882">Amazon RDS</text><text fill="#000000" font-family="sans-serif" font-size="14" lengthAdjust="spacing" textLength="91.6768" x="16" y="460.8851">(PostgreSQL)</text></g><!--entity Cognito--><g class="entity" data-entity="Cognito" data-source-line="17" data-uid="ent0006" id="entity_Cognito"><path d="M179.5642,424.6015 C182.6583,419.7786 188.411,418.9052 191.4526,424.6605 C194.5548,416.4256 199.6867,416.5457 205.3801,422.03 C209.6507,415.7046 214.5326,415.2689 218.9599,421.8653 C221.9762,415.2807 227.6352,414.2052 231.824,420.7132 C235.5289,414.8684 240.5825,414.8816 243.7428,421.2449 C247.5669,415.0196 252.3987,414.3819 256.7803,420.6637 C261.5232,415.0407 266.5788,417.3193 269.1821,423.0092 C272.3338,416.0942 278.4353,417.2148 281.9544,422.6285 C286.7514,415.9564 292.2762,417.1488 295.6998,424.0221 C299.8394,417.5701 303.9693,418.5051 308.2664,423.8543 C316.8949,425.2371 319.3828,431.6141 315.0534,438.8584 C321.9292,448.0657 316.6093,453.6005 307.5409,455.6924 C304.1054,461.7395 299.8705,461.9468 295.5969,456.5685 C291.5995,462.6764 287.7729,462.9849 283.7263,456.6154 C279.4134,464.2407 274.4428,464.4727 269.3332,457.3953 C266.7919,464.6475 262.1561,465.1127 256.8931,460.1722 C252.9125,467.3008 247.9405,467.4139 243.8493,460.2734 C239.1762,465.7083 234.5206,466.6148 230.9208,459.1941 C226.109,465.4246 220.8657,464.0812 217.7146,457.4843 C212.4173,464.09 208.4651,462.3018 204.2732,456.3053 C200.974,461.6438 196.088,460.6372 193.1704,455.8854 C189.0704,462.5616 181.9286,461.897 178.4013,455.2505 C170.204,451.3343 168.5043,446.1078 174.8653,439.0199 C169.3995,432.6216 171.6703,426.6458 179.5642,424.6015" fill="#F1F1F1" style="stroke:#181818;stroke-width:0.5;"/><text fill="#000000" font-family="sans-serif" font-size="14" lengthAdjust="spacing" textLength="115.0762" x="185.3" y="443.2282">Amazon Cognito</text></g><!--entity CloudWatch--><g class="entity" data-entity="CloudWatch" data-source-line="18" data-uid="ent0007" id="entity_CloudWatch"><path d="M358.8362,423.2597 C363.0489,417.6506 367.4446,418.6159 371.0426,423.9458 C373.7992,419.1724 379.0654,418.6195 381.8738,423.8899 C384.4039,418.2369 389.8213,418.5937 393.042,423.1331 C395.5187,416.1465 401.3698,415.7348 405.2441,421.8292 C408.9755,415.8508 413.6074,416.1812 416.9129,422.2419 C420.3876,417.0546 424.1332,416.672 428.4297,421.2752 C431.6254,416.2515 436.2336,416.3009 439.2627,421.4525 C442.3191,416.6417 446.2122,415.805 449.7917,420.8962 C453.6503,414.9916 460.003,416.2159 462.645,422.2104 C465.2623,416.8531 469.9958,416.3444 473.0409,421.7992 C476.6288,417.614 481.9652,418.6756 483.7256,423.879 C486.3463,417.4766 491.86,416.6996 495.9579,422.384 C499.7331,417.6787 502.8853,418.4862 506.227,422.8736 C511.6098,416.905 515.6488,418.6389 519.2575,424.7822 C528.8222,426.7008 531.8356,432.3388 525.156,440.3946 C529.4569,447.6214 527.972,452.8499 519.2265,454.65 C516.3462,459.93 511.2353,459.2039 508.3072,454.7034 C505.1785,459.869 499.5588,460.1026 496.1939,454.9817 C494.1521,460.83 488.9152,460.8937 485.1878,456.8589 C481.8563,463.5339 477.3249,463.5602 472.6571,458.2568 C468.9073,464.2817 463.86,463.9494 460.8817,457.5268 C458.0607,463.1457 453.1027,463.8747 449.5625,458.2508 C446.4279,463.282 443.2449,464.0691 439.1169,459.3109 C434.6967,465.2576 430.7057,464.199 427.37,458.2409 C424.2022,463.9758 418.9101,463.3329 416.4449,457.5731 C412.9378,463.7097 408.5842,462.5858 405.1262,457.5234 C402.0999,462.4144 396.5188,463.0317 393.3975,457.6317 C389.0225,461.8623 384.5397,461.6032 381.6069,455.917 C378.6788,461.7686 373.0241,461.2133 369.7689,456.276 C366.5481,460.5507 361.559,461.2964 359.1861,455.3943 C351.3238,451.788 348.878,446.0057 355.9816,439.4008 C349.2829,433.8714 351.0934,426.2351 358.8362,423.2597" fill="#F1F1F1" style="stroke:#181818;stroke-width:0.5;"/><text fill="#000000" font-family="sans-serif" font-size="14" lengthAdjust="spacing" textLength="145.5029" x="365.09" y="443.2282">Amazon CloudWatch</text></g><!--link User to API--><g class="link" data-entity-1="User" data-entity-2="API" data-source-line="23" data-uid="lnk8" id="link_User_API"><path d="M242.84,162.2631 C242.84,196.3531 242.84,239.8031 242.84,269.6131" fill="none" id="User-to-API" style="stroke:#181818;stroke-width:1;"/><polygon fill="#181818" points="242.84,275.6131,246.84,266.6131,242.84,270.6131,238.84,266.6131,242.84,275.6131" style="stroke:#181818;stroke-width:1;"/><text fill="#000000" font-family="sans-serif" font-size="13" lengthAdjust="spacing" textLength="143.6157" x="243.84" y="205.06">HTTPS REST Requests</text></g><!--link API to RDS--><g class="link" data-entity-1="API" data-entity-2="RDS" data-source-line="24" data-uid="lnk9" id="link_API_RDS"><path d="M172.91,317.5531 C145.44,326.1331 115.39,339.6231 93.84,360.5931 C81,373.0731 74.8272,385.7401 70.0872,401.4101" fill="none" id="API-to-RDS" style="stroke:#181818;stroke-width:1;"/><polygon fill="#181818" points="68.35,407.1531,74.7845,399.6967,69.7977,402.3673,67.1271,397.3805,68.35,407.1531" style="stroke:#181818;stroke-width:1;"/><text fill="#000000" font-family="sans-serif" font-size="13" lengthAdjust="spacing" textLength="139.9976" x="94.84" y="373.66">Query movies/ratings</text></g><!--link API to Cognito--><g class="link" data-entity-1="API" data-entity-2="Cognito" data-source-line="25" data-uid="lnk10" id="link_API_Cognito"><path d="M242.84,328.8331 C242.84,353.7531 242.84,385.2931 242.84,409.0631" fill="none" id="API-to-Cognito" style="stroke:#181818;stroke-width:1;"/><polygon fill="#181818" points="242.84,415.0631,246.84,406.0631,242.84,410.0631,238.84,406.0631,242.84,415.0631" style="stroke:#181818;stroke-width:1;"/><text fill="#000000" font-family="sans-serif" font-size="13" lengthAdjust="spacing" textLength="146.0532" x="243.84" y="373.66">Validate Access Token</text></g><!--link API to CloudWatch--><g class="link" data-entity-1="API" data-entity-2="CloudWatch" data-source-line="26" data-uid="lnk11" id="link_API_CloudWatch"><path d="M312.85,317.0231 C342.1,325.5931 374.79,339.2231 398.84,360.5931 C415.16,375.0931 423.5829,392.3648 429.4929,409.3948" fill="none" id="API-to-CloudWatch" style="stroke:#181818;stroke-width:1;"/><polygon fill="#181818" points="431.46,415.0631,432.2882,405.2492,429.8207,410.3395,424.7304,407.872,431.46,415.0631" style="stroke:#181818;stroke-width:1;"/><text fill="#000000" font-family="sans-serif" font-size="13" lengthAdjust="spacing" textLength="90.0542" x="413.84" y="373.66">Logs / Metrics</text></g><!--SRC=[RP5DJnj138Rl_XLME50EY8XAg20KAH-RWaIba0rmwSNCciqqcnawuoq1rFzUpn2I23edVpn-FRRtiMH1cJC-U2SOxGiZkGgDRtpGMCWvnqyeLXg6kB3kaG8jyOAfuZ3MgZ8L7NV_cnjcdRsklcy3cESuzbaSuQKJ3d-iIa-2_yL60FQnMDaerjMVscL_q-rh5t80XnhXbU38KgqO01dHXfrYfUAE6ho973f8CHi0GVkGgxMoqr_IYtVOdrpYTn9-ekSEdf-lpLuFNm7rxHGKmnB756ebVhelvMD8_nnuBqdZ83TH0_u2L2HqJt7RP3egjMJYezI1o-khDrgZO1hVLXjkw6jdnUVislv89E-EnCpVe8sRjZVY1-iOJHl5BtTk-7dKdSrEtoSSa5dKmRUkobVRtSLUSJ8-BKu0qXRnyB2NjSxmOZQRb3WjofdA_6uvIeIKIOHEfyHro-4PbruF7Oy2fTjkaVM8YjrIOtLhZ7rZE4QS-GMxBRUPKj4hNqSymXyimPhu3m00]--></g></svg>