<svg xmlns="http://www.w3.org/2000/svg" xmlns:xlink="http://www.w3.org/1999/xlink" contentStyleType="text/css" data-diagram-type="DESCRIPTION" height="340px" preserveAspectRatio="none" style="width:371px;height:340px;background:#FFFFFF;" version="1.1" viewBox="0 0 371 340" width="371px" zoomAndPan="magnify"><defs/><g><!--cluster Client--><g class="cluster" data-entity="Client" data-source-line="1" data-uid="ent0002" id="cluster_Client"><polygon fill="none" points="74.32,16,84.32,6,284.32,6,284.32,98.3,274.32,108.3,74.32,108.3,74.32,16" style="stroke:#181818;stroke-width:1;"/><line style="stroke:#181818;stroke-width:1;" x1="274.32" x2="284.32" y1="16" y2="6"/><line style="stroke:#181818;stroke-width:1;" x1="74.32" x2="274.32" y1="16" y2="16"/><line style="stroke:#181818;stroke-width:1;" x1="274.32" x2="274.32" y1="16" y2="108.3"/><text fill="#000000" font-family="sans-serif" font-size="14" font-weight="bold" lengthAdjust="spacing" textLength="46.0264" x="152.3068" y="31.9951">Client</text></g><!--cluster API Server--><g class="cluster" data-entity="API Server" data-source-line="5" data-uid="ent0004" id="cluster_API Server"><polygon fill="none" points="100.32,142.3,110.32,132.3,259.32,132.3,259.32,224.59,249.32,234.59,100.32,234.59,100.32,142.3" style="stroke:#181818;stroke-width:1;"/><line style="stroke:#181818;stroke-width:1;" x1="249.32" x2="259.32" y1="142.3" y2="132.3"/><line style="stroke:#181818;stroke-width:1;" x1="100.32" x2="249.32" y1="142.3" y2="142.3"/><line style="stroke:#181818;stroke-width:1;" x1="249.32" x2="249.32" y1="142.3" y2="234.59"/><text fill="#000000" font-family="sans-serif" font-size="14" font-weight="bold" lengthAdjust="spacing" textLength="83.1865" x="134.2267" y="158.2951">API Server</text></g><!--entity Browser / API Client--><g class="entity" data-entity="Browser / API Client" data-source-line="2" data-uid="ent0003" id="entity_Browser / API Client"><rect fill="#F1F1F1" height="46.2969" rx="2.5" ry="2.5" style="stroke:#181818;stroke-width:0.5;" width="177.7852" x="90.42" y="46"/><rect fill="#F1F1F1" height="10" style="stroke:#181818;stroke-width:0.5;" width="15" x="248.2052" y="51"/><rect fill="#F1F1F1" height="2" style="stroke:#181818;stroke-width:0.5;" width="4" x="246.2052" y="53"/><rect fill="#F1F1F1" height="2" style="stroke:#181818;stroke-width:0.5;" width="4" x="246.2052" y="57"/><text fill="#000000" font-family="sans-serif" font-size="14" lengthAdjust="spacing" textLength="137.7852" x="105.42" y="78.9951">Browser / API Client</text></g><!--entity NodeJS App--><g class="entity" data-entity="NodeJS App" data-source-line="6" data-uid="ent0005" id="entity_NodeJS App"><rect fill="#F1F1F1" height="46.2969" rx="2.5" ry="2.5" style="stroke:#181818;stroke-width:0.5;" width="121.3545" x="118.64" y="172.3"/><rect fill="#F1F1F1" height="10" style="stroke:#181818;stroke-width:0.5;" width="15" x="219.9945" y="177.3"/><rect fill="#F1F1F1" height="2" style="stroke:#181818;stroke-width:0.5;" width="4" x="217.9945" y="179.3"/><rect fill="#F1F1F1" height="2" style="stroke:#181818;stroke-width:0.5;" width="4" x="217.9945" y="183.3"/><text fill="#000000" font-family="sans-serif" font-size="14" lengthAdjust="spacing" textLength="81.3545" x="133.64" y="205.2951">NodeJS App</text></g><!--entity MovieDB--><g class="entity" data-entity="MovieDB" data-source-line="9" data-uid="ent0006" id="entity_MovieDB"><path d="M6,288.59 C6,278.59 83.3169,278.59 83.3169,278.59 C83.3169,278.59 160.6338,278.59 160.6338,288.59 L160.6338,313.8869 C160.6338,323.8869 83.3169,323.8869 83.3169,323.8869 C83.3169,323.8869 6,323.8869 6,313.8869 L6,288.59" fill="#F1F1F1" style="stroke:#181818;stroke-width:0.5;"/><path d="M6,288.59 C6,298.59 83.3169,298.59 83.3169,298.59 C83.3169,298.59 160.6338,298.59 160.6338,288.59" fill="none" style="stroke:#181818;stroke-width:0.5;"/><text fill="#000000" font-family="sans-serif" font-size="14" lengthAdjust="spacing" textLength="134.6338" x="16" y="315.5851">SQLite DB (Movies)</text></g><!--entity RatingsDB--><g class="entity" data-entity="RatingsDB" data-source-line="10" data-uid="ent0007" id="entity_RatingsDB"><path d="M195.99,288.59 C195.99,278.59 275.3132,278.59 275.3132,278.59 C275.3132,278.59 354.6365,278.59 354.6365,288.59 L354.6365,313.8869 C354.6365,323.8869 275.3132,323.8869 275.3132,323.8869 C275.3132,323.8869 195.99,323.8869 195.99,313.8869 L195.99,288.59" fill="#F1F1F1" style="stroke:#181818;stroke-width:0.5;"/><path d="M195.99,288.59 C195.99,298.59 275.3132,298.59 275.3132,298.59 C275.3132,298.59 354.6365,298.59 354.6365,288.59" fill="none" style="stroke:#181818;stroke-width:0.5;"/><text fill="#000000" font-family="sans-serif" font-size="14" lengthAdjust="spacing" textLength="138.6465" x="205.99" y="315.5851">SQLite DB (Ratings)</text></g><!--link Browser / API Client to NodeJS App--><g class="link" data-entity-1="Browser / API Client" data-entity-2="NodeJS App" data-source-line="12" data-uid="lnk8" id="link_Browser / API Client_NodeJS App"><path d="M179.32,92.66 C179.32,115.18 179.32,143.64 179.32,166.1" fill="none" id="Browser / API Client-to-NodeJS App" style="stroke:#181818;stroke-width:1;"/><polygon fill="#181818" points="179.32,172.1,183.32,163.1,179.32,167.1,175.32,163.1,179.32,172.1" style="stroke:#181818;stroke-width:1;"/></g><!--link NodeJS App to MovieDB--><g class="link" data-entity-1="NodeJS App" data-entity-2="MovieDB" data-source-line="13" data-uid="lnk9" id="link_NodeJS App_MovieDB"><path d="M158.49,218.97 C142.27,236.5 123.9625,256.2838 107.8525,273.7138" fill="none" id="NodeJS App-to-MovieDB" style="stroke:#181818;stroke-width:1;"/><polygon fill="#181818" points="103.78,278.12,112.8262,274.2257,107.1738,274.4482,106.9513,268.7957,103.78,278.12" style="stroke:#181818;stroke-width:1;"/></g><!--link NodeJS App to RatingsDB--><g class="link" data-entity-1="NodeJS App" data-entity-2="RatingsDB" data-source-line="14" data-uid="lnk10" id="link_NodeJS App_RatingsDB"><path d="M200.15,218.97 C216.36,236.5 234.6661,256.2851 250.7861,273.7151" fill="none" id="NodeJS App-to-RatingsDB" style="stroke:#181818;stroke-width:1;"/><polygon fill="#181818" points="254.86,278.12,251.6858,268.7967,251.4651,274.4492,245.8126,274.2285,254.86,278.12" style="stroke:#181818;stroke-width:1;"/></g><!--SRC=[oyjFILLGSix9JCqhKLAevb9GY7OgoYylJYrIq5Tm3F1KW4Z5SjLoSUM1rO84WrEBobABeEhzWC9UmGgE1GLWLIc99Ob9YSL0bS61FfabgGekJWeQllbbcQd5caeAYSKAOBQB4tQ5GOabcNdfK9LG3b0j5tPNAUZgsg4w09a3beNPXY41Dnm0]--></g></svg>