<svg xmlns="http://www.w3.org/2000/svg" xmlns:xlink="http://www.w3.org/1999/xlink" contentStyleType="text/css" data-diagram-type="DESCRIPTION" height="953px" preserveAspectRatio="none" style="width:1293px;height:953px;background:#FFFFFF;" version="1.1" viewBox="0 0 1293 953" width="1293px" zoomAndPan="magnify"><title>09_Physical_Deployment_Diagram</title><defs/><g><text fill="#00008B" font-family="sans-serif" font-size="20" lengthAdjust="spacing" textLength="233.6914" x="1045.3183" y="18.5645">Aetna Interview Project</text><g class="title" data-source-line="8"><text fill="#000000" font-family="sans-serif" font-size="30" font-weight="bold" lengthAdjust="spacing" textLength="573.7793" x="352.6152" y="62.1279">09_Physical_Deployment_Diagram</text></g><!--cluster AWS Cloud--><g class="cluster" data-entity="AWS Cloud" data-source-line="10" data-uid="ent0002" id="cluster_AWS Cloud"><path d="M60.325,233.1317 C90.6086,186.3838 131.9573,189.9841 155.0916,240.1245 C175.5017,207.4653 208.203,205.2455 228.7866,239.9347 C256.5535,196.7999 285.345,199.8661 315.9136,236.8894 C335.5819,205.1362 372.8055,203.2874 392.8372,236.4589 C416.2054,192.9199 459.0739,188.8038 481.4717,237.3925 C509.8364,192.0165 536.6313,185.4845 570.2419,232.3437 C597.6856,202.4118 624.418,199.8956 648.1395,236.6891 C673.256,194.4429 702.3362,190.3645 732.9012,231.1254 C757.7726,193.8684 786.2956,192.0562 809.3717,232.8836 C832.552,195.4209 874.2637,189.2983 897.4402,232.8878 C923.8882,204.1508 955.9624,202.569 975.2976,241.118 C997.8154,192.9173 1027.5302,195.4273 1059.1032,232.1857 C1091.6097,196.9762 1123.3839,202.8184 1143.5773,245.5337 C1168.6141,204.5534 1196.2937,204.865 1226.4207,239.9931 C1230.149,241.5204 1230.2603,244.2248 1227.2385,246.5889 C1270.9573,271.0977 1269.2209,298.7265 1231.293,327.335 C1263.6337,353.1551 1263.9565,381.644 1231.6247,407.7309 C1271.1662,431.5581 1286.0097,457.2624 1243.6213,492.6622 C1278.7287,520.4132 1276.493,545.2777 1237.4259,566.833 C1278.4617,592.8274 1273.0647,624.5349 1234.6409,647.7961 C1266.673,667.7858 1265.0466,701.8204 1233.4419,720.7646 C1272.7535,745.7273 1272.2213,776.1351 1230.8721,798.4288 C1270.0794,830.0475 1266.5734,864.0968 1219.4207,884.1831 C1223.0522,883.1723 1226.002,884.8545 1225.2343,889.0735 C1203.1225,928.178 1171.5372,936.0596 1144.8428,893.5896 C1122.7761,939.015 1086.7752,928.1142 1063.0044,895.3737 C1038.5579,937.1802 998.535,930.9876 976.9017,892.3621 C956.5621,930.4654 926.6209,926.5635 902.3737,896.6435 C879.6298,938.9144 837.9784,938.5052 812.4993,899.6744 C782.6794,932.3335 755.1863,939.3161 731.4128,893.4323 C703.2106,936.5346 668.5463,932.7807 646.2253,887.7478 C626.1992,930.0903 589.7758,935.3239 558.2831,900.8803 C532.3853,935.7425 510.3304,939.7069 485.7743,899.583 C454.2848,946.1021 425.0206,935.9884 395.8372,897.1531 C365.549,930.7542 327.8213,934.0532 307.8904,885.9979 C290.7809,928.1831 259.5953,929.4884 230.3345,898.958 C204.7575,933.4482 164.4009,928.9847 145.8068,890.8326 C115.129,932.1488 70.138,918.5736 51.4207,877.1831 C60.3568,875.0448 64.3335,879.9226 62.1233,888.41 C23.5362,867.0778 18.247,834.1858 53.7408,805.3749 C14.5135,783.1407 6.9626,748.6264 48.6646,721.4946 C20.3303,696.1459 22.9264,663.6826 58.8711,647.1598 C24.8812,624.1975 21.546,596.1879 54.549,569.4973 C10.0828,546.9017 6,513.7517 47.0336,483.6694 C8.867,457.8084 13.383,420.6872 58.1564,406.8325 C12.1134,383.1761 13.8758,342.8503 59.3593,320.4688 C23.7186,290.447 23.3486,263.7736 58.4207,232.9931 C59.0904,232.187 59.7854,232.151 60.325,233.1317" fill="none" style="stroke:#181818;stroke-width:1;"/><text fill="#000000" font-family="sans-serif" font-size="14" font-weight="bold" lengthAdjust="spacing" textLength="85.9141" x="595.9637" y="250.9882">AWS Cloud</text></g><!--cluster VPC (10.0.0.0/16)--><g class="cluster" data-entity="VPC (10.0.0.0/16)" data-source-line="11" data-uid="ent0003" id="cluster_VPC (10.0.0.0/16)"><polygon fill="none" points="67.4207,277.9931,77.4207,267.9931,1210.4207,267.9931,1210.4207,858.1831,1200.4207,868.1831,67.4207,868.1831,67.4207,277.9931" style="stroke:#181818;stroke-width:1;"/><line style="stroke:#181818;stroke-width:1;" x1="1200.4207" x2="1210.4207" y1="277.9931" y2="267.9931"/><line style="stroke:#181818;stroke-width:1;" x1="67.4207" x2="1200.4207" y1="277.9931" y2="277.9931"/><line style="stroke:#181818;stroke-width:1;" x1="1200.4207" x2="1200.4207" y1="277.9931" y2="868.1831"/><text fill="#000000" font-family="sans-serif" font-size="14" font-weight="bold" lengthAdjust="spacing" textLength="138.2979" x="565.7718" y="293.9882">VPC (10.0.0.0/16)</text></g><!--cluster Public Subnet--><g class="cluster" data-entity="Public Subnet" data-source-line="12" data-uid="ent0004" id="cluster_Public Subnet"><polygon fill="none" points="137.4207,325.9931,147.4207,315.9931,322.4207,315.9931,322.4207,408.2931,312.4207,418.2931,137.4207,418.2931,137.4207,325.9931" style="stroke:#181818;stroke-width:1;"/><line style="stroke:#181818;stroke-width:1;" x1="312.4207" x2="322.4207" y1="325.9931" y2="315.9931"/><line style="stroke:#181818;stroke-width:1;" x1="137.4207" x2="312.4207" y1="325.9931" y2="325.9931"/><line style="stroke:#181818;stroke-width:1;" x1="312.4207" x2="312.4207" y1="325.9931" y2="418.2931"/><text fill="#000000" font-family="sans-serif" font-size="14" font-weight="bold" lengthAdjust="spacing" textLength="109.2451" x="171.2981" y="341.9882">Public Subnet</text></g><!--cluster Private Subnet--><g class="cluster" data-entity="Private Subnet" data-source-line="16" data-uid="ent0006" id="cluster_Private Subnet"><polygon fill="none" points="91.4207,477.2931,101.4207,467.2931,349.4207,467.2931,349.4207,708.8831,339.4207,718.8831,91.4207,718.8831,91.4207,477.2931" style="stroke:#181818;stroke-width:1;"/><line style="stroke:#181818;stroke-width:1;" x1="339.4207" x2="349.4207" y1="477.2931" y2="467.2931"/><line style="stroke:#181818;stroke-width:1;" x1="91.4207" x2="339.4207" y1="477.2931" y2="477.2931"/><line style="stroke:#181818;stroke-width:1;" x1="339.4207" x2="339.4207" y1="477.2931" y2="718.8831"/><text fill="#000000" font-family="sans-serif" font-size="14" font-weight="bold" lengthAdjust="spacing" textLength="117.8242" x="157.5086" y="493.2882">Private Subnet</text></g><!--cluster Shared Services--><g class="cluster" data-entity="Shared Services" data-source-line="21" data-uid="ent0009" id="cluster_Shared Services"><polygon fill="none" points="373.4207,626.5931,383.4207,616.5931,1186.4207,616.5931,1186.4207,834.1831,1176.4207,844.1831,373.4207,844.1831,373.4207,626.5931" style="stroke:#181818;stroke-width:1;"/><line style="stroke:#181818;stroke-width:1;" x1="1176.4207" x2="1186.4207" y1="626.5931" y2="616.5931"/><line style="stroke:#181818;stroke-width:1;" x1="373.4207" x2="1176.4207" y1="626.5931" y2="626.5931"/><line style="stroke:#181818;stroke-width:1;" x1="1176.4207" x2="1176.4207" y1="626.5931" y2="844.1831"/><text fill="#000000" font-family="sans-serif" font-size="14" font-weight="bold" lengthAdjust="spacing" textLength="127.3262" x="712.2576" y="642.5882">Shared Services</text></g><!--entity API Gateway--><g class="entity" data-entity="API Gateway" data-source-line="13" data-uid="ent0005" id="entity_API Gateway"><rect fill="#F1F1F1" height="46.2969" rx="2.5" ry="2.5" style="stroke:#181818;stroke-width:0.5;" width="128.4434" x="165.2007" y="355.9931"/><rect fill="#F1F1F1" height="10" style="stroke:#181818;stroke-width:0.5;" width="15" x="273.6441" y="360.9931"/><rect fill="#F1F1F1" height="2" style="stroke:#181818;stroke-width:0.5;" width="4" x="271.6441" y="362.9931"/><rect fill="#F1F1F1" height="2" style="stroke:#181818;stroke-width:0.5;" width="4" x="271.6441" y="366.9931"/><text fill="#000000" font-family="sans-serif" font-size="14" lengthAdjust="spacing" textLength="88.4434" x="180.2007" y="388.9882">API Gateway</text></g><!--entity ECS Fargate - Movie API--><g class="entity" data-entity="ECS Fargate - Movie API" data-source-line="17" data-uid="ent0007" id="entity_ECS Fargate - Movie API"><rect fill="#F1F1F1" height="46.2969" rx="2.5" ry="2.5" style="stroke:#181818;stroke-width:0.5;" width="207.8975" x="125.4707" y="507.2931"/><rect fill="#F1F1F1" height="10" style="stroke:#181818;stroke-width:0.5;" width="15" x="313.3682" y="512.2931"/><rect fill="#F1F1F1" height="2" style="stroke:#181818;stroke-width:0.5;" width="4" x="311.3682" y="514.2931"/><rect fill="#F1F1F1" height="2" style="stroke:#181818;stroke-width:0.5;" width="4" x="311.3682" y="518.2931"/><text fill="#000000" font-family="sans-serif" font-size="14" lengthAdjust="spacing" textLength="167.8975" x="140.4707" y="540.2882">ECS Fargate - Movie API</text></g><!--entity Amazon RDS - PostgreSQL--><g class="entity" data-entity="Amazon RDS - PostgreSQL" data-source-line="18" data-uid="ent0008" id="entity_Amazon RDS - PostgreSQL"><rect fill="#F1F1F1" height="46.2969" rx="2.5" ry="2.5" style="stroke:#181818;stroke-width:0.5;" width="225.1309" x="107.8507" y="656.5931"/><rect fill="#F1F1F1" height="10" style="stroke:#181818;stroke-width:0.5;" width="15" x="312.9816" y="661.5931"/><rect fill="#F1F1F1" height="2" style="stroke:#181818;stroke-width:0.5;" width="4" x="310.9816" y="663.5931"/><rect fill="#F1F1F1" height="2" style="stroke:#181818;stroke-width:0.5;" width="4" x="310.9816" y="667.5931"/><text fill="#000000" font-family="sans-serif" font-size="14" lengthAdjust="spacing" textLength="185.1309" x="122.8507" y="689.5882">Amazon RDS - PostgreSQL</text></g><!--entity Amazon Cognito--><g class="entity" data-entity="Amazon Cognito" data-source-line="22" data-uid="ent0010" id="entity_Amazon Cognito"><rect fill="#F1F1F1" height="46.2969" rx="2.5" ry="2.5" style="stroke:#181818;stroke-width:0.5;" width="155.0762" x="389.8807" y="656.5931"/><rect fill="#F1F1F1" height="10" style="stroke:#181818;stroke-width:0.5;" width="15" x="524.9569" y="661.5931"/><rect fill="#F1F1F1" height="2" style="stroke:#181818;stroke-width:0.5;" width="4" x="522.9569" y="663.5931"/><rect fill="#F1F1F1" height="2" style="stroke:#181818;stroke-width:0.5;" width="4" x="522.9569" y="667.5931"/><text fill="#000000" font-family="sans-serif" font-size="14" lengthAdjust="spacing" textLength="115.0762" x="404.8807" y="689.5882">Amazon Cognito</text></g><!--entity AWS Secrets Manager--><g class="entity" data-entity="AWS Secrets Manager" data-source-line="23" data-uid="ent0011" id="entity_AWS Secrets Manager"><rect fill="#F1F1F1" height="46.2969" rx="2.5" ry="2.5" style="stroke:#181818;stroke-width:0.5;" width="194.9229" x="579.9607" y="656.5931"/><rect fill="#F1F1F1" height="10" style="stroke:#181818;stroke-width:0.5;" width="15" x="754.8835" y="661.5931"/><rect fill="#F1F1F1" height="2" style="stroke:#181818;stroke-width:0.5;" width="4" x="752.8835" y="663.5931"/><rect fill="#F1F1F1" height="2" style="stroke:#181818;stroke-width:0.5;" width="4" x="752.8835" y="667.5931"/><text fill="#000000" font-family="sans-serif" font-size="14" lengthAdjust="spacing" textLength="154.9229" x="594.9607" y="689.5882">AWS Secrets Manager</text></g><!--entity AWS Systems Manager--><g class="entity" data-entity="AWS Systems Manager" data-source-line="24" data-uid="ent0012" id="entity_AWS Systems Manager"><rect fill="#F1F1F1" height="46.2969" rx="2.5" ry="2.5" style="stroke:#181818;stroke-width:0.5;" width="202.0732" x="809.3807" y="656.5931"/><rect fill="#F1F1F1" height="10" style="stroke:#181818;stroke-width:0.5;" width="15" x="991.4539" y="661.5931"/><rect fill="#F1F1F1" height="2" style="stroke:#181818;stroke-width:0.5;" width="4" x="989.4539" y="663.5931"/><rect fill="#F1F1F1" height="2" style="stroke:#181818;stroke-width:0.5;" width="4" x="989.4539" y="667.5931"/><text fill="#000000" font-family="sans-serif" font-size="14" lengthAdjust="spacing" textLength="162.0732" x="824.3807" y="689.5882">AWS Systems Manager</text></g><!--entity CloudWatch--><g class="entity" data-entity="CloudWatch" data-source-line="25" data-uid="ent0013" id="entity_CloudWatch"><rect fill="#F1F1F1" height="46.2969" rx="2.5" ry="2.5" style="stroke:#181818;stroke-width:0.5;" width="124.4717" x="1046.1807" y="656.5931"/><rect fill="#F1F1F1" height="10" style="stroke:#181818;stroke-width:0.5;" width="15" x="1150.6524" y="661.5931"/><rect fill="#F1F1F1" height="2" style="stroke:#181818;stroke-width:0.5;" width="4" x="1148.6524" y="663.5931"/><rect fill="#F1F1F1" height="2" style="stroke:#181818;stroke-width:0.5;" width="4" x="1148.6524" y="667.5931"/><text fill="#000000" font-family="sans-serif" font-size="14" lengthAdjust="spacing" textLength="84.4717" x="1061.1807" y="689.5882">CloudWatch</text></g><!--entity SNS (Alerts)--><g class="entity" data-entity="SNS (Alerts)" data-source-line="26" data-uid="ent0014" id="entity_SNS (Alerts)"><rect fill="#F1F1F1" height="46.2969" rx="2.5" ry="2.5" style="stroke:#181818;stroke-width:0.5;" width="124.2393" x="974.3007" y="781.8831"/><rect fill="#F1F1F1" height="10" style="stroke:#181818;stroke-width:0.5;" width="15" x="1078.54" y="786.8831"/><rect fill="#F1F1F1" height="2" style="stroke:#181818;stroke-width:0.5;" width="4" x="1076.54" y="788.8831"/><rect fill="#F1F1F1" height="2" style="stroke:#181818;stroke-width:0.5;" width="4" x="1076.54" y="792.8831"/><text fill="#000000" font-family="sans-serif" font-size="14" lengthAdjust="spacing" textLength="84.2393" x="989.3007" y="814.8782">SNS (Alerts)</text></g><!--entity User--><g class="entity" data-entity="User" data-source-line="31" data-uid="ent0015" id="entity_User"><ellipse cx="229.4164" cy="94.2031" fill="#F1F1F1" rx="8" ry="8" style="stroke:#181818;stroke-width:0.5;"/><path d="M229.4164,102.2031 L229.4164,129.2031 M216.4164,110.2031 L242.4164,110.2031 M229.4164,129.2031 L216.4164,144.2031 M229.4164,129.2031 L242.4164,144.2031" fill="none" style="stroke:#181818;stroke-width:0.5;"/><text fill="#000000" font-family="sans-serif" font-size="14" lengthAdjust="spacing" textLength="94.6914" x="182.0707" y="158.6982">External User</text></g><!--link User to API Gateway--><g class="link" data-entity-1="User" data-entity-2="API Gateway" data-source-line="33" data-uid="lnk16" id="link_User_API Gateway"><path d="M229.4207,162.4931 C229.4207,215.9631 229.4207,306.2431 229.4207,349.7331" fill="none" id="User-to-API Gateway" style="stroke:#181818;stroke-width:1;"/><polygon fill="#181818" points="229.4207,355.7331,233.4207,346.7331,229.4207,350.7331,225.4207,346.7331,229.4207,355.7331" style="stroke:#181818;stroke-width:1;"/><text fill="#000000" font-family="sans-serif" font-size="13" lengthAdjust="spacing" textLength="99.271" x="230.4207" y="205.06">HTTPS Request</text></g><!--link API Gateway to ECS Fargate - Movie API--><g class="link" data-entity-1="API Gateway" data-entity-2="ECS Fargate - Movie API" data-source-line="34" data-uid="lnk17" id="link_API Gateway_ECS Fargate - Movie API"><path d="M229.4207,402.4931 C229.4207,430.6431 229.4207,472.7231 229.4207,500.9331" fill="none" id="API Gateway-to-ECS Fargate - Movie API" style="stroke:#181818;stroke-width:1;"/><polygon fill="#181818" points="229.4207,506.9331,233.4207,497.9331,229.4207,501.9331,225.4207,497.9331,229.4207,506.9331" style="stroke:#181818;stroke-width:1;"/><text fill="#000000" font-family="sans-serif" font-size="13" lengthAdjust="spacing" textLength="102.6162" x="230.4207" y="447.36">Routes Request</text></g><!--link ECS Fargate - Movie API to Amazon RDS - PostgreSQL--><g class="link" data-entity-1="ECS Fargate - Movie API" data-entity-2="Amazon RDS - PostgreSQL" data-source-line="35" data-uid="lnk18" id="link_ECS Fargate - Movie API_Amazon RDS - PostgreSQL"><path d="M228.0507,553.8131 C226.3607,581.4931 223.8672,622.3843 222.1672,650.1643" fill="none" id="ECS Fargate - Movie API-to-Amazon RDS - PostgreSQL" style="stroke:#181818;stroke-width:1;"/><polygon fill="#181818" points="221.8007,656.1531,226.343,647.4143,222.1061,651.1625,218.3579,646.9256,221.8007,656.1531" style="stroke:#181818;stroke-width:1;"/><text fill="#000000" font-family="sans-serif" font-size="13" lengthAdjust="spacing" textLength="67.793" x="226.4207" y="596.66">DB Access</text></g><!--link ECS Fargate - Movie API to Amazon Cognito--><g class="link" data-entity-1="ECS Fargate - Movie API" data-entity-2="Amazon Cognito" data-source-line="36" data-uid="lnk19" id="link_ECS Fargate - Movie API_Amazon Cognito"><path d="M265.8307,553.9731 C310.6207,581.6931 381.1293,625.3248 425.9193,653.0548" fill="none" id="ECS Fargate - Movie API-to-Amazon Cognito" style="stroke:#181818;stroke-width:1;"/><polygon fill="#181818" points="431.0207,656.2131,425.4741,648.0746,426.7695,653.5812,421.263,654.8765,431.0207,656.2131" style="stroke:#181818;stroke-width:1;"/><text fill="#000000" font-family="sans-serif" font-size="13" lengthAdjust="spacing" textLength="30.4688" x="334.4207" y="596.66">Auth</text></g><!--link ECS Fargate - Movie API to CloudWatch--><g class="link" data-entity-1="ECS Fargate - Movie API" data-entity-2="CloudWatch" data-source-line="37" data-uid="lnk20" id="link_ECS Fargate - Movie API_CloudWatch"><path d="M333.8007,537.6731 C460.3407,545.7531 679.9307,561.4931 867.4207,583.5931 C939.7707,592.1131 963.4907,577.5831 1029.4207,608.5931 C1053.1507,619.7531 1070.9615,635.9147 1085.6515,651.9047" fill="none" id="ECS Fargate - Movie API-to-CloudWatch" style="stroke:#181818;stroke-width:1;"/><polygon fill="#181818" points="1089.7107,656.3231,1086.5675,646.9893,1086.328,652.6411,1080.6762,652.4016,1089.7107,656.3231" style="stroke:#181818;stroke-width:1;"/><text fill="#000000" font-family="sans-serif" font-size="13" lengthAdjust="spacing" textLength="95.8115" x="1011.4207" y="596.66">Logs &amp; Metrics</text></g><!--link ECS Fargate - Movie API to AWS Secrets Manager--><g class="link" data-entity-1="ECS Fargate - Movie API" data-entity-2="AWS Secrets Manager" data-source-line="38" data-uid="lnk21" id="link_ECS Fargate - Movie API_AWS Secrets Manager"><path d="M333.6907,546.7531 C400.6907,558.7231 488.6607,578.4731 562.4207,608.5931 C592.7307,620.9631 619.3406,637.3779 641.7106,652.7979" fill="none" id="ECS Fargate - Movie API-to-AWS Secrets Manager" style="stroke:#181818;stroke-width:1;"/><polygon fill="#181818" points="646.6507,656.2031,641.5108,647.8019,642.534,653.3654,636.9704,654.3886,646.6507,656.2031" style="stroke:#181818;stroke-width:1;"/><text fill="#000000" font-family="sans-serif" font-size="13" lengthAdjust="spacing" textLength="115.7114" x="537.4207" y="596.66">DB/Token Secrets</text></g><!--link ECS Fargate - Movie API to AWS Systems Manager--><g class="link" data-entity-1="ECS Fargate - Movie API" data-entity-2="AWS Systems Manager" data-source-line="39" data-uid="lnk22" id="link_ECS Fargate - Movie API_AWS Systems Manager"><path d="M333.7807,531.8531 C449.4707,535.4331 639.8707,550.7431 792.4207,608.5931 C823.8407,620.5031 851.4916,637.1957 874.4416,652.8257" fill="none" id="ECS Fargate - Movie API-to-AWS Systems Manager" style="stroke:#181818;stroke-width:1;"/><polygon fill="#181818" points="879.4007,656.2031,874.2136,647.8309,875.2681,653.3886,869.7104,654.4431,879.4007,656.2031" style="stroke:#181818;stroke-width:1;"/><text fill="#000000" font-family="sans-serif" font-size="13" lengthAdjust="spacing" textLength="94.396" x="764.4207" y="596.66">Config Params</text></g><!--link CloudWatch to SNS (Alerts)--><g class="link" data-entity-1="CloudWatch" data-entity-2="SNS (Alerts)" data-source-line="40" data-uid="lnk23" id="link_CloudWatch_SNS (Alerts)"><path d="M1095.2107,703.3531 C1082.2207,725.6031 1065.5257,754.1815 1052.5657,776.3815" fill="none" id="CloudWatch-to-SNS (Alerts)" style="stroke:#181818;stroke-width:1;"/><polygon fill="#181818" points="1049.5407,781.5631,1057.5326,775.8073,1052.0615,777.2451,1050.6237,771.774,1049.5407,781.5631" style="stroke:#181818;stroke-width:1;"/><text fill="#000000" font-family="sans-serif" font-size="13" lengthAdjust="spacing" textLength="132.2407" x="1077.4207" y="747.95">Triggers Notification</text></g><!--SRC=[ZLDVJzim47_tfpXrqe27Zh19QDl3f92MWKHHLdVZOKALSQw9Hsep-mAKQTzz5rU5jhI3YsGv_lqv-yxU0Oa4L25Cd2K8vW51sGAqgvtdDHynYtT0XceKuThO6-NL54vG5UYFMILRqVja8vP5dpS9nySZKSLrI96iWbDBw6yDM-VU_K9DGkn0_zu4ChPybYx-FsRxa8Yu0CcdSLxDWj6g7lVmfdQpALeQzumgMIM4hbrJG2Uza92rqmxy4S1XNO7G-P5di7kGl8lV_i7XtW9-ekJDLMqqoERA8Yt3RVnCyrFugWZlrEpo4VahrZsykMNIDfD-9k5O-RAbT67Wk2R0nfThgQRgmLaOzYIJSXUez2Y_dVqdhQoKnu8Rp5NM69vlVkwOkT8QSklfk68IjKSAC51MbUWtCMQ1SBgD4Ij-eKXNQu0ybx2RrkWfx2qVO3xoGPGclZQT_ZrV4Qjg-1xGTq25E16Y7Q7R_RBQ0FWC9wDHBc68lniC95RHoDzMQzOENKCOdiHRgVF4Mzh1HhqZI3KNFBpIOz40bgODLI-fbghAYZDN1dWB0oHlzCiPDtGrxdX_vAxHBh1NsQordcqoPoUcXBnziEonlD4eMsaxyqVUb2mDSEx8JFWDat7s7m00]--></g></svg>