<svg xmlns="http://www.w3.org/2000/svg" xmlns:xlink="http://www.w3.org/1999/xlink" contentStyleType="text/css" data-diagram-type="DESCRIPTION" height="539px" preserveAspectRatio="none" style="width:1038px;height:539px;background:#FFFFFF;" version="1.1" viewBox="0 0 1038 539" width="1038px" zoomAndPan="magnify"><title>Logical Architecture</title><defs/><g><text fill="#00008B" font-family="sans-serif" font-size="20" lengthAdjust="spacing" textLength="233.6914" x="790.3086" y="18.5645">Aetna Interview Project</text><g class="title" data-source-line="8"><text fill="#000000" font-family="sans-serif" font-size="30" font-weight="bold" lengthAdjust="spacing" textLength="340.9863" x="341.5068" y="62.1279">Logical Architecture</text></g><!--cluster Movie API Service--><g class="cluster" data-entity="Movie API Service" data-source-line="16" data-uid="ent0002" id="cluster_Movie API Service"><path d="M8.5,86.2031 L150.7236,86.2031 A3.75,3.75 0 0 1 153.2236,88.7031 L160.2236,108.5 L540.5,108.5 A2.5,2.5 0 0 1 543,111 L543,529.8931 A2.5,2.5 0 0 1 540.5,532.3931 L8.5,532.3931 A2.5,2.5 0 0 1 6,529.8931 L6,88.7031 A2.5,2.5 0 0 1 8.5,86.2031" fill="#E6F9E6" style="stroke:#000000;stroke-width:1.5;"/><line style="stroke:#000000;stroke-width:1.5;" x1="6" x2="160.2236" y1="108.5" y2="108.5"/><text fill="#000000" font-family="sans-serif" font-size="14" font-weight="bold" lengthAdjust="spacing" textLength="141.2236" x="10" y="101.1982">Movie API Service</text><text fill="#000000" font-family="sans-serif" font-size="14" font-style="italic" lengthAdjust="spacing" textLength="141.3535" x="207.8232" y="123.4951">&#171;Movie API Service&#187;</text></g><!--cluster Security Module--><g class="cluster" data-entity="Security Module" data-source-line="25" data-uid="ent0009" id="cluster_Security Module"><path d="M825.5,199.5031 L954.5713,199.5031 A3.75,3.75 0 0 1 957.0713,202.0031 L964.0713,221.8 L1028.5,221.8 A2.5,2.5 0 0 1 1031,224.3 L1031,529.8931 A2.5,2.5 0 0 1 1028.5,532.3931 L825.5,532.3931 A2.5,2.5 0 0 1 823,529.8931 L823,202.0031 A2.5,2.5 0 0 1 825.5,199.5031" fill="#FFE4E1" style="stroke:#000000;stroke-width:1.5;"/><line style="stroke:#000000;stroke-width:1.5;" x1="823" x2="964.0713" y1="221.8" y2="221.8"/><text fill="#000000" font-family="sans-serif" font-size="14" font-weight="bold" lengthAdjust="spacing" textLength="128.0713" x="827" y="214.4982">Security Module</text><text fill="#000000" font-family="sans-serif" font-size="14" font-style="italic" lengthAdjust="spacing" textLength="129.9785" x="866.0107" y="236.7951">&#171;Security Module&#187;</text></g><!--cluster Config Management--><g class="cluster" data-entity="Config Management" data-source-line="31" data-uid="ent0013" id="cluster_Config Management"><path d="M569.5,312.8031 L729.1963,312.8031 A3.75,3.75 0 0 1 731.6963,315.3031 L738.6963,335.1 L796.5,335.1 A2.5,2.5 0 0 1 799,337.6 L799,423.5931 A2.5,2.5 0 0 1 796.5,426.0931 L569.5,426.0931 A2.5,2.5 0 0 1 567,423.5931 L567,315.3031 A2.5,2.5 0 0 1 569.5,312.8031" fill="#FFFFE0" style="stroke:#000000;stroke-width:1.5;"/><line style="stroke:#000000;stroke-width:1.5;" x1="567" x2="738.6963" y1="335.1" y2="335.1"/><text fill="#000000" font-family="sans-serif" font-size="14" font-weight="bold" lengthAdjust="spacing" textLength="158.6963" x="571" y="327.7982">Config Management</text><text fill="#000000" font-family="sans-serif" font-size="14" font-style="italic" lengthAdjust="spacing" textLength="158.7236" x="607.6382" y="350.0951">&#171;Config Management&#187;</text></g><!--entity MovieController--><g class="entity" data-entity="MovieController" data-source-line="17" data-uid="ent0003" id="entity_MovieController"><rect fill="#F1F1F1" height="46.2969" rx="2.5" ry="2.5" style="stroke:#181818;stroke-width:0.5;" width="150.6055" x="376.7" y="137.2031"/><rect fill="#F1F1F1" height="10" style="stroke:#181818;stroke-width:0.5;" width="15" x="507.3055" y="142.2031"/><rect fill="#F1F1F1" height="2" style="stroke:#181818;stroke-width:0.5;" width="4" x="505.3055" y="144.2031"/><rect fill="#F1F1F1" height="2" style="stroke:#181818;stroke-width:0.5;" width="4" x="505.3055" y="148.2031"/><text fill="#000000" font-family="sans-serif" font-size="14" lengthAdjust="spacing" textLength="110.6055" x="391.7" y="170.1982">MovieController</text></g><!--entity MovieService--><g class="entity" data-entity="MovieService" data-source-line="18" data-uid="ent0004" id="entity_MovieService"><rect fill="#F1F1F1" height="46.2969" rx="2.5" ry="2.5" style="stroke:#181818;stroke-width:0.5;" width="133.1738" x="385.41" y="250.5031"/><rect fill="#F1F1F1" height="10" style="stroke:#181818;stroke-width:0.5;" width="15" x="498.5838" y="255.5031"/><rect fill="#F1F1F1" height="2" style="stroke:#181818;stroke-width:0.5;" width="4" x="496.5838" y="257.5031"/><rect fill="#F1F1F1" height="2" style="stroke:#181818;stroke-width:0.5;" width="4" x="496.5838" y="261.5031"/><text fill="#000000" font-family="sans-serif" font-size="14" lengthAdjust="spacing" textLength="93.1738" x="400.41" y="283.4982">MovieService</text></g><!--entity RatingsService--><g class="entity" data-entity="RatingsService" data-source-line="19" data-uid="ent0005" id="entity_RatingsService"><rect fill="#F1F1F1" height="46.2969" rx="2.5" ry="2.5" style="stroke:#181818;stroke-width:0.5;" width="144.4805" x="21.76" y="363.8031"/><rect fill="#F1F1F1" height="10" style="stroke:#181818;stroke-width:0.5;" width="15" x="146.2405" y="368.8031"/><rect fill="#F1F1F1" height="2" style="stroke:#181818;stroke-width:0.5;" width="4" x="144.2405" y="370.8031"/><rect fill="#F1F1F1" height="2" style="stroke:#181818;stroke-width:0.5;" width="4" x="144.2405" y="374.8031"/><text fill="#000000" font-family="sans-serif" font-size="14" lengthAdjust="spacing" textLength="104.4805" x="36.76" y="396.7982">RatingsService</text></g><!--entity MovieRepository--><g class="entity" data-entity="MovieRepository" data-source-line="20" data-uid="ent0006" id="entity_MovieRepository"><rect fill="#F1F1F1" height="46.2969" rx="2.5" ry="2.5" style="stroke:#181818;stroke-width:0.5;" width="156.5049" x="200.75" y="363.8031"/><rect fill="#F1F1F1" height="10" style="stroke:#181818;stroke-width:0.5;" width="15" x="337.2549" y="368.8031"/><rect fill="#F1F1F1" height="2" style="stroke:#181818;stroke-width:0.5;" width="4" x="335.2549" y="370.8031"/><rect fill="#F1F1F1" height="2" style="stroke:#181818;stroke-width:0.5;" width="4" x="335.2549" y="374.8031"/><text fill="#000000" font-family="sans-serif" font-size="14" lengthAdjust="spacing" textLength="116.5049" x="215.75" y="396.7982">MovieRepository</text></g><!--entity RatingsRepository--><g class="entity" data-entity="RatingsRepository" data-source-line="21" data-uid="ent0007" id="entity_RatingsRepository"><rect fill="#F1F1F1" height="46.2969" rx="2.5" ry="2.5" style="stroke:#181818;stroke-width:0.5;" width="167.8115" x="22.09" y="470.0931"/><rect fill="#F1F1F1" height="10" style="stroke:#181818;stroke-width:0.5;" width="15" x="169.9015" y="475.0931"/><rect fill="#F1F1F1" height="2" style="stroke:#181818;stroke-width:0.5;" width="4" x="167.9015" y="477.0931"/><rect fill="#F1F1F1" height="2" style="stroke:#181818;stroke-width:0.5;" width="4" x="167.9015" y="481.0931"/><text fill="#000000" font-family="sans-serif" font-size="14" lengthAdjust="spacing" textLength="127.8115" x="37.09" y="503.0882">RatingsRepository</text></g><!--entity DTO Mappers--><g class="entity" data-entity="DTO Mappers" data-source-line="22" data-uid="ent0008" id="entity_DTO Mappers"><rect fill="#F1F1F1" height="46.2969" rx="2.5" ry="2.5" style="stroke:#181818;stroke-width:0.5;" width="134.8965" x="392.55" y="363.8031"/><rect fill="#F1F1F1" height="10" style="stroke:#181818;stroke-width:0.5;" width="15" x="507.4465" y="368.8031"/><rect fill="#F1F1F1" height="2" style="stroke:#181818;stroke-width:0.5;" width="4" x="505.4465" y="370.8031"/><rect fill="#F1F1F1" height="2" style="stroke:#181818;stroke-width:0.5;" width="4" x="505.4465" y="374.8031"/><text fill="#000000" font-family="sans-serif" font-size="14" lengthAdjust="spacing" textLength="94.8965" x="407.55" y="396.7982">DTO Mappers</text></g><!--entity Spring Security--><g class="entity" data-entity="Spring Security" data-source-line="26" data-uid="ent0010" id="entity_Spring Security"><rect fill="#F1F1F1" height="46.2969" rx="2.5" ry="2.5" style="stroke:#181818;stroke-width:0.5;" width="147.1191" x="846.44" y="250.5031"/><rect fill="#F1F1F1" height="10" style="stroke:#181818;stroke-width:0.5;" width="15" x="973.5591" y="255.5031"/><rect fill="#F1F1F1" height="2" style="stroke:#181818;stroke-width:0.5;" width="4" x="971.5591" y="257.5031"/><rect fill="#F1F1F1" height="2" style="stroke:#181818;stroke-width:0.5;" width="4" x="971.5591" y="261.5031"/><text fill="#000000" font-family="sans-serif" font-size="14" lengthAdjust="spacing" textLength="107.1191" x="861.44" y="283.4982">Spring Security</text></g><!--entity JWT Filter--><g class="entity" data-entity="JWT Filter" data-source-line="27" data-uid="ent0011" id="entity_JWT Filter"><rect fill="#F1F1F1" height="46.2969" rx="2.5" ry="2.5" style="stroke:#181818;stroke-width:0.5;" width="106.6641" x="869.67" y="363.8031"/><rect fill="#F1F1F1" height="10" style="stroke:#181818;stroke-width:0.5;" width="15" x="956.3341" y="368.8031"/><rect fill="#F1F1F1" height="2" style="stroke:#181818;stroke-width:0.5;" width="4" x="954.3341" y="370.8031"/><rect fill="#F1F1F1" height="2" style="stroke:#181818;stroke-width:0.5;" width="4" x="954.3341" y="374.8031"/><text fill="#000000" font-family="sans-serif" font-size="14" lengthAdjust="spacing" textLength="66.6641" x="884.67" y="396.7982">JWT Filter</text></g><!--entity Cognito Auth Client--><g class="entity" data-entity="Cognito Auth Client" data-source-line="28" data-uid="ent0012" id="entity_Cognito Auth Client"><rect fill="#F1F1F1" height="46.2969" rx="2.5" ry="2.5" style="stroke:#181818;stroke-width:0.5;" width="176.2881" x="838.86" y="470.0931"/><rect fill="#F1F1F1" height="10" style="stroke:#181818;stroke-width:0.5;" width="15" x="995.1481" y="475.0931"/><rect fill="#F1F1F1" height="2" style="stroke:#181818;stroke-width:0.5;" width="4" x="993.1481" y="477.0931"/><rect fill="#F1F1F1" height="2" style="stroke:#181818;stroke-width:0.5;" width="4" x="993.1481" y="481.0931"/><text fill="#000000" font-family="sans-serif" font-size="14" lengthAdjust="spacing" textLength="136.2881" x="853.86" y="503.0882">Cognito Auth Client</text></g><!--entity Parameter Store Client--><g class="entity" data-entity="Parameter Store Client" data-source-line="32" data-uid="ent0014" id="entity_Parameter Store Client"><rect fill="#F1F1F1" height="46.2969" rx="2.5" ry="2.5" style="stroke:#181818;stroke-width:0.5;" width="200.207" x="582.9" y="363.8031"/><rect fill="#F1F1F1" height="10" style="stroke:#181818;stroke-width:0.5;" width="15" x="763.107" y="368.8031"/><rect fill="#F1F1F1" height="2" style="stroke:#181818;stroke-width:0.5;" width="4" x="761.107" y="370.8031"/><rect fill="#F1F1F1" height="2" style="stroke:#181818;stroke-width:0.5;" width="4" x="761.107" y="374.8031"/><text fill="#000000" font-family="sans-serif" font-size="14" lengthAdjust="spacing" textLength="160.207" x="597.9" y="396.7982">Parameter Store Client</text></g><!--link MovieController to MovieService--><g class="link" data-entity-1="MovieController" data-entity-2="MovieService" data-source-line="36" data-uid="lnk15" id="link_MovieController_MovieService"><path d="M452,183.8731 C452,203.1831 452,224.8631 452,244.1631" fill="none" id="MovieController-to-MovieService" style="stroke:#181818;stroke-width:1;"/><polygon fill="#181818" points="452,250.1631,456,241.1631,452,245.1631,448,241.1631,452,250.1631" style="stroke:#181818;stroke-width:1;"/></g><!--link MovieService to MovieRepository--><g class="link" data-entity-1="MovieService" data-entity-2="MovieRepository" data-source-line="37" data-uid="lnk16" id="link_MovieService_MovieRepository"><path d="M389.38,297.1231 C384.42,299.5131 379.56,302.0831 375,304.8031 C347.26,321.3331 323.825,341.7144 305.355,359.4744" fill="none" id="MovieService-to-MovieRepository" style="stroke:#181818;stroke-width:1;"/><polygon fill="#181818" points="301.03,363.6331,310.2899,360.2784,304.6341,360.1675,304.745,354.5118,301.03,363.6331" style="stroke:#181818;stroke-width:1;"/></g><!--link MovieService to RatingsService--><g class="link" data-entity-1="MovieService" data-entity-2="RatingsService" data-source-line="38" data-uid="lnk17" id="link_MovieService_RatingsService"><path d="M385.1,277.4331 C317.4,281.0931 217.89,288.9931 183,304.8031 C153.86,318.0031 131.651,339.8458 115.371,358.9558" fill="none" id="MovieService-to-RatingsService" style="stroke:#181818;stroke-width:1;"/><polygon fill="#181818" points="111.48,363.5231,120.3613,359.2661,114.7225,359.717,114.2715,354.0782,111.48,363.5231" style="stroke:#181818;stroke-width:1;"/></g><!--link RatingsService to RatingsRepository--><g class="link" data-entity-1="RatingsService" data-entity-2="RatingsRepository" data-source-line="39" data-uid="lnk18" id="link_RatingsService_RatingsRepository"><path d="M96.6,410.5831 C98.62,428.0731 100.7046,446.2124 102.7146,463.6924" fill="none" id="RatingsService-to-RatingsRepository" style="stroke:#181818;stroke-width:1;"/><polygon fill="#181818" points="103.4,469.6531,106.3457,460.2551,102.8288,464.6859,98.3981,461.169,103.4,469.6531" style="stroke:#181818;stroke-width:1;"/></g><!--link MovieService to DTO Mappers--><g class="link" data-entity-1="MovieService" data-entity-2="DTO Mappers" data-source-line="40" data-uid="lnk19" id="link_MovieService_DTO Mappers"><path d="M453.62,297.1731 C455.01,316.4831 456.5721,338.1784 457.9521,357.4784" fill="none" id="MovieService-to-DTO Mappers" style="stroke:#181818;stroke-width:1;"/><polygon fill="#181818" points="458.38,363.4631,461.7279,354.2008,458.0234,358.4759,453.7483,354.7713,458.38,363.4631" style="stroke:#181818;stroke-width:1;"/></g><!--link MovieController to Spring Security--><g class="link" data-entity-1="MovieController" data-entity-2="Spring Security" data-source-line="41" data-uid="lnk20" id="link_MovieController_Spring Security"><path d="M527.71,179.3631 C615.41,200.2131 753.1128,232.9648 840.1028,253.6548" fill="none" id="MovieController-to-Spring Security" style="stroke:#181818;stroke-width:1;"/><polygon fill="#181818" points="845.94,255.0431,838.1098,249.0692,841.0757,253.8862,836.2587,256.8521,845.94,255.0431" style="stroke:#181818;stroke-width:1;"/></g><!--link Spring Security to JWT Filter--><g class="link" data-entity-1="Spring Security" data-entity-2="JWT Filter" data-source-line="42" data-uid="lnk21" id="link_Spring Security_JWT Filter"><path d="M920.61,297.1731 C921.13,316.4831 921.7084,338.1653 922.2284,357.4653" fill="none" id="Spring Security-to-JWT Filter" style="stroke:#181818;stroke-width:1;"/><polygon fill="#181818" points="922.39,363.4631,926.1461,354.3587,922.2553,358.4649,918.1491,354.5741,922.39,363.4631" style="stroke:#181818;stroke-width:1;"/></g><!--link JWT Filter to Cognito Auth Client--><g class="link" data-entity-1="JWT Filter" data-entity-2="Cognito Auth Client" data-source-line="43" data-uid="lnk22" id="link_JWT Filter_Cognito Auth Client"><path d="M923.87,410.5831 C924.54,428.0731 925.2302,446.1775 925.9002,463.6575" fill="none" id="JWT Filter-to-Cognito Auth Client" style="stroke:#181818;stroke-width:1;"/><polygon fill="#181818" points="926.13,469.6531,929.7824,460.5065,925.9385,464.6568,921.7882,460.8129,926.13,469.6531" style="stroke:#181818;stroke-width:1;"/></g><!--link MovieService to Parameter Store Client--><g class="link" data-entity-1="MovieService" data-entity-2="Parameter Store Client" data-source-line="45" data-uid="lnk23" id="link_MovieService_Parameter Store Client"><path d="M518.71,294.9931 C526.99,298.0231 535.26,301.3131 543,304.8031 C580.54,321.6831 615.8919,342.6015 643.6019,360.1615" fill="none" id="MovieService-to-Parameter Store Client" style="stroke:#181818;stroke-width:1;"/><polygon fill="#181818" points="648.67,363.3731,643.209,355.1769,644.4466,360.6967,638.9268,361.9343,648.67,363.3731" style="stroke:#181818;stroke-width:1;"/></g><!--SRC=[ZL9TJ-Cm47pthrZ10qz8vKFea52bKXB1YUegWeGGui5ojud1jIDxSy2Txh_VnWqbQOB0Bv5drpEpizc330ceG5WwIn3q7mHf5w2SSPun7siMNu0q6HJXMTjIUhc2IvGBz2c_okf7XwF1sZJox8xu_3WNHSHXWcGbN5b2_ripzTox9rGan1uahpgGjdbFBjutQaSZ4G6uThbMqi34gq8JarGUQvuBN6gBK4hrB7DSZnDQT4tXd3-vTvLTHADdPpF7Zc0ol-9Ss9p2yHXsavFqD3dvnkkfiqkTmqnQhgxG4h- -rdb1zsYCU_a6GuQgyfhUOEOMbOdgQPeS9mUjeLRoYJDLRbKwonf1l4-vqtE_0yCZ_HN0vo6Ms3HvPmpwnnRQz3RGZQoN4hfWxBl1qWLDphzrMtlunUql3gOiqOT7yKzycDuQkRRSJw4nd9M-_ZdUwmtrpxjRIBMXpGHJbrlMXab51KoDvfIwchr5rQf3ssjqv_NIa0KWuv6mpRbPYwx_Pwb8Enj4BrhOtnzlHzkzjZhQuGqrRQzZ6-XqVKNMMSmdldkvzv1rNtiJxSkwEhYMGK-VvFqV]--></g></svg>