<svg width="389" height="33" viewBox="0 0 389 33" fill="none" xmlns="http://www.w3.org/2000/svg">
<path d="M324.132 32.0749H330.587V29.2332H327.636V13.2832H330.587V10.4416H324.132V13.6499C322.288 11.2666 319.522 9.7999 316.248 9.7999C310.07 9.7999 305.506 14.7041 305.506 21.2124C305.506 27.7207 310.07 32.6249 316.248 32.6249C319.522 32.6249 322.288 31.1582 324.132 28.7749V32.0749ZM302.463 26.2541H298.959C297.715 28.4082 295.456 29.7374 292.182 29.7374C287.249 29.7374 284.621 26.7582 284.298 22.4041H302.97V20.8457C302.97 14.2457 298.729 9.7999 292.044 9.7999C285.313 9.7999 280.656 14.5207 280.656 21.2124C280.656 27.9499 285.313 32.6249 292.044 32.6249C296.931 32.6707 300.711 30.2416 302.463 26.2541ZM256.636 13.8332V3.70407H259.771V0.770736H249.813V3.70407H252.948V29.1416H249.813V32.0749H259.771V29.1416H256.636V16.6749H272.404V29.1416H269.269V32.0749H279.227V29.1416H276.092V3.70407H279.227V0.770736H269.269V3.70407H272.404V13.8332H256.636ZM364.657 29.2332H361.707V19.5624C361.707 15.0707 364.012 12.8249 368.069 12.8249C371.711 12.8249 374.062 15.0707 374.062 19.5624V29.2332H371.158V32.0749H380.563V29.2332H377.612V19.5624C377.612 14.1999 374.385 9.84574 368.484 9.84574C365.441 9.84574 363.136 10.9916 361.707 12.8707V0.770736H355.252V3.6124H358.203V29.2332H355.252V32.0749H364.657V29.2332ZM309.102 21.2582C309.102 16.3541 312.237 12.7791 316.709 12.7791C321.181 12.7791 324.27 16.3999 324.27 21.2582C324.27 26.1166 321.227 29.7374 316.709 29.7374C312.283 29.7374 309.102 26.1624 309.102 21.2582ZM292.044 12.7332C296.654 12.7332 299.052 15.9874 299.42 19.6082H284.252C284.713 15.6666 287.387 12.7332 292.044 12.7332ZM348.844 26.4832V13.2832H353.27V10.4416H348.844V4.94157H345.34V10.4416H341.974V13.2832H345.34V26.6207C345.34 30.4707 347.046 32.3499 351.149 32.3499C351.794 32.3499 352.762 32.2124 353.27 32.0749V29.2332C352.578 29.3707 352.025 29.4166 351.472 29.4166C349.72 29.4166 348.844 28.7749 348.844 26.4832ZM340.13 32.3499C340.729 32.3499 341.651 32.2124 342.112 32.0749V29.2332C341.513 29.3707 341.006 29.4166 340.545 29.4166C339.023 29.4166 338.332 28.6374 338.332 26.2999V0.770736H331.877V3.6124H334.828V26.4374C334.782 30.3332 336.35 32.3499 340.13 32.3499ZM228.651 22.2666C229.158 24.6041 230.495 25.4291 233.262 25.4291C235.705 25.4291 237.042 24.5582 237.042 23.1832C237.042 21.2124 235.244 21.0749 231.51 20.1124C227.13 18.9666 224.318 18.0041 223.027 17.0874C220.583 15.3916 219.431 12.9624 219.431 9.89157C219.431 3.84157 224.225 -0.100098 232.57 -0.100098C240.684 -0.100098 245.433 3.42907 245.986 9.75407H236.443C236.12 7.8749 234.829 7.00407 232.386 7.00407C230.265 7.00407 229.204 7.69157 229.204 9.1124C229.204 10.7624 230.818 11.0832 233.861 11.8624C237.78 12.8707 240.869 13.5124 242.851 14.8416C245.617 16.6749 246.862 18.9207 246.862 22.1291C246.862 28.9124 241.929 32.8999 232.847 32.8999C224.41 32.8999 219.477 28.9582 218.831 22.2666H228.651ZM191.63 19.8832C191.077 28.0874 185.636 32.8999 176.6 32.8999C166.55 32.8999 160.464 26.5749 160.464 16.3999C160.464 6.17907 166.642 -0.100098 176.416 -0.100098C185.544 -0.100098 190.892 4.48324 191.492 12.5957H181.902C181.625 9.43324 179.781 7.7374 176.554 7.7374C172.589 7.7374 170.653 10.6249 170.653 16.3999C170.653 22.0832 172.774 25.0166 176.877 25.0166C179.92 25.0166 181.856 23.1832 182.179 19.8374H191.63V19.8832ZM189.463 0.770736H199.744L205.046 20.9832L210.717 0.770736H220.629L210.025 32.0291H200.021L189.463 0.770736Z" fill="#E31937"/>
<path d="M156.315 25.1997C156.315 22.9539 156.545 19.7914 156.545 16.0789C156.545 9.15807 153.641 6.63724 145.987 6.63724C142.207 6.63724 138.934 7.18724 136.905 8.01224L137.228 13.5581C138.98 12.6414 141.608 11.7247 144.097 11.7247C147.601 11.7247 148.661 13.1456 148.661 16.6289V17.1331H147.463C138.703 17.1331 134.646 19.7914 134.646 24.6497C134.646 29.6914 137.182 32.6706 144.328 32.6706C148.108 32.6706 151.843 32.1206 156.683 32.1206C156.315 30.1039 156.315 27.1706 156.315 25.1997ZM146.172 27.8122C143.498 27.8122 142.345 26.9414 142.345 24.6956C142.345 22.5414 143.774 21.3497 147.463 21.3497H148.477C148.477 23.4122 148.431 25.8414 148.523 27.5372C147.924 27.7206 147.002 27.8122 146.172 27.8122ZM78.7682 27.5831C74.4344 27.5831 72.1292 25.3372 72.1292 21.8081V21.6247C72.913 21.6706 74.4344 21.6706 75.3104 21.6706C83.0097 21.6706 86.9746 19.2872 86.9746 14.1081C86.9746 9.61641 83.7013 6.68307 76.6013 6.68307C67.9799 6.68307 64.5682 10.4872 63.7845 17.3164C62.5397 17.2247 61.1566 17.2247 59.2663 17.1789V16.0331C59.2663 9.11224 56.3618 6.59141 48.7086 6.59141C44.9742 6.59141 41.6547 7.14141 39.6261 7.96641L39.9489 13.5122C41.7008 12.5956 44.3287 11.6789 46.8183 11.6789C50.3222 11.6789 51.4287 13.0997 51.4287 16.5831V17.0872H50.23C41.4703 17.0872 37.4132 19.7456 37.4132 24.6039C37.4132 29.6456 39.9489 32.6247 47.0949 32.6247C50.8754 32.6247 54.6098 32.0747 59.4507 32.0747C59.0819 30.0581 59.0819 27.1706 59.0819 25.1539C59.0819 24.0997 59.128 22.8622 59.1741 21.4414C61.2488 21.4414 62.7702 21.5331 63.7384 21.5789C64.476 29.6914 68.7176 32.6706 77.4773 32.6706C80.7045 32.6706 84.024 32.1206 85.7298 31.3414L85.4071 25.7956C83.7474 26.7581 81.3961 27.5831 78.7682 27.5831ZM48.9852 27.8122C46.3112 27.8122 45.1586 26.9414 45.1586 24.6956C45.1586 22.5414 46.5878 21.3497 50.2761 21.3497H51.3365C51.3365 23.4122 51.2904 25.8414 51.3826 27.5372C50.7371 27.7206 49.8151 27.8122 48.9852 27.8122ZM72.0831 17.2706C72.0831 13.7872 73.1896 11.2664 76.3708 11.2664C78.1688 11.2664 79.3675 12.2289 79.3675 13.9247C79.3675 16.3539 77.7539 17.4539 74.3883 17.4539C73.5585 17.4539 72.7286 17.4539 72.0831 17.4081V17.2706ZM131.419 20.5706C131.419 18.4622 131.465 15.7122 131.465 15.7122C131.465 9.43307 128.698 6.63724 120.907 6.63724C116.527 6.63724 113.392 7.41641 108.505 7.41641C108.782 11.8164 108.782 17.2247 108.782 20.6164C108.782 24.0539 108.689 30.1497 108.505 32.1206H116.896C116.712 30.1497 116.527 24.4664 116.573 20.6164C116.573 18.4164 116.619 15.8039 116.665 12.2289C117.495 11.9539 118.556 11.7247 119.708 11.7247C122.659 11.7247 123.581 13.0997 123.581 16.8581C123.581 16.8581 123.627 19.1956 123.627 20.6164C123.627 24.0539 123.535 30.1497 123.35 32.1206H131.741C131.557 30.1039 131.372 24.4206 131.419 20.5706ZM105.047 26.5747L105.37 32.0747C104.725 32.2581 102.742 32.6706 100.068 32.6706C94.5356 32.6706 91.585 30.3789 91.585 24.6956C91.585 20.2956 91.6772 15.4372 91.7233 12.7789H88.8649C88.911 11.5872 88.8649 9.84557 88.8649 8.60807C93.1525 7.92057 94.5356 5.49141 95.135 0.816406H99.8376C99.6532 2.74141 99.5148 5.53724 99.5148 7.41641H104.54V12.7331H99.4226V22.3581C99.4226 26.0706 100.16 27.1247 102.742 27.1247C103.618 27.1247 104.54 26.8956 105.047 26.5747ZM9.70483 4.34557C10.7191 4.34557 11.7795 4.75807 12.5172 5.53724L17.1736 10.1664L21.8301 5.53724C22.6139 4.75807 23.6281 4.34557 24.6885 4.34557C25.7028 4.34557 26.7171 4.71224 27.5009 5.53724L33.1716 11.1747C34.7391 12.7331 34.7391 15.2539 33.1716 16.8122L17.1736 32.6706L1.17564 16.7664C-0.391881 15.2081 -0.391881 12.6872 1.17564 11.1289L6.8464 5.49141C7.63016 4.75807 8.64444 4.34557 9.70483 4.34557Z" fill="#712D91"/>
<path d="M385.819 32.1667C383.975 32.1667 382.638 30.7917 382.638 28.9583C382.638 27.0333 384.113 25.75 385.819 25.75C387.525 25.75 389 27.0333 389 28.9583C389 30.8833 387.525 32.1667 385.819 32.1667ZM385.819 26.3C384.436 26.3 383.329 27.4 383.329 28.9583C383.329 30.425 384.297 31.6167 385.819 31.6167C387.202 31.6167 388.308 30.5167 388.308 28.9583C388.308 27.4 387.202 26.3 385.819 26.3ZM385.173 30.7917H384.574V27.2167H385.911C386.787 27.2167 387.202 27.5375 387.202 28.225C387.202 28.8667 386.787 29.1417 386.28 29.1875L387.294 30.7458H386.649L385.727 29.2333H385.173V30.7917ZM385.819 28.775C386.28 28.775 386.649 28.7292 386.649 28.225C386.649 27.8125 386.234 27.7667 385.865 27.7667H385.173V28.775H385.819Z" fill="#E31937"/>
</svg>
