<svg xmlns="http://www.w3.org/2000/svg" xmlns:xlink="http://www.w3.org/1999/xlink" contentStyleType="text/css" data-diagram-type="DESCRIPTION" height="1359px" preserveAspectRatio="none" style="width:1501px;height:1359px;background:#F9F9F9;" version="1.1" viewBox="0 0 1501 1359" width="1501px" zoomAndPan="magnify"><title>09_Physical_Deployment_Diagram</title><defs/><g><rect fill="#F9F9F9" height="1359" style="stroke:none;stroke-width:1;" width="1501" x="0" y="0"/><text fill="#00008B" font-family="sans-serif" font-size="20" lengthAdjust="spacing" textLength="233.6914" x="1254.2338" y="18.5645">Aetna Interview Project</text><g class="title" data-source-line="8"><text fill="#000000" font-family="sans-serif" font-size="30" font-weight="bold" lengthAdjust="spacing" textLength="573.7793" x="457.0729" y="62.1279">09_Physical_Deployment_Diagram</text></g><!--cluster AWS Cloud--><g class="cluster" data-entity="AWS Cloud" data-source-line="25" data-uid="ent0006" id="cluster_AWS Cloud"><path d="M75.5153,242.8765 C97.8037,195.3688 142.045,197.8691 168.5169,238.4602 C200.6469,194.7633 230.9949,186.7306 266.1629,235.2431 C289.4551,195.7581 328.8356,183.8261 356.9248,230.1705 C392.8973,178.6267 425.9327,175.637 460.7272,231.311 C495.3535,193.5967 532.5146,194.8086 558.9274,240.9316 C586.1541,194.379 627.1612,200.9968 654.4111,240.9059 C676.0917,193.4961 713.9508,198.0556 744.3506,231.1668 C776.4005,178.798 811.0246,186.5193 844.4113,229.7679 C869.8153,188.7844 915.6585,185.5336 938.8885,232.1135 C967.4103,184.9809 1014.3099,183.4252 1036.5833,238.109 C1068.2972,194.0262 1104.6589,186.9755 1141.4836,232.0991 C1169.0439,194.9436 1208.3406,199.6178 1229.3169,239.5964 C1256.2503,189.729 1298.8338,184.7606 1329.9711,235.3857 C1361.893,189.6636 1397.287,198.3367 1424.961,240.0031 C1431.3767,233.0252 1438.2407,233.7519 1441.3675,243.2735 C1484.2063,270.3193 1488.6057,312.043 1437.9959,335.6791 C1477.4816,359.1969 1477.0373,402.9459 1439.0969,427.3932 C1482.4296,449.3219 1485.7622,488.87 1447.9823,518.6926 C1493.6903,547.621 1491.2454,586.4449 1443.0985,610.3735 C1477.899,637.5502 1486.8252,663.922 1446.3892,694.0573 C1489.6788,727.8844 1494.9252,760.6782 1441.2923,789.3196 C1485.7316,825.4678 1476.6398,854.817 1430.5021,880.2125 C1465.3132,910.1128 1459.6661,947.6101 1417.961,966.3731 C1421.6251,960.1776 1425.8332,961.4031 1429.4396,966.4321 C1405.9884,1020.4894 1374.3942,1024.4077 1333.7839,983.7641 C1308.0608,1021.6687 1263.6527,1020.6334 1241.3253,979.7778 C1202.7328,1030.8773 1162.2047,1015.9572 1133.3749,969.027 C1107.4415,1017.7255 1072.3519,1030.6335 1033.6431,982.1357 C1005.8116,1026.5199 961.1394,1022.9369 935.941,979.2157 C906.8806,1016.0039 863.741,1025.0763 840.5324,972.9374 C820.7277,1016.7473 784.7005,1013.9351 759.1693,978.8424 C726.7384,1020.5314 681.4395,1012.5539 657.5535,968.6928 C628.5766,1014.4588 594.9884,1013.1583 566.2349,968.4674 C539.7873,1008.846 491.422,1011.9645 465.5099,967.8292 C437.7998,1012.8614 405.942,1017.4805 372.7116,973.5901 C337.112,1028.9294 301.9106,1033.1718 262.3135,977.5679 C239.8312,1019.9929 198.3344,1011.5756 178.3706,974.8954 C140.2634,1025.4935 83.5984,1019.1561 59.961,959.3731 C64.8422,961.712 64.2825,965.8385 60.1548,968.3714 C15.7841,942.8953 30.7808,901.1196 67.06,882.0986 C13.3364,856.4145 12.1901,822.4548 55.6977,785.3515 C19.0979,763.2564 18.3319,726.8225 56.6742,705.6455 C6,682.0867 14.3773,633.5639 55.267,608.6763 C13.3919,575.7073 20.6594,548.5763 62.5081,522.655 C14.5992,497.3442 17.9002,457.4786 56.6832,426.8944 C19.2078,397.9904 14.8183,364.1914 61.9586,340.4513 C12.2024,302.9657 6.629,265.3634 66.961,233.0031 C74.6056,231.1554 78.2897,235.6971 75.5153,242.8765" fill="none" style="stroke:#393939;stroke-width:1;"/><text fill="#000000" font-family="sans-serif" font-size="14" font-style="italic" lengthAdjust="spacing" textLength="44.4541" x="720.234" y="250.9982">&#171;aws&#187;</text><text fill="#000000" font-family="sans-serif" font-size="14" font-weight="bold" lengthAdjust="spacing" textLength="85.9141" x="699.504" y="267.2951">AWS Cloud</text></g><!--cluster VPC (10.0.0.0/16)--><g class="cluster" data-entity="VPC (10.0.0.0/16)" data-source-line="26" data-uid="ent0007" id="cluster_VPC (10.0.0.0/16)"><polygon fill="none" points="75.961,294.0031,85.961,284.0031,1408.961,284.0031,1408.961,940.3731,1398.961,950.3731,75.961,950.3731,75.961,294.0031" style="stroke:#393939;stroke-width:1;"/><line style="stroke:#393939;stroke-width:1;" x1="1398.961" x2="1408.961" y1="294.0031" y2="284.0031"/><line style="stroke:#393939;stroke-width:1;" x1="75.961" x2="1398.961" y1="294.0031" y2="294.0031"/><line style="stroke:#393939;stroke-width:1;" x1="1398.961" x2="1398.961" y1="294.0031" y2="950.3731"/><text fill="#393939" font-family="sans-serif" font-size="14" font-style="italic" lengthAdjust="spacing" textLength="44.4541" x="716.234" y="309.9982">&#171;aws&#187;</text><text fill="#000000" font-family="sans-serif" font-size="14" font-weight="bold" lengthAdjust="spacing" textLength="138.2979" x="669.3121" y="326.2951">VPC (10.0.0.0/16)</text></g><!--cluster PublicSubnet--><g class="cluster" data-entity="PublicSubnet" data-source-line="28" data-uid="ent0008" id="cluster_PublicSubnet"><rect fill="none" height="113.59" rx="3.5" ry="3.5" style="stroke:#393939;stroke-width:1;" width="232" x="129.961" y="348.0031"/><text fill="#000000" font-family="sans-serif" font-size="14" font-weight="bold" lengthAdjust="spacing" textLength="216.1729" x="137.8746" y="362.9982">Public Subnet (10.0.1.0/24)</text></g><!--cluster PrivateSubnet--><g class="cluster" data-entity="PrivateSubnet" data-source-line="32" data-uid="ent0010" id="cluster_PrivateSubnet"><rect fill="none" height="274.19" rx="3.5" ry="3.5" style="stroke:#393939;stroke-width:1;" width="274" x="99.961" y="510.5931"/><text fill="#000000" font-family="sans-serif" font-size="14" font-weight="bold" lengthAdjust="spacing" textLength="224.752" x="124.585" y="525.5882">Private Subnet (10.0.2.0/24)</text></g><!--cluster SharedServices--><g class="cluster" data-entity="SharedServices" data-source-line="37" data-uid="ent0013" id="cluster_SharedServices"><rect fill="none" height="255.18" rx="3.5" ry="3.5" style="stroke:#393939;stroke-width:1;" width="987" x="397.961" y="671.1931"/><text fill="#000000" font-family="sans-serif" font-size="14" font-weight="bold" lengthAdjust="spacing" textLength="234.2539" x="774.3341" y="686.1882">Shared Services (10.0.3.0/24)</text></g><!--entity ? API Gateway--><g class="entity" data-entity="&#9312; API Gateway" data-source-line="29" data-uid="ent0009" id="entity_&#9312; API Gateway"><rect fill="#F1F1F1" height="62.5938" rx="3.5" ry="3.5" style="stroke:#181818;stroke-width:0.5;" width="145.4443" x="173.241" y="383.0031"/><rect fill="#F1F1F1" height="10" style="stroke:#181818;stroke-width:0.5;" width="15" x="298.6853" y="388.0031"/><rect fill="#F1F1F1" height="2" style="stroke:#181818;stroke-width:0.5;" width="4" x="296.6853" y="390.0031"/><rect fill="#F1F1F1" height="2" style="stroke:#181818;stroke-width:0.5;" width="4" x="296.6853" y="394.0031"/><text fill="#000000" font-family="sans-serif" font-size="14" font-style="italic" lengthAdjust="spacing" textLength="44.4541" x="218.7361" y="415.9982">&#171;aws&#187;</text><text fill="#000000" font-family="sans-serif" font-size="14" lengthAdjust="spacing" textLength="105.4443" x="188.241" y="432.2951">&#9312; API Gateway</text></g><!--entity ? ECS Fargate - Movie API--><g class="entity" data-entity="&#9313; ECS Fargate - Movie API" data-source-line="33" data-uid="ent0011" id="entity_&#9313; ECS Fargate - Movie API"><rect fill="#F1F1F1" height="62.5938" rx="3.5" ry="3.5" style="stroke:#181818;stroke-width:0.5;" width="224.8984" x="133.511" y="545.5931"/><rect fill="#F1F1F1" height="10" style="stroke:#181818;stroke-width:0.5;" width="15" x="338.4094" y="550.5931"/><rect fill="#F1F1F1" height="2" style="stroke:#181818;stroke-width:0.5;" width="4" x="336.4094" y="552.5931"/><rect fill="#F1F1F1" height="2" style="stroke:#181818;stroke-width:0.5;" width="4" x="336.4094" y="556.5931"/><text fill="#000000" font-family="sans-serif" font-size="14" font-style="italic" lengthAdjust="spacing" textLength="44.4541" x="218.7332" y="578.5882">&#171;aws&#187;</text><text fill="#000000" font-family="sans-serif" font-size="14" lengthAdjust="spacing" textLength="184.8984" x="148.511" y="594.8851">&#9313; ECS Fargate - Movie API</text></g><!--entity ? Amazon RDS - PostgreSQL--><g class="entity" data-entity="&#9314; Amazon RDS - PostgreSQL" data-source-line="34" data-uid="ent0012" id="entity_&#9314; Amazon RDS - PostgreSQL"><rect fill="#F1F1F1" height="62.5938" rx="3.5" ry="3.5" style="stroke:#181818;stroke-width:0.5;" width="242.1318" x="115.891" y="706.1931"/><rect fill="#F1F1F1" height="10" style="stroke:#181818;stroke-width:0.5;" width="15" x="338.0228" y="711.1931"/><rect fill="#F1F1F1" height="2" style="stroke:#181818;stroke-width:0.5;" width="4" x="336.0228" y="713.1931"/><rect fill="#F1F1F1" height="2" style="stroke:#181818;stroke-width:0.5;" width="4" x="336.0228" y="717.1931"/><text fill="#000000" font-family="sans-serif" font-size="14" font-style="italic" lengthAdjust="spacing" textLength="44.4541" x="209.7299" y="739.1882">&#171;aws&#187;</text><text fill="#000000" font-family="sans-serif" font-size="14" lengthAdjust="spacing" textLength="202.1318" x="130.891" y="755.4851">&#9314; Amazon RDS - PostgreSQL</text></g><!--entity ? Amazon Cognito--><g class="entity" data-entity="&#9315; Amazon Cognito" data-source-line="38" data-uid="ent0014" id="entity_&#9315; Amazon Cognito"><rect fill="#F1F1F1" height="62.5938" rx="3.5" ry="3.5" style="stroke:#181818;stroke-width:0.5;" width="172.0771" x="413.921" y="706.1931"/><rect fill="#F1F1F1" height="10" style="stroke:#181818;stroke-width:0.5;" width="15" x="565.9982" y="711.1931"/><rect fill="#F1F1F1" height="2" style="stroke:#181818;stroke-width:0.5;" width="4" x="563.9982" y="713.1931"/><rect fill="#F1F1F1" height="2" style="stroke:#181818;stroke-width:0.5;" width="4" x="563.9982" y="717.1931"/><text fill="#000000" font-family="sans-serif" font-size="14" font-style="italic" lengthAdjust="spacing" textLength="44.4541" x="472.7325" y="739.1882">&#171;aws&#187;</text><text fill="#000000" font-family="sans-serif" font-size="14" lengthAdjust="spacing" textLength="132.0771" x="428.921" y="755.4851">&#9315; Amazon Cognito</text></g><!--entity ? AWS Secrets Manager--><g class="entity" data-entity="&#9316; AWS Secrets Manager" data-source-line="39" data-uid="ent0015" id="entity_&#9316; AWS Secrets Manager"><rect fill="#F1F1F1" height="62.5938" rx="3.5" ry="3.5" style="stroke:#181818;stroke-width:0.5;" width="211.9238" x="621.001" y="706.1931"/><rect fill="#F1F1F1" height="10" style="stroke:#181818;stroke-width:0.5;" width="15" x="812.9248" y="711.1931"/><rect fill="#F1F1F1" height="2" style="stroke:#181818;stroke-width:0.5;" width="4" x="810.9248" y="713.1931"/><rect fill="#F1F1F1" height="2" style="stroke:#181818;stroke-width:0.5;" width="4" x="810.9248" y="717.1931"/><text fill="#000000" font-family="sans-serif" font-size="14" font-style="italic" lengthAdjust="spacing" textLength="44.4541" x="699.7359" y="739.1882">&#171;aws&#187;</text><text fill="#000000" font-family="sans-serif" font-size="14" lengthAdjust="spacing" textLength="171.9238" x="636.001" y="755.4851">&#9316; AWS Secrets Manager</text></g><!--entity ? AWS Systems Manager (SSM)--><g class="entity" data-entity="&#9317; AWS Systems Manager (SSM)" data-source-line="40" data-uid="ent0016" id="entity_&#9317; AWS Systems Manager (SSM)"><rect fill="#F1F1F1" height="62.5938" rx="3.5" ry="3.5" style="stroke:#181818;stroke-width:0.5;" width="264.3008" x="867.811" y="706.1931"/><rect fill="#F1F1F1" height="10" style="stroke:#181818;stroke-width:0.5;" width="15" x="1112.1118" y="711.1931"/><rect fill="#F1F1F1" height="2" style="stroke:#181818;stroke-width:0.5;" width="4" x="1110.1118" y="713.1931"/><rect fill="#F1F1F1" height="2" style="stroke:#181818;stroke-width:0.5;" width="4" x="1110.1118" y="717.1931"/><text fill="#000000" font-family="sans-serif" font-size="14" font-style="italic" lengthAdjust="spacing" textLength="44.4541" x="972.7344" y="739.1882">&#171;aws&#187;</text><text fill="#000000" font-family="sans-serif" font-size="14" lengthAdjust="spacing" textLength="224.3008" x="882.811" y="755.4851">&#9317; AWS Systems Manager (SSM)</text></g><!--entity ? Amazon CloudWatch--><g class="entity" data-entity="&#9318; Amazon CloudWatch" data-source-line="41" data-uid="ent0017" id="entity_&#9318; Amazon CloudWatch"><rect fill="#F1F1F1" height="62.5938" rx="3.5" ry="3.5" style="stroke:#181818;stroke-width:0.5;" width="202.5039" x="1166.711" y="706.1931"/><rect fill="#F1F1F1" height="10" style="stroke:#181818;stroke-width:0.5;" width="15" x="1349.2149" y="711.1931"/><rect fill="#F1F1F1" height="2" style="stroke:#181818;stroke-width:0.5;" width="4" x="1347.2149" y="713.1931"/><rect fill="#F1F1F1" height="2" style="stroke:#181818;stroke-width:0.5;" width="4" x="1347.2149" y="717.1931"/><text fill="#000000" font-family="sans-serif" font-size="14" font-style="italic" lengthAdjust="spacing" textLength="44.4541" x="1240.7359" y="739.1882">&#171;aws&#187;</text><text fill="#000000" font-family="sans-serif" font-size="14" lengthAdjust="spacing" textLength="162.5039" x="1181.711" y="755.4851">&#9318; Amazon CloudWatch</text></g><!--entity ? Amazon SNS (Alerts)--><g class="entity" data-entity="&#9319; Amazon SNS (Alerts)" data-source-line="42" data-uid="ent0018" id="entity_&#9319; Amazon SNS (Alerts)"><rect fill="#F1F1F1" height="62.5938" rx="3.5" ry="3.5" style="stroke:#181818;stroke-width:0.5;" width="202.2715" x="1166.821" y="847.7831"/><rect fill="#F1F1F1" height="10" style="stroke:#181818;stroke-width:0.5;" width="15" x="1349.0925" y="852.7831"/><rect fill="#F1F1F1" height="2" style="stroke:#181818;stroke-width:0.5;" width="4" x="1347.0925" y="854.7831"/><rect fill="#F1F1F1" height="2" style="stroke:#181818;stroke-width:0.5;" width="4" x="1347.0925" y="858.7831"/><text fill="#000000" font-family="sans-serif" font-size="14" font-style="italic" lengthAdjust="spacing" textLength="44.4541" x="1240.7297" y="880.7782">&#171;aws&#187;</text><text fill="#000000" font-family="sans-serif" font-size="14" lengthAdjust="spacing" textLength="162.2715" x="1181.821" y="897.0751">&#9319; Amazon SNS (Alerts)</text></g><!--entity User--><g class="entity" data-entity="User" data-source-line="20" data-uid="ent0002" id="entity_User"><ellipse cx="245.9567" cy="94.2031" fill="#191919" rx="8" ry="8" style="stroke:#191919;stroke-width:0.5;"/><path d="M245.9567,102.2031 L245.9567,129.2031 M232.9567,110.2031 L258.9567,110.2031 M245.9567,129.2031 L232.9567,144.2031 M245.9567,129.2031 L258.9567,144.2031" fill="none" style="stroke:#191919;stroke-width:0.5;"/><text fill="#191919" font-family="sans-serif" font-size="14" lengthAdjust="spacing" textLength="94.6914" x="198.611" y="158.6982">External User</text></g><!--entity DevOps--><g class="entity" data-entity="DevOps" data-source-line="21" data-uid="ent0003" id="entity_DevOps"><ellipse cx="1132.9609" cy="1045.8731" fill="#191919" rx="8" ry="8" style="stroke:#191919;stroke-width:0.5;"/><path d="M1132.9609,1053.8731 L1132.9609,1080.8731 M1119.9609,1061.8731 L1145.9609,1061.8731 M1132.9609,1080.8731 L1119.9609,1095.8731 M1132.9609,1080.8731 L1145.9609,1095.8731" fill="none" style="stroke:#191919;stroke-width:0.5;"/><text fill="#191919" font-family="sans-serif" font-size="14" lengthAdjust="spacing" textLength="121.6797" x="1072.121" y="1110.3682">DevOps Engineer</text></g><!--entity TL--><g class="entity" data-entity="TL" data-source-line="22" data-uid="ent0004" id="entity_TL"><ellipse cx="1267.9565" cy="1045.8731" fill="#191919" rx="8" ry="8" style="stroke:#191919;stroke-width:0.5;"/><path d="M1267.9565,1053.8731 L1267.9565,1080.8731 M1254.9565,1061.8731 L1280.9565,1061.8731 M1267.9565,1080.8731 L1254.9565,1095.8731 M1267.9565,1080.8731 L1280.9565,1095.8731" fill="none" style="stroke:#191919;stroke-width:0.5;"/><text fill="#191919" font-family="sans-serif" font-size="14" lengthAdjust="spacing" textLength="77.7109" x="1229.101" y="1110.3682">Team Lead</text></g><!--entity SecOff--><g class="entity" data-entity="SecOff" data-source-line="23" data-uid="ent0005" id="entity_SecOff"><ellipse cx="1395.9577" cy="1045.8731" fill="#191919" rx="8" ry="8" style="stroke:#191919;stroke-width:0.5;"/><path d="M1395.9577,1053.8731 L1395.9577,1080.8731 M1382.9577,1061.8731 L1408.9577,1061.8731 M1395.9577,1080.8731 L1382.9577,1095.8731 M1395.9577,1080.8731 L1408.9577,1095.8731" fill="none" style="stroke:#191919;stroke-width:0.5;"/><text fill="#191919" font-family="sans-serif" font-size="14" lengthAdjust="spacing" textLength="108.7734" x="1341.571" y="1110.3682">Security Officer</text></g><!--link User to ? API Gateway--><g class="link" data-entity-1="User" data-entity-2="&#9312; API Gateway" data-source-line="48" data-uid="lnk19" id="link_User_&#9312; API Gateway"><path d="M245.961,162.2631 C245.961,219.8831 245.961,323.2531 245.961,376.5531" fill="none" id="User-to-&#9312; API Gateway" style="stroke:#191919;stroke-width:1;"/><polygon fill="#191919" points="245.961,382.5531,249.961,373.5531,245.961,377.5531,241.961,373.5531,245.961,382.5531" style="stroke:#191919;stroke-width:1;"/><text fill="#000000" font-family="sans-serif" font-size="13" lengthAdjust="spacing" textLength="99.271" x="246.961" y="205.07">HTTPS Request</text></g><!--link ? API Gateway to ? ECS Fargate - Movie API--><g class="link" data-entity-1="&#9312; API Gateway" data-entity-2="&#9313; ECS Fargate - Movie API" data-source-line="49" data-uid="lnk20" id="link_&#9312; API Gateway_&#9313; ECS Fargate - Movie API"><path d="M245.961,445.8831 C245.961,474.3631 245.961,510.6131 245.961,539.1431" fill="none" id="&#9312; API Gateway-to-&#9313; ECS Fargate - Movie API" style="stroke:#191919;stroke-width:1;"/><polygon fill="#191919" points="245.961,545.1431,249.961,536.1431,245.961,540.1431,241.961,536.1431,245.961,545.1431" style="stroke:#191919;stroke-width:1;"/><text fill="#000000" font-family="sans-serif" font-size="13" lengthAdjust="spacing" textLength="103.5239" x="246.961" y="490.66">API Call Routing</text></g><!--link ? ECS Fargate - Movie API to ? Amazon RDS - PostgreSQL--><g class="link" data-entity-1="&#9313; ECS Fargate - Movie API" data-entity-2="&#9314; Amazon RDS - PostgreSQL" data-source-line="50" data-uid="lnk21" id="link_&#9313; ECS Fargate - Movie API_&#9314; Amazon RDS - PostgreSQL"><path d="M244.221,608.4731 C242.641,636.4631 240.6406,671.6927 239.0506,699.7427" fill="none" id="&#9313; ECS Fargate - Movie API-to-&#9314; Amazon RDS - PostgreSQL" style="stroke:#191919;stroke-width:1;"/><polygon fill="#191919" points="238.711,705.7331,243.2139,696.9739,238.994,700.7411,235.2268,696.5212,238.711,705.7331" style="stroke:#191919;stroke-width:1;"/><text fill="#000000" font-family="sans-serif" font-size="13" lengthAdjust="spacing" textLength="80.9517" x="243.961" y="651.26">Secure JDBC</text></g><!--link ? ECS Fargate - Movie API to ? Amazon Cognito--><g class="link" data-entity-1="&#9313; ECS Fargate - Movie API" data-entity-2="&#9315; Amazon Cognito" data-source-line="51" data-uid="lnk22" id="link_&#9313; ECS Fargate - Movie API_&#9315; Amazon Cognito"><path d="M295.231,608.6631 C340.101,636.6731 400.9119,674.635 445.7319,702.625" fill="none" id="&#9313; ECS Fargate - Movie API-to-&#9315; Amazon Cognito" style="stroke:#191919;stroke-width:1;"/><polygon fill="#191919" points="450.821,705.8031,445.3061,697.6431,446.5801,703.1547,441.0685,704.4286,450.821,705.8031" style="stroke:#191919;stroke-width:1;"/><text fill="#000000" font-family="sans-serif" font-size="13" lengthAdjust="spacing" textLength="117.8442" x="366.961" y="651.26">Token Verification</text></g><!--link ? ECS Fargate - Movie API to ? AWS Secrets Manager--><g class="link" data-entity-1="&#9313; ECS Fargate - Movie API" data-entity-2="&#9316; AWS Secrets Manager" data-source-line="52" data-uid="lnk23" id="link_&#9313; ECS Fargate - Movie API_&#9316; AWS Secrets Manager"><path d="M358.741,595.6731 C430.621,609.2031 524.781,631.0431 603.961,663.1931 C631.481,674.3631 655.0691,687.8206 677.7791,702.4706" fill="none" id="&#9313; ECS Fargate - Movie API-to-&#9316; AWS Secrets Manager" style="stroke:#191919;stroke-width:1;"/><polygon fill="#191919" points="682.821,705.7231,677.4264,697.4831,678.6194,703.0127,673.0898,704.2057,682.821,705.7231" style="stroke:#191919;stroke-width:1;"/><text fill="#000000" font-family="sans-serif" font-size="13" lengthAdjust="spacing" textLength="107.5166" x="576.961" y="651.26">Retrieve Secrets</text></g><!--link ? ECS Fargate - Movie API to ? AWS Systems Manager (SSM)--><g class="link" data-entity-1="&#9313; ECS Fargate - Movie API" data-entity-2="&#9317; AWS Systems Manager (SSM)" data-source-line="53" data-uid="lnk24" id="link_&#9313; ECS Fargate - Movie API_&#9317; AWS Systems Manager (SSM)"><path d="M358.911,582.6831 C482.131,590.4631 683.981,610.7131 849.961,663.1931 C883.541,673.8031 913.7401,688.0236 941.7701,703.0136" fill="none" id="&#9313; ECS Fargate - Movie API-to-&#9317; AWS Systems Manager (SSM)" style="stroke:#191919;stroke-width:1;"/><polygon fill="#191919" points="947.061,705.8431,941.011,698.0716,942.6519,703.4852,937.2383,705.1262,947.061,705.8431" style="stroke:#191919;stroke-width:1;"/><text fill="#000000" font-family="sans-serif" font-size="13" lengthAdjust="spacing" textLength="120.834" x="818.961" y="651.26">Config Parameters</text></g><!--link ? ECS Fargate - Movie API to ? Amazon CloudWatch--><g class="link" data-entity-1="&#9313; ECS Fargate - Movie API" data-entity-2="&#9318; Amazon CloudWatch" data-source-line="54" data-uid="lnk25" id="link_&#9313; ECS Fargate - Movie API_&#9318; Amazon CloudWatch"><path d="M358.821,581.7031 C567.831,589.8931 1006.891,612.6631 1149.961,663.1931 C1177.931,673.0631 1201.3453,686.9328 1223.2353,702.2528" fill="none" id="&#9313; ECS Fargate - Movie API-to-&#9318; Amazon CloudWatch" style="stroke:#191919;stroke-width:1;"/><polygon fill="#191919" points="1228.151,705.6931,1223.071,697.2555,1224.0546,702.8262,1218.4839,703.8098,1228.151,705.6931" style="stroke:#191919;stroke-width:1;"/><text fill="#000000" font-family="sans-serif" font-size="13" lengthAdjust="spacing" textLength="85.6743" x="1110.961" y="651.26">Logs, Metrics</text></g><!--link ? Amazon CloudWatch to ? Amazon SNS (Alerts)--><g class="link" data-entity-1="&#9318; Amazon CloudWatch" data-entity-2="&#9319; Amazon SNS (Alerts)" data-source-line="55" data-uid="lnk26" id="link_&#9318; Amazon CloudWatch_&#9319; Amazon SNS (Alerts)"><path d="M1267.961,769.1231 C1267.961,792.3931 1267.961,818.2631 1267.961,841.5131" fill="none" id="&#9318; Amazon CloudWatch-to-&#9319; Amazon SNS (Alerts)" style="stroke:#191919;stroke-width:1;"/><polygon fill="#191919" points="1267.961,847.5131,1271.961,838.5131,1267.961,842.5131,1263.961,838.5131,1267.961,847.5131" style="stroke:#191919;stroke-width:1;"/><text fill="#000000" font-family="sans-serif" font-size="13" lengthAdjust="spacing" textLength="37.7178" x="1268.961" y="813.85">Alerts</text></g><!--link ? Amazon SNS (Alerts) to DevOps--><g class="link" data-entity-1="&#9319; Amazon SNS (Alerts)" data-entity-2="DevOps" data-source-line="58" data-uid="lnk27" id="link_&#9319; Amazon SNS (Alerts)_DevOps"><path d="M1246.871,910.4631 C1223.141,944.6431 1187.9925,995.2543 1162.4125,1032.1043" fill="none" id="&#9319; Amazon SNS (Alerts)-to-DevOps" style="stroke:#191919;stroke-width:1;"/><polygon fill="#191919" points="1158.991,1037.0331,1167.4091,1031.9208,1161.8422,1032.9257,1160.8373,1027.3589,1158.991,1037.0331" style="stroke:#191919;stroke-width:1;"/><text fill="#000000" font-family="sans-serif" font-size="13" lengthAdjust="spacing" textLength="38.6572" x="1188.961" y="1003.44">Notify</text></g><!--link ? Amazon SNS (Alerts) to TL--><g class="link" data-entity-1="&#9319; Amazon SNS (Alerts)" data-entity-2="TL" data-source-line="59" data-uid="lnk28" id="link_&#9319; Amazon SNS (Alerts)_TL"><path d="M1267.961,910.4631 C1267.961,944.6431 1267.961,994.1831 1267.961,1031.0331" fill="none" id="&#9319; Amazon SNS (Alerts)-to-TL" style="stroke:#191919;stroke-width:1;"/><polygon fill="#191919" points="1267.961,1037.0331,1271.961,1028.0331,1267.961,1032.0331,1263.961,1028.0331,1267.961,1037.0331" style="stroke:#191919;stroke-width:1;"/><text fill="#000000" font-family="sans-serif" font-size="13" lengthAdjust="spacing" textLength="38.6572" x="1268.961" y="1003.44">Notify</text></g><!--link ? Amazon SNS (Alerts) to SecOff--><g class="link" data-entity-1="&#9319; Amazon SNS (Alerts)" data-entity-2="SecOff" data-source-line="60" data-uid="lnk29" id="link_&#9319; Amazon SNS (Alerts)_SecOff"><path d="M1287.961,910.4631 C1310.461,944.6431 1343.7217,995.1717 1367.9817,1032.0217" fill="none" id="&#9319; Amazon SNS (Alerts)-to-SecOff" style="stroke:#191919;stroke-width:1;"/><polygon fill="#191919" points="1371.281,1037.0331,1369.6731,1027.3164,1368.5316,1032.8569,1362.9911,1031.7154,1371.281,1037.0331" style="stroke:#191919;stroke-width:1;"/><text fill="#000000" font-family="sans-serif" font-size="13" lengthAdjust="spacing" textLength="38.6572" x="1350.961" y="1003.44">Notify</text></g><g class="legend" data-source-line="63"><rect fill="#FFFFFF" height="209.5625" rx="3.5" ry="3.5" style="stroke:#FFFFFF;stroke-width:1;" width="697.4902" x="395.2175" y="1129.8682"/><text fill="#000000" font-family="sans-serif" font-size="14" font-weight="bold" lengthAdjust="spacing" textLength="11.7305" x="405.0915" y="1149.8634">#</text><text fill="#000000" font-family="sans-serif" font-size="14" font-weight="bold" lengthAdjust="spacing" textLength="90.2412" x="426.57" y="1149.8634">Component</text><text fill="#000000" font-family="sans-serif" font-size="14" font-weight="bold" lengthAdjust="spacing" textLength="180.6055" x="560.7868" y="1149.8634">Description of Purpose</text><text fill="#000000" font-family="sans-serif" font-size="14" font-weight="bold" lengthAdjust="spacing" textLength="71.5791" x="952.7184" y="1149.8634">Category</text><text fill="#000000" font-family="sans-serif" font-size="14" lengthAdjust="spacing" textLength="8.9072" x="404.6677" y="1166.1602">1</text><text fill="#000000" font-family="sans-serif" font-size="14" lengthAdjust="spacing" textLength="88.4434" x="426.1462" y="1166.1602">API Gateway</text><text fill="#000000" font-family="sans-serif" font-size="14" lengthAdjust="spacing" textLength="217.041" x="560.363" y="1166.1602">Entry point for all HTTPS traffic</text><text fill="#000000" font-family="sans-serif" font-size="14" lengthAdjust="spacing" textLength="118.8223" x="952.2946" y="1166.1602">API Management</text><text fill="#000000" font-family="sans-serif" font-size="14" lengthAdjust="spacing" textLength="8.9072" x="404.6677" y="1182.4571">2</text><text fill="#000000" font-family="sans-serif" font-size="14" lengthAdjust="spacing" textLength="85.9141" x="426.1462" y="1182.4571">ECS Fargate</text><text fill="#000000" font-family="sans-serif" font-size="14" lengthAdjust="spacing" textLength="251.4463" x="560.363" y="1182.4571">Stateless compute container for API</text><text fill="#000000" font-family="sans-serif" font-size="14" lengthAdjust="spacing" textLength="63.8408" x="952.2946" y="1182.4571">Compute</text><text fill="#000000" font-family="sans-serif" font-size="14" lengthAdjust="spacing" textLength="8.9072" x="404.6677" y="1198.754">3</text><text fill="#000000" font-family="sans-serif" font-size="14" lengthAdjust="spacing" textLength="90.4258" x="426.1462" y="1198.754">Amazon RDS</text><text fill="#000000" font-family="sans-serif" font-size="14" lengthAdjust="spacing" textLength="306.0928" x="560.363" y="1198.754">PostgreSQL database for persistent storage</text><text fill="#000000" font-family="sans-serif" font-size="14" lengthAdjust="spacing" textLength="66.8008" x="952.2946" y="1198.754">Database</text><text fill="#000000" font-family="sans-serif" font-size="14" lengthAdjust="spacing" textLength="8.9072" x="404.6677" y="1215.0509">4</text><text fill="#000000" font-family="sans-serif" font-size="14" lengthAdjust="spacing" textLength="54.0449" x="426.1462" y="1215.0509">Cognito</text><text fill="#000000" font-family="sans-serif" font-size="14" lengthAdjust="spacing" textLength="271.7285" x="560.363" y="1215.0509">Federated identity &amp; token verification</text><text fill="#000000" font-family="sans-serif" font-size="14" lengthAdjust="spacing" textLength="130.9629" x="952.2946" y="1215.0509">Identity &amp; Security</text><text fill="#000000" font-family="sans-serif" font-size="14" lengthAdjust="spacing" textLength="8.9072" x="404.6677" y="1231.3477">5</text><text fill="#000000" font-family="sans-serif" font-size="14" lengthAdjust="spacing" textLength="118.166" x="426.1462" y="1231.3477">Secrets Manager</text><text fill="#000000" font-family="sans-serif" font-size="14" lengthAdjust="spacing" textLength="219.2148" x="560.363" y="1231.3477">Secure store for DB/API secrets</text><text fill="#000000" font-family="sans-serif" font-size="14" lengthAdjust="spacing" textLength="57.4902" x="952.2946" y="1231.3477">Security</text><text fill="#000000" font-family="sans-serif" font-size="14" lengthAdjust="spacing" textLength="8.9072" x="404.6677" y="1247.6446">6</text><text fill="#000000" font-family="sans-serif" font-size="14" lengthAdjust="spacing" textLength="125.3164" x="426.1462" y="1247.6446">Systems Manager</text><text fill="#000000" font-family="sans-serif" font-size="14" lengthAdjust="spacing" textLength="255.1992" x="560.363" y="1247.6446">Parameter store for config &amp; secrets</text><text fill="#000000" font-family="sans-serif" font-size="14" lengthAdjust="spacing" textLength="92.2236" x="952.2946" y="1247.6446">Management</text><text fill="#000000" font-family="sans-serif" font-size="14" lengthAdjust="spacing" textLength="8.9072" x="404.6677" y="1263.9415">7</text><text fill="#000000" font-family="sans-serif" font-size="14" lengthAdjust="spacing" textLength="84.4717" x="426.1462" y="1263.9415">CloudWatch</text><text fill="#000000" font-family="sans-serif" font-size="14" lengthAdjust="spacing" textLength="252.3896" x="560.363" y="1263.9415">Observability: Logs, metrics, alarms</text><text fill="#000000" font-family="sans-serif" font-size="14" lengthAdjust="spacing" textLength="74.8672" x="952.2946" y="1263.9415">Monitoring</text><text fill="#000000" font-family="sans-serif" font-size="14" lengthAdjust="spacing" textLength="8.9072" x="404.6677" y="1280.2384">8</text><text fill="#000000" font-family="sans-serif" font-size="14" lengthAdjust="spacing" textLength="28.2461" x="426.1462" y="1280.2384">SNS</text><text fill="#000000" font-family="sans-serif" font-size="14" lengthAdjust="spacing" textLength="243.6123" x="560.363" y="1280.2384">Push notifications for alerts/events</text><text fill="#000000" font-family="sans-serif" font-size="14" lengthAdjust="spacing" textLength="80.3291" x="952.2946" y="1280.2384">Notification</text><text fill="#000000" font-family="sans-serif" font-size="14" lengthAdjust="spacing" textLength="5.0518" x="404.6677" y="1296.5352">-</text><text fill="#000000" font-family="sans-serif" font-size="14" lengthAdjust="spacing" textLength="121.6797" x="426.1462" y="1296.5352">DevOps Engineer</text><text fill="#000000" font-family="sans-serif" font-size="14" lengthAdjust="spacing" textLength="331.3174" x="560.363" y="1296.5352">Receives infrastructure and system-level alerts</text><text fill="#000000" font-family="sans-serif" font-size="14" lengthAdjust="spacing" textLength="103.4551" x="952.2946" y="1296.5352">Alert Recipient</text><text fill="#000000" font-family="sans-serif" font-size="14" lengthAdjust="spacing" textLength="5.0518" x="404.6677" y="1312.8321">-</text><text fill="#000000" font-family="sans-serif" font-size="14" lengthAdjust="spacing" textLength="77.7109" x="426.1462" y="1312.8321">Team Lead</text><text fill="#000000" font-family="sans-serif" font-size="14" lengthAdjust="spacing" textLength="383.0313" x="560.363" y="1312.8321">Receives alerts related to API or team-level operations</text><text fill="#000000" font-family="sans-serif" font-size="14" lengthAdjust="spacing" textLength="103.4551" x="952.2946" y="1312.8321">Alert Recipient</text><text fill="#000000" font-family="sans-serif" font-size="14" lengthAdjust="spacing" textLength="5.0518" x="404.6677" y="1329.129">-</text><text fill="#000000" font-family="sans-serif" font-size="14" lengthAdjust="spacing" textLength="108.7734" x="426.1462" y="1329.129">Security Officer</text><text fill="#000000" font-family="sans-serif" font-size="14" lengthAdjust="spacing" textLength="353.8213" x="560.363" y="1329.129">Receives alerts for auth, data, or access violations</text><text fill="#000000" font-family="sans-serif" font-size="14" lengthAdjust="spacing" textLength="103.4551" x="952.2946" y="1329.129">Alert Recipient</text><line style="stroke:#000000;stroke-width:1;" x1="400.2175" x2="1087.7077" y1="1136.8682" y2="1136.8682"/><line style="stroke:#000000;stroke-width:1;" x1="400.2175" x2="1087.7077" y1="1153.1651" y2="1153.1651"/><line style="stroke:#000000;stroke-width:1;" x1="400.2175" x2="1087.7077" y1="1169.462" y2="1169.462"/><line style="stroke:#000000;stroke-width:1;" x1="400.2175" x2="1087.7077" y1="1185.7589" y2="1185.7589"/><line style="stroke:#000000;stroke-width:1;" x1="400.2175" x2="1087.7077" y1="1202.0557" y2="1202.0557"/><line style="stroke:#000000;stroke-width:1;" x1="400.2175" x2="1087.7077" y1="1218.3526" y2="1218.3526"/><line style="stroke:#000000;stroke-width:1;" x1="400.2175" x2="1087.7077" y1="1234.6495" y2="1234.6495"/><line style="stroke:#000000;stroke-width:1;" x1="400.2175" x2="1087.7077" y1="1250.9464" y2="1250.9464"/><line style="stroke:#000000;stroke-width:1;" x1="400.2175" x2="1087.7077" y1="1267.2432" y2="1267.2432"/><line style="stroke:#000000;stroke-width:1;" x1="400.2175" x2="1087.7077" y1="1283.5401" y2="1283.5401"/><line style="stroke:#000000;stroke-width:1;" x1="400.2175" x2="1087.7077" y1="1299.837" y2="1299.837"/><line style="stroke:#000000;stroke-width:1;" x1="400.2175" x2="1087.7077" y1="1316.1339" y2="1316.1339"/><line style="stroke:#000000;stroke-width:1;" x1="400.2175" x2="1087.7077" y1="1332.4307" y2="1332.4307"/><line style="stroke:#000000;stroke-width:1;" x1="400.2175" x2="400.2175" y1="1136.8682" y2="1332.4307"/><line style="stroke:#000000;stroke-width:1;" x1="421.696" x2="421.696" y1="1136.8682" y2="1332.4307"/><line style="stroke:#000000;stroke-width:1;" x1="555.9128" x2="555.9128" y1="1136.8682" y2="1332.4307"/><line style="stroke:#000000;stroke-width:1;" x1="947.8444" x2="947.8444" y1="1136.8682" y2="1332.4307"/><line style="stroke:#000000;stroke-width:1;" x1="1087.7077" x2="1087.7077" y1="1136.8682" y2="1332.4307"/></g><!--SRC=[ZLPjKkD64FslKtHCrG9L48pPiBkk3LLWGvOK7mvoTd-aKjHORiaJf1dlpCZ46tE8t23VkLTEakwHP0jZM4m1qlJhrptT_MRyXHjXXf09OuF0taWr5aPay0x54Cs9LYwKdn1QpPMsZawrWRKcVLuV1IE_3eVeb81JvT1C9Dv2p-YVC79rTYTTYdFolMRW5w3vvhetcbePYVIwY-DKJpDKxhehHK9UGR0Ev-86WJA651DKmnqd1kINocH4qMe1phpvI4GtYT6v6fQ9dhJu1s2zS06YdJxqqeQsKNfq_0UApphOVC293ZoalgCerVbmgIJDUj4CbK2eX9n_2PXhARUtRyMjFJY0jVXLBEAuW2mIcPkRpJVxm_tWBWX4v2XGu_XdshaIANnlqJH0MFzGMRiukHnRE5Q9L5ZQYxKAqKU_SJ7qjlvPjHvYb1lffd0Pnp8gNMcHNeF0xnOQXnz2wF1Z0we4UNDA3n4QxtiTsDXjVkb_TdRtD-iWlxz5IHgzV93A2C9yeD2LRhlardgvwGCNzj9S513WX_z-_GqEUwVmZN1uAwO_LW6y_UvX42CdXBmVfLMFKW0UXlaTZZiXd0YJiFysd6kQR0vzFwJ7_W67cVYa5LnrGuBsj7M9mV2xiy-b5uw4mI7Lc6GJeItpswlbLo3cW5g2VrP1EpfHqkaLUVq5t2xge45dIKXA96XMuFukS5FhC9lZO2CCppTNeF-P1-Ov-21SD5g1-hT2XHSXR1ocQ9pTNAu7_zwno7c0GVBvGRCeoIjEzMtWLxUt3rQqlGtl-lrU25VuCKVhWeU8qk-9FhQzGqUaALpft4cL14yxb9HFjBiDNaG8ttQFEizZUzZ7DlJr3IfuZqQI40KNv7bSZpIyJMLoHk84Azlpw9wSYpObh6APG8yFEwJMFPDrvVoquKmdTWlEET78Cwt4bHoFJ1Trr3_oIB55y9kV9N2QXIV7aguNJ_y81GSeZz0sN6Wdu-bdqFspvoABitI1fYoB-mTYEd_vZejqDjRAfrXSTtJlEAUpOFOrh07zwLG0VkcYZOmSUy7ec4vCCzOMFOoAdsWpXLamWrsOrQL1RyVAaMsiIN4-D4kWq9CpWW__qgDeUUR34L6BNMlTdK7ew7-ArlhCSySxK4xGpMCyCPFCVD9iOuuzfbx8PrQJ3mm5NUw2Ti2kOneeIPD7iIrTJvG7WRiLWgbUUcel6dewGRevAPiXo24vyJtsWhhEGfhKX4J8quLzVkKntrUyeVlQALPOq9n3aLZtQ8UtPKlax3x9FYyiAMQsq4YD9ohaywB6j5JlLxp1-V3Jo-M0JiI96CYKmbMIoGh9R54NXSayZUQQ63hGFCrhJkd2rpgt8xghtRmQjcm_3-aEdG_Aft5HGtY6RIxz_UyLj7A54Se9tKfInKPOP_B8SQa4ZQtr9TXEYJCj-RdnNezNbGxdtFDl97NMqijWwhjAJUQoir08NJBhCVVSR-HnzkNlDIk2-2haRhJbPt2BeuWeuhcUI9q-4O4aMWZrVm00]--></g></svg>