<svg xmlns="http://www.w3.org/2000/svg" xmlns:xlink="http://www.w3.org/1999/xlink" contentStyleType="text/css" data-diagram-type="DESCRIPTION" height="1251px" preserveAspectRatio="none" style="width:709px;height:1251px;background:#F9F9F9;" version="1.1" viewBox="0 0 709 1251" width="709px" zoomAndPan="magnify"><title>08c_Logical_Architecture_CICD_PIPELINE</title><defs/><g><rect fill="#F9F9F9" height="1251" style="stroke:none;stroke-width:1;" width="709" x="0" y="0"/><text fill="#00008B" font-family="sans-serif" font-size="20" lengthAdjust="spacing" textLength="233.6914" x="467.9883" y="18.5645">Aetna Interview Project</text><g class="title" data-source-line="8"><text fill="#000000" font-family="sans-serif" font-size="30" font-weight="bold" lengthAdjust="spacing" textLength="681.6797" x="10" y="62.1279">08c_Logical_Architecture_CICD_PIPELINE</text></g><!--entity Dev--><g class="entity" data-entity="Dev" data-source-line="14" data-uid="ent0002" id="entity_Dev"><ellipse cx="437.5843" cy="94.2031" fill="#191919" rx="8" ry="8" style="stroke:#191919;stroke-width:0.5;"/><path d="M437.5843,102.2031 L437.5843,129.2031 M424.5843,110.2031 L450.5843,110.2031 M437.5843,129.2031 L424.5843,144.2031 M437.5843,129.2031 L450.5843,144.2031" fill="none" style="stroke:#191919;stroke-width:0.5;"/><text fill="#191919" font-family="sans-serif" font-size="14" lengthAdjust="spacing" textLength="72.0029" x="401.5828" y="158.6982">Developer</text></g><!--entity Ops--><g class="entity" data-entity="Ops" data-source-line="15" data-uid="ent0003" id="entity_Ops"><ellipse cx="413.579" cy="987.2731" fill="#191919" rx="8" ry="8" style="stroke:#191919;stroke-width:0.5;"/><path d="M413.579,995.2731 L413.579,1022.2731 M400.579,1003.2731 L426.579,1003.2731 M413.579,1022.2731 L400.579,1037.2731 M413.579,1022.2731 L426.579,1037.2731" fill="none" style="stroke:#191919;stroke-width:0.5;"/><text fill="#191919" font-family="sans-serif" font-size="14" lengthAdjust="spacing" textLength="71.0322" x="378.0628" y="1051.7682">Ops Team</text></g><!--entity GitHub--><g class="entity" data-entity="GitHub" data-source-line="17" data-uid="ent0004" id="entity_GitHub"><path d="M346.4807,247.29 C350.3407,242.2523 355.4376,242.229 358.8613,247.7993 C361.1693,241.0392 367.0549,239.0087 372.1001,244.9452 C376.339,239.0269 382.0097,237.085 386.5051,244.6717 C390.7222,240.3876 395.6415,240.7298 398.095,246.6708 C403.4184,240.0949 407.6813,239.8909 411.8025,247.8078 C415.964,242.3034 421.6511,242.2106 425.1336,248.5707 C434.1492,249.6927 436.0488,257.3585 431.0954,263.9098 C436.3935,271.1321 433.2427,276.4028 424.8969,277.3174 C421.9305,283.9228 417.3034,285.9639 411.6469,280.1988 C408.2024,285.6978 404.6679,286.3235 399.8118,281.879 C396.0161,288.9709 390.8256,290.461 384.9641,284.171 C380.7261,290.063 376.3189,289.2378 373.3608,282.9516 C367.5458,289.0377 361.9115,289.1064 358.5207,280.5026 C354.375,285.3625 349.1465,283.6385 346.8777,278.3494 C338.1013,276.9034 337.2787,270.0974 342.2211,264.1519 C336.3402,257.1792 337.9838,250.6306 346.4807,247.29" fill="#F1F1F1" style="stroke:#181818;stroke-width:0.5;"/><text fill="#000000" font-family="sans-serif" font-size="14" lengthAdjust="spacing" textLength="65.5156" x="351.8228" y="266.9882">&#9312; GitHub</text></g><!--entity GHActions--><g class="entity" data-entity="GHActions" data-source-line="18" data-uid="ent0005" id="entity_GHActions"><path d="M198.4971,371.008 C202.09,365.7317 207.8075,364.1627 211.2373,371.1771 C214.1022,367.084 218.1389,365.9461 221.1301,371.0412 C224.7864,366.0198 228.7812,365.5645 232.6883,370.7574 C235.6666,363.7219 239.8634,364.0105 244.8219,368.7098 C247.9591,363.0613 251.5375,363.2365 255.6137,367.7086 C259.0485,362.7289 263.6573,363.358 266.2446,368.5908 C269.0216,362.8578 274.4693,362.6585 277.5198,368.3202 C280.3565,361.853 286.1388,361.7339 289.2259,368.0917 C293.714,363.0626 297.4871,364.3924 299.8437,370.1833 C304.6061,365.1597 308.8087,365.2537 312.5259,371.3729 C315.4781,366.8807 319.3322,367.0923 322.3759,371.269 C325.9667,365.7236 330.1084,366.1456 333.5203,371.4526 C342.4032,374.3058 343.3799,380.5366 337.3492,387.0506 C343.5808,393.3816 343.2868,397.7556 334.5914,401.1713 C330.7862,406.01 327.3843,407.446 323.0471,401.7545 C320.4641,408.0511 317.1004,407.8129 312.6332,403.6262 C309.2471,409.3284 304.3459,409.8318 300.3619,404.278 C297.5394,410.3458 291.8444,411.2424 288.2089,405.0863 C285.5646,409.8296 282.1291,410.1038 279.0327,405.5316 C275.8037,411.1959 270.7697,411.2951 267.042,406.0812 C262.6158,411.548 259.52,409.8598 256.2772,404.8635 C251.6787,411.0349 246.3515,409.5734 243.2503,403.2966 C240.0549,408.5764 236.7311,407.5882 233.3303,403.5144 C229.6263,409.2265 224.7171,410.4429 220.6654,403.8729 C216.6634,409.3333 212.6701,407.7498 209.9218,402.6031 C206.6749,407.7375 201.0795,406.6412 198.5897,401.7476 C191.2105,397.6497 190.4021,392.0644 197.3933,386.8151 C190.6593,382.2058 190.9054,374.6169 198.4971,371.008" fill="#F1F1F1" style="stroke:#181818;stroke-width:0.5;"/><text fill="#000000" font-family="sans-serif" font-size="14" lengthAdjust="spacing" textLength="121.3516" x="204.9028" y="390.2882">&#9313; GitHub Actions</text></g><!--entity ECR--><g class="entity" data-entity="ECR" data-source-line="19" data-uid="ent0006" id="entity_ECR"><path d="M113.4516,494.1122 C117.3457,488.5469 122.2454,488.7353 126.0944,494.1641 C129.8005,488.3698 133.5183,488.238 138.015,493.2957 C142.3641,487.8245 146.0268,487.0869 149.9704,493.6968 C153.6871,487.2436 158.1618,485.2207 163.6677,491.819 C166.6084,486.5318 170.8987,486.2309 174.4957,491.1207 C178.1078,485.623 183.7185,485.3436 186.4311,492.0038 C190.5291,486.0646 194.9147,486.3385 198.8494,492.1761 C202.3466,487.1452 208.0468,486.9713 210.7381,493.0393 C214.6436,486.9596 219.4484,486.6957 223.2789,493.1145 C227.2914,488.9206 230.5419,488.5384 233.8687,493.8763 C241.9192,498.1238 242.0087,503.139 236.4205,509.6 C243.6347,514.3863 242.7524,520.5484 235.5274,524.4672 C232.7833,530.0751 227.8716,531.1142 223.2996,526.6969 C220.2456,533.5303 216.0931,534.3312 210.5544,529.3853 C207.2553,536.6493 203.0982,536.9652 197.9696,531.145 C196.0768,536.6798 190.7678,537.4047 187.2549,532.8687 C184.3002,539.1357 177.8475,539.5226 174.2785,533.5184 C170.463,539.3315 164.6408,538.6597 162.5857,531.8833 C158.9969,537.7367 152.8379,537.7931 150.1838,530.9691 C146.1768,535.8554 141.5157,534.7207 139.2942,529.1158 C134.0307,534.4085 128.0129,533.6484 125.5184,526.1366 C121.3228,530.5468 117.3208,529.2165 115.2478,523.8961 C105.2831,525.0641 99.8698,520.0943 104.1855,509.9416 C99.0226,501.5435 103.0609,493.4057 113.4516,494.1122" fill="#F1F1F1" style="stroke:#181818;stroke-width:0.5;"/><text fill="#000000" font-family="sans-serif" font-size="14" lengthAdjust="spacing" textLength="106.3809" x="120.3928" y="513.5882">&#9314; Amazon ECR</text></g><!--entity ECS--><g class="entity" data-entity="ECS" data-source-line="20" data-uid="ent0007" id="entity_ECS"><path d="M239.543,616.9344 C244.6223,610.4162 250.0485,611.3004 253.24,618.7814 C257.7041,610.2667 262.3594,611.3035 268.0375,617.5656 C271.6365,610.562 275.8873,610.0474 281.3309,615.615 C285.6609,609.4808 290.7841,609.8389 295.0318,615.7089 C298.9112,610.1426 303.579,609.6156 307.4106,615.7595 C311.5153,608.4136 316.3273,607.9605 321.4234,614.7786 C325.6225,609.0192 329.8602,609.2172 333.5973,615.2553 C337.675,607.1334 343.9714,607.3998 348.4412,614.8823 C353.286,609.1056 357.7931,608.5547 361.5241,615.9856 C365.0043,610.6197 371.0217,610.1083 374.6689,615.7868 C378.6412,609.3195 385.7265,610.3757 389.1178,616.4558 C393.2936,610.7845 398.1805,609.5969 402.0692,616.7459 C407.1462,611.4343 412.498,612.1658 415.8019,618.7865 C418.7184,613.1765 425.0522,611.3741 428.6454,618.0808 C439.8777,617.6217 443.8378,624.5229 437.9907,634.0554 C441.6728,641.1871 438.9805,647.1439 430.5612,647.6736 C427.7857,654.123 421.1693,656.2579 416.2706,650.0756 C412.4676,658.1308 405.8671,657.4128 401.3559,650.7955 C398.1908,657.1984 391.6253,657.673 388.1513,651.11 C384.3899,656.5772 378.3888,657.3204 374.7616,650.9581 C370.906,656.7581 366.8552,657.5694 361.8772,652.2598 C358.443,658.276 353.0193,660.4233 348.1741,653.7881 C344.042,661.3641 337.5466,660.4612 333.8987,653.3184 C329.7705,658.1823 325.7999,658.9931 321.7799,653.1955 C317.4194,659.6109 311.7524,658.6501 308.2167,652.3178 C304.216,659.5606 298.3731,658.7688 294.778,651.9306 C289.6967,657.7481 284.0407,658.5048 279.8813,650.907 C274.6187,656.0559 270.1412,655.8011 266.3495,649.2113 C262.0958,655.6611 257.3782,655.2448 252.7546,649.6282 C248.6221,655.8906 243.4052,655.2245 239.4646,649.4168 C231.4347,644.6468 231.5303,638.0505 238.2754,632.2566 C232.1708,626.8363 232.9662,621.3055 239.543,616.9344" fill="#F1F1F1" style="stroke:#181818;stroke-width:0.5;"/><text fill="#000000" font-family="sans-serif" font-size="14" lengthAdjust="spacing" textLength="174.8701" x="246.1528" y="636.8782">&#9316; Amazon ECS (Fargate)</text></g><!--entity CDK--><g class="entity" data-entity="CDK" data-source-line="21" data-uid="ent0008" id="entity_CDK"><path d="M286.0486,494.404 C289.2709,489.3698 294.8398,489.609 297.7722,494.7385 C300.8368,488.116 305.5356,488.1826 309.8758,493.4389 C313.3438,486.4718 318.7325,487.2675 323.166,492.3764 C326.0406,486.811 331.9154,486.2179 335.62,491.4162 C338.9648,486.3797 344.451,486.9421 346.6078,492.633 C350.5427,487.357 356.0855,487.7853 359.5314,493.2229 C363.3031,487.7984 368.1674,487.5187 371.89,493.2771 C376.6652,488.7383 380.0898,489.6808 382.3876,495.7328 C390.4363,498.9895 392.9714,503.4422 386.4868,510.6836 C390.6858,516.7691 391.1046,521.2408 382.8518,523.9021 C379.6409,530.9504 375.856,532.0003 370.4006,526.0524 C367.6668,531.7902 362.5259,531.5914 359.2825,526.5796 C356.3707,532.608 351.4898,532.6616 347.5433,527.6831 C344.8187,533.7178 338.9414,534.274 334.7913,529.3404 C330.111,534.525 325.3688,533.5101 322.0562,527.749 C318.5773,532.9451 314.2717,533.5102 310.4509,528.1241 C306.5624,533.2546 300.4994,533.243 297.8756,526.7553 C294.237,531.4156 288.1844,531.9505 285.9946,525.2414 C276.5731,524.0522 272.6775,518.7536 278.3065,509.9817 C273.1389,501.2158 275.5703,495.3939 286.0486,494.404" fill="#F1F1F1" style="stroke:#181818;stroke-width:0.5;"/><text fill="#000000" font-family="sans-serif" font-size="14" lengthAdjust="spacing" textLength="83.4941" x="291.8328" y="513.5882">&#9315; AWS CDK</text></g><!--entity CW--><g class="entity" data-entity="CW" data-source-line="22" data-uid="ent0009" id="entity_CW"><path d="M250.6164,740.6077 C254.8785,732.9262 261.0036,733.8763 264.9749,740.8918 C268.1415,734.6072 274.0395,735.4021 277.1561,740.9433 C279.3388,735.3063 284.9904,734.0118 288.6504,739.4036 C293.7073,733.269 298.4974,733.1607 302.6833,740.3228 C305.6679,733.4456 311.3169,733.467 315.0316,739.6316 C318.1266,733.4245 323.6637,733.6161 327.7074,738.5524 C330.8076,732.0066 334.7477,732.1199 339.3815,736.9831 C343.6161,732.5843 349.3023,732.6423 351.5601,739.1836 C355.1865,732.106 359.1768,732.4514 363.8272,738.2047 C367.9897,732.0333 373.8374,733.0213 377.4221,738.8589 C380.9958,732.9107 386.3363,734.0011 389.3323,739.462 C395.1598,733.4074 399.4494,733.6627 403.4596,741.3325 C407.1063,735.4228 412.2631,734.9131 416.0416,741.1965 C420.4611,736.7058 424.6904,736.3048 428.0534,742.3957 C436.7952,744.67 437.4163,749.9566 432.9023,756.7186 C437.9702,763.9053 436.7135,768.5524 428.1848,771.3576 C424.5456,777.1773 420.8638,777.7677 416.4305,772.1755 C413.5718,779.2537 408.0005,778.9819 403.6043,773.7818 C401.0853,780.0125 394.6977,779.8551 391.0011,775.1373 C389.0769,781.9113 382.9163,782.2314 378.7216,777.5768 C375.0636,784.4415 369.4498,783.5564 365.9713,777.401 C362.4938,783.0432 358.1129,784.1473 353.3713,778.8582 C349.9397,785.643 343.818,785.8109 339.0487,780.4336 C336.0648,785.8852 330.1739,786.0481 327.1661,780.4593 C321.8693,784.9349 317.0706,784.5995 314.5276,777.4623 C310.5747,781.9708 306.4532,782.772 302.9446,776.9635 C297.3902,783.4069 291.6926,781.7659 288.4119,774.5453 C285.1715,780.1287 279.3184,779.9084 276.1014,774.5189 C270.4929,780.4351 266.2897,779.6022 263.0312,772.2108 C259.73,776.5148 255.0027,776.5037 252.5105,771.3143 C243.9118,769.1122 242.3912,763.1498 247.5985,756.4006 C241.0549,750.4228 242.8587,743.8527 250.6164,740.6077" fill="#F1F1F1" style="stroke:#181818;stroke-width:0.5;"/><text fill="#000000" font-family="sans-serif" font-size="14" lengthAdjust="spacing" textLength="162.5039" x="257.3328" y="760.1782">&#9317; Amazon CloudWatch</text></g><!--entity Notifications--><g class="entity" data-entity="Notifications" data-source-line="23" data-uid="ent0010" id="entity_Notifications"><path d="M358.5936,865.2742 C361.0964,858.5819 366.7283,858.1297 370.9126,863.5663 C373.8718,859.1988 378.8446,858.83 381.0414,864.3474 C383.4127,858.3244 388.7686,858.2566 392.6372,862.6862 C395.8121,856.0302 401.1615,855.9198 404.7602,862.2919 C407.4033,858.0539 410.2664,857.5878 413.8117,861.2596 C417.6117,854.7406 421.5506,856.3445 425.6184,860.9762 C430.5116,856.1248 434.6536,857.5328 437.1401,863.5319 C440.1999,858.1879 443.9806,858.5623 447.2158,863.3576 C451.4748,858.8953 455.7495,858.3471 458.7406,864.7078 C462.0337,858.6685 465.9895,858.7221 469.6763,864.3385 C476.5408,867.7513 478.9843,875.3689 470.8217,879.8886 C478.5176,884.6983 478.0484,890.4841 470.634,895.1075 C467.7302,901.1599 463.1585,900.9024 459.7503,895.5905 C455.5358,901.8476 451.5897,900.2074 447.9462,895.0025 C444.7111,901.2054 440.3318,901.7719 435.6648,896.5404 C432.7945,900.7171 428.7564,900.7843 425.747,896.7075 C423.9544,902.201 419.0213,902.1865 415.6398,898.4469 C410.8172,904.4874 406.8106,903.5945 403.2942,897.1548 C398.6752,902.9303 394.6987,902.0787 391.807,895.543 C389.4272,900.7905 384.8025,900.8949 382.0597,895.8881 C378.8722,901.6071 372.8868,901.5432 370.0937,895.4873 C366.3078,899.1533 362.2807,898.5676 359.8161,893.8647 C352.868,891.0659 350.6423,885.6909 356.1061,879.6522 C350.0386,874.1943 350.6264,868.3041 358.5936,865.2742" fill="#F1F1F1" style="stroke:#181818;stroke-width:0.5;"/><text fill="#000000" font-family="sans-serif" font-size="14" lengthAdjust="spacing" textLength="96.0244" x="365.5728" y="883.4782">&#9318; Slack / SNS</text></g><!--link Dev to GitHub--><g class="link" data-entity-1="Dev" data-entity-2="GitHub" data-source-line="25" data-uid="lnk11" id="link_Dev_GitHub"><path d="M408.0528,162.1931 C402.0228,171.4731 396.3628,181.7231 392.5828,191.9931 C387.0728,206.9631 385.3727,218.8888 384.7727,232.7288" fill="none" id="Dev-to-GitHub" style="stroke:#191919;stroke-width:1;"/><polygon fill="#191919" points="384.5128,238.7231,388.8989,229.9048,384.7294,233.7278,380.9064,229.5583,384.5128,238.7231" style="stroke:#191919;stroke-width:1;"/><text fill="#000000" font-family="sans-serif" font-size="13" lengthAdjust="spacing" textLength="68.5039" x="393.5828" y="205.06">Push Code</text></g><!--link GitHub to GHActions--><g class="link" data-entity-1="GitHub" data-entity-2="GHActions" data-source-line="26" data-uid="lnk12" id="link_GitHub_GHActions"><path d="M362.4828,285.6731 C341.1028,307.4631 313.1039,335.9993 291.7739,357.7493" fill="none" id="GitHub-to-GHActions" style="stroke:#191919;stroke-width:1;"/><polygon fill="#191919" points="287.5728,362.0331,296.7303,358.4081,291.0737,358.4633,291.0186,352.8067,287.5728,362.0331" style="stroke:#191919;stroke-width:1;"/><text fill="#000000" font-family="sans-serif" font-size="13" lengthAdjust="spacing" textLength="83.5098" x="333.5828" y="328.36">Trigger Build</text></g><!--link GHActions to GHActions--><g class="link" data-entity-1="GHActions" data-entity-2="GHActions" data-source-line="27" data-uid="lnk13" id="link_GHActions_GHActions"><path d="M341.6228,374.0031 C361.3728,374.7031 376.2628,378.5131 376.2628,385.4431 C376.2628,392.3631 367.369,395.9576 347.619,396.6676" fill="none" id="GHActions-to-GHActions" style="stroke:#191919;stroke-width:1;"/><polygon fill="#191919" points="341.6228,396.8831,350.7607,400.5572,346.6196,396.7035,350.4733,392.5624,341.6228,396.8831" style="stroke:#191919;stroke-width:1;"/><text fill="#000000" font-family="sans-serif" font-size="13" lengthAdjust="spacing" textLength="64.8223" x="382.2628" y="390.01">Build/Test</text></g><!--link GHActions to ECR--><g class="link" data-entity-1="GHActions" data-entity-2="ECR" data-source-line="28" data-uid="lnk14" id="link_GHActions_ECR"><path d="M238.3728,409.0231 C228.9028,417.6731 218.6428,428.0231 210.5828,438.5931 C199.6028,452.9831 192.6067,465.6685 185.9567,479.7385" fill="none" id="GHActions-to-ECR" style="stroke:#191919;stroke-width:1;"/><polygon fill="#191919" points="183.3928,485.1631,190.8551,478.7354,185.5294,480.6426,183.6222,475.3169,183.3928,485.1631" style="stroke:#191919;stroke-width:1;"/><text fill="#000000" font-family="sans-serif" font-size="13" lengthAdjust="spacing" textLength="75.937" x="211.5828" y="451.66">Push Image</text></g><!--link GHActions to CDK--><g class="link" data-entity-1="GHActions" data-entity-2="CDK" data-source-line="29" data-uid="lnk15" id="link_GHActions_CDK"><path d="M278.2128,408.9731 C290.4328,430.7531 305.8984,458.3497 318.0884,480.0897" fill="none" id="GHActions-to-CDK" style="stroke:#191919;stroke-width:1;"/><polygon fill="#191919" points="321.0228,485.3231,320.1101,475.5167,318.5774,480.9619,313.1322,479.4293,321.0228,485.3231" style="stroke:#191919;stroke-width:1;"/><text fill="#000000" font-family="sans-serif" font-size="13" lengthAdjust="spacing" textLength="104.5586" x="305.5828" y="451.66">Deploy Infra/API</text></g><!--link CDK to ECS--><g class="link" data-entity-1="CDK" data-entity-2="ECS" data-source-line="30" data-uid="lnk16" id="link_CDK_ECS"><path d="M333.5828,532.2631 C333.5828,554.0531 333.5828,580.8731 333.5828,602.6231" fill="none" id="CDK-to-ECS" style="stroke:#191919;stroke-width:1;"/><polygon fill="#191919" points="333.5828,608.6231,337.5828,599.6231,333.5828,603.6231,329.5828,599.6231,333.5828,608.6231" style="stroke:#191919;stroke-width:1;"/><text fill="#000000" font-family="sans-serif" font-size="13" lengthAdjust="spacing" textLength="99.2583" x="334.5828" y="574.95">Update Service</text></g><!--link ECS to CW--><g class="link" data-entity-1="ECS" data-entity-2="CW" data-source-line="31" data-uid="lnk17" id="link_ECS_CW"><path d="M334.5128,655.5631 C335.4128,677.3531 336.5148,704.1783 337.4148,725.9283" fill="none" id="ECS-to-CW" style="stroke:#191919;stroke-width:1;"/><polygon fill="#191919" points="337.6628,731.9231,341.2873,722.7654,337.4561,726.9274,333.2942,723.0962,337.6628,731.9231" style="stroke:#191919;stroke-width:1;"/><text fill="#000000" font-family="sans-serif" font-size="13" lengthAdjust="spacing" textLength="81.7896" x="337.5828" y="698.25">Logs/Metrics</text></g><!--link CW to Notifications--><g class="link" data-entity-1="CW" data-entity-2="Notifications" data-source-line="32" data-uid="lnk18" id="link_CW_Notifications"><path d="M347.2928,778.8831 C353.0728,792.7731 361.2828,810.7031 370.5828,825.4831 C377.0828,835.8131 381.4944,841.7922 389.0844,850.6722" fill="none" id="CW-to-Notifications" style="stroke:#191919;stroke-width:1;"/><polygon fill="#191919" points="392.9828,855.2331,390.1759,845.7927,389.7342,851.4323,384.0946,850.9906,392.9828,855.2331" style="stroke:#191919;stroke-width:1;"/><text fill="#000000" font-family="sans-serif" font-size="13" lengthAdjust="spacing" textLength="90.4033" x="371.5828" y="821.55">Alerts/Notices</text></g><!--link Notifications to Dev--><g class="link" data-entity-1="Notifications" data-entity-2="Dev" data-source-line="33" data-uid="lnk19" id="link_Notifications_Dev"><path d="M441.3928,855.1331 C450.4528,846.6331 459.8928,836.3731 466.5828,825.4831 C483.4628,797.9931 488.5828,788.5831 488.5828,756.3331 C488.5828,261.1431 488.5828,261.1431 488.5828,261.1431 C488.5828,226.0231 476.2932,194.1956 462.5532,167.5556" fill="none" id="Notifications-to-Dev" style="stroke:#191919;stroke-width:1;"/><polygon fill="#191919" points="459.8028,162.2231,460.3733,172.0554,462.0948,166.6669,467.4833,168.3883,459.8028,162.2231" style="stroke:#191919;stroke-width:1;"/><text fill="#000000" font-family="sans-serif" font-size="13" lengthAdjust="spacing" textLength="125.0742" x="489.5828" y="513.3">Deployment Status</text></g><!--link Notifications to Ops--><g class="link" data-entity-1="Notifications" data-entity-2="Ops" data-source-line="34" data-uid="lnk20" id="link_Notifications_Ops"><path d="M413.5828,902.1331 C413.5828,922.8531 413.5828,947.9831 413.5828,972.4531" fill="none" id="Notifications-to-Ops" style="stroke:#191919;stroke-width:1;"/><polygon fill="#191919" points="413.5828,978.4531,417.5828,969.4531,413.5828,973.4531,409.5828,969.4531,413.5828,978.4531" style="stroke:#191919;stroke-width:1;"/><text fill="#000000" font-family="sans-serif" font-size="13" lengthAdjust="spacing" textLength="118.1235" x="414.5828" y="944.84">Operational Alerts</text></g><g class="legend" data-source-line="37"><rect fill="#FFFFFF" height="160.6719" rx="3.5" ry="3.5" style="stroke:#FFFFFF;stroke-width:1;" width="504.3887" x="98.6455" y="1071.2682"/><text fill="#000000" font-family="sans-serif" font-size="14" font-weight="bold" lengthAdjust="spacing" textLength="36.292" x="108.5195" y="1091.2634">Step</text><text fill="#000000" font-family="sans-serif" font-size="14" font-weight="bold" lengthAdjust="spacing" textLength="90.2412" x="154.5596" y="1091.2634">Component</text><text fill="#000000" font-family="sans-serif" font-size="14" font-weight="bold" lengthAdjust="spacing" textLength="90.5488" x="263.3604" y="1091.2634">Description</text><text fill="#000000" font-family="sans-serif" font-size="14" font-weight="bold" lengthAdjust="spacing" textLength="71.5791" x="463.2021" y="1091.2634">Category</text><text fill="#000000" font-family="sans-serif" font-size="14" lengthAdjust="spacing" textLength="8.9072" x="108.0957" y="1107.5602">1</text><text fill="#000000" font-family="sans-serif" font-size="14" lengthAdjust="spacing" textLength="48.5146" x="154.1357" y="1107.5602">GitHub</text><text fill="#000000" font-family="sans-serif" font-size="14" lengthAdjust="spacing" textLength="106.7637" x="262.9365" y="1107.5602">Repo + Trigger</text><text fill="#000000" font-family="sans-serif" font-size="14" lengthAdjust="spacing" textLength="103.7559" x="462.7783" y="1107.5602">Source Control</text><text fill="#000000" font-family="sans-serif" font-size="14" lengthAdjust="spacing" textLength="8.9072" x="108.0957" y="1123.8571">2</text><text fill="#000000" font-family="sans-serif" font-size="14" lengthAdjust="spacing" textLength="104.3506" x="154.1357" y="1123.8571">GitHub Actions</text><text fill="#000000" font-family="sans-serif" font-size="14" lengthAdjust="spacing" textLength="83.46" x="262.9365" y="1123.8571">CI Workflow</text><text fill="#000000" font-family="sans-serif" font-size="14" lengthAdjust="spacing" textLength="39.1768" x="462.7783" y="1123.8571">CI/CD</text><text fill="#000000" font-family="sans-serif" font-size="14" lengthAdjust="spacing" textLength="8.9072" x="108.0957" y="1140.154">3</text><text fill="#000000" font-family="sans-serif" font-size="14" lengthAdjust="spacing" textLength="28.3486" x="154.1357" y="1140.154">ECR</text><text fill="#000000" font-family="sans-serif" font-size="14" lengthAdjust="spacing" textLength="139.5762" x="262.9365" y="1140.154">Docker Image Store</text><text fill="#000000" font-family="sans-serif" font-size="14" lengthAdjust="spacing" textLength="130.8057" x="462.7783" y="1140.154">Container Registry</text><text fill="#000000" font-family="sans-serif" font-size="14" lengthAdjust="spacing" textLength="8.9072" x="108.0957" y="1156.4509">4</text><text fill="#000000" font-family="sans-serif" font-size="14" lengthAdjust="spacing" textLength="29.7363" x="154.1357" y="1156.4509">CDK</text><text fill="#000000" font-family="sans-serif" font-size="14" lengthAdjust="spacing" textLength="156.7207" x="262.9365" y="1156.4509">Infrastructure as Code</text><text fill="#000000" font-family="sans-serif" font-size="14" lengthAdjust="spacing" textLength="22.4834" x="462.7783" y="1156.4509">IaC</text><text fill="#000000" font-family="sans-serif" font-size="14" lengthAdjust="spacing" textLength="8.9072" x="108.0957" y="1172.7477">5</text><text fill="#000000" font-family="sans-serif" font-size="14" lengthAdjust="spacing" textLength="27.5078" x="154.1357" y="1172.7477">ECS</text><text fill="#000000" font-family="sans-serif" font-size="14" lengthAdjust="spacing" textLength="144.04" x="262.9365" y="1172.7477">Fargate Deployment</text><text fill="#000000" font-family="sans-serif" font-size="14" lengthAdjust="spacing" textLength="63.8408" x="462.7783" y="1172.7477">Compute</text><text fill="#000000" font-family="sans-serif" font-size="14" lengthAdjust="spacing" textLength="8.9072" x="108.0957" y="1189.0446">6</text><text fill="#000000" font-family="sans-serif" font-size="14" lengthAdjust="spacing" textLength="84.4717" x="154.1357" y="1189.0446">CloudWatch</text><text fill="#000000" font-family="sans-serif" font-size="14" lengthAdjust="spacing" textLength="103.9951" x="262.9365" y="1189.0446">Logs + Metrics</text><text fill="#000000" font-family="sans-serif" font-size="14" lengthAdjust="spacing" textLength="74.8672" x="462.7783" y="1189.0446">Monitoring</text><text fill="#000000" font-family="sans-serif" font-size="14" lengthAdjust="spacing" textLength="8.9072" x="108.0957" y="1205.3415">7</text><text fill="#000000" font-family="sans-serif" font-size="14" lengthAdjust="spacing" textLength="70.123" x="154.1357" y="1205.3415">SNS/Slack</text><text fill="#000000" font-family="sans-serif" font-size="14" lengthAdjust="spacing" textLength="40.6191" x="262.9365" y="1205.3415">Alerts</text><text fill="#000000" font-family="sans-serif" font-size="14" lengthAdjust="spacing" textLength="80.3291" x="462.7783" y="1205.3415">Notification</text><text fill="#000000" font-family="sans-serif" font-size="14" lengthAdjust="spacing" textLength="8.8867" x="108.0957" y="1221.6384">S</text><text fill="#000000" font-family="sans-serif" font-size="14" lengthAdjust="spacing" textLength="71.0322" x="154.1357" y="1221.6384">Ops Team</text><text fill="#000000" font-family="sans-serif" font-size="14" lengthAdjust="spacing" textLength="190.9414" x="262.9365" y="1221.6384">Receives operational alerts</text><text fill="#000000" font-family="sans-serif" font-size="14" lengthAdjust="spacing" textLength="103.4551" x="462.7783" y="1221.6384">Alert Recipient</text><line style="stroke:#000000;stroke-width:1;" x1="103.6455" x2="598.0342" y1="1078.2682" y2="1078.2682"/><line style="stroke:#000000;stroke-width:1;" x1="103.6455" x2="598.0342" y1="1094.5651" y2="1094.5651"/><line style="stroke:#000000;stroke-width:1;" x1="103.6455" x2="598.0342" y1="1110.862" y2="1110.862"/><line style="stroke:#000000;stroke-width:1;" x1="103.6455" x2="598.0342" y1="1127.1589" y2="1127.1589"/><line style="stroke:#000000;stroke-width:1;" x1="103.6455" x2="598.0342" y1="1143.4557" y2="1143.4557"/><line style="stroke:#000000;stroke-width:1;" x1="103.6455" x2="598.0342" y1="1159.7526" y2="1159.7526"/><line style="stroke:#000000;stroke-width:1;" x1="103.6455" x2="598.0342" y1="1176.0495" y2="1176.0495"/><line style="stroke:#000000;stroke-width:1;" x1="103.6455" x2="598.0342" y1="1192.3464" y2="1192.3464"/><line style="stroke:#000000;stroke-width:1;" x1="103.6455" x2="598.0342" y1="1208.6432" y2="1208.6432"/><line style="stroke:#000000;stroke-width:1;" x1="103.6455" x2="598.0342" y1="1224.9401" y2="1224.9401"/><line style="stroke:#000000;stroke-width:1;" x1="103.6455" x2="103.6455" y1="1078.2682" y2="1224.9401"/><line style="stroke:#000000;stroke-width:1;" x1="149.6855" x2="149.6855" y1="1078.2682" y2="1224.9401"/><line style="stroke:#000000;stroke-width:1;" x1="258.4863" x2="258.4863" y1="1078.2682" y2="1224.9401"/><line style="stroke:#000000;stroke-width:1;" x1="458.3281" x2="458.3281" y1="1078.2682" y2="1224.9401"/><line style="stroke:#000000;stroke-width:1;" x1="598.0342" x2="598.0342" y1="1078.2682" y2="1224.9401"/></g><!--SRC=[RLHjRjf04Fs_fvYcFvAeZKoJjecYD99ZGeCA5CL4_4IB6SmMsskjruaISOdUeDy7wqawksjZe34IPkUzUJkpyvONUe4fGifLmVPXgEGNZ3JmR0OZeHE46-GpLAnOYYpdYgTLe2Cp7OedXEFMirWW4wdWPOkUioksi77mKMSSkfb6TI_meTwDRIXei-bQ_AJ5R01QPz6a9sCHyMJYgsWXDEML2YT1DsXFXjtXTQyxk6RKGPyl4QWdI336REPfFgNyHCGBlTL6py9NF5h6IfRPh2guSsm-0Fik1MB57__FaehQgJ82-m2OdAASccgd5cUCHveOUssynqJcgFQ05q2h6lYS5p12djguMLnSm47ucghe-ArJ_n0kBncB4bdEOE_lrs_mKUYRSchPxcS3VgyYu4TQoAnmf9jgrV1-W9_o9vd1TN1hEVHkq5yD6i91XwkOQpoiU673-md-E8IW_Sb2z6wWtxL4O29ZhgE58uqRpXy84pfuy20SX1OTI2tcD5rNBQCpWgEZoxgdSnYMnG82EKDMXInQjqU4aH9nJ1QxAaKoOmsooxEuDy92xv3e7EfzkYcFSGUc7WbkOvx8HtBmN77F7tQP2RliaE2xV4Rd1Q6nTuJC16tkc31oR-7rKIiH5OmY1jZgcZX-WaeNdWb7MB1js2IOSwchI37J46gko-UOnatdz8tA1dbIYPihSjVlmSXUYpcvCEXwGPlEDirbHf85SnU7JAorJDdg0ss2ET1xpJ6BDXQH4haHjnWr7alr22ksWZUmgaTNFIkunLp2g_MSwd0eInKXIMTQoSI4AF-uoQzciA8oOIpLSfx81u16rbM_yPZy4mBCF3U9RHajQLyxM-f8AdJvj34N6I6t68j2LnsyDH3DTbF1JfqOfVtdiPucGng01m2xDRopDOHR2jM5sXoWgo7DIusx2kyDjBv4Ji6uY4wnyj5Qk2ypGIs9BDvIE3K7F0WzTziSrTa0TWhUikA6GaXG_I_LJ392SOy5o0rtSITRwHkEo8Lha8J8JyvL_m00]--></g></svg>