<svg xmlns="http://www.w3.org/2000/svg" xmlns:xlink="http://www.w3.org/1999/xlink" contentStyleType="text/css" data-diagram-type="DESCRIPTION" height="1439px" preserveAspectRatio="none" style="width:2140px;height:1439px;background:#FFFFFF;" version="1.1" viewBox="0 0 2140 1439" width="2140px" zoomAndPan="magnify"><title>08_Logical_Architecture</title><defs/><g><text fill="#00008B" font-family="sans-serif" font-size="20" lengthAdjust="spacing" textLength="233.6914" x="1892.3086" y="18.5645">Aetna Interview Project</text><g class="title" data-source-line="6"><text fill="#000000" font-family="sans-serif" font-size="25" font-weight="bold" lengthAdjust="spacing" textLength="335.2417" x="895.3792" y="57.4868">08_Logical_Architecture</text></g><!--cluster Prod Environment--><g class="cluster" data-entity="Prod Environment" data-source-line="14" data-uid="ent0004" id="cluster_Prod Environment"><path d="M8.5,219.1828 L151.8652,219.1828 A3.75,3.75 0 0 1 154.3652,221.6828 L161.3652,241.4797 L890.5,241.4797 A2.5,2.5 0 0 1 893,243.9797 L893,1075.0528 A2.5,2.5 0 0 1 890.5,1077.5528 L8.5,1077.5528 A2.5,2.5 0 0 1 6,1075.0528 L6,221.6828 A2.5,2.5 0 0 1 8.5,219.1828" fill="none" style="stroke:#000000;stroke-width:1.5;"/><line style="stroke:#000000;stroke-width:1.5;" x1="6" x2="161.3652" y1="241.4797" y2="241.4797"/><text fill="#000000" font-family="sans-serif" font-size="14" font-weight="bold" lengthAdjust="spacing" textLength="142.3652" x="10" y="234.1779">Prod Environment</text></g><!--cluster Dev Environment--><g class="cluster" data-entity="Dev Environment" data-source-line="28" data-uid="ent0016" id="cluster_Dev Environment"><path d="M1382.5,624.3628 L1519.3027,624.3628 A3.75,3.75 0 0 1 1521.8027,626.8628 L1528.8027,646.6597 L2130.5,646.6597 A2.5,2.5 0 0 1 2133,649.1597 L2133,1075.0528 A2.5,2.5 0 0 1 2130.5,1077.5528 L1382.5,1077.5528 A2.5,2.5 0 0 1 1380,1075.0528 L1380,626.8628 A2.5,2.5 0 0 1 1382.5,624.3628" fill="none" style="stroke:#000000;stroke-width:1.5;"/><line style="stroke:#000000;stroke-width:1.5;" x1="1380" x2="1528.8027" y1="646.6597" y2="646.6597"/><text fill="#000000" font-family="sans-serif" font-size="14" font-weight="bold" lengthAdjust="spacing" textLength="135.8027" x="1384" y="639.3579">Dev Environment</text></g><!--cluster CI/CD Pipeline--><g class="cluster" data-entity="CI/CD Pipeline" data-source-line="41" data-uid="ent0027" id="cluster_CI/CD Pipeline"><path d="M919.5,624.3628 L1031.502,624.3628 A3.75,3.75 0 0 1 1034.002,626.8628 L1041.002,646.6597 L1353.5,646.6597 A2.5,2.5 0 0 1 1356,649.1597 L1356,965.7528 A2.5,2.5 0 0 1 1353.5,968.2528 L919.5,968.2528 A2.5,2.5 0 0 1 917,965.7528 L917,626.8628 A2.5,2.5 0 0 1 919.5,624.3628" fill="none" style="stroke:#000000;stroke-width:1.5;"/><line style="stroke:#000000;stroke-width:1.5;" x1="917" x2="1041.002" y1="646.6597" y2="646.6597"/><text fill="#000000" font-family="sans-serif" font-size="14" font-weight="bold" lengthAdjust="spacing" textLength="111.002" x="921" y="639.3579">CI/CD Pipeline</text></g><!--entity DNS--><g class="entity" data-entity="DNS" data-source-line="15" data-uid="ent0005" id="entity_DNS"><path d="M634.3187,264.2484 C636.5295,259.2829 640.6416,257.9445 644.8204,261.9429 C648.5294,254.2106 653.8895,253.9431 658.5133,261.1017 C662.1181,255.9779 666.2628,255.8187 669.8542,261.1163 C673.2143,255.4651 677.9091,254.9394 682.028,260.2756 C686.3517,255.4417 689.9666,256.3021 693.1359,261.5477 C696.2713,255.9587 700.2631,255.6654 704.0717,260.8653 C709.0051,255.6568 713.8245,256.9475 716.7705,263.0889 C720.5794,257.1372 725.482,256.5546 729.4531,262.922 C737.4591,264.8612 740.0232,270.7535 735.4514,277.7729 C740.7006,285.7513 737.6927,294.1225 727.327,294.5305 C724.1237,300.2814 720.1703,300.5069 716.3747,295.1125 C713.9832,301.2319 708.6833,303.0347 704.1791,297.2829 C702.4173,302.5198 697.5853,303.7445 693.8585,299.3993 C691.0112,306.5676 684.344,307.6413 680.0257,300.8579 C675.4063,304.8461 670.1197,304.3943 668.8826,297.4199 C664.895,302.6976 660.765,303.1134 656.5871,297.6375 C652.0854,301.8612 648.1839,302.4638 645.1761,296.0369 C641.3247,300.5511 637.319,300.6878 634.9048,294.6394 C625.3415,291.5982 626.1984,283.6643 632.4613,278.2619 C626.3565,273.1851 627.5532,267.6193 634.3187,264.2484" fill="#F1F1F1" style="stroke:#181818;stroke-width:0.5;"/><text fill="#000000" font-family="sans-serif" font-size="14" lengthAdjust="spacing" textLength="80.5342" x="639.73" y="282.1779">&#9312; Route 53</text></g><!--entity WAF--><g class="entity" data-entity="WAF" data-source-line="16" data-uid="ent0006" id="entity_WAF"><path d="M632.471,370.7354 C635.8373,365.0499 639.4929,365.1326 642.9679,370.6334 C646.973,363.1343 651.3342,363.035 656.3638,369.6618 C661.2104,363.211 665.2756,363.1565 669.7054,370.0775 C672.4414,364.54 676.3714,363.466 680.9237,368.068 C686.5619,361.9064 690.5645,364.0324 693.8871,370.4537 C697.0103,365.97 702.0654,364.6974 704.9302,370.7251 C708.6576,365.4123 713.4791,364.6967 717.4293,370.474 C722.1356,364.2422 726.6491,364.6056 731.2645,370.5771 C737.031,372.2462 738.023,377.1859 734.3494,381.5169 C740.7549,383.4991 742.3885,387.9053 738.5104,393.468 C742.6537,399.532 741.6312,403.9992 734.4041,406.4729 C738.6761,411.0616 738.4383,415.4862 731.7446,417.408 C728.6909,424.0652 722.2358,424.5816 717.8716,418.8789 C715.7259,424.7715 712.6884,426.8402 707.0026,422.7228 C702.348,430.1956 697.3954,430.4542 692.4428,423.0137 C690.9528,428.6765 686.1414,429.5171 682.1561,425.7299 C676.6121,431.1452 672.3132,430.0369 668.7348,423.519 C663.3146,429.8934 659.6254,427.8314 655.7949,421.8536 C651.7471,427.5484 646.3051,425.9113 643.5656,420.4229 C638.2075,424.5999 633.4079,423.8652 632.0027,416.4723 C624.6714,414.7164 624.2187,410.2051 628.0507,404.7013 C621.7671,402.6233 619.6007,398.7262 624.3301,393.1124 C620.2548,388.6982 621.5673,383.1424 628.0273,382.346 C623.047,377.106 625.033,371.2226 632.471,370.7354" fill="#F1F1F1" style="stroke:#181818;stroke-width:0.5;"/><text fill="#000000" font-family="sans-serif" font-size="14" lengthAdjust="spacing" textLength="85.2305" x="637.38" y="389.4679">&#9313; AWS WAF</text><text fill="#000000" font-family="sans-serif" font-size="14" lengthAdjust="spacing" textLength="46.7988" x="637.38" y="405.7648">&amp; ACM</text></g><!--entity ALB--><g class="entity" data-entity="ALB" data-source-line="17" data-uid="ent0007" id="entity_ALB"><polygon fill="#F1F1F1" points="607.84,510.0728,617.84,500.0728,752.1564,500.0728,752.1564,536.3697,742.1564,546.3697,607.84,546.3697,607.84,510.0728" style="stroke:#181818;stroke-width:0.5;"/><line style="stroke:#181818;stroke-width:0.5;" x1="742.1564" x2="752.1564" y1="510.0728" y2="500.0728"/><line style="stroke:#181818;stroke-width:0.5;" x1="607.84" x2="742.1564" y1="510.0728" y2="510.0728"/><line style="stroke:#181818;stroke-width:0.5;" x1="742.1564" x2="742.1564" y1="510.0728" y2="546.3697"/><text fill="#000000" font-family="sans-serif" font-size="14" lengthAdjust="spacing" textLength="104.3164" x="622.84" y="533.0679">&#9314; ALB (HTTPS)</text></g><!--entity APIGW--><g class="entity" data-entity="APIGW" data-source-line="18" data-uid="ent0008" id="entity_APIGW"><path d="M597.9697,667.3723 C601.6108,662.4355 605.2603,661.8861 609.0822,667.1759 C612.7219,661.7348 618.2842,661.6964 620.9248,668.169 C623.1127,661.7843 628.1888,660.524 632.525,666.0823 C636.4297,659.3844 641.5365,659.3487 645.906,665.6021 C649.5294,660.8736 654.264,660.359 657.0777,666.439 C660.5783,660.2975 664.1664,659.917 668.76,665.3342 C672.897,659.955 676.4971,659.8573 680.6621,665.3034 C685.9247,659.1856 690.2594,659.6728 694.1176,666.7369 C696.7346,661.2179 701.6603,661.057 704.8374,666.1722 C707.9014,660.3329 713.5258,659.6441 717.2493,665.4705 C721.9493,660.9656 725.652,660.8513 729.0988,666.8801 C733.7008,660.9473 737.4883,662.3217 740.929,668.0574 C743.8083,661.81 748.8037,661.2466 752.5544,667.2291 C757.2593,662.9765 761.2013,663.5899 763.8549,669.5082 C771.8196,671.1663 773.1795,675.7686 769.8602,682.602 C775.9741,689.4622 774.2052,697.8571 764.3653,699.5424 C761.0934,704.6857 755.3655,705.9478 751.8885,699.7685 C748.7513,705.3674 742.8318,704.555 739.7727,699.6781 C737.1762,705.6349 732.2846,705.9617 728.4296,700.9835 C725.5323,706.3894 719.907,706.8964 716.3712,701.7105 C712.5536,706.9675 708.8481,706.4513 705.4286,701.2922 C703.3427,706.5544 698.153,708.9711 693.8801,703.687 C689.6356,710.7292 684.6429,710.6505 680.0912,703.9963 C675.3315,709.3167 671.2085,708.1253 668.5259,701.9133 C664.7537,706.4977 660.9439,706.1358 657.6702,701.3364 C653.8914,707.7878 649.9561,707.8909 645.8875,701.6045 C641.8969,705.9851 637.5883,705.7881 634.5531,700.486 C631.0344,707.3551 625.646,706.1089 621.8748,700.7478 C617.1395,706.6549 612.1299,704.855 609.1545,698.866 C606.0329,704.5602 602.5637,704.3848 598.765,699.533 C590.8461,697.0132 588.2806,691.5929 593.3626,684.4243 C586.276,676.9584 588.6565,670.4074 597.9697,667.3723" fill="#F1F1F1" style="stroke:#181818;stroke-width:0.5;"/><text fill="#000000" font-family="sans-serif" font-size="14" lengthAdjust="spacing" textLength="152.4688" x="603.77" y="687.3579">&#9315; API Gateway (Prod)</text></g><!--entity API--><g class="entity" data-entity="API" data-source-line="19" data-uid="ent0009" id="entity_API"><rect fill="#F1F1F1" height="46.2969" rx="2.5" ry="2.5" style="stroke:#181818;stroke-width:0.5;" width="271.9229" x="422.04" y="782.6628"/><rect fill="#F1F1F1" height="10" style="stroke:#181818;stroke-width:0.5;" width="15" x="673.9629" y="787.6628"/><rect fill="#F1F1F1" height="2" style="stroke:#181818;stroke-width:0.5;" width="4" x="671.9629" y="789.6628"/><rect fill="#F1F1F1" height="2" style="stroke:#181818;stroke-width:0.5;" width="4" x="671.9629" y="793.6628"/><text fill="#000000" font-family="sans-serif" font-size="14" lengthAdjust="spacing" textLength="231.9229" x="437.04" y="815.6579">&#9317; Movie API (ECS Fargate - Prod)</text></g><!--entity RDS--><g class="entity" data-entity="RDS" data-source-line="20" data-uid="ent0010" id="entity_RDS"><path d="M22.42,916.4628 C22.42,906.4628 156.9981,906.4628 156.9981,906.4628 C156.9981,906.4628 291.5763,906.4628 291.5763,916.4628 L291.5763,941.7597 C291.5763,951.7597 156.9981,951.7597 156.9981,951.7597 C156.9981,951.7597 22.42,951.7597 22.42,941.7597 L22.42,916.4628" fill="#F1F1F1" style="stroke:#181818;stroke-width:0.5;"/><path d="M22.42,916.4628 C22.42,926.4628 156.9981,926.4628 156.9981,926.4628 C156.9981,926.4628 291.5763,926.4628 291.5763,916.4628" fill="none" style="stroke:#181818;stroke-width:0.5;"/><text fill="#000000" font-family="sans-serif" font-size="14" lengthAdjust="spacing" textLength="249.1563" x="32.42" y="943.4579">&#9318; Amazon RDS (PostgreSQL - Prod)</text></g><!--entity Cognito--><g class="entity" data-entity="Cognito" data-source-line="21" data-uid="ent0011" id="entity_Cognito"><path d="M737.1432,791.3951 C740.8155,786.2033 744.255,784.6733 748.9739,790.2446 C752.7222,784.8566 757.6124,785.0877 760.2777,791.2999 C763.4918,784.9867 767.2397,785.5974 771.6178,790.0769 C774.2219,784.7293 779.6382,784.7597 782.8495,789.3937 C785.0765,784.7306 788.6955,784.5567 792.1369,788.0029 C796.2018,781.3607 802.0222,781.6783 805.0192,788.9889 C808.075,784.7874 812.3414,783.4857 815.4497,788.9321 C818.8983,782.9299 823.2898,782.9347 826.7089,788.9596 C830.4218,784.411 835.4903,784.4293 837.4428,790.7052 C840.8985,785.6456 844.2563,785.7089 848.3515,789.9555 C851.6441,784.9662 856.7852,784.3205 859.4595,790.5668 C862.7094,785.8427 866.8488,785.7037 869.9888,790.6859 C879.9126,795.4384 879.1681,801.1305 871.8275,807.7438 C877.8614,812.2627 876.5755,818.7214 869.8472,821.3879 C866.9645,826.7897 862.9977,827.3424 858.822,822.8252 C855.9636,828.2486 851.8729,829.6704 847.303,824.7269 C844.0367,829.6643 840.6253,830.2393 836.3442,825.9296 C834.2625,831.2612 830.0206,832.066 826.1616,827.8188 C823.5712,833.8025 819.2726,834.7662 814.9177,829.5979 C811.2228,834.9983 807.8841,834.3392 804.4247,829.3598 C800.6276,834.3596 796.3795,835.7911 792.6366,829.3042 C788.7825,833.6846 784.0522,833.8384 781.8268,827.6399 C777.6698,833.166 772.7081,831.8923 770.5588,825.708 C766.1568,830.727 762.625,828.9825 759.6998,824.0901 C756.8981,830.1358 751.6071,829.4695 748.6993,824.1933 C743.8912,828.3928 739.9677,826.7731 737.8436,821.2091 C730.3718,817.4464 728.5448,812.4881 735.776,806.6389 C728.1326,800.9135 730.2346,795.8153 737.1432,791.3951" fill="#F1F1F1" style="stroke:#181818;stroke-width:0.5;"/><text fill="#000000" font-family="sans-serif" font-size="14" lengthAdjust="spacing" textLength="118.0703" x="743.96" y="810.6579">&#9316; Cognito (Prod)</text></g><!--entity Secrets--><g class="entity" data-entity="Secrets" data-source-line="22" data-uid="ent0012" id="entity_Secrets"><path d="M337.3777,916.1694 C340.6987,909.6768 346.2691,909.4244 350.3038,915.4313 C354.1076,908.9107 360.5444,908.7767 364.6757,915.0638 C368.8778,906.9991 374.5908,908.8255 379.2409,914.592 C381.9733,907.0922 387.6912,906.8935 392.4971,912.4939 C396.4549,906.2277 401.257,905.8568 405.1244,912.5817 C409.3956,903.7838 415.6792,904.7352 421.2305,911.2339 C423.9751,904.3207 429.948,904.8702 433.6473,910.2713 C438.7224,904.0249 444.8445,903.2978 449.1209,911.148 C454.5145,905.4054 460.2838,905.8453 463.439,913.5342 C467.254,907.3482 473.9877,908.0213 477.5765,913.8013 C481.381,908.0085 485.7378,907.8506 489.6106,913.7309 C494.6779,907.3304 499.942,908.1353 504.4608,914.3753 C508.4938,908.9985 514.5571,909.3874 517.8856,915.2191 C522.852,909.2853 527.4068,910.225 531.1833,916.5136 C539.7687,917.8422 544.2053,921.1548 539.5821,930.4459 C543.8646,937.6785 541.8561,944.8096 532.2256,945.0187 C527.9682,951.6399 522.4127,951.5744 518.5606,944.6111 C514.1999,950.7108 509.215,952.3321 504.2645,945.2508 C500.9544,952.3258 496.429,953.1868 491.5195,946.7607 C486.908,954.0617 480.3602,952.8413 476.7541,945.7306 C473.5572,952.5956 467.2728,953.3316 462.4505,947.5721 C457.685,954.3171 452.6732,952.1362 449.2244,946.1989 C446.4183,952.3637 439.4876,953.2658 435.3388,947.8023 C430.4045,953.1741 424.2138,953.1055 421.2827,945.6134 C417.4712,952.6704 412.7837,954.2062 407.058,947.6074 C401.2014,954.9562 396.6166,953.2775 392.166,946.16 C387.9504,952.6972 383.2198,951.887 378.9159,946.2562 C374.9708,952.789 369.935,952.399 365.3952,946.9261 C360.5441,954.2477 353.0086,953.2718 349.9621,945.1255 C346.1846,951.1354 340.8379,951.5723 337.1397,945.0445 C327.2806,943.5349 325.5952,937.7874 330.2126,929.7298 C325.3638,921.6515 328.4225,916.9539 337.3777,916.1694" fill="#F1F1F1" style="stroke:#181818;stroke-width:0.5;"/><text fill="#000000" font-family="sans-serif" font-size="14" lengthAdjust="spacing" textLength="182.1914" x="341.9" y="933.9579">&#9319; Secrets Manager (Prod)</text></g><!--entity CW--><g class="entity" data-entity="CW" data-source-line="23" data-uid="ent0013" id="entity_CW"><path d="M708.6416,915.5759 C711.2142,910.0093 715.2862,910.9492 718.4813,914.9348 C721.827,908.1217 726.7389,907.7345 731.0174,914.0436 C734.2685,908.6753 739.0781,908.8307 742.0536,914.3237 C745.1138,907.1648 750.6491,906.6605 754.7542,913.3666 C757.5244,908.1151 761.7285,907.4552 765.9007,911.7252 C769.0957,906.7511 773.6519,906.7821 777.1733,911.3391 C780.3415,906.3083 785.0508,907.002 788.1417,911.4288 C791.6891,904.1035 797.9113,905.6428 801.4977,911.3888 C804.9277,907.7219 809.5163,907.5707 811.2288,913.1889 C816.089,906.9639 819.9039,908.5254 823.7513,914.2502 C827.4698,907.8394 831.7372,909.097 835.568,914.1342 C839.5681,909.3328 843.7927,909.7768 846.9985,915.0366 C851.133,909.3257 854.9652,908.1138 859.7553,914.3357 C863.2062,909.4622 867.1898,909.3963 870.7888,914.1663 C880.1341,920.0345 878.1316,925.2113 870.9887,931.2722 C877.4898,935.956 875.7196,940.927 870.0286,944.7418 C867.33,949.8068 862.8441,950.0927 859.0879,946.0062 C856.1793,951.5674 851.464,952.936 847.6067,946.9493 C844.4743,952.6716 840.3838,952.4192 836.4536,947.8106 C832.6475,953.808 828.5816,952.8807 824.7545,947.8328 C822.4766,955.0519 816.8961,955.8144 812.3672,949.9667 C809.5482,955.514 803.9273,957.3837 799.6715,951.5726 C796.7479,957.2755 791.9705,958.1309 788.1366,952.4989 C783.7005,957.0546 779.9314,956.2781 777.4172,950.5044 C773.9868,955.8466 769.7439,955.8605 766.8342,950.0121 C761.0838,956.5937 757.0845,955.2357 753.4031,948.0009 C749.9516,954.357 746.3035,953.7776 742.1536,948.6874 C737.9322,954.7396 734.0805,953.6784 730.6235,947.9398 C725.9117,951.9314 722.6839,950.3237 720.3234,945.2641 C717.0931,951.6831 712.9072,951.3736 708.5404,946.4442 C699.3331,944.8138 695.739,939.1452 700.5922,930.504 C696.7969,922.8029 699.9314,916.5338 708.6416,915.5759" fill="#F1F1F1" style="stroke:#181818;stroke-width:0.5;"/><text fill="#000000" font-family="sans-serif" font-size="14" lengthAdjust="spacing" textLength="148.4971" x="713.75" y="933.9579">&#9320; CloudWatch (Prod)</text></g><!--entity SNS--><g class="entity" data-entity="SNS" data-source-line="24" data-uid="ent0014" id="entity_SNS"><path d="M736.5247,1024.9742 C740.4899,1018.2797 744.3258,1018.0262 749.2697,1023.9888 C751.4894,1017.6076 757.3631,1016.033 761.5422,1022.0492 C765.6975,1015.4582 770.8107,1016.1949 775.1983,1021.7889 C779.1394,1014.047 784.5101,1014.504 789.9166,1020.1817 C794.9605,1015.2531 798.6279,1015.4194 801.7733,1022.1176 C807.0231,1016.1515 813.043,1015.8315 816.7624,1023.7676 C819.5912,1018.4391 825.3085,1018.1078 828.4503,1023.4238 C832.7871,1016.5164 839.4467,1018.0926 842.4599,1024.7871 C850.6368,1027.7818 850.2587,1033.0669 844.8472,1038.438 C851.3577,1043.4876 850.351,1051.1079 842.2498,1053.6651 C839.8253,1062.3663 834.1784,1063.0524 827.9776,1057.4271 C825.0161,1062.3809 819.6072,1062.4936 816.7459,1057.3161 C813.9947,1065.7942 808.0601,1066.2509 802.1412,1060.5875 C798.915,1067.773 793.7174,1067.4604 789.2304,1061.8607 C785.0664,1067.0072 778.8956,1066.3359 775.8846,1060.4642 C770.6076,1065.2345 766.41,1065.6806 762.5995,1058.793 C756.8433,1065.0626 752.0531,1063.2076 748.2543,1056.6106 C743.6961,1061.085 738.7102,1060.1772 735.9909,1054.409 C727.7909,1051.0451 726.1056,1046.78 732.682,1040.0185 C726.9896,1034.3639 728.1234,1027.029 736.5247,1024.9742" fill="#F1F1F1" style="stroke:#181818;stroke-width:0.5;"/><text fill="#000000" font-family="sans-serif" font-size="14" lengthAdjust="spacing" textLength="92.2715" x="741.86" y="1043.2479">&#9321; SNS (Prod)</text></g><!--entity XRay--><g class="entity" data-entity="XRay" data-source-line="25" data-uid="ent0015" id="entity_XRay"><path d="M583.2238,915.462 C586.5147,908.763 592.0285,909.3154 595.689,915.0929 C597.9065,909.3229 603.2921,908.0259 607.0618,913.5266 C610.9762,905.7719 616.2903,907.1698 620.9498,912.7505 C623.6837,907.7808 628.8185,907.9142 631.3431,912.9675 C635.3585,906.8964 639.9953,906.9616 643.8617,913.1201 C648.7557,906.528 654.797,907.1024 657.7903,914.9532 C666.2703,918.5335 667.0148,924.526 659.8392,930.209 C666.2323,936.5847 664.9889,942.4014 656.394,945.3716 C652.9621,951.0288 649.2888,952.6191 644.1157,947.3235 C642.6979,955.24 637.6323,956.5137 631.8967,951.3602 C630.1453,956.9635 624.7755,958.4789 620.8573,953.6539 C615.2606,959.5175 610.1911,957.7969 606.9829,951.0301 C602.3667,955.9426 598.7786,953.9454 596.3836,948.7101 C591.3322,954.0009 585.8073,953.3122 583.1244,946.1817 C574.4442,943.5322 571.6177,938.61 577.458,930.6597 C571.8966,922.8423 574.5187,917.8669 583.2238,915.462" fill="#F1F1F1" style="stroke:#181818;stroke-width:0.5;"/><text fill="#000000" font-family="sans-serif" font-size="14" lengthAdjust="spacing" textLength="59.6845" x="589.16" y="933.9579">&#9322; X-Ray</text></g><!--entity Workspaces--><g class="entity" data-entity="Workspaces" data-source-line="29" data-uid="ent0017" id="entity_Workspaces"><path d="M1708.2678,668.8144 C1712.8724,661.5032 1717.1639,661.9116 1721.9711,668.6163 C1724.3419,661.1877 1730.8553,660.3678 1735.0979,666.8499 C1739.3652,660.8638 1744.8004,660.9073 1748.3791,667.5728 C1751.4058,661.7795 1756.9809,660.4921 1760.7068,666.8644 C1763.7106,661.3826 1768.2268,661.1547 1771.5588,666.5366 C1776.0053,659.7255 1781.5352,659.0478 1785.7765,666.7379 C1788.7261,660.3262 1792.7212,660.0515 1797.4047,664.9562 C1801.5425,658.9705 1807.3267,659.0619 1810.5522,665.8921 C1814.0897,660.5299 1819.4034,659.5126 1822.9101,665.9244 C1827.925,659.7294 1832.421,660.3608 1835.9667,667.3764 C1840.6295,661.798 1845.8655,661.8125 1850.005,668.0006 C1853.9149,661.5284 1857.9786,661.6537 1862.0253,667.871 C1865.7114,661.0529 1870.8302,660.6678 1874.8497,667.5591 C1878.9658,662.963 1884.2171,662.4959 1886.9654,669.0458 C1894.2887,672.7763 1895.6324,678.5561 1889.0067,684.1693 C1895.4779,689.5141 1895.444,695.1744 1887.9393,699.5492 C1883.5573,706.5823 1878.0828,706.0811 1874.0546,699.1963 C1870.0185,703.8894 1866.2794,704.5051 1862.9735,698.4438 C1860.4267,706.1909 1852.8858,707.1558 1847.9621,701.0126 C1843.5916,707.135 1837.7526,706.1552 1835.4526,699.054 C1833.4271,704.2059 1828.1464,705.9552 1824.1584,701.3184 C1820.007,706.4137 1815.1255,706.2956 1811.3389,700.8738 C1807.3728,707.6922 1801.2345,707.0601 1797.3797,700.7554 C1793.0607,706.4895 1789.4347,705.9195 1785.6725,700.187 C1782.0651,708.0383 1776.578,708.6213 1771.6866,701.3767 C1767.9807,705.4752 1763.6393,705.306 1760.7183,700.4188 C1757.4371,706.4206 1751.0366,706.7157 1747.5721,700.6179 C1742.8555,706.269 1737.2044,706.8035 1733.7664,699.2782 C1730.2959,704.9596 1725.1817,704.557 1721.9743,699.0021 C1718.3265,704.8528 1712.9584,704.8666 1709.1856,699.1401 C1701.4316,696.0227 1699.5749,690.4526 1706.1236,684.3701 C1698.5452,679.304 1701.199,671.8616 1708.2678,668.8144" fill="#F1F1F1" style="stroke:#181818;stroke-width:0.5;"/><text fill="#000000" font-family="sans-serif" font-size="14" lengthAdjust="spacing" textLength="164.1171" x="1714.94" y="687.3579">&#9327; Amazon Workspaces</text></g><!--entity WS--><g class="entity" data-entity="WS" data-source-line="30" data-uid="ent0018" id="entity_WS"><polygon fill="#F1F1F1" points="1713.04,792.6628,1723.04,782.6628,1880.9608,782.6628,1880.9608,818.9597,1870.9608,828.9597,1713.04,828.9597,1713.04,792.6628" style="stroke:#181818;stroke-width:0.5;"/><line style="stroke:#181818;stroke-width:0.5;" x1="1870.9608" x2="1880.9608" y1="792.6628" y2="782.6628"/><line style="stroke:#181818;stroke-width:0.5;" x1="1713.04" x2="1870.9608" y1="792.6628" y2="792.6628"/><line style="stroke:#181818;stroke-width:0.5;" x1="1870.9608" x2="1870.9608" y1="792.6628" y2="828.9597"/><text fill="#000000" font-family="sans-serif" font-size="14" lengthAdjust="spacing" textLength="127.9208" x="1728.04" y="815.6579">&#9328; Dev Workspace</text></g><!--entity SQLite--><g class="entity" data-entity="SQLite" data-source-line="31" data-uid="ent0019" id="entity_SQLite"><path d="M1965.97,1025.7528 C1965.97,1015.7528 2033.9968,1015.7528 2033.9968,1015.7528 C2033.9968,1015.7528 2102.0236,1015.7528 2102.0236,1025.7528 L2102.0236,1051.0497 C2102.0236,1061.0497 2033.9968,1061.0497 2033.9968,1061.0497 C2033.9968,1061.0497 1965.97,1061.0497 1965.97,1051.0497 L1965.97,1025.7528" fill="#F1F1F1" style="stroke:#181818;stroke-width:0.5;"/><path d="M1965.97,1025.7528 C1965.97,1035.7528 2033.9968,1035.7528 2033.9968,1035.7528 C2033.9968,1035.7528 2102.0236,1035.7528 2102.0236,1025.7528" fill="none" style="stroke:#181818;stroke-width:0.5;"/><text fill="#000000" font-family="sans-serif" font-size="14" lengthAdjust="spacing" textLength="116.0536" x="1975.97" y="1052.7479">&#9329; SQLite (Local)</text></g><!--entity DevRDS--><g class="entity" data-entity="DevRDS" data-source-line="32" data-uid="ent0020" id="entity_DevRDS"><path d="M1605.76,916.4628 C1605.76,906.4628 1690.9997,906.4628 1690.9997,906.4628 C1690.9997,906.4628 1776.2395,906.4628 1776.2395,916.4628 L1776.2395,941.7597 C1776.2395,951.7597 1690.9997,951.7597 1690.9997,951.7597 C1690.9997,951.7597 1605.76,951.7597 1605.76,941.7597 L1605.76,916.4628" fill="#F1F1F1" style="stroke:#181818;stroke-width:0.5;"/><path d="M1605.76,916.4628 C1605.76,926.4628 1690.9997,926.4628 1690.9997,926.4628 C1690.9997,926.4628 1776.2395,926.4628 1776.2395,916.4628" fill="none" style="stroke:#181818;stroke-width:0.5;"/><text fill="#000000" font-family="sans-serif" font-size="14" lengthAdjust="spacing" textLength="150.4795" x="1615.76" y="943.4579">&#9318; Amazon RDS (Dev)</text></g><!--entity LocalAPI--><g class="entity" data-entity="LocalAPI" data-source-line="33" data-uid="ent0021" id="entity_LocalAPI"><rect fill="#F1F1F1" height="46.2969" rx="2.5" ry="2.5" style="stroke:#181818;stroke-width:0.5;" width="232.3564" x="1847.82" y="905.9628"/><rect fill="#F1F1F1" height="10" style="stroke:#181818;stroke-width:0.5;" width="15" x="2060.1764" y="910.9628"/><rect fill="#F1F1F1" height="2" style="stroke:#181818;stroke-width:0.5;" width="4" x="2058.1764" y="912.9628"/><rect fill="#F1F1F1" height="2" style="stroke:#181818;stroke-width:0.5;" width="4" x="2058.1764" y="916.9628"/><text fill="#000000" font-family="sans-serif" font-size="14" lengthAdjust="spacing" textLength="192.3564" x="1862.82" y="938.9579">&#9328; Movie API (Local Docker)</text></g><!--entity DevAPI--><g class="entity" data-entity="DevAPI" data-source-line="34" data-uid="ent0022" id="entity_DevAPI"><rect fill="#F1F1F1" height="46.2969" rx="2.5" ry="2.5" style="stroke:#181818;stroke-width:0.5;" width="267.9512" x="1396.02" y="782.6628"/><rect fill="#F1F1F1" height="10" style="stroke:#181818;stroke-width:0.5;" width="15" x="1643.9712" y="787.6628"/><rect fill="#F1F1F1" height="2" style="stroke:#181818;stroke-width:0.5;" width="4" x="1641.9712" y="789.6628"/><rect fill="#F1F1F1" height="2" style="stroke:#181818;stroke-width:0.5;" width="4" x="1641.9712" y="793.6628"/><text fill="#000000" font-family="sans-serif" font-size="14" lengthAdjust="spacing" textLength="227.9512" x="1411.02" y="815.6579">&#9317; Movie API (ECS Fargate - Dev)</text></g><!--entity DevCognito--><g class="entity" data-entity="DevCognito" data-source-line="35" data-uid="ent0023" id="entity_DevCognito"><path d="M1924.8412,790.7765 C1929.1253,784.7079 1933.6783,785.2204 1937.4838,791.2756 C1941.464,785.3222 1946.7998,784.0851 1951.5542,790.3866 C1954.3539,784.7455 1960.5811,784.0678 1964.4156,789.1449 C1968.9149,783.3449 1973.5103,783.3481 1977.0922,790.0734 C1979.6803,783.342 1984.1742,784.1661 1988.4231,788.3494 C1993.2779,780.9329 1998.8493,781.216 2002.9806,789.0405 C2005.9858,783.4737 2011.7474,783.0607 2014.5745,789.2165 C2018.7814,783.8708 2024.4243,784.1569 2027.8529,790.1296 C2032.5752,784.7817 2036.9719,785.3269 2039.6705,792.1024 C2043.3109,786.8657 2048.4202,785.976 2052.3695,791.746 C2061.107,794.0152 2064.1069,800.9266 2057.0888,807.8212 C2062.0738,814.5218 2060.1966,818.9303 2052.9938,822.1471 C2048.8622,828.1971 2044.7137,828.781 2040.099,822.6588 C2037.2762,827.9174 2031.1233,828.4236 2027.5771,823.553 C2024.3819,829.8867 2019.3314,831.0535 2014.2598,825.6893 C2011.8161,831.2612 2007.7729,833.4166 2002.9775,828.1334 C1999.0907,833.9123 1992.9921,833.7198 1989.2371,827.9762 C1985.5618,835.5784 1979.2118,833.7946 1975.3916,828.1274 C1970.985,832.7879 1967.4773,833.0593 1964.4631,826.7413 C1958.8215,832.7589 1954.2027,833.7107 1950.0371,825.2687 C1944.876,831.7877 1939.8087,830.9236 1936.9612,823.1518 C1932.2873,828.7461 1928.9682,826.6731 1925.7827,821.5932 C1916.6546,820.8048 1914.1762,814.05 1919.8054,807.153 C1913.7912,800.5787 1916.1084,792.8161 1924.8412,790.7765" fill="#F1F1F1" style="stroke:#181818;stroke-width:0.5;"/><text fill="#000000" font-family="sans-serif" font-size="14" lengthAdjust="spacing" textLength="114.0986" x="1930.95" y="810.6579">&#9316; Cognito (Dev)</text></g><!--entity DevAPIGW--><g class="entity" data-entity="DevAPIGW" data-source-line="36" data-uid="ent0024" id="entity_DevAPIGW"><path d="M1496.6416,668.9759 C1499.2142,663.4093 1503.2862,664.3492 1506.4813,668.3348 C1509.827,661.5217 1514.7389,661.1345 1519.0174,667.4436 C1522.2685,662.0753 1527.0781,662.2307 1530.0536,667.7237 C1533.1138,660.5648 1538.6491,660.0605 1542.7542,666.7666 C1545.5244,661.5151 1549.7285,660.8552 1553.9007,665.1252 C1557.0957,660.1511 1561.6519,660.1821 1565.1733,664.7391 C1568.3415,659.7083 1573.0508,660.402 1576.1417,664.8288 C1579.6891,657.5035 1585.9113,659.0428 1589.4977,664.7888 C1592.9277,661.1219 1597.5163,660.9707 1599.2288,666.5889 C1604.089,660.3639 1607.9039,661.9254 1611.7513,667.6502 C1615.4698,661.2394 1619.7372,662.497 1623.568,667.5342 C1627.5681,662.7328 1631.7927,663.1768 1634.9985,668.4366 C1639.133,662.7257 1642.9652,661.5138 1647.7553,667.7357 C1651.2062,662.8622 1655.1898,662.7963 1658.7888,667.5663 C1668.1341,673.4345 1666.1316,678.6113 1658.9887,684.6722 C1665.4898,689.356 1663.7196,694.327 1658.0286,698.1418 C1655.33,703.2068 1650.8441,703.4927 1647.0879,699.4062 C1644.1793,704.9674 1639.464,706.336 1635.6067,700.3493 C1632.4743,706.0716 1628.3838,705.8192 1624.4536,701.2106 C1620.6475,707.208 1616.5816,706.2807 1612.7545,701.2328 C1610.4766,708.4519 1604.8961,709.2144 1600.3672,703.3667 C1597.5482,708.914 1591.9273,710.7837 1587.6715,704.9726 C1584.7479,710.6755 1579.9705,711.5309 1576.1366,705.8989 C1571.7005,710.4546 1567.9314,709.6781 1565.4172,703.9044 C1561.9868,709.2466 1557.7439,709.2605 1554.8342,703.4121 C1549.0838,709.9937 1545.0845,708.6357 1541.4031,701.4009 C1537.9516,707.757 1534.3035,707.1776 1530.1536,702.0874 C1525.9322,708.1396 1522.0805,707.0784 1518.6235,701.3398 C1513.9117,705.3314 1510.6839,703.7237 1508.3234,698.6641 C1505.0931,705.0831 1500.9072,704.7736 1496.5404,699.8442 C1487.3331,698.2138 1483.739,692.5452 1488.5922,683.904 C1484.7969,676.2029 1487.9314,669.9338 1496.6416,668.9759" fill="#F1F1F1" style="stroke:#181818;stroke-width:0.5;"/><text fill="#000000" font-family="sans-serif" font-size="14" lengthAdjust="spacing" textLength="148.4971" x="1501.75" y="687.3579">&#9315; API Gateway (Dev)</text></g><!--entity DevSecrets--><g class="entity" data-entity="DevSecrets" data-source-line="37" data-uid="ent0025" id="entity_DevSecrets"><path d="M1723.5562,1024.6862 C1727.8828,1017.9965 1732.2396,1017.9042 1737.6481,1023.4391 C1742.4484,1016.0538 1748.1334,1016.7108 1752.8683,1023.5093 C1756.1853,1017.3115 1760.509,1017.4019 1764.2022,1023.1525 C1768.1486,1016.7305 1775.3977,1014.9622 1779.3669,1023.1289 C1783.4578,1017.0132 1787.7642,1017.4807 1792.0197,1022.9491 C1795.8597,1015.6491 1803.3219,1014.797 1807.6507,1022.4377 C1810.6211,1015.9663 1815.2056,1015.6227 1819.0557,1021.6339 C1823.7893,1013.9936 1828.9901,1014.421 1834.4729,1020.8108 C1838.4202,1013.8151 1843.5753,1013.8474 1847.6494,1020.69 C1853.5928,1014.0965 1858.3557,1015.1043 1861.9742,1022.9901 C1865.8593,1017.8156 1870.8779,1018.0841 1874.0533,1023.7789 C1878.5634,1016.6028 1884.3129,1016.2319 1888.4672,1024.1193 C1893.9153,1017.3513 1898.7875,1016.7752 1903.2634,1025.0741 C1906.7016,1018.4277 1911.4914,1018.5525 1916.2953,1023.5451 C1925.3276,1025.5484 1925.866,1033.7251 1920.5133,1039.5254 C1926.7683,1047.013 1924.0872,1052.1062 1915.8488,1055.3113 C1912.4067,1061.7224 1908.1024,1060.7393 1903.9071,1056.1272 C1899.3913,1062.5494 1891.5111,1063.7316 1887.7008,1055.3545 C1885.0166,1062.0648 1878.8218,1062.4922 1875.1203,1056.3503 C1870.6301,1062.9947 1865.9291,1063.3205 1860.7367,1057.1377 C1856.1472,1063.5106 1851.4957,1063.5424 1847.3329,1056.7047 C1843.7834,1063.3525 1839.298,1063.552 1835.318,1057.0996 C1830.66,1064.4349 1825.7233,1063.0947 1821.361,1056.7969 C1817.0835,1065.495 1810.4507,1064.8123 1805.6508,1057.3032 C1801.0814,1064.4953 1795.7336,1063.5149 1791.7271,1056.7418 C1787.9707,1062.5191 1782.2763,1061.9369 1780.0898,1055.2733 C1775.9249,1062.5625 1768.0525,1062.2736 1764.2885,1054.8431 C1760.8927,1060.5714 1754.9418,1060.1969 1752.0308,1054.3306 C1747.5019,1061.4637 1741.1756,1061.4879 1736.7763,1054.1935 C1733.6625,1059.7623 1728.5106,1060.1576 1724.8997,1054.7304 C1713.4521,1054.5078 1710.7089,1048.2419 1715.002,1038.4499 C1711.5742,1030.4414 1714.6803,1025.0478 1723.5562,1024.6862" fill="#F1F1F1" style="stroke:#181818;stroke-width:0.5;"/><text fill="#000000" font-family="sans-serif" font-size="14" lengthAdjust="spacing" textLength="178.2197" x="1729.89" y="1043.2479">&#9319; Secrets Manager (Dev)</text></g><!--entity DevCW--><g class="entity" data-entity="DevCW" data-source-line="38" data-uid="ent0026" id="entity_DevCW"><path d="M1404.1132,914.9348 C1406.9317,908.1051 1413.1865,907.4253 1417.1018,913.8609 C1420.642,909.1539 1424.0814,907.7394 1428.1038,913.3466 C1431.2736,908.3496 1435.7554,908.8737 1438.5815,913.7128 C1441.0098,907.9871 1446.8929,906.9907 1450.624,912.2896 C1454.4493,907.9026 1458.2256,907.1366 1461.7328,912.6467 C1464.6088,907.0827 1470.0274,907.6333 1472.5977,912.9519 C1475.5976,906.5412 1479.9281,905.5463 1484.8506,910.9595 C1488.4566,906.1487 1493.0286,905.6914 1495.9136,911.697 C1499.8951,906.6973 1504.6203,908.5533 1506.867,913.5903 C1510.4,909.1048 1514.311,908.5455 1517.293,914.1591 C1519.9424,907.7176 1524.7535,906.6617 1529.0696,912.5696 C1532.6366,907.1877 1537.13,908.3985 1540.1031,913.2124 C1544.5145,908.0075 1548.9038,908.7498 1551.7498,914.8282 C1554.9616,910.0828 1559.0168,910.1142 1562.5114,914.4948 C1571.948,916.1841 1573.8659,924.2713 1568.1057,931.0851 C1572.701,937.1327 1570.7267,944.2247 1562.7199,945.5945 C1558.9949,950.8593 1554.8689,951.0633 1551.076,945.6686 C1548.4161,951.2658 1544.818,952.843 1540.2178,947.6147 C1537.6737,953.0349 1532.1949,952.3679 1529.2614,948.0529 C1526.6951,953.5056 1521.8102,953.8954 1517.9184,949.5946 C1514.2789,954.6102 1510.1618,954.7198 1506.3418,949.805 C1503.4147,954.7314 1498.4185,955.8975 1494.7415,950.6609 C1492.3682,956.1277 1487.049,957.9485 1483.1912,952.1882 C1480.0664,956.7582 1476.6869,957.0906 1473.3045,952.4653 C1468.6846,957.3447 1462.9379,956.8546 1460.802,949.8517 C1458.1254,955.6778 1453.0264,954.5752 1450.1775,950.0282 C1446.1502,955.3148 1441.0231,954.2729 1439.0226,948.0619 C1435.775,953.3224 1430.0997,955.0119 1426.4107,948.5363 C1423.1022,952.6622 1418.3478,953.0146 1416.2647,947.2759 C1411.4564,951.8505 1407.6807,949.9344 1405.3463,944.5607 C1398.5513,940.7493 1397.3393,935.3201 1403.6907,930.0125 C1396.6124,925.5359 1395.9073,918.9831 1404.1132,914.9348" fill="#F1F1F1" style="stroke:#181818;stroke-width:0.5;"/><text fill="#000000" font-family="sans-serif" font-size="14" lengthAdjust="spacing" textLength="144.5254" x="1410.74" y="933.9579">&#9320; CloudWatch (Dev)</text></g><!--entity GitHub--><g class="entity" data-entity="GitHub" data-source-line="42" data-uid="ent0028" id="entity_GitHub"><path d="M1212.0588,668.2957 C1216.0891,662.136 1220.681,662.6887 1225.0369,667.9248 C1227.6849,659.6505 1234.4874,659.4487 1239.2392,665.8951 C1242.7031,659.4907 1247.278,658.4382 1252.0236,664.5901 C1256.3356,657.8418 1263.1169,659.2105 1265.7858,666.2322 C1270.3528,660.1048 1276.7826,659.9525 1280.4644,667.2035 C1284.6108,661.9893 1290.4484,662.1687 1293.923,668.0205 C1300.9004,672.0583 1302.7264,677.015 1296.0184,682.9709 C1304.1702,690.0239 1302.0619,695.8936 1292.8445,699.6392 C1289.9842,706.2708 1284.1409,707.2863 1279.6529,701.3473 C1276.7396,708.6869 1271.386,707.9813 1266.6612,703.3062 C1263.2231,709.739 1258.1974,712.0602 1252.5852,705.698 C1248.1095,711.397 1242.6983,709.0533 1240.6826,703.1701 C1236.2856,708.5634 1229.5362,708.6217 1226.8552,701.3035 C1221.716,706.6881 1214.2655,707.2934 1211.6235,698.6014 C1201.4936,698.5993 1199.0034,691.0126 1203.2047,683.1845 C1198.0722,674.6701 1202.4372,668.0361 1212.0588,668.2957" fill="#F1F1F1" style="stroke:#181818;stroke-width:0.5;"/><text fill="#000000" font-family="sans-serif" font-size="14" lengthAdjust="spacing" textLength="66.9648" x="1218.52" y="687.3579">&#9323; GitHub</text></g><!--entity GHActions--><g class="entity" data-entity="GHActions" data-source-line="43" data-uid="ent0029" id="entity_GHActions"><path d="M1103.2752,792.0137 C1106.6585,786.7607 1110.2095,785.7151 1114.2922,791.303 C1117.2494,785.2587 1120.5391,784.9569 1125.0276,789.7919 C1129.2047,785.2392 1133.6565,784.5174 1137.0446,790.677 C1140.3877,784.4113 1145.4725,784.2646 1149.0296,790.4713 C1151.7737,784.8426 1156.9146,784.8352 1160.6718,789.3031 C1162.9884,784.0069 1167.9187,783.026 1171.8769,787.4012 C1175.8269,782.4186 1181.3607,783.2387 1183.3424,789.4223 C1186.6246,783.7242 1190.8005,783.6914 1194.7806,788.6749 C1198.6778,783.8788 1202.2193,785.1051 1204.429,790.304 C1208.7547,783.6976 1212.9313,783.3056 1217.5319,790.0338 C1222.3694,784.8543 1226.1741,785.3147 1228.7876,792.1221 C1231.2893,787.8413 1236.3146,786.7802 1238.9635,791.9639 C1246.6341,794.5824 1248.9442,800.542 1242.5679,806.6161 C1249.3916,812.8162 1247.311,819.2894 1238.8862,821.7897 C1235.8782,826.8969 1231.071,827.4087 1227.9551,821.9008 C1225.0347,827.3512 1219.8092,828.2257 1216.201,822.633 C1213.4393,827.801 1210.2189,828.1461 1205.8257,824.5685 C1202.386,829.6811 1198.7806,830.8002 1194.9078,825.002 C1191.6257,829.8479 1186.2284,830.0853 1183.3503,824.5522 C1180.0841,831.386 1175.3923,831.4748 1170.1921,826.7547 C1166.045,830.7086 1162.1969,830.7988 1159.6937,824.9874 C1156.1462,830.7472 1151.1096,830.1573 1147.6932,824.8454 C1143.3129,828.8461 1139.2487,828.5737 1136.329,823.0944 C1133.2125,828.7109 1128.5975,830.1309 1124.5144,824.0725 C1120.8407,828.383 1115.1552,828.7657 1113.1085,822.3435 C1109.9788,826.8699 1106.7285,826.6626 1103.314,822.6709 C1092.9496,821.6075 1090.7518,816.4996 1094.2014,807.2651 C1090.3378,799.2841 1094.6349,792.5555 1103.2752,792.0137" fill="#F1F1F1" style="stroke:#181818;stroke-width:0.5;"/><text fill="#000000" font-family="sans-serif" font-size="14" lengthAdjust="spacing" textLength="122.8007" x="1108.6" y="810.6579">&#9324; GitHub Actions</text></g><!--entity CDK--><g class="entity" data-entity="CDK" data-source-line="44" data-uid="ent0030" id="entity_CDK"><path d="M1121.4107,914.447 C1125.7703,909.2955 1129.4138,908.4894 1133.4556,914.7815 C1136.6547,907.4764 1142.2561,906.7781 1146.7371,913.5742 C1150.1465,908.5564 1155.4284,906.8268 1158.9118,913.4972 C1161.2473,906.1245 1166.955,904.4952 1171.9959,910.9343 C1175.7427,906.5087 1181.0603,906.2123 1183.4155,912.4277 C1187.8229,907.2397 1191.466,906.6323 1195.0311,913.2561 C1200.38,908.2572 1205.3576,908.557 1208.9217,915.3572 C1212.6902,910.0655 1217.9401,908.8971 1221.3753,915.7004 C1231.1302,916.3517 1234.492,920.7978 1230.57,930.1513 C1233.3065,939.4789 1230.9756,945.8562 1219.8879,945.6654 C1216.757,951.8149 1212.5971,952.5298 1208.5003,946.574 C1206.0472,953.7858 1201.1593,953.4373 1196.5639,948.7173 C1192.8394,955.6061 1188.5877,955.4362 1183.2865,950.4854 C1180.0728,955.2769 1175.6782,956.0651 1171.8989,951.1488 C1167.3988,957.0222 1163.1479,957.2629 1158.4929,951.3247 C1153.2946,957.0849 1148.3249,955.9643 1145.8054,948.7127 C1140.9072,953.2582 1137.264,952.3076 1134.8209,946.1848 C1130.2192,950.9849 1126.1531,951.2212 1122.3568,945.2526 C1114.623,943.4862 1111.7941,937.7928 1116.6915,931.0041 C1111.3264,923.7422 1112.2958,917.5818 1121.4107,914.447" fill="#F1F1F1" style="stroke:#181818;stroke-width:0.5;"/><text fill="#000000" font-family="sans-serif" font-size="14" lengthAdjust="spacing" textLength="84.9433" x="1127.53" y="933.9579">&#9325; AWS CDK</text></g><!--entity ECR--><g class="entity" data-entity="ECR" data-source-line="45" data-uid="ent0031" id="entity_ECR"><path d="M947.5117,915.7365 C951.4335,909.5656 955.1568,910.1753 959.4475,915.3484 C961.9377,908.5347 968.6999,907.2885 973.4724,912.7384 C977.5039,907.7529 981.4086,908.9053 983.9934,914.2166 C987.2479,907.6925 993.2069,907.3832 997.9254,912.4582 C1000.8458,907.4026 1005.9211,907.1175 1009.3884,911.8156 C1013.5985,906.9937 1019.5266,906.6594 1022.0509,913.6264 C1024.9783,908.0559 1030.3384,908.2714 1033.1243,913.7681 C1036.8017,909.0124 1040.4907,907.8472 1044.5541,913.3376 C1048.968,907.7087 1054.0778,908.886 1056.8699,915.0337 C1061.0135,908.6231 1066.3549,910.0399 1069.5743,915.9839 C1077.1727,917.7728 1079.7962,924.6859 1074.1939,930.6366 C1079.9467,936.4592 1078.0552,943.9448 1069.8831,945.8119 C1066.8522,950.8051 1061.9181,950.6399 1058.559,946.2059 C1055.4306,951.9755 1051.1418,952.7968 1046.4181,948.0472 C1044.1305,955.1009 1037.2961,955.6977 1032.7104,950.6505 C1030.4242,956.087 1025.0466,958.6879 1020.7905,952.707 C1017.7071,958.3964 1012.3651,959.0322 1008.4636,953.615 C1004.8788,958.1062 1000.5848,958.877 997.6406,952.9494 C991.9584,958.5427 987.3962,956.3065 985.114,949.5114 C980.9788,954.1268 975.6953,954.2572 972.9618,947.9517 C969.2104,954.0107 963.523,952.9984 961.112,946.6695 C956.1694,951.955 950.9682,952.5098 947.2036,945.3527 C936.4322,945.8963 932.8476,938.1022 938.5825,929.6079 C934.1456,921.2815 937.9573,915.0564 947.5117,915.7365" fill="#F1F1F1" style="stroke:#181818;stroke-width:0.5;"/><text fill="#000000" font-family="sans-serif" font-size="14" lengthAdjust="spacing" textLength="107.83" x="954.08" y="933.9579">&#9326; Amazon ECR</text></g><!--entity CWCI--><g class="entity" data-entity="CWCI" data-source-line="46" data-uid="ent0032" id="entity_CWCI"><path d="M943.5167,667.4318 C947.1778,662.4596 952.5723,662.1286 955.983,667.7272 C959.8294,662.1347 963.4761,663.1839 967.1752,667.8873 C971.8872,660.6071 977.3276,659.6968 982.5006,667.4162 C985.3733,660.8877 991.2702,660.8588 994.9793,666.5631 C998.954,659.5622 1003.6042,660.0396 1007.9767,666.1694 C1011.246,661.0055 1015.3589,660.5819 1019.3557,665.3345 C1023.2859,658.7033 1029.6592,659.1335 1032.8967,666.028 C1036.5701,659.1118 1043.2481,658.6139 1046.9898,665.9604 C1051.3479,660.2602 1056.2999,660.0544 1060.0158,666.6413 C1063.0238,661.6966 1068.07,661.3827 1070.9785,666.7471 C1075.0579,660.8287 1081.5205,660.8574 1084.134,668.2013 C1087.3998,660.7434 1094.1351,662.0975 1097.6038,667.9968 C1102.0266,660.308 1108.84,661.8841 1112.3157,668.9417 C1115.0622,662.6388 1120.9382,662.0153 1124.6804,667.9344 C1133.9868,668.2493 1139.8846,675.1832 1133.8148,684.1563 C1137.7639,692.4919 1133.0288,700.4084 1123.4697,699.826 C1120.0442,705.8056 1113.9622,706.3724 1110.8833,699.4869 C1107.7706,705.8213 1102.6159,706.3125 1098.4335,700.5916 C1094.6094,706.9997 1090.3069,706.9632 1085.5692,701.589 C1081.2411,708.4549 1076.5272,708.7944 1071.5885,702.2244 C1068.6116,707.633 1064.0434,708.716 1060.2067,703.1132 C1055.8543,709.5334 1050.7758,709.9045 1046.7318,702.8058 C1043.0251,709.2437 1037.7408,709.5312 1033.6424,703.2076 C1029.7509,708.7858 1025.966,709.6848 1021.2346,704.1449 C1016.4037,709.8755 1011.4681,710.7846 1007.5869,703.1733 C1003.9743,708.1831 997.6547,707.8961 994.6218,702.4541 C990.3635,707.1536 984.0698,707.496 981.7747,700.3287 C978.9836,706.1764 972.9323,706.8546 969.1601,701.4261 C964.5264,706.4245 959.2985,705.2848 956.4769,699.3281 C952.205,706.6158 947.8019,706.1648 942.9722,699.8832 C935.314,695.7318 934.6543,689.6973 941.6119,684.2723 C933.0715,678.5951 934.1963,671.0888 943.5167,667.4318" fill="#F1F1F1" style="stroke:#181818;stroke-width:0.5;"/><text fill="#000000" font-family="sans-serif" font-size="14" lengthAdjust="spacing" textLength="167.7471" x="948.13" y="687.3579">&#9320; CloudWatch (CI Logs)</text></g><!--entity Notifications--><g class="entity" data-entity="Notifications" data-source-line="47" data-uid="ent0033" id="entity_Notifications"><path d="M941.0108,792.4539 C943.5136,785.7616 949.1454,785.3094 953.3298,790.746 C956.2889,786.3785 961.2617,786.0097 963.4586,791.527 C965.8298,785.504 971.1858,785.4363 975.0544,789.8659 C978.2293,783.2099 983.5787,783.0995 987.1773,789.4716 C989.8204,785.2336 992.6836,784.7675 996.2288,788.4393 C1000.0289,781.9203 1003.9678,783.5242 1008.0355,788.1559 C1012.9287,783.3045 1017.0708,784.7125 1019.5572,790.7116 C1022.6171,785.3676 1026.3977,785.742 1029.6329,790.5373 C1033.892,786.075 1038.1666,785.5268 1041.1578,791.8875 C1044.4509,785.8482 1048.4067,785.9018 1052.0934,791.5182 C1058.9579,794.931 1061.4014,802.5486 1053.2388,807.0683 C1060.9347,811.878 1060.4655,817.6638 1053.0512,822.2872 C1050.1473,828.3396 1045.5756,828.0821 1042.1675,822.7702 C1037.953,829.0273 1034.0069,827.3871 1030.3634,822.1822 C1027.1283,828.3851 1022.7489,828.9516 1018.082,823.7201 C1015.2116,827.8968 1011.1735,827.964 1008.1641,823.8872 C1006.3716,829.3807 1001.4384,829.3662 998.0569,825.6266 C993.2344,831.6671 989.2278,830.7742 985.7114,824.3345 C981.0923,830.11 977.1158,829.2583 974.2242,822.7227 C971.8444,827.9702 967.2196,828.0746 964.4768,823.0678 C961.2893,828.7867 955.304,828.7229 952.5109,822.667 C948.725,826.333 944.6978,825.7473 942.2332,821.0444 C935.2851,818.2456 933.0594,812.8706 938.5233,806.8319 C932.4558,801.374 933.0435,795.4837 941.0108,792.4539" fill="#F1F1F1" style="stroke:#181818;stroke-width:0.5;"/><text fill="#000000" font-family="sans-serif" font-size="14" lengthAdjust="spacing" textLength="96.0244" x="947.99" y="810.6579">&#9321; Slack / SNS</text></g><!--entity User--><g class="entity" data-entity="User" data-source-line="11" data-uid="ent0002" id="entity_User"><ellipse cx="679.9957" cy="88.3828" fill="#F1F1F1" rx="8" ry="8" style="stroke:#181818;stroke-width:0.5;"/><path d="M679.9957,96.3828 L679.9957,123.3828 M666.9957,104.3828 L692.9957,104.3828 M679.9957,123.3828 L666.9957,138.3828 M679.9957,123.3828 L692.9957,138.3828" fill="none" style="stroke:#181818;stroke-width:0.5;"/><text fill="#000000" font-family="sans-serif" font-size="14" lengthAdjust="spacing" textLength="94.6914" x="632.65" y="152.8779">External User</text></g><!--entity Dev--><g class="entity" data-entity="Dev" data-source-line="12" data-uid="ent0003" id="entity_Dev"><ellipse cx="1646.0015" cy="493.5728" fill="#F1F1F1" rx="8" ry="8" style="stroke:#181818;stroke-width:0.5;"/><path d="M1646.0015,501.5728 L1646.0015,528.5728 M1633.0015,509.5728 L1659.0015,509.5728 M1646.0015,528.5728 L1633.0015,543.5728 M1646.0015,528.5728 L1659.0015,543.5728" fill="none" style="stroke:#181818;stroke-width:0.5;"/><text fill="#000000" font-family="sans-serif" font-size="14" lengthAdjust="spacing" textLength="72.0029" x="1610" y="558.0679">Developer</text></g><!--link User to DNS--><g class="link" data-entity-1="User" data-entity-2="DNS" data-source-line="51" data-uid="lnk34" id="link_User_DNS"><path d="M680,156.3028 C680,186.6528 680,222.4828 680,247.8928" fill="none" id="User-to-DNS" style="stroke:#181818;stroke-width:1;"/><polygon fill="#181818" points="680,253.8928,684,244.8928,680,248.8928,676,244.8928,680,253.8928" style="stroke:#181818;stroke-width:1;"/><text fill="#000000" font-family="sans-serif" font-size="13" lengthAdjust="spacing" textLength="160.3862" x="681" y="199.2497">movie-api.company.com</text></g><!--link DNS to WAF--><g class="link" data-entity-1="DNS" data-entity-2="WAF" data-source-line="52" data-uid="lnk35" id="link_DNS_WAF"><path d="M680,300.7428 C680,318.0428 680,336.1728 680,355.2428" fill="none" id="DNS-to-WAF" style="stroke:#181818;stroke-width:1;"/><polygon fill="#181818" points="680,361.2428,684,352.2428,680,356.2428,676,352.2428,680,361.2428" style="stroke:#181818;stroke-width:1;"/></g><!--link WAF to ALB--><g class="link" data-entity-1="WAF" data-entity-2="ALB" data-source-line="53" data-uid="lnk36" id="link_WAF_ALB"><path d="M680,424.5328 C680,447.6928 680,472.9028 680,493.7428" fill="none" id="WAF-to-ALB" style="stroke:#181818;stroke-width:1;"/><polygon fill="#181818" points="680,499.7428,684,490.7428,680,494.7428,676,490.7428,680,499.7428" style="stroke:#181818;stroke-width:1;"/></g><!--link ALB to APIGW--><g class="link" data-entity-1="ALB" data-entity-2="APIGW" data-source-line="54" data-uid="lnk37" id="link_ALB_APIGW"><path d="M680,546.7528 C680,576.6528 680,623.1328 680,653.0228" fill="none" id="ALB-to-APIGW" style="stroke:#181818;stroke-width:1;"/><polygon fill="#181818" points="680,659.0228,684,650.0228,680,654.0228,676,650.0228,680,659.0228" style="stroke:#181818;stroke-width:1;"/></g><!--link APIGW to Cognito--><g class="link" data-entity-1="APIGW" data-entity-2="Cognito" data-source-line="55" data-uid="lnk38" id="link_APIGW_Cognito"><path d="M702.85,706.0428 C724.94,727.8328 753.9474,756.4403 776.0074,778.1903" fill="none" id="APIGW-to-Cognito" style="stroke:#181818;stroke-width:1;"/><polygon fill="#181818" points="780.28,782.4028,776.6795,773.2357,776.7195,778.8924,771.0628,778.9324,780.28,782.4028" style="stroke:#181818;stroke-width:1;"/></g><!--link APIGW to API--><g class="link" data-entity-1="APIGW" data-entity-2="API" data-source-line="56" data-uid="lnk39" id="link_APIGW_API"><path d="M657.34,706.0428 C635.43,727.8328 606.6643,756.4219 584.7943,778.1719" fill="none" id="APIGW-to-API" style="stroke:#181818;stroke-width:1;"/><polygon fill="#181818" points="580.54,782.4028,589.7421,778.8926,584.0852,778.877,584.1008,773.2202,580.54,782.4028" style="stroke:#181818;stroke-width:1;"/></g><!--link API to RDS--><g class="link" data-entity-1="API" data-entity-2="RDS" data-source-line="57" data-uid="lnk40" id="link_API_RDS"><path d="M483.51,829.3428 C411.15,851.2328 307.6931,882.5258 235.8131,904.2658" fill="none" id="API-to-RDS" style="stroke:#181818;stroke-width:1;"/><polygon fill="#181818" points="230.07,906.0028,239.8426,907.2261,234.8559,904.5553,237.5266,899.5686,230.07,906.0028" style="stroke:#181818;stroke-width:1;"/></g><!--link API to Secrets--><g class="link" data-entity-1="API" data-entity-2="Secrets" data-source-line="58" data-uid="lnk41" id="link_API_Secrets"><path d="M534.78,829.3428 C512.33,851.1328 482.8065,879.775 460.3965,901.515" fill="none" id="API-to-Secrets" style="stroke:#181818;stroke-width:1;"/><polygon fill="#181818" points="456.09,905.6928,465.335,902.2972,459.6788,902.2113,459.7646,896.5551,456.09,905.6928" style="stroke:#181818;stroke-width:1;"/></g><!--link API to CW--><g class="link" data-entity-1="API" data-entity-2="CW" data-source-line="59" data-uid="lnk42" id="link_API_CW"><path d="M574.23,829.2328 C587.39,846.8628 605.29,869.4928 615,875.9628 C629.49,885.6028 658.155,895.101 692.535,904.561" fill="none" id="API-to-CW" style="stroke:#181818;stroke-width:1;"/><polygon fill="#181818" points="698.32,906.1528,690.7037,899.9084,693.4992,904.8263,688.5813,907.6218,698.32,906.1528" style="stroke:#181818;stroke-width:1;"/></g><!--link API to XRay--><g class="link" data-entity-1="API" data-entity-2="XRay" data-source-line="60" data-uid="lnk43" id="link_API_XRay"><path d="M569.33,829.3428 C580.29,851.1328 594.0929,878.5932 605.0329,900.3332" fill="none" id="API-to-XRay" style="stroke:#181818;stroke-width:1;"/><polygon fill="#181818" points="607.73,905.6928,607.2575,895.8553,605.4824,901.2264,600.1113,899.4514,607.73,905.6928" style="stroke:#181818;stroke-width:1;"/></g><!--link CW to SNS--><g class="link" data-entity-1="CW" data-entity-2="SNS" data-source-line="61" data-uid="lnk44" id="link_CW_SNS"><path d="M788,952.6028 C788,970.9128 788,990.6328 788,1008.9428" fill="none" id="CW-to-SNS" style="stroke:#181818;stroke-width:1;"/><polygon fill="#181818" points="788,1014.9428,792,1005.9428,788,1009.9428,784,1005.9428,788,1014.9428" style="stroke:#181818;stroke-width:1;"/></g><!--link API to ECR--><g class="link" data-entity-1="API" data-entity-2="ECR" data-source-line="62" data-uid="lnk45" id="link_API_ECR"><path d="M660.68,829.4328 C695.35,837.7928 734.09,847.9528 769,858.9628 C788.99,865.2628 793.07,869.4628 813,875.9628 C854.32,889.4228 895.5424,900.6148 933.0724,910.0848" fill="none" id="API-to-ECR" style="stroke:#181818;stroke-width:1;"/><polygon fill="#181818" points="938.89,911.5528,931.1422,905.4724,934.042,910.3295,929.1849,913.2293,938.89,911.5528" style="stroke:#181818;stroke-width:1;"/></g><!--link API to ECR--><g class="link" data-entity-1="API" data-entity-2="ECR" data-source-line="92" data-uid="lnk69" id="link_API_ECR"><path d="M583.18,829.3528 C602.31,845.1328 630.01,865.2328 658,875.9628 C756.32,913.6428 789.03,889.3228 893,905.9628 C907.86,908.3328 917.8345,910.0779 932.9045,912.9279" fill="none" id="API-to-ECR-1" style="stroke:#181818;stroke-width:1;"/><polygon fill="#181818" points="938.8,914.0428,930.7,908.4401,933.8871,913.1137,929.2135,916.3007,938.8,914.0428" style="stroke:#181818;stroke-width:1;"/><text fill="#000000" font-family="sans-serif" font-size="13" lengthAdjust="spacing" textLength="101.6704" x="659" y="872.0297">Pull Prod Image</text></g><!--link Dev to Workspaces--><g class="link" data-entity-1="Dev" data-entity-2="Workspaces" data-source-line="65" data-uid="lnk46" id="link_Dev_Workspaces"><path d="M1681.78,561.4928 C1710.91,591.8328 1746.9151,629.3342 1771.3151,654.7542" fill="none" id="Dev-to-Workspaces" style="stroke:#181818;stroke-width:1;"/><polygon fill="#181818" points="1775.47,659.0828,1772.1234,649.82,1772.0076,655.4756,1766.3519,655.3599,1775.47,659.0828" style="stroke:#181818;stroke-width:1;"/><text fill="#000000" font-family="sans-serif" font-size="13" lengthAdjust="spacing" textLength="35.2993" x="1727" y="604.4297">Login</text></g><!--link Workspaces to WS--><g class="link" data-entity-1="Workspaces" data-entity-2="WS" data-source-line="66" data-uid="lnk47" id="link_Workspaces_WS"><path d="M1797,706.0428 C1797,727.8328 1797,754.6528 1797,776.4028" fill="none" id="Workspaces-to-WS" style="stroke:#181818;stroke-width:1;"/><polygon fill="#181818" points="1797,782.4028,1801,773.4028,1797,777.4028,1793,773.4028,1797,782.4028" style="stroke:#181818;stroke-width:1;"/><text fill="#000000" font-family="sans-serif" font-size="13" lengthAdjust="spacing" textLength="112.9312" x="1798" y="748.7297">Access Dev Tools</text></g><!--link WS to GitHub--><g class="link" data-entity-1="WS" data-entity-2="GitHub" data-source-line="67" data-uid="lnk48" id="link_WS_GitHub"><path d="M1712.79,786.0728 C1597.4,760.3828 1399.7167,716.3861 1306.6967,695.6861" fill="none" id="WS-to-GitHub" style="stroke:#181818;stroke-width:1;"/><polygon fill="#181818" points="1300.84,694.3828,1308.7562,700.2423,1305.7206,695.4689,1310.494,692.4333,1300.84,694.3828" style="stroke:#181818;stroke-width:1;"/><text fill="#000000" font-family="sans-serif" font-size="13" lengthAdjust="spacing" textLength="155.397" x="1558" y="748.7297">Clone Repo / Push Code</text></g><!--link WS to SQLite--><g class="link" data-entity-1="WS" data-entity-2="SQLite" data-source-line="68" data-uid="lnk49" id="link_WS_SQLite"><path d="M1881.33,829.1528 C1965.7,852.3528 2084.82,887.7428 2098,905.9628 C2116.31,931.2728 2110.28,947.5328 2098,976.2528 C2091.41,991.6528 2083.431,1001.1818 2071.161,1011.4518" fill="none" id="WS-to-SQLite" style="stroke:#181818;stroke-width:1;"/><polygon fill="#181818" points="2066.56,1015.3028,2076.0289,1012.5936,2070.3942,1012.0936,2070.8942,1006.4589,2066.56,1015.3028" style="stroke:#181818;stroke-width:1;"/></g><!--link WS to LocalAPI--><g class="link" data-entity-1="WS" data-entity-2="LocalAPI" data-source-line="69" data-uid="lnk50" id="link_WS_LocalAPI"><path d="M1828.02,829.3428 C1857.92,851.0628 1898.0657,880.2164 1928.0057,901.9664" fill="none" id="WS-to-LocalAPI" style="stroke:#181818;stroke-width:1;"/><polygon fill="#181818" points="1932.86,905.4928,1927.9295,896.967,1928.8147,902.5541,1923.2276,903.4394,1932.86,905.4928" style="stroke:#181818;stroke-width:1;"/></g><!--link WS to DevSecrets--><g class="link" data-entity-1="WS" data-entity-2="DevSecrets" data-source-line="70" data-uid="lnk51" id="link_WS_DevSecrets"><path d="M1799.15,829.3428 C1803.36,873.4228 1812.0606,964.6499 1816.2706,1008.8099" fill="none" id="WS-to-DevSecrets" style="stroke:#181818;stroke-width:1;"/><polygon fill="#181818" points="1816.84,1014.7828,1819.9678,1005.4438,1816.3655,1009.8054,1812.0039,1006.2031,1816.84,1014.7828" style="stroke:#181818;stroke-width:1;"/></g><!--link WS to DevRDS--><g class="link" data-entity-1="WS" data-entity-2="DevRDS" data-source-line="71" data-uid="lnk52" id="link_WS_DevRDS"><path d="M1777.31,829.3428 C1758.15,851.2628 1733.1784,879.845 1714.1784,901.585" fill="none" id="WS-to-DevRDS" style="stroke:#181818;stroke-width:1;"/><polygon fill="#181818" points="1710.23,906.1028,1719.1644,901.9584,1713.5203,902.338,1713.1407,896.6939,1710.23,906.1028" style="stroke:#181818;stroke-width:1;"/></g><!--link LocalAPI to SQLite--><g class="link" data-entity-1="LocalAPI" data-entity-2="SQLite" data-source-line="72" data-uid="lnk53" id="link_LocalAPI_SQLite"><path d="M1978.67,952.6028 C1990.7,971.0328 2004.3532,991.9566 2016.3032,1010.2866" fill="none" id="LocalAPI-to-SQLite" style="stroke:#181818;stroke-width:1;"/><polygon fill="#181818" points="2019.58,1015.3128,2018.0157,1005.589,2016.8494,1011.1243,2011.314,1009.958,2019.58,1015.3128" style="stroke:#181818;stroke-width:1;"/></g><!--link LocalAPI to DevSecrets--><g class="link" data-entity-1="LocalAPI" data-entity-2="DevSecrets" data-source-line="73" data-uid="lnk54" id="link_LocalAPI_DevSecrets"><path d="M1933.6,952.6028 C1908.86,970.9128 1878.9121,993.0625 1854.1821,1011.3725" fill="none" id="LocalAPI-to-DevSecrets" style="stroke:#181818;stroke-width:1;"/><polygon fill="#181818" points="1849.36,1014.9428,1858.9734,1012.8021,1853.3784,1011.9676,1854.213,1006.3726,1849.36,1014.9428" style="stroke:#181818;stroke-width:1;"/></g><!--link Dev to DevAPIGW--><g class="link" data-entity-1="Dev" data-entity-2="DevAPIGW" data-source-line="75" data-uid="lnk55" id="link_Dev_DevAPIGW"><path d="M1629.41,561.4928 C1615.91,591.8328 1599.729,628.1809 1588.419,653.6009" fill="none" id="Dev-to-DevAPIGW" style="stroke:#181818;stroke-width:1;"/><polygon fill="#181818" points="1585.98,659.0828,1593.2931,652.486,1588.0125,654.5146,1585.984,649.234,1585.98,659.0828" style="stroke:#181818;stroke-width:1;"/></g><!--link DevAPIGW to DevCognito--><g class="link" data-entity-1="DevAPIGW" data-entity-2="DevCognito" data-source-line="76" data-uid="lnk56" id="link_DevAPIGW_DevCognito"><path d="M1665.54,702.7528 C1671.1,703.7828 1676.62,704.7628 1682,705.6628 C1786.72,723.2028 1823.68,688.8928 1919,735.6628 C1940.62,746.2728 1955.7551,761.6791 1968.2751,777.4891" fill="none" id="DevAPIGW-to-DevCognito" style="stroke:#181818;stroke-width:1;"/><polygon fill="#181818" points="1972,782.1928,1969.5485,772.6539,1968.8959,778.273,1963.2768,777.6205,1972,782.1928" style="stroke:#181818;stroke-width:1;"/></g><!--link DevAPIGW to DevAPI--><g class="link" data-entity-1="DevAPIGW" data-entity-2="DevAPI" data-source-line="77" data-uid="lnk57" id="link_DevAPIGW_DevAPI"><path d="M1567.46,706.0428 C1559.19,727.8328 1548.8779,755.0428 1540.6279,776.7928" fill="none" id="DevAPIGW-to-DevAPI" style="stroke:#181818;stroke-width:1;"/><polygon fill="#181818" points="1538.5,782.4028,1545.4319,775.4065,1540.2733,777.7278,1537.9519,772.5692,1538.5,782.4028" style="stroke:#181818;stroke-width:1;"/></g><!--link DevAPI to DevRDS--><g class="link" data-entity-1="DevAPI" data-entity-2="DevRDS" data-source-line="78" data-uid="lnk58" id="link_DevAPI_DevRDS"><path d="M1559.91,829.3428 C1589.01,851.2628 1628.1476,880.7527 1657.0076,902.4927" fill="none" id="DevAPI-to-DevRDS" style="stroke:#181818;stroke-width:1;"/><polygon fill="#181818" points="1661.8,906.1028,1657.0181,897.4927,1657.8063,903.0944,1652.2046,903.8826,1661.8,906.1028" style="stroke:#181818;stroke-width:1;"/></g><!--link DevAPI to DevCW--><g class="link" data-entity-1="DevAPI" data-entity-2="DevCW" data-source-line="79" data-uid="lnk59" id="link_DevAPI_DevCW"><path d="M1529.88,829.3128 C1529.13,843.1928 1526.92,861.1128 1521,875.9628 C1516.81,886.4728 1513.6815,892.0573 1506.9815,900.7173" fill="none" id="DevAPI-to-DevCW" style="stroke:#181818;stroke-width:1;"/><polygon fill="#181818" points="1503.31,905.4628,1511.9809,900.7922,1506.3696,901.5082,1505.6535,895.8968,1503.31,905.4628" style="stroke:#181818;stroke-width:1;"/></g><!--link GitHub to GHActions--><g class="link" data-entity-1="GitHub" data-entity-2="GHActions" data-source-line="82" data-uid="lnk60" id="link_GitHub_GHActions"><path d="M1205.54,705.9628 C1194.04,713.7628 1183.01,723.6328 1176,735.6628 C1167.87,749.6128 1166.327,761.909 1166.977,776.179" fill="none" id="GitHub-to-GHActions" style="stroke:#181818;stroke-width:1;"/><polygon fill="#181818" points="1167.25,782.1728,1170.8363,773.0001,1167.0225,777.178,1162.8446,773.3641,1167.25,782.1728" style="stroke:#181818;stroke-width:1;"/><text fill="#000000" font-family="sans-serif" font-size="13" lengthAdjust="spacing" textLength="68.5039" x="1177" y="748.7297">Code Push</text></g><!--link GHActions to GHActions--><g class="link" data-entity-1="GHActions" data-entity-2="GHActions" data-source-line="83" data-uid="lnk61" id="link_GHActions_GHActions"><path d="M1246.8,794.3828 C1266.54,795.1028 1281.4,798.9128 1281.4,805.8128 C1281.4,812.7028 1272.5359,816.2911 1252.7959,817.0211" fill="none" id="GHActions-to-GHActions" style="stroke:#181818;stroke-width:1;"/><polygon fill="#181818" points="1246.8,817.2428,1255.9417,820.9075,1251.7966,817.058,1255.646,812.9129,1246.8,817.2428" style="stroke:#181818;stroke-width:1;"/><text fill="#000000" font-family="sans-serif" font-size="13" lengthAdjust="spacing" textLength="64.8223" x="1287.4" y="810.3797">Build/Test</text></g><!--link GHActions to ECR--><g class="link" data-entity-1="GHActions" data-entity-2="ECR" data-source-line="84" data-uid="lnk62" id="link_GHActions_ECR"><path d="M1125.54,829.3428 C1110.26,837.8428 1093.39,848.1028 1079,858.9628 C1060.46,872.9528 1045.8555,887.0562 1032.2855,901.3862" fill="none" id="GHActions-to-ECR" style="stroke:#181818;stroke-width:1;"/><polygon fill="#181818" points="1028.16,905.7428,1037.2527,901.9583,1031.598,902.1123,1031.4439,896.4576,1028.16,905.7428" style="stroke:#181818;stroke-width:1;"/><text fill="#000000" font-family="sans-serif" font-size="13" lengthAdjust="spacing" textLength="81.2056" x="1080" y="872.0297">Docker Push</text></g><!--link GHActions to CDK--><g class="link" data-entity-1="GHActions" data-entity-2="CDK" data-source-line="85" data-uid="lnk63" id="link_GHActions_CDK"><path d="M1170,829.3428 C1170,851.1328 1170,877.9528 1170,899.6928" fill="none" id="GHActions-to-CDK" style="stroke:#181818;stroke-width:1;"/><polygon fill="#181818" points="1170,905.6928,1174,896.6928,1170,900.6928,1166,896.6928,1170,905.6928" style="stroke:#181818;stroke-width:1;"/><text fill="#000000" font-family="sans-serif" font-size="13" lengthAdjust="spacing" textLength="85.6426" x="1171" y="872.0297">Deploy Stack</text></g><!--link CDK to DevAPI--><g class="link" data-entity-1="CDK" data-entity-2="DevAPI" data-source-line="86" data-uid="lnk64" id="link_CDK_DevAPI"><path d="M1227.79,919.7728 C1275.74,911.7828 1345.18,897.6828 1403,875.9628 C1407.58,874.2328 1448.486,851.8303 1483.846,832.3303" fill="none" id="CDK-to-DevAPI" style="stroke:#181818;stroke-width:1;"/><polygon fill="#181818" points="1489.1,829.4328,1479.2873,830.2763,1484.7216,831.8473,1483.1506,837.2817,1489.1,829.4328" style="stroke:#181818;stroke-width:1;"/><text fill="#000000" font-family="sans-serif" font-size="13" lengthAdjust="spacing" textLength="75.353" x="1434" y="872.0297">Dev Deploy</text></g><!--link CDK to API--><g class="link" data-entity-1="CDK" data-entity-2="API" data-source-line="87" data-uid="lnk65" id="link_CDK_API"><path d="M1112.07,910.5728 C1105.99,908.9328 1099.88,907.3528 1094,905.9628 C959.11,873.9128 809,847.0494 700.19,829.0994" fill="none" id="CDK-to-API" style="stroke:#181818;stroke-width:1;"/><polygon fill="#181818" points="694.27,828.1228,702.4989,833.5344,699.2033,828.9366,703.801,825.6411,694.27,828.1228" style="stroke:#181818;stroke-width:1;"/><text fill="#000000" font-family="sans-serif" font-size="13" lengthAdjust="spacing" textLength="79.041" x="948" y="872.0297">Prod Deploy</text></g><!--link CWCI to Notifications--><g class="link" data-entity-1="CWCI" data-entity-2="Notifications" data-source-line="88" data-uid="lnk66" id="link_CWCI_Notifications"><path d="M1025.31,706.0428 C1018.85,727.8328 1010.8183,754.9011 1004.3583,776.6511" fill="none" id="CWCI-to-Notifications" style="stroke:#181818;stroke-width:1;"/><polygon fill="#181818" points="1002.65,782.4028,1009.0469,774.9142,1004.0736,777.6098,1001.378,772.6364,1002.65,782.4028" style="stroke:#181818;stroke-width:1;"/></g><!--link CW to Notifications--><g class="link" data-entity-1="CW" data-entity-2="Notifications" data-source-line="89" data-uid="lnk67" id="link_CW_Notifications"><path d="M877.18,905.4828 C897.84,897.9628 919.02,888.2728 937,875.9628 C955.1,863.5628 967.4686,849.1366 978.1586,834.0666" fill="none" id="CW-to-Notifications" style="stroke:#181818;stroke-width:1;"/><polygon fill="#181818" points="981.63,829.1728,973.1603,834.1992,978.7371,833.251,979.6854,838.8278,981.63,829.1728" style="stroke:#181818;stroke-width:1;"/></g><!--link DevAPI to ECR--><g class="link" data-entity-1="DevAPI" data-entity-2="ECR" data-source-line="91" data-uid="lnk68" id="link_DevAPI_ECR"><path d="M1402.1,829.4028 C1367.2,837.1528 1329.73,846.9728 1296,858.9628 C1280.08,864.6128 1278.03,870.6328 1262,875.9628 C1190.43,899.7328 1168.7,889.9828 1095,905.9628 C1089.21,907.2128 1089.0665,907.1918 1083.0665,908.6218" fill="none" id="DevAPI-to-ECR" style="stroke:#181818;stroke-width:1;"/><polygon fill="#181818" points="1077.23,910.0128,1086.9121,911.8173,1082.0938,908.8536,1085.0574,904.0352,1077.23,910.0128" style="stroke:#181818;stroke-width:1;"/><text fill="#000000" font-family="sans-serif" font-size="13" lengthAdjust="spacing" textLength="97.9824" x="1297" y="872.0297">Pull Dev Image</text></g><g class="legend" data-source-line="94"><rect fill="#F2F2F2" height="323.6406" rx="7.5" ry="7.5" style="stroke:#CCCCCC;stroke-width:1;" width="527.2548" x="799.3726" y="1095.5528"/><text fill="#000000" font-family="sans-serif" font-size="14" font-weight="bold" lengthAdjust="spacing" textLength="11.7305" x="809.2466" y="1115.5479">#</text><text fill="#000000" font-family="sans-serif" font-size="14" font-weight="bold" lengthAdjust="spacing" textLength="90.2412" x="832.1469" y="1115.5479">Component</text><text fill="#000000" font-family="sans-serif" font-size="14" font-weight="bold" lengthAdjust="spacing" textLength="90.5488" x="1024.0112" y="1115.5479">Description</text><text fill="#000000" font-family="sans-serif" font-size="14" font-weight="bold" lengthAdjust="spacing" textLength="71.5791" x="1186.7954" y="1115.5479">Category</text><text fill="#000000" font-family="sans-serif" font-size="14" lengthAdjust="spacing" textLength="12.5508" x="808.8228" y="1131.8448">&#9312;</text><text fill="#000000" font-family="sans-serif" font-size="14" lengthAdjust="spacing" textLength="63.5332" x="831.7231" y="1131.8448">Route 53</text><text fill="#000000" font-family="sans-serif" font-size="14" lengthAdjust="spacing" textLength="108.3701" x="1023.5874" y="1131.8448">DNS Resolution</text><text fill="#000000" font-family="sans-serif" font-size="14" lengthAdjust="spacing" textLength="80.1035" x="1186.3716" y="1131.8448">Networking</text><text fill="#000000" font-family="sans-serif" font-size="14" lengthAdjust="spacing" textLength="12.5508" x="808.8228" y="1148.1417">&#9313;</text><text fill="#000000" font-family="sans-serif" font-size="14" lengthAdjust="spacing" textLength="83.5352" x="831.7231" y="1148.1417">WAF + ACM</text><text fill="#000000" font-family="sans-serif" font-size="14" lengthAdjust="spacing" textLength="153.043" x="1023.5874" y="1148.1417">TLS + Web Protection</text><text fill="#000000" font-family="sans-serif" font-size="14" lengthAdjust="spacing" textLength="57.4902" x="1186.3716" y="1148.1417">Security</text><text fill="#000000" font-family="sans-serif" font-size="14" lengthAdjust="spacing" textLength="12.5508" x="808.8228" y="1164.4386">&#9314;</text><text fill="#000000" font-family="sans-serif" font-size="14" lengthAdjust="spacing" textLength="26.9814" x="831.7231" y="1164.4386">ALB</text><text fill="#000000" font-family="sans-serif" font-size="14" lengthAdjust="spacing" textLength="99.873" x="1023.5874" y="1164.4386">Load Balancer</text><text fill="#000000" font-family="sans-serif" font-size="14" lengthAdjust="spacing" textLength="80.1035" x="1186.3716" y="1164.4386">Networking</text><text fill="#000000" font-family="sans-serif" font-size="14" lengthAdjust="spacing" textLength="12.5508" x="808.8228" y="1180.7354">&#9315;</text><text fill="#000000" font-family="sans-serif" font-size="14" lengthAdjust="spacing" textLength="182.9639" x="831.7231" y="1180.7354">API Gateway (Prod &amp; Dev)</text><text fill="#000000" font-family="sans-serif" font-size="14" lengthAdjust="spacing" textLength="153.8838" x="1023.5874" y="1180.7354">API Routing/Throttling</text><text fill="#000000" font-family="sans-serif" font-size="14" lengthAdjust="spacing" textLength="66.6914" x="1186.3716" y="1180.7354">API Mgmt</text><text fill="#000000" font-family="sans-serif" font-size="14" lengthAdjust="spacing" textLength="12.5508" x="808.8228" y="1197.0323">&#9316;</text><text fill="#000000" font-family="sans-serif" font-size="14" lengthAdjust="spacing" textLength="148.5654" x="831.7231" y="1197.0323">Cognito (Prod &amp; Dev)</text><text fill="#000000" font-family="sans-serif" font-size="14" lengthAdjust="spacing" textLength="90.4053" x="1023.5874" y="1197.0323">AuthN/AuthZ</text><text fill="#000000" font-family="sans-serif" font-size="14" lengthAdjust="spacing" textLength="53.6553" x="1186.3716" y="1197.0323">Identity</text><text fill="#000000" font-family="sans-serif" font-size="14" lengthAdjust="spacing" textLength="12.5508" x="808.8228" y="1213.3292">&#9317;</text><text fill="#000000" font-family="sans-serif" font-size="14" lengthAdjust="spacing" textLength="180.4346" x="831.7231" y="1213.3292">ECS Fargate (Dev &amp; Prod)</text><text fill="#000000" font-family="sans-serif" font-size="14" lengthAdjust="spacing" textLength="117.4346" x="1023.5874" y="1213.3292">App Deployment</text><text fill="#000000" font-family="sans-serif" font-size="14" lengthAdjust="spacing" textLength="63.8408" x="1186.3716" y="1213.3292">Compute</text><text fill="#000000" font-family="sans-serif" font-size="14" lengthAdjust="spacing" textLength="12.5508" x="808.8228" y="1229.6261">&#9318;</text><text fill="#000000" font-family="sans-serif" font-size="14" lengthAdjust="spacing" textLength="123.915" x="831.7231" y="1229.6261">RDS (Dev &amp; Prod)</text><text fill="#000000" font-family="sans-serif" font-size="14" lengthAdjust="spacing" textLength="105.5879" x="1023.5874" y="1229.6261">PostgreSQL DB</text><text fill="#000000" font-family="sans-serif" font-size="14" lengthAdjust="spacing" textLength="66.8008" x="1186.3716" y="1229.6261">Database</text><text fill="#000000" font-family="sans-serif" font-size="14" lengthAdjust="spacing" textLength="12.5508" x="808.8228" y="1245.9229">&#9319;</text><text fill="#000000" font-family="sans-serif" font-size="14" lengthAdjust="spacing" textLength="166.0723" x="831.7231" y="1245.9229">Secrets Manager (Both)</text><text fill="#000000" font-family="sans-serif" font-size="14" lengthAdjust="spacing" textLength="116.9082" x="1023.5874" y="1245.9229">Credential Mgmt</text><text fill="#000000" font-family="sans-serif" font-size="14" lengthAdjust="spacing" textLength="57.4902" x="1186.3716" y="1245.9229">Security</text><text fill="#000000" font-family="sans-serif" font-size="14" lengthAdjust="spacing" textLength="12.5508" x="808.8228" y="1262.2198">&#9320;</text><text fill="#000000" font-family="sans-serif" font-size="14" lengthAdjust="spacing" textLength="117.2021" x="831.7231" y="1262.2198">CloudWatch (All)</text><text fill="#000000" font-family="sans-serif" font-size="14" lengthAdjust="spacing" textLength="103.9951" x="1023.5874" y="1262.2198">Logs + Metrics</text><text fill="#000000" font-family="sans-serif" font-size="14" lengthAdjust="spacing" textLength="92.7637" x="1186.3716" y="1262.2198">Observability</text><text fill="#000000" font-family="sans-serif" font-size="14" lengthAdjust="spacing" textLength="12.5508" x="808.8228" y="1278.5167">&#9321;</text><text fill="#000000" font-family="sans-serif" font-size="14" lengthAdjust="spacing" textLength="79.0234" x="831.7231" y="1278.5167">SNS / Slack</text><text fill="#000000" font-family="sans-serif" font-size="14" lengthAdjust="spacing" textLength="87.623" x="1023.5874" y="1278.5167">Notifications</text><text fill="#000000" font-family="sans-serif" font-size="14" lengthAdjust="spacing" textLength="80.3291" x="1186.3716" y="1278.5167">Notification</text><text fill="#000000" font-family="sans-serif" font-size="14" lengthAdjust="spacing" textLength="13.9999" x="808.8228" y="1294.8136">&#9322;</text><text fill="#000000" font-family="sans-serif" font-size="14" lengthAdjust="spacing" textLength="41.2344" x="831.7231" y="1294.8136">X-Ray</text><text fill="#000000" font-family="sans-serif" font-size="14" lengthAdjust="spacing" textLength="52.2334" x="1023.5874" y="1294.8136">Tracing</text><text fill="#000000" font-family="sans-serif" font-size="14" lengthAdjust="spacing" textLength="92.7637" x="1186.3716" y="1294.8136">Observability</text><text fill="#000000" font-family="sans-serif" font-size="14" lengthAdjust="spacing" textLength="13.9999" x="808.8228" y="1311.1104">&#9323;</text><text fill="#000000" font-family="sans-serif" font-size="14" lengthAdjust="spacing" textLength="48.5146" x="831.7231" y="1311.1104">GitHub</text><text fill="#000000" font-family="sans-serif" font-size="14" lengthAdjust="spacing" textLength="114.0576" x="1023.5874" y="1311.1104">Repo + Triggers</text><text fill="#000000" font-family="sans-serif" font-size="14" lengthAdjust="spacing" textLength="54.8789" x="1186.3716" y="1311.1104">DevOps</text><text fill="#000000" font-family="sans-serif" font-size="14" lengthAdjust="spacing" textLength="13.9999" x="808.8228" y="1327.4073">&#9324;</text><text fill="#000000" font-family="sans-serif" font-size="14" lengthAdjust="spacing" textLength="104.3506" x="831.7231" y="1327.4073">GitHub Actions</text><text fill="#000000" font-family="sans-serif" font-size="14" lengthAdjust="spacing" textLength="125.166" x="1023.5874" y="1327.4073">CI/CD Automation</text><text fill="#000000" font-family="sans-serif" font-size="14" lengthAdjust="spacing" textLength="39.1768" x="1186.3716" y="1327.4073">CI/CD</text><text fill="#000000" font-family="sans-serif" font-size="14" lengthAdjust="spacing" textLength="13.9999" x="808.8228" y="1343.7042">&#9325;</text><text fill="#000000" font-family="sans-serif" font-size="14" lengthAdjust="spacing" textLength="29.7363" x="831.7231" y="1343.7042">CDK</text><text fill="#000000" font-family="sans-serif" font-size="14" lengthAdjust="spacing" textLength="94.083" x="1023.5874" y="1343.7042">Infra-as-Code</text><text fill="#000000" font-family="sans-serif" font-size="14" lengthAdjust="spacing" textLength="22.4834" x="1186.3716" y="1343.7042">IaC</text><text fill="#000000" font-family="sans-serif" font-size="14" lengthAdjust="spacing" textLength="13.9999" x="808.8228" y="1360.0011">&#9326;</text><text fill="#000000" font-family="sans-serif" font-size="14" lengthAdjust="spacing" textLength="28.3486" x="831.7231" y="1360.0011">ECR</text><text fill="#000000" font-family="sans-serif" font-size="14" lengthAdjust="spacing" textLength="111.9111" x="1023.5874" y="1360.0011">Docker Registry</text><text fill="#000000" font-family="sans-serif" font-size="14" lengthAdjust="spacing" textLength="130.8057" x="1186.3716" y="1360.0011">Container Registry</text><text fill="#000000" font-family="sans-serif" font-size="14" lengthAdjust="spacing" textLength="13.9999" x="808.8228" y="1376.2979">&#9327;</text><text fill="#000000" font-family="sans-serif" font-size="14" lengthAdjust="spacing" textLength="145.667" x="831.7231" y="1376.2979">Amazon Workspaces</text><text fill="#000000" font-family="sans-serif" font-size="14" lengthAdjust="spacing" textLength="56.6152" x="1023.5874" y="1376.2979">Dev VDI</text><text fill="#000000" font-family="sans-serif" font-size="14" lengthAdjust="spacing" textLength="113.3193" x="1186.3716" y="1376.2979">Developer Tools</text><text fill="#000000" font-family="sans-serif" font-size="14" lengthAdjust="spacing" textLength="13.9999" x="808.8228" y="1392.5948">&#9328;</text><text fill="#000000" font-family="sans-serif" font-size="14" lengthAdjust="spacing" textLength="109.4707" x="831.7231" y="1392.5948">Dev Workspace</text><text fill="#000000" font-family="sans-serif" font-size="14" lengthAdjust="spacing" textLength="139.959" x="1023.5874" y="1392.5948">Local Docker / Code</text><text fill="#000000" font-family="sans-serif" font-size="14" lengthAdjust="spacing" textLength="36.5313" x="1186.3716" y="1392.5948">Local</text><text fill="#000000" font-family="sans-serif" font-size="14" lengthAdjust="spacing" textLength="13.9999" x="808.8228" y="1408.8917">&#9329;</text><text fill="#000000" font-family="sans-serif" font-size="14" lengthAdjust="spacing" textLength="45.6982" x="831.7231" y="1408.8917">SQLite</text><text fill="#000000" font-family="sans-serif" font-size="14" lengthAdjust="spacing" textLength="61.3662" x="1023.5874" y="1408.8917">Local DB</text><text fill="#000000" font-family="sans-serif" font-size="14" lengthAdjust="spacing" textLength="68.6602" x="1186.3716" y="1408.8917">Local Dev</text><line style="stroke:#000000;stroke-width:1;" x1="804.3726" x2="1321.6274" y1="1102.5528" y2="1102.5528"/><line style="stroke:#000000;stroke-width:1;" x1="804.3726" x2="1321.6274" y1="1118.8497" y2="1118.8497"/><line style="stroke:#000000;stroke-width:1;" x1="804.3726" x2="1321.6274" y1="1135.1466" y2="1135.1466"/><line style="stroke:#000000;stroke-width:1;" x1="804.3726" x2="1321.6274" y1="1151.4434" y2="1151.4434"/><line style="stroke:#000000;stroke-width:1;" x1="804.3726" x2="1321.6274" y1="1167.7403" y2="1167.7403"/><line style="stroke:#000000;stroke-width:1;" x1="804.3726" x2="1321.6274" y1="1184.0372" y2="1184.0372"/><line style="stroke:#000000;stroke-width:1;" x1="804.3726" x2="1321.6274" y1="1200.3341" y2="1200.3341"/><line style="stroke:#000000;stroke-width:1;" x1="804.3726" x2="1321.6274" y1="1216.6309" y2="1216.6309"/><line style="stroke:#000000;stroke-width:1;" x1="804.3726" x2="1321.6274" y1="1232.9278" y2="1232.9278"/><line style="stroke:#000000;stroke-width:1;" x1="804.3726" x2="1321.6274" y1="1249.2247" y2="1249.2247"/><line style="stroke:#000000;stroke-width:1;" x1="804.3726" x2="1321.6274" y1="1265.5216" y2="1265.5216"/><line style="stroke:#000000;stroke-width:1;" x1="804.3726" x2="1321.6274" y1="1281.8184" y2="1281.8184"/><line style="stroke:#000000;stroke-width:1;" x1="804.3726" x2="1321.6274" y1="1298.1153" y2="1298.1153"/><line style="stroke:#000000;stroke-width:1;" x1="804.3726" x2="1321.6274" y1="1314.4122" y2="1314.4122"/><line style="stroke:#000000;stroke-width:1;" x1="804.3726" x2="1321.6274" y1="1330.7091" y2="1330.7091"/><line style="stroke:#000000;stroke-width:1;" x1="804.3726" x2="1321.6274" y1="1347.0059" y2="1347.0059"/><line style="stroke:#000000;stroke-width:1;" x1="804.3726" x2="1321.6274" y1="1363.3028" y2="1363.3028"/><line style="stroke:#000000;stroke-width:1;" x1="804.3726" x2="1321.6274" y1="1379.5997" y2="1379.5997"/><line style="stroke:#000000;stroke-width:1;" x1="804.3726" x2="1321.6274" y1="1395.8966" y2="1395.8966"/><line style="stroke:#000000;stroke-width:1;" x1="804.3726" x2="1321.6274" y1="1412.1934" y2="1412.1934"/><line style="stroke:#000000;stroke-width:1;" x1="804.3726" x2="804.3726" y1="1102.5528" y2="1412.1934"/><line style="stroke:#000000;stroke-width:1;" x1="827.2729" x2="827.2729" y1="1102.5528" y2="1412.1934"/><line style="stroke:#000000;stroke-width:1;" x1="1019.1372" x2="1019.1372" y1="1102.5528" y2="1412.1934"/><line style="stroke:#000000;stroke-width:1;" x1="1181.9214" x2="1181.9214" y1="1102.5528" y2="1412.1934"/><line style="stroke:#000000;stroke-width:1;" x1="1321.6274" x2="1321.6274" y1="1102.5528" y2="1412.1934"/></g><!--SRC=[ZLRzRjis4FzVJt58WIv1uRdeKA0ei06sb0-ZJk9PNbKC0mfQPcKjCYbGTB9qtaFi3TRlxpPzfJt9xaZAfZIldOFOv7tnxdvtHrPdkIYPOWiuucp6rO4KEiuVSxXrCwYsy49PI0NNRkBdJZ-O6phqk1OC1a9pTPxp2nWf-IjFTU1PqBak-CRuxS0GuEQTXqEPvIah7lPKEiyrgYqLzpM7FEDYrcVfMQRaKioS1mUtwE_VSbAXHqucD9yWOAd6xSx-R-YWO0NyL76r0wmoYveRyNDUoD9nS1S49HxACWux6D0CziLvhgHOSA5tuFS082taSWOxV__v5upbKdEu_PtLFObzxXFe9J4alODVn7NeXST61hSe8-ICayXJw0txi7iqcOpYFSF7lM_Z6VH60pXacb-mIzWbVvpSQ72OaAHSb5AWQoJz0eub0c5qTlV360wOob0NEj3GHBqPqspAAkF5I-Wjs6CfO1p5U8QiTAPu_EEmeOOytx7d4CfCv5hwJZcIB_SAOfughYiuPW9pgdnvn_BbNqD8ouJfTDumdVXIRo0-YHkMcgb_2mywOtPfM0zm4VpXWOeGVm7JJtKo4gdEAbJYbGLklVNmkw9wsR2iODnAxsV0N6A5m-vGOi4xXmtfYq2WwRsw9btsVR2lVB2DPOXaUiQLLJ8KY_N_hH7_GAUv1MvVQWlWhOfjsJnClb8SllnNowFXIj80EHnqmmX6UScBNF0Mnk_WCDT7owdHjKkV_TxHe9VgN0gB_-6Hs_cI7qoBXz4zMwFHFP_viKPpFnmRFlx-TopX027BghhQmq6htWkC3BfKw4RYHEhy4SvFwn96_WsCngSH70nFau366tGwFz14Whkm8C0xhCo_fKfWuf9-0-AH34qa_3ThcZuqaSpQe6M-pRx6UaEX6Y6mQKq5MgzhtEfzcAoNfXb3gquzMzCfDHX2j7_VHa1jPPnRTnt6GJU623oIaQ08UobkJHd0HCgY2X8RcyFnBcLQS1ZpKc8EHyjgZk7CU2tccj7jrftZzbubRYWKRotessZGFCrrHEi-g1SrjSvlcqwUs1__x2O5CupPipLlykS2Dpce2vVIG7EBmWysrBPCVvaNi-w4LxebX1WXsywORKQm_8dFoq9UGgonNWCYRS8mt7CdiUPPXhbfQmvMls4rYzoLJPFe9y8wE5eMXJbdiC1946nXchCiDoZCwm6cKcliYTNtS0tmArnFJDn4l4fLNj9vXeUZBPFg4bR12kWDi5g_0d19NJNcbIoMLXvEkBx0Yir5vXIU897wxGQz2N0z6SQuJlYK_A9taDN3mbcgNDV7F4KITUOAovFDeCyA9bB4OSi1pqYq_Mg0wsQyEnOvZ0hToHoFr8NHDOpZRA6TcUT8QjpndecbdfzqwVjdt0rccAYDfo-GvDyhDALHrTpLf5kM3kU5oQ_9DQNFQh-aTBhRpzFo7YKH9I6gRqshzSech7cLzAMUaswekF4GBqWRNZkthqd86yMzejWpYSugHEQOQvMd5H9EfpXNpzaqBpQwRyWSOjvr4thLhC_MtYczHR9ve13yYgKs_zlClqEww-ML7LytK2FFC42oZKawBIid-tuZMxVboiq4X4ekd0UEP7K-q1uR4L4KZnJhiAfZPWJkMUXaFXf0ntISxVqnp_9AKmSWU48pl61zeb7wH52t7rBMOxWV3UpAlhljo7PwLqvchMI0s3nkCD7EGKkrMfy91Vl8MeltDqkqjmgmpMsp_mC0]--></g></svg>