<svg xmlns="http://www.w3.org/2000/svg" xmlns:xlink="http://www.w3.org/1999/xlink" contentStyleType="text/css" data-diagram-type="DESCRIPTION" height="1051px" preserveAspectRatio="none" style="width:1039px;height:1051px;background:#F9F9F9;" version="1.1" viewBox="0 0 1039 1051" width="1039px" zoomAndPan="magnify"><title>08b_Logical_Architecture_DEVELOPMENT</title><defs/><g><rect fill="#F9F9F9" height="1051" style="stroke:none;stroke-width:1;" width="1039" x="0" y="0"/><text fill="#00008B" font-family="sans-serif" font-size="20" lengthAdjust="spacing" textLength="233.6914" x="791.3586" y="18.5645">Aetna Interview Project</text><g class="title" data-source-line="9"><text fill="#000000" font-family="sans-serif" font-size="30" font-weight="bold" lengthAdjust="spacing" textLength="690.3955" x="167.3272" y="62.1279">08b_Logical_Architecture_DEVELOPMENT</text></g><!--entity Dev--><g class="entity" data-entity="Dev" data-source-line="15" data-uid="ent0002" id="entity_Dev"><ellipse cx="415.0015" cy="94.2031" fill="#191919" rx="8" ry="8" style="stroke:#191919;stroke-width:0.5;"/><path d="M415.0015,102.2031 L415.0015,129.2031 M402.0015,110.2031 L428.0015,110.2031 M415.0015,129.2031 L402.0015,144.2031 M415.0015,129.2031 L428.0015,144.2031" fill="none" style="stroke:#191919;stroke-width:0.5;"/><text fill="#191919" font-family="sans-serif" font-size="14" lengthAdjust="spacing" textLength="72.0029" x="379" y="158.6982">Developer</text></g><!--entity SQLite--><g class="entity" data-entity="SQLite" data-source-line="16" data-uid="ent0003" id="entity_SQLite"><path d="M204.7,496.0931 C204.7,486.0931 272.0022,486.0931 272.0022,486.0931 C272.0022,486.0931 339.3045,486.0931 339.3045,496.0931 L339.3045,521.39 C339.3045,531.39 272.0022,531.39 272.0022,531.39 C272.0022,531.39 204.7,531.39 204.7,521.39 L204.7,496.0931" fill="#A4DBD8" style="stroke:#191919;stroke-width:0.5;"/><path d="M204.7,496.0931 C204.7,506.0931 272.0022,506.0931 272.0022,506.0931 C272.0022,506.0931 339.3045,506.0931 339.3045,496.0931" fill="none" style="stroke:#191919;stroke-width:0.5;"/><text fill="#191919" font-family="sans-serif" font-size="14" lengthAdjust="spacing" textLength="114.6045" x="214.7" y="523.0882">&#9316; SQLite (Local)</text></g><!--entity DevRDS--><g class="entity" data-entity="DevRDS" data-source-line="17" data-uid="ent0004" id="entity_DevRDS"><path d="M97.76,742.6831 C97.76,732.6831 182.9997,732.6831 182.9997,732.6831 C182.9997,732.6831 268.2395,732.6831 268.2395,742.6831 L268.2395,767.98 C268.2395,777.98 182.9997,777.98 182.9997,777.98 C182.9997,777.98 97.76,777.98 97.76,767.98 L97.76,742.6831" fill="#A4DBD8" style="stroke:#191919;stroke-width:0.5;"/><path d="M97.76,742.6831 C97.76,752.6831 182.9997,752.6831 182.9997,752.6831 C182.9997,752.6831 268.2395,752.6831 268.2395,742.6831" fill="none" style="stroke:#191919;stroke-width:0.5;"/><text fill="#191919" font-family="sans-serif" font-size="14" lengthAdjust="spacing" textLength="150.4795" x="107.76" y="769.6782">&#9317; Amazon RDS (Dev)</text></g><!--entity DevCognito--><g class="entity" data-entity="DevCognito" data-source-line="18" data-uid="ent0005" id="entity_DevCognito"><path d="M796.0477,618.4204 C801.1391,608.2513 807.238,609.7073 813.7268,617.0061 C818.2656,608.9378 825.3558,610.4973 828.8941,617.9818 C833.7058,610.9473 839.8872,610.9898 844.6877,617.9942 C848.0066,609.9044 854.3019,608.6426 860.5582,614.6986 C865.0334,605.3473 872.6091,605.6873 877.6364,614.1699 C883.3893,606.5385 889.5983,606.7751 893.5449,615.8862 C896.8012,608.6682 902.2272,607.379 907.6982,613.544 C911.9783,606.7132 919.7482,605.3053 923.7569,613.8279 C929.5078,607.3618 935.6864,607.9182 939.3961,616.0193 C945.7556,608.8855 951.6891,606.8805 957.2329,616.8691 C961.0184,608.7638 968.1005,609.1619 972.8217,615.8855 C978.101,608.853 984.4421,608.5488 989.4197,616.2258 C994.8533,609.0398 999.3309,611.3366 1003.5069,617.5482 C1007.5492,610.8838 1014.7513,610.9252 1018.5921,617.7732 C1027.0163,618.6513 1030.4584,624.7994 1025.7946,632.208 C1032.05,640.8419 1028.9472,646.8426 1018.6451,647.9626 C1014.457,655.253 1009.9048,657.4306 1003.6857,650.0308 C998.9514,657.2526 992.6983,657.6524 988.3276,649.6636 C982.6382,658.7431 977.3192,658.0345 971.686,649.6101 C968.4004,656.918 961.0021,659.7595 955.654,651.772 C949.6046,658.4753 944.8475,658.1097 939.9388,650.5179 C935.9094,658.2 931.0078,660.1701 924.7284,652.79 C919.9905,661.7895 912.7829,660.6618 907.5959,653.2591 C901.6152,658.4508 897.2239,658.2352 893.9245,650.4371 C887.6159,659.2424 881.7994,659.5993 875.3955,650.536 C871.8157,657.4574 866.0125,656.3658 862.0679,650.9296 C856.8201,659.8794 849.3349,660.1105 843.7053,651.3249 C837.8908,657.9385 833.7027,655.746 829.9918,649.1422 C825.4183,656.5015 817.4638,657.4402 812.8847,649.1484 C807.5915,656.6818 801.6937,656.7356 797.4355,648.156 C789.388,646.664 786.363,642.5805 790.2826,634.7184 C784.4271,626.7783 786.7591,621.0035 796.0477,618.4204" fill="#F1F1F1" style="stroke:#181818;stroke-width:0.5;"/><text fill="#000000" font-family="sans-serif" font-size="14" lengthAdjust="spacing" textLength="209.043" x="802.48" y="636.8882">&#9321; Amazon Cognito (Dev Pool)</text></g><!--entity Workspaces--><g class="entity" data-entity="Workspaces" data-source-line="19" data-uid="ent0006" id="entity_Workspaces"><path d="M493.9538,109.1281 C498.2199,101.4395 504.3506,102.3905 508.3255,109.4126 C511.4951,103.1221 517.3987,103.9178 520.5181,109.4642 C522.7029,103.822 528.3598,102.5264 532.0232,107.9233 C537.0847,101.7831 541.8792,101.6747 546.0689,108.8434 C549.0564,101.9598 554.7107,101.9814 558.4288,108.1517 C561.5267,101.9389 567.069,102.1308 571.1163,107.0717 C574.2195,100.5199 578.1634,100.6334 582.8014,105.5012 C587.0398,101.0982 592.7312,101.1562 594.9913,107.7035 C598.6211,100.6193 602.6151,100.965 607.2698,106.7237 C611.4361,100.5464 617.2893,101.5353 620.8773,107.3783 C624.4542,101.4244 629.7998,102.5158 632.7987,107.9817 C638.6314,101.9215 642.9249,102.1769 646.939,109.8538 C650.589,103.9385 655.7506,103.4282 659.5327,109.7174 C663.9561,105.2225 668.1894,104.821 671.5556,110.9176 C680.2982,113.19 680.9204,118.4766 676.4078,125.2397 C681.4744,132.4278 680.2168,137.0748 671.6871,139.8783 C668.0445,145.7034 664.3592,146.2943 659.9218,140.6969 C657.0604,147.7816 651.484,147.5093 647.0837,142.3044 C644.5623,148.5408 638.1688,148.3832 634.4688,143.6609 C632.5427,150.4411 626.3764,150.7614 622.1779,146.1024 C618.5165,152.9734 612.8974,152.0874 609.4157,145.9263 C605.935,151.5736 601.55,152.6787 596.804,147.3846 C593.3692,154.1756 587.2418,154.3435 582.4683,148.9612 C579.4816,154.418 573.5853,154.581 570.5746,148.9871 C565.273,153.4669 560.4699,153.1313 557.9243,145.9876 C553.9678,150.5004 549.8424,151.3025 546.3305,145.4886 C540.7712,151.9379 535.0683,150.2956 531.7845,143.0684 C528.5411,148.657 522.6825,148.4366 519.4625,143.0421 C513.8489,148.9639 509.6418,148.1303 506.3801,140.7322 C503.0759,145.0403 498.3441,145.0292 495.8495,139.8351 C487.2499,137.6345 485.728,131.6722 490.9342,124.9215 C484.3908,118.9427 486.1954,112.3725 493.9538,109.1281" fill="#F1F1F1" style="stroke:#181818;stroke-width:0.5;"/><text fill="#000000" font-family="sans-serif" font-size="14" lengthAdjust="spacing" textLength="162.668" x="500.67" y="128.6982">&#9312; Amazon Workspaces</text></g><!--entity DevAPI--><g class="entity" data-entity="DevAPI" data-source-line="20" data-uid="ent0007" id="entity_DevAPI"><path d="M773.8089,495.1235 C778.9115,484.9326 785.0236,486.3919 791.5261,493.7066 C796.0749,485.6208 803.1806,487.1837 806.7266,494.6846 C811.5489,487.6349 817.7437,487.6776 822.5546,494.6974 C825.881,486.5902 832.19,485.3258 838.4596,491.3953 C842.9447,482.0238 850.5368,482.3647 855.5749,490.8658 C861.3403,483.2178 867.5628,483.4549 871.5179,492.5859 C874.7817,485.3523 880.2196,484.0605 885.7023,490.2393 C889.9916,483.3935 897.7783,481.9823 901.796,490.5234 C907.5591,484.043 913.7511,484.6004 917.4692,492.719 C923.8422,485.5696 929.7886,483.5602 935.3445,493.5702 C939.1382,485.4472 946.2357,485.8462 950.9673,492.5843 C956.2579,485.5365 962.6128,485.2315 967.6014,492.9251 C973.0466,485.7231 977.5341,488.0248 981.7194,494.2498 C985.7704,487.5708 992.9882,487.6121 996.8376,494.475 C1005.2647,495.3471 1008.7122,501.4943 1004.0527,508.9083 C1010.3049,517.5493 1007.1973,523.5503 996.8907,524.6642 C992.6932,531.9703 988.1309,534.1524 981.8987,526.7363 C977.1539,533.9738 970.8871,534.3743 966.507,526.368 C960.8051,535.4672 955.4746,534.7569 949.8293,526.3142 C946.5363,533.6378 939.1219,536.4852 933.7624,528.4801 C927.6998,535.198 922.9323,534.8316 918.013,527.2232 C913.9745,534.9218 909.0622,536.8961 902.7694,529.4997 C898.021,538.5185 890.7979,537.3882 885.5998,529.9694 C879.6063,535.1728 875.2053,534.957 871.8983,527.142 C865.5763,535.9663 859.7472,536.3241 853.3293,527.2414 C849.7418,534.178 843.9258,533.0842 839.9723,527.636 C834.7134,536.6052 827.212,536.8369 821.5702,528.0324 C815.7432,534.6608 811.5458,532.4637 807.8265,525.8456 C803.2433,533.2209 795.2715,534.1618 790.6824,525.8521 C785.3778,533.402 779.4672,533.4562 775.1994,524.8579 C767.1493,523.3724 764.1203,519.2906 768.0341,511.4238 C762.1806,503.4784 764.5161,497.7029 773.8089,495.1235" fill="#F1F1F1" style="stroke:#181818;stroke-width:0.5;"/><text fill="#000000" font-family="sans-serif" font-size="14" lengthAdjust="spacing" textLength="209.5283" x="780.24" y="513.5882">&#9320; Amazon API Gateway (Dev)</text></g><!--entity GitHub--><g class="entity" data-entity="GitHub" data-source-line="21" data-uid="ent0008" id="entity_GitHub"><path d="M828.8978,370.59 C832.7579,365.5523 837.8548,365.529 841.2785,371.0993 C843.5864,364.3392 849.4721,362.3087 854.5172,368.2452 C858.7561,362.3269 864.4269,360.385 868.9222,367.9717 C873.1394,363.6876 878.0587,364.0298 880.5122,369.9708 C885.8355,363.3949 890.0984,363.1909 894.2197,371.1078 C898.3812,365.6034 904.0682,365.5106 907.5508,371.8707 C916.5664,372.9927 918.466,380.6585 913.5126,387.2098 C918.8107,394.4321 915.6599,399.7028 907.3141,400.6174 C904.3477,407.2228 899.7206,409.2639 894.064,403.4988 C890.6196,408.9978 887.0851,409.6235 882.229,405.179 C878.4333,412.2709 873.2427,413.761 867.3813,407.471 C863.1433,413.363 858.7361,412.5378 855.778,406.2516 C849.963,412.3377 844.3287,412.4064 840.9379,403.8026 C836.7921,408.6625 831.5636,406.9385 829.2948,401.6494 C820.5185,400.2034 819.6958,393.3974 824.6383,387.4519 C818.7574,380.4792 820.4009,373.9306 828.8978,370.59" fill="#F1F1F1" style="stroke:#181818;stroke-width:0.5;"/><text fill="#000000" font-family="sans-serif" font-size="14" lengthAdjust="spacing" textLength="65.5156" x="834.24" y="390.2882">&#9313; GitHub</text></g><!--entity DevECR--><g class="entity" data-entity="DevECR" data-source-line="22" data-uid="ent0009" id="entity_DevECR"><path d="M293.8687,617.4122 C297.7628,611.8469 302.6626,612.0353 306.5115,617.4641 C310.2177,611.6698 313.9355,611.538 318.4322,616.5957 C322.7812,611.1245 326.4439,610.3869 330.3876,616.9968 C334.1043,610.5436 338.579,608.5207 344.0849,615.119 C347.0255,609.8318 351.3159,609.5309 354.9128,614.4207 C358.525,608.923 364.1356,608.6436 366.8482,615.3038 C370.9462,609.3646 375.3319,609.6385 379.2666,615.4761 C382.7637,610.4452 388.464,610.2713 391.1552,616.3393 C395.0608,610.2596 399.8655,609.9957 403.6961,616.4145 C407.7085,612.2206 410.9591,611.8384 414.2858,617.1763 C422.3364,621.4238 422.4259,626.439 416.8377,632.9 C424.0518,637.6863 423.1696,643.8484 415.9445,647.7672 C413.2004,653.3751 408.2888,654.4142 403.7167,649.9969 C400.6628,656.8303 396.5102,657.6312 390.9716,652.6853 C387.6724,659.9493 383.5154,660.2652 378.3868,654.445 C376.4939,659.9798 371.185,660.7047 367.672,656.1687 C364.7174,662.4357 358.2646,662.8226 354.6956,656.8184 C350.8801,662.6315 345.0579,661.9597 343.0028,655.1833 C339.4141,661.0367 333.2551,661.0931 330.6009,654.2691 C326.5939,659.1554 321.9329,658.0207 319.7114,652.4158 C314.4478,657.7085 308.43,656.9484 305.9356,649.4366 C301.7399,653.8468 297.738,652.5165 295.665,647.1961 C285.7003,648.3641 280.2869,643.3943 284.6026,633.2416 C279.4398,624.8435 283.478,616.7057 293.8687,617.4122" fill="#F1F1F1" style="stroke:#181818;stroke-width:0.5;"/><text fill="#000000" font-family="sans-serif" font-size="14" lengthAdjust="spacing" textLength="106.3809" x="300.81" y="636.8882">&#9315; Amazon ECR</text></g><!--entity DevCW--><g class="entity" data-entity="DevCW" data-source-line="23" data-uid="ent0010" id="entity_DevCW"><path d="M488.787,743.0953 C492.3495,733.0853 500.6927,733.8233 506.2972,741.0169 C510.9226,732.5944 517.3875,731.7448 523.2665,739.7194 C528.0762,731.5992 533.882,731.3373 538.858,739.5607 C544.8564,731.4901 550.9176,732.3153 556.2533,740.2797 C561.2094,733.5465 567.0691,732.4167 572.0755,740.2249 C576.8833,729.1159 582.8936,729.3204 590.5808,737.4562 C595.388,731.0735 600.8122,731.0349 605.2206,737.8971 C611.5155,729.5225 618.4217,731.93 623.1511,739.642 C627.7884,732.223 635.3095,731.9573 639.5125,740.0987 C644.2644,730.1774 651.3764,731.2231 657.3463,738.8618 C662.9083,731.405 669.6114,733.1814 673.1584,740.954 C678.8762,733.884 685.898,732.0916 690.7956,741.8153 C694.8149,734.5606 699.7933,732.6964 705.7274,739.8279 C711.608,731.6294 717.8111,731.6747 723.2488,740.2894 C727.5241,742.719 726.6063,745.279 723.5661,748.0092 C728.342,748.9552 728.3106,752.6458 725.8434,755.7286 C729.1132,758.4177 728.6161,762.5432 724.5216,764.0647 C728.1612,766.498 727.5986,769.3371 724.0766,771.3318 C720.6306,780.7523 712.7656,781.0527 706.8117,773.9528 C700.5276,780.847 694.1599,779.423 689.8608,771.6575 C686.076,781.8694 679.126,782.4842 672.2936,774.6191 C666.1095,782.2986 660.4298,780.1057 656.2179,772.5395 C651.2791,780.6788 646.2021,782.9968 638.9029,775.0859 C633.1108,781.6691 626.7595,781.9249 621.8138,774.0831 C617.959,781.1848 612.8251,783.1107 607.0638,776.0718 C601.2314,783.6178 595.5556,781.751 590.8959,774.7669 C585.8466,783.4541 578.2,783.5911 573.6141,774.3209 C567.2684,782.2459 561.9512,779.546 557.4582,772.3424 C552.7418,780.1455 547.53,781.8173 541.3329,773.8572 C535.2114,782.6328 526.7128,782.6667 522.4851,772.0195 C518.0039,779.5689 510.6517,778.3464 506.6661,771.4758 C500.8684,779.572 494.9106,779.04 488.7537,771.898 C483.6896,770.1917 482.7434,766.7036 486.8606,763.036 C483.0903,761.7138 482.0822,758.4655 484.6724,755.3358 C482.7853,751.5935 483.7622,749.3293 487.8777,748.3354 C485.9828,746.4642 485.6479,744.0929 488.787,743.0953" fill="#F1F1F1" style="stroke:#181818;stroke-width:0.5;"/><text fill="#000000" font-family="sans-serif" font-size="14" lengthAdjust="spacing" textLength="219.7275" x="495.14" y="760.1782">&#9322; AWS CloudWatch (Dev Logs)</text></g><!--entity GHCI--><g class="entity" data-entity="GHCI" data-source-line="24" data-uid="ent0011" id="entity_GHCI"><path d="M510.8785,495.1124 C513.607,488.5381 519.8204,488.9969 523.6536,493.8808 C527.1922,487.5061 534.137,487.3329 538.2499,493.196 C542.3518,486.232 547.5967,486.5019 552.3421,492.4962 C556.9106,484.9491 561.8967,485.9433 566.2228,492.731 C569.937,487.3164 575.6382,486.0646 579.2431,492.8476 C583.1261,487.949 587.6431,487.3668 591.4397,492.9482 C594.976,484.7642 601.54,484.2427 607.0852,490.8188 C611.0103,484.9071 615.4987,485.608 618.7295,491.5034 C623.5885,484.7482 629.5403,485.3975 634.0251,491.9341 C638.8895,486.2933 643.3788,486.8595 647.1249,493.1607 C651.1115,485.962 656.1239,487.0283 660.2933,492.9775 C664.6478,486.918 670.6107,486.4358 674.6365,493.3411 C679.0571,488.5405 683.0156,487.5408 686.7508,494.0737 C691.9998,486.8698 698.9791,487.0771 702.2375,495.9868 C711.4302,496.9878 716.0447,501.1136 711.9806,510.8214 C715.297,518.9923 710.4441,525.9449 701.3089,524.1347 C698.2461,530.7698 692.9975,531.5025 687.8699,526.524 C682.829,532.8944 677.8912,532.5398 674.0615,525.2956 C671.4707,532.1909 665.3805,533.5379 660.8082,527.2944 C656.0607,534.0849 650.47,534.6508 646.0376,526.9728 C642.1512,533.8202 637.0381,534.2451 632.9316,527.1802 C628.4334,533.2554 623.0002,531.8145 619.5641,525.9874 C617.1233,533.4914 610.5745,532.9678 606.5851,527.5418 C602.2246,534.8011 597.5081,534.9112 592.305,528.4167 C587.926,534.3032 581.3489,534.0874 578.021,527.2379 C573.8315,533.4013 569.8489,532.8009 566.3521,526.585 C561.0613,533.3129 555.0217,532.65 550.785,525.4102 C547.6957,530.9297 542.1307,532.4325 538.2218,526.2933 C533.9595,532.8424 529.2372,532.1749 525.2286,526.0336 C521.6753,531.0853 515.3755,530.7644 512.3402,525.3931 C503.3832,522.8318 501.1748,516.6471 506.7642,509.1058 C502.2656,503.2815 503.3618,497.404 510.8785,495.1124" fill="#F1F1F1" style="stroke:#181818;stroke-width:0.5;"/><text fill="#000000" font-family="sans-serif" font-size="14" lengthAdjust="spacing" textLength="175.9023" x="517.05" y="513.5882">&#9314; GitHub Actions (CI/CD)</text></g><!--entity DevSecrets--><g class="entity" data-entity="DevSecrets" data-source-line="25" data-uid="ent0012" id="entity_DevSecrets"><path d="M546.9507,371.8432 C552.7659,363.7955 557.6167,364.0301 563.0214,372.2487 C567.2295,364.8361 574.5898,363.3745 579.4143,371.6026 C583.8695,363.6141 589.4517,361.5203 595.6536,369.866 C600.4462,360.7228 609.0816,361.0959 612.9294,370.7349 C615.8884,362.4056 623.2518,360.0418 629.2136,367.6708 C634.9654,361.259 640.9046,361.4722 645.194,369.3107 C648.9533,360.4114 657.4719,358.5672 663.6997,366.6153 C669.9241,359.3815 677.2926,360.094 680.5326,369.6138 C685.4201,362.1369 690.9055,361.162 696.1447,369.2613 C701.2489,362.0108 705.903,362.5039 710.5072,369.7564 C715.6326,361.7985 723.4323,362.3772 727.549,370.8054 C732.3023,363.5132 739.5206,364.9892 743.4383,371.7502 C748.4163,363.444 756.8783,361.3639 762.2916,371.3002 C768.0727,363.2594 772.7265,364.1391 777.8688,371.9287 C784.7885,374.5915 787.4175,379.7208 781.9849,385.9975 C789.7522,393.3768 788.521,398.5685 778.6561,402.3609 C772.4601,410.8264 767.2208,409.9778 761.7445,401.6368 C757.694,411.7639 749.7477,412.0434 743.5008,403.8204 C739.5464,409.1938 732.7841,408.8987 729.5879,402.8932 C724.6133,412.5227 717.5654,413.2715 711.3112,404.1398 C706.7329,409.9214 700.6656,411.2796 696.891,403.2978 C691.8281,413.4962 685.0818,414.1229 678.454,404.7737 C674.1249,411.163 666.8476,411.1155 663.0275,404.1843 C658.41,411.8687 653.1849,413.6408 646.753,406.1273 C639.576,414.8606 632.9266,411.6226 628.3588,403.3115 C624.5405,410.5402 619.3038,410.9182 614.6259,404.1551 C607.8971,412.3051 602.4344,411.4842 596.8821,402.907 C591.5525,412.2638 584.9307,410.7092 579.1222,403.4178 C574.5809,410.2534 568.6218,410.7947 564.0343,403.4671 C558.1368,411.2358 549.9262,410.9129 545.8852,401.5055 C538.4308,397.9358 537.0317,393.0202 541.9931,386.2772 C535.9489,379.9663 538.6149,373.215 546.9507,371.8432" fill="#F1F1F1" style="stroke:#181818;stroke-width:0.5;"/><text fill="#000000" font-family="sans-serif" font-size="14" lengthAdjust="spacing" textLength="216.4257" x="552.79" y="390.2882">&#9323; AWS Secrets Manager (Dev)</text></g><!--entity WS--><g class="entity" data-entity="WS" data-source-line="27" data-uid="ent0013" id="entity_WS"><polygon fill="#F1F1F1" points="340.26,249.0031,350.26,239.0031,489.7307,239.0031,489.7307,275.3,479.7307,285.3,340.26,285.3,340.26,249.0031" style="stroke:#181818;stroke-width:0.5;"/><line style="stroke:#181818;stroke-width:0.5;" x1="479.7307" x2="489.7307" y1="249.0031" y2="239.0031"/><line style="stroke:#181818;stroke-width:0.5;" x1="340.26" x2="479.7307" y1="249.0031" y2="249.0031"/><line style="stroke:#181818;stroke-width:0.5;" x1="479.7307" x2="479.7307" y1="249.0031" y2="285.3"/><text fill="#000000" font-family="sans-serif" font-size="14" lengthAdjust="spacing" textLength="109.4707" x="355.26" y="271.9982">Dev Workspace</text></g><!--entity LocalAPI--><g class="entity" data-entity="LocalAPI" data-source-line="28" data-uid="ent0014" id="entity_LocalAPI"><rect fill="#F1F1F1" height="46.2969" rx="3.5" ry="3.5" style="stroke:#181818;stroke-width:0.5;" width="285.7314" x="59.13" y="362.2931"/><rect fill="#F1F1F1" height="10" style="stroke:#181818;stroke-width:0.5;" width="15" x="324.8614" y="367.2931"/><rect fill="#F1F1F1" height="2" style="stroke:#181818;stroke-width:0.5;" width="4" x="322.8614" y="369.2931"/><rect fill="#F1F1F1" height="2" style="stroke:#181818;stroke-width:0.5;" width="4" x="322.8614" y="373.2931"/><text fill="#000000" font-family="sans-serif" font-size="14" lengthAdjust="spacing" textLength="245.7314" x="74.13" y="395.2882">&#9318; Movie API (Spring Boot - Docker)</text></g><!--entity ECSDev--><g class="entity" data-entity="ECSDev" data-source-line="29" data-uid="ent0015" id="entity_ECSDev"><rect fill="#F1F1F1" height="46.2969" rx="3.5" ry="3.5" style="stroke:#181818;stroke-width:0.5;" width="295.8486" x="457.08" y="608.8931"/><rect fill="#F1F1F1" height="10" style="stroke:#181818;stroke-width:0.5;" width="15" x="732.9286" y="613.8931"/><rect fill="#F1F1F1" height="2" style="stroke:#181818;stroke-width:0.5;" width="4" x="730.9286" y="615.8931"/><rect fill="#F1F1F1" height="2" style="stroke:#181818;stroke-width:0.5;" width="4" x="730.9286" y="619.8931"/><text fill="#000000" font-family="sans-serif" font-size="14" lengthAdjust="spacing" textLength="255.8486" x="472.08" y="641.8882">&#9319; Movie API (Spring Boot - Dev ECS)</text></g><!--link Dev to WS--><g class="link" data-entity-1="Dev" data-entity-2="WS" data-source-line="31" data-uid="lnk16" id="link_Dev_WS"><path d="M415,162.4531 C415,186.8831 415,211.9131 415,232.5931" fill="none" id="Dev-to-WS" style="stroke:#191919;stroke-width:1;"/><polygon fill="#191919" points="415,238.5931,419,229.5931,415,233.5931,411,229.5931,415,238.5931" style="stroke:#191919;stroke-width:1;"/><text fill="#000000" font-family="sans-serif" font-size="13" lengthAdjust="spacing" textLength="159.8784" x="416" y="205.07">Connect via Workspaces</text></g><!--link WS to GitHub--><g class="link" data-entity-1="WS" data-entity-2="GitHub" data-source-line="32" data-uid="lnk17" id="link_WS_GitHub"><path d="M490.03,276.8931 C538.78,286.3731 603.55,299.9931 660,315.2931 C724.16,332.6831 738.98,341.1331 802,362.2931 C807.54,364.1531 807.6579,364.1861 813.4079,366.1361" fill="none" id="WS-to-GitHub" style="stroke:#191919;stroke-width:1;"/><polygon fill="#191919" points="819.09,368.0631,811.8514,361.3846,814.3549,366.4573,809.2821,368.9607,819.09,368.0631" style="stroke:#191919;stroke-width:1;"/><text fill="#000000" font-family="sans-serif" font-size="13" lengthAdjust="spacing" textLength="155.397" x="716" y="328.36">Clone Repo / Push Code</text></g><!--link WS to SQLite--><g class="link" data-entity-1="WS" data-entity-2="SQLite" data-source-line="33" data-uid="lnk18" id="link_WS_SQLite"><path d="M408.31,285.7231 C404.16,299.3031 398.57,316.8931 393,332.2931 C380.55,366.7131 381.49,377.6131 362,408.5931 C343.56,437.9131 320.4195,462.5392 300.6895,481.4692" fill="none" id="WS-to-SQLite" style="stroke:#191919;stroke-width:1;"/><polygon fill="#191919" points="296.36,485.6231,305.6236,482.2785,299.9679,482.1615,300.085,476.5059,296.36,485.6231" style="stroke:#191919;stroke-width:1;"/><text fill="#000000" font-family="sans-serif" font-size="13" lengthAdjust="spacing" textLength="86.8169" x="385" y="390.01">Local Dev DB</text></g><!--link WS to LocalAPI--><g class="link" data-entity-1="WS" data-entity-2="LocalAPI" data-source-line="34" data-uid="lnk19" id="link_WS_LocalAPI"><path d="M368.86,285.6931 C351.21,294.5931 331,305.1131 313,315.2931 C286.92,330.0531 263.271,344.7347 241.591,358.6347" fill="none" id="WS-to-LocalAPI" style="stroke:#191919;stroke-width:1;"/><polygon fill="#191919" points="236.54,361.8731,246.2755,360.3828,240.7492,359.1744,241.9576,353.6482,236.54,361.8731" style="stroke:#191919;stroke-width:1;"/><text fill="#000000" font-family="sans-serif" font-size="13" lengthAdjust="spacing" textLength="74.8706" x="314" y="328.36">Run Locally</text></g><!--link WS to DevRDS--><g class="link" data-entity-1="WS" data-entity-2="DevRDS" data-source-line="35" data-uid="lnk20" id="link_WS_DevRDS"><path d="M339.98,269.9431 C221.91,282.7431 6,315.5631 6,384.4431 C6,384.4431 6,384.4431 6,633.0331 C6,683.2331 49.4482,712.0178 95.8982,730.0878" fill="none" id="WS-to-DevRDS" style="stroke:#191919;stroke-width:1;"/><polygon fill="#191919" points="101.49,732.2631,94.5525,725.2723,96.8302,730.4504,91.6521,732.728,101.49,732.2631" style="stroke:#191919;stroke-width:1;"/><text fill="#000000" font-family="sans-serif" font-size="13" lengthAdjust="spacing" textLength="98.9473" x="7" y="513.31">Shared Dev DB</text></g><!--link WS to DevSecrets--><g class="link" data-entity-1="WS" data-entity-2="DevSecrets" data-source-line="36" data-uid="lnk21" id="link_WS_DevSecrets"><path d="M460.69,285.6731 C504.74,307.3931 565.6489,337.4292 609.7489,359.1792" fill="none" id="WS-to-DevSecrets" style="stroke:#191919;stroke-width:1;"/><polygon fill="#191919" points="615.13,361.8331,608.8276,354.2648,610.6457,359.6215,605.289,361.4396,615.13,361.8331" style="stroke:#191919;stroke-width:1;"/><text fill="#000000" font-family="sans-serif" font-size="13" lengthAdjust="spacing" textLength="97.4746" x="554" y="328.36">Access Secrets</text></g><!--link LocalAPI to SQLite--><g class="link" data-entity-1="LocalAPI" data-entity-2="SQLite" data-source-line="37" data-uid="lnk22" id="link_LocalAPI_SQLite"><path d="M215,408.9731 C227.65,430.9031 243.7621,458.8058 256.3021,480.5458" fill="none" id="LocalAPI-to-SQLite" style="stroke:#191919;stroke-width:1;"/><polygon fill="#191919" points="259.3,485.7431,258.268,475.9485,256.8017,481.412,251.3382,479.9457,259.3,485.7431" style="stroke:#191919;stroke-width:1;"/><text fill="#000000" font-family="sans-serif" font-size="13" lengthAdjust="spacing" textLength="30.4814" x="243" y="451.66">ORM</text></g><!--link GitHub to GHCI--><g class="link" data-entity-1="GitHub" data-entity-2="GHCI" data-source-line="38" data-uid="lnk23" id="link_GitHub_GHCI"><path d="M818.95,408.6931 C771.97,430.4431 706.2547,460.8622 659.0847,482.7022" fill="none" id="GitHub-to-GHCI" style="stroke:#191919;stroke-width:1;"/><polygon fill="#191919" points="653.64,485.2231,663.4877,485.0715,658.1773,483.1223,660.1264,477.8119,653.64,485.2231" style="stroke:#191919;stroke-width:1;"/><text fill="#000000" font-family="sans-serif" font-size="13" lengthAdjust="spacing" textLength="105.7837" x="753" y="451.66">Push Triggers CI</text></g><!--link GHCI to DevECR--><g class="link" data-entity-1="GHCI" data-entity-2="DevECR" data-source-line="39" data-uid="lnk24" id="link_GHCI_DevECR"><path d="M558.38,532.2731 C513.44,553.9931 451.2021,584.0621 406.2021,605.8121" fill="none" id="GHCI-to-DevECR" style="stroke:#191919;stroke-width:1;"/><polygon fill="#191919" points="400.8,608.4231,410.6438,608.108,405.3017,606.2473,407.1625,600.9052,400.8,608.4231" style="stroke:#191919;stroke-width:1;"/><text fill="#000000" font-family="sans-serif" font-size="13" lengthAdjust="spacing" textLength="81.2056" x="496" y="574.96">Docker Push</text></g><!--link GHCI to ECSDev--><g class="link" data-entity-1="GHCI" data-entity-2="ECSDev" data-source-line="40" data-uid="lnk25" id="link_GHCI_ECSDev"><path d="M605,532.2731 C605,554.0631 605,580.8831 605,602.6231" fill="none" id="GHCI-to-ECSDev" style="stroke:#191919;stroke-width:1;"/><polygon fill="#191919" points="605,608.6231,609,599.6231,605,603.6231,601,599.6231,605,608.6231" style="stroke:#191919;stroke-width:1;"/><text fill="#000000" font-family="sans-serif" font-size="13" lengthAdjust="spacing" textLength="75.353" x="606" y="574.96">Dev Deploy</text></g><!--link DevAPI to DevCognito--><g class="link" data-entity-1="DevAPI" data-entity-2="DevCognito" data-source-line="41" data-uid="lnk26" id="link_DevAPI_DevCognito"><path d="M889.09,532.2731 C893.04,554.0631 897.9174,580.9798 901.8674,602.7198" fill="none" id="DevAPI-to-DevCognito" style="stroke:#191919;stroke-width:1;"/><polygon fill="#191919" points="902.94,608.6231,905.2667,599.053,902.0462,603.7037,897.3955,600.4832,902.94,608.6231" style="stroke:#191919;stroke-width:1;"/><text fill="#000000" font-family="sans-serif" font-size="13" lengthAdjust="spacing" textLength="30.4688" x="898" y="574.96">Auth</text></g><!--link DevAPI to ECSDev--><g class="link" data-entity-1="DevAPI" data-entity-2="ECSDev" data-source-line="42" data-uid="lnk27" id="link_DevAPI_ECSDev"><path d="M832.99,532.2731 C782.86,553.9931 712.9155,584.2878 662.7155,606.0378" fill="none" id="DevAPI-to-ECSDev" style="stroke:#191919;stroke-width:1;"/><polygon fill="#191919" points="657.21,608.4231,667.0584,608.5154,661.7979,606.4353,663.878,601.1748,657.21,608.4231" style="stroke:#191919;stroke-width:1;"/><text fill="#000000" font-family="sans-serif" font-size="13" lengthAdjust="spacing" textLength="55.7388" x="763" y="574.96">API Calls</text></g><!--link ECSDev to DevRDS--><g class="link" data-entity-1="ECSDev" data-entity-2="DevRDS" data-source-line="43" data-uid="lnk28" id="link_ECSDev_DevRDS"><path d="M526.61,655.5731 C450.46,677.4631 341.3065,708.8357 265.6665,730.5757" fill="none" id="ECSDev-to-DevRDS" style="stroke:#191919;stroke-width:1;"/><polygon fill="#191919" points="259.9,732.2331,269.6547,733.5914,264.7055,730.852,267.4449,725.9027,259.9,732.2331" style="stroke:#191919;stroke-width:1;"/><text fill="#000000" font-family="sans-serif" font-size="13" lengthAdjust="spacing" textLength="31.8398" x="421" y="698.25">JDBC</text></g><!--link ECSDev to DevCW--><g class="link" data-entity-1="ECSDev" data-entity-2="DevCW" data-source-line="44" data-uid="lnk29" id="link_ECSDev_DevCW"><path d="M605,655.5731 C605,677.3531 605,704.1831 605,725.9231" fill="none" id="ECSDev-to-DevCW" style="stroke:#191919;stroke-width:1;"/><polygon fill="#191919" points="605,731.9231,609,722.9231,605,726.9231,601,722.9231,605,731.9231" style="stroke:#191919;stroke-width:1;"/><text fill="#000000" font-family="sans-serif" font-size="13" lengthAdjust="spacing" textLength="30.2212" x="606" y="698.25">Logs</text></g><g class="legend" data-source-line="46"><rect fill="#FFFFFF" height="225.8594" rx="3.5" ry="3.5" style="stroke:#FFFFFF;stroke-width:1;" width="525.6895" x="249.6803" y="805.98"/><text fill="#000000" font-family="sans-serif" font-size="14" font-weight="bold" lengthAdjust="spacing" textLength="36.292" x="259.5543" y="825.9751">Step</text><text fill="#000000" font-family="sans-serif" font-size="14" font-weight="bold" lengthAdjust="spacing" textLength="90.2412" x="305.5943" y="825.9751">Component</text><text fill="#000000" font-family="sans-serif" font-size="14" font-weight="bold" lengthAdjust="spacing" textLength="90.5488" x="471.2633" y="825.9751">Description</text><text fill="#000000" font-family="sans-serif" font-size="14" font-weight="bold" lengthAdjust="spacing" textLength="71.5791" x="635.5377" y="825.9751">Category</text><text fill="#000000" font-family="sans-serif" font-size="14" lengthAdjust="spacing" textLength="8.9072" x="259.1305" y="842.272">1</text><text fill="#000000" font-family="sans-serif" font-size="14" lengthAdjust="spacing" textLength="84.6357" x="305.1705" y="842.272">Workspaces</text><text fill="#000000" font-family="sans-serif" font-size="14" lengthAdjust="spacing" textLength="56.6152" x="470.8394" y="842.272">Dev VDI</text><text fill="#000000" font-family="sans-serif" font-size="14" lengthAdjust="spacing" textLength="108.2402" x="635.1139" y="842.272">Virtual Desktop</text><text fill="#000000" font-family="sans-serif" font-size="14" lengthAdjust="spacing" textLength="8.9072" x="259.1305" y="858.5689">2</text><text fill="#000000" font-family="sans-serif" font-size="14" lengthAdjust="spacing" textLength="48.5146" x="305.1705" y="858.5689">GitHub</text><text fill="#000000" font-family="sans-serif" font-size="14" lengthAdjust="spacing" textLength="150.4385" x="470.8394" y="858.5689">Code + CI/CD Trigger</text><text fill="#000000" font-family="sans-serif" font-size="14" lengthAdjust="spacing" textLength="54.8789" x="635.1139" y="858.5689">DevOps</text><text fill="#000000" font-family="sans-serif" font-size="14" lengthAdjust="spacing" textLength="8.9072" x="259.1305" y="874.8657">3</text><text fill="#000000" font-family="sans-serif" font-size="14" lengthAdjust="spacing" textLength="104.3506" x="305.1705" y="874.8657">GitHub Actions</text><text fill="#000000" font-family="sans-serif" font-size="14" lengthAdjust="spacing" textLength="155.374" x="470.8394" y="874.8657">Build + Test + Deploy</text><text fill="#000000" font-family="sans-serif" font-size="14" lengthAdjust="spacing" textLength="39.1768" x="635.1139" y="874.8657">CI/CD</text><text fill="#000000" font-family="sans-serif" font-size="14" lengthAdjust="spacing" textLength="8.9072" x="259.1305" y="891.1626">4</text><text fill="#000000" font-family="sans-serif" font-size="14" lengthAdjust="spacing" textLength="71.4014" x="305.1705" y="891.1626">ECR (Dev)</text><text fill="#000000" font-family="sans-serif" font-size="14" lengthAdjust="spacing" textLength="111.9111" x="470.8394" y="891.1626">Docker Registry</text><text fill="#000000" font-family="sans-serif" font-size="14" lengthAdjust="spacing" textLength="130.8057" x="635.1139" y="891.1626">Container Registry</text><text fill="#000000" font-family="sans-serif" font-size="14" lengthAdjust="spacing" textLength="8.9072" x="259.1305" y="907.4595">5</text><text fill="#000000" font-family="sans-serif" font-size="14" lengthAdjust="spacing" textLength="45.6982" x="305.1705" y="907.4595">SQLite</text><text fill="#000000" font-family="sans-serif" font-size="14" lengthAdjust="spacing" textLength="93.4951" x="470.8394" y="907.4595">Local Dev DB</text><text fill="#000000" font-family="sans-serif" font-size="14" lengthAdjust="spacing" textLength="61.3662" x="635.1139" y="907.4595">Local DB</text><text fill="#000000" font-family="sans-serif" font-size="14" lengthAdjust="spacing" textLength="8.9072" x="259.1305" y="923.7564">6</text><text fill="#000000" font-family="sans-serif" font-size="14" lengthAdjust="spacing" textLength="72.4473" x="305.1705" y="923.7564">RDS (Dev)</text><text fill="#000000" font-family="sans-serif" font-size="14" lengthAdjust="spacing" textLength="106.5586" x="470.8394" y="923.7564">Shared Dev DB</text><text fill="#000000" font-family="sans-serif" font-size="14" lengthAdjust="spacing" textLength="89.332" x="635.1139" y="923.7564">Managed DB</text><text fill="#000000" font-family="sans-serif" font-size="14" lengthAdjust="spacing" textLength="8.9072" x="259.1305" y="940.0532">7</text><text fill="#000000" font-family="sans-serif" font-size="14" lengthAdjust="spacing" textLength="135.8232" x="305.1705" y="940.0532">Spring Boot Docker</text><text fill="#000000" font-family="sans-serif" font-size="14" lengthAdjust="spacing" textLength="135.9941" x="470.8394" y="940.0532">Local API Container</text><text fill="#000000" font-family="sans-serif" font-size="14" lengthAdjust="spacing" textLength="100.085" x="635.1139" y="940.0532">Local Runtime</text><text fill="#000000" font-family="sans-serif" font-size="14" lengthAdjust="spacing" textLength="8.9072" x="259.1305" y="956.3501">8</text><text fill="#000000" font-family="sans-serif" font-size="14" lengthAdjust="spacing" textLength="70.5605" x="305.1705" y="956.3501">ECS (Dev)</text><text fill="#000000" font-family="sans-serif" font-size="14" lengthAdjust="spacing" textLength="139.5557" x="470.8394" y="956.3501">Fargate Dev Deploy</text><text fill="#000000" font-family="sans-serif" font-size="14" lengthAdjust="spacing" textLength="108.2813" x="635.1139" y="956.3501">Cloud Compute</text><text fill="#000000" font-family="sans-serif" font-size="14" lengthAdjust="spacing" textLength="8.9072" x="259.1305" y="972.647">9</text><text fill="#000000" font-family="sans-serif" font-size="14" lengthAdjust="spacing" textLength="131.4961" x="305.1705" y="972.647">API Gateway (Dev)</text><text fill="#000000" font-family="sans-serif" font-size="14" lengthAdjust="spacing" textLength="107.748" x="470.8394" y="972.647">Auth + Routing</text><text fill="#000000" font-family="sans-serif" font-size="14" lengthAdjust="spacing" textLength="118.8223" x="635.1139" y="972.647">API Management</text><text fill="#000000" font-family="sans-serif" font-size="14" lengthAdjust="spacing" textLength="17.8145" x="259.1305" y="988.9439">10</text><text fill="#000000" font-family="sans-serif" font-size="14" lengthAdjust="spacing" textLength="97.0977" x="305.1705" y="988.9439">Cognito (Dev)</text><text fill="#000000" font-family="sans-serif" font-size="14" lengthAdjust="spacing" textLength="95.457" x="470.8394" y="988.9439">Auth Provider</text><text fill="#000000" font-family="sans-serif" font-size="14" lengthAdjust="spacing" textLength="53.6553" x="635.1139" y="988.9439">Identity</text><text fill="#000000" font-family="sans-serif" font-size="14" lengthAdjust="spacing" textLength="17.8145" x="259.1305" y="1005.2407">11</text><text fill="#000000" font-family="sans-serif" font-size="14" lengthAdjust="spacing" textLength="127.5244" x="305.1705" y="1005.2407">CloudWatch (Dev)</text><text fill="#000000" font-family="sans-serif" font-size="14" lengthAdjust="spacing" textLength="64.6748" x="470.8394" y="1005.2407">Dev Logs</text><text fill="#000000" font-family="sans-serif" font-size="14" lengthAdjust="spacing" textLength="92.7637" x="635.1139" y="1005.2407">Observability</text><text fill="#000000" font-family="sans-serif" font-size="14" lengthAdjust="spacing" textLength="17.8145" x="259.1305" y="1021.5376">12</text><text fill="#000000" font-family="sans-serif" font-size="14" lengthAdjust="spacing" textLength="161.2188" x="305.1705" y="1021.5376">Secrets Manager (Dev)</text><text fill="#000000" font-family="sans-serif" font-size="14" lengthAdjust="spacing" textLength="94.1104" x="470.8394" y="1021.5376">Store Secrets</text><text fill="#000000" font-family="sans-serif" font-size="14" lengthAdjust="spacing" textLength="57.4902" x="635.1139" y="1021.5376">Security</text><line style="stroke:#000000;stroke-width:1;" x1="254.6803" x2="770.3697" y1="812.98" y2="812.98"/><line style="stroke:#000000;stroke-width:1;" x1="254.6803" x2="770.3697" y1="829.2769" y2="829.2769"/><line style="stroke:#000000;stroke-width:1;" x1="254.6803" x2="770.3697" y1="845.5738" y2="845.5738"/><line style="stroke:#000000;stroke-width:1;" x1="254.6803" x2="770.3697" y1="861.8706" y2="861.8706"/><line style="stroke:#000000;stroke-width:1;" x1="254.6803" x2="770.3697" y1="878.1675" y2="878.1675"/><line style="stroke:#000000;stroke-width:1;" x1="254.6803" x2="770.3697" y1="894.4644" y2="894.4644"/><line style="stroke:#000000;stroke-width:1;" x1="254.6803" x2="770.3697" y1="910.7613" y2="910.7613"/><line style="stroke:#000000;stroke-width:1;" x1="254.6803" x2="770.3697" y1="927.0581" y2="927.0581"/><line style="stroke:#000000;stroke-width:1;" x1="254.6803" x2="770.3697" y1="943.355" y2="943.355"/><line style="stroke:#000000;stroke-width:1;" x1="254.6803" x2="770.3697" y1="959.6519" y2="959.6519"/><line style="stroke:#000000;stroke-width:1;" x1="254.6803" x2="770.3697" y1="975.9488" y2="975.9488"/><line style="stroke:#000000;stroke-width:1;" x1="254.6803" x2="770.3697" y1="992.2456" y2="992.2456"/><line style="stroke:#000000;stroke-width:1;" x1="254.6803" x2="770.3697" y1="1008.5425" y2="1008.5425"/><line style="stroke:#000000;stroke-width:1;" x1="254.6803" x2="770.3697" y1="1024.8394" y2="1024.8394"/><line style="stroke:#000000;stroke-width:1;" x1="254.6803" x2="254.6803" y1="812.98" y2="1024.8394"/><line style="stroke:#000000;stroke-width:1;" x1="300.7203" x2="300.7203" y1="812.98" y2="1024.8394"/><line style="stroke:#000000;stroke-width:1;" x1="466.3893" x2="466.3893" y1="812.98" y2="1024.8394"/><line style="stroke:#000000;stroke-width:1;" x1="630.6637" x2="630.6637" y1="812.98" y2="1024.8394"/><line style="stroke:#000000;stroke-width:1;" x1="770.3697" x2="770.3697" y1="812.98" y2="1024.8394"/></g><!--SRC=[VLPRRkCs5FtdAcxJZoGO174oRISDq0Asv2GkxCQrtFWpe2LMPYsJ0abbu84tqHtqETF7hhgINfAY7icWoeV5Uyuzl2zI-SHis8x1ZYfDo37CbVoHfGQeo639JS7WZj6CAQAtN9HKqLrjk9729FmTWyl1Hx585bB1fmDyhaPau-mmP4PGc0Z3r1DdRyDkfADWxAQD-Ei1SGOONAqVfpBdAIqUXohTS8D-bMAFyVXXFBsVpyRVBctyCxfbW2b1mN8cidD3r-XTy7nZUabC7JoYwJPNiX9P7UxDfVq3EFOka2kwV-ab5IPJUqJk0R0-kbhRMDSE9uIc1Xb7CNjYXIoPEWAg0LSaenWMrGoE_ltfTqY-cs8sS3ALcDof8tbJZ_S737VqdHImY1CuGPNJ88S6aXQooYpjhq2BP2wuaOuASocBXbyZhS_FmMSbrLQND6NQSTjbo_qpS8Vp2TnImzxIVJyS15hwBt3BpLsrTg1_RS7VWjOuMWHlV6q9VyDmbK1abojgqerF1iT0jyciMlglzGumJ0sNGiD9D3cFOi-zlOiwSVtZb1EMAcOq3esWEOvdBuyQ94J8ZBakjWNnvS6oorqf1HF6Qhw7cSIfTfKvIKh5HGuZAGsSGIpJBLDUshNP5Qdh_E5_d77dSPHuRton4qIiyUpiQmm2hh7NGjX3-yHfjsc8MKfTb6jRIC5WmKe9vp2lz0OTCnPezHXU-m3Thl4eW25eX1ULyCjY7r0_X8Wb6wfOziothIKoXYb6faFbIIlS2-5-CICXRfS2DW_DBkQbuZasImFsqmFr9ZWwoF6bTjGExCjcOHiQAmkv9_Mm1lTmO336ocnwQEDj3H5cZe7NjbxwtyIZw3aIhLn9StGvXkzdKrYw6-a7l1dgYs5dHo0Amw29lxdm5Z56xiZXAqWCAm5_6uvTn4odYfTsq1s6Hp6NQWy7Se0BW4Dd4A1-3YxxXtW2tUS03roPohLSRuqimMbSMgHkGOzjPmPUWJjQeHbU-hxKNIQAlEw8X4FfH4OLBp9KMJ9jyCTtn8exrMSgdraFsrrtFZkXrBrUi9nhWxc708MXN7G1g_AvnUe9woNKdVSNrb4laYyiqbp07OtUu3TMVwza7HDgl77ypWdtMOGTtOWr6GGh7Zh3ToneNFcAl8pZXgeS9w4pvguYxjgpurEPHkDBYxounQqDnnzxif2LiJ7MofRfyt7pwZKk1gxUxPVcDB2j1dxTdxZzx0UDIOQktEnxDRsu216sT_nfEwxswFJxTR_M-Ey3NVEYbd8gbxQg7xlFqOoVOTQ0JSjOMgb-C7Zi_E7x3m00]--></g></svg>