<svg xmlns="http://www.w3.org/2000/svg" xmlns:xlink="http://www.w3.org/1999/xlink" contentStyleType="text/css" data-diagram-type="DESCRIPTION" height="1568px" preserveAspectRatio="none" style="width:1322px;height:1568px;background:#F9F9F9;" version="1.1" viewBox="0 0 1322 1568" width="1322px" zoomAndPan="magnify"><title>08a_Logical_Architecture_PRODUCTION</title><defs/><g><rect fill="#F9F9F9" height="1568" style="stroke:none;stroke-width:1;" width="1322" x="0" y="0"/><text fill="#00008B" font-family="sans-serif" font-size="20" lengthAdjust="spacing" textLength="233.6914" x="1075.1799" y="18.5645">Aetna Interview Project</text><g class="title" data-source-line="8"><text fill="#000000" font-family="sans-serif" font-size="30" font-weight="bold" lengthAdjust="spacing" textLength="661.6406" x="323.6153" y="62.1279">08a_Logical_Architecture_PRODUCTION</text></g><!--entity User--><g class="entity" data-entity="User" data-source-line="13" data-uid="ent0002" id="entity_User"><ellipse cx="291.7757" cy="94.2031" fill="#191919" rx="8" ry="8" style="stroke:#191919;stroke-width:0.5;"/><path d="M291.7757,102.2031 L291.7757,129.2031 M278.7757,110.2031 L304.7757,110.2031 M291.7757,129.2031 L278.7757,144.2031 M291.7757,129.2031 L304.7757,144.2031" fill="none" style="stroke:#191919;stroke-width:0.5;"/><text fill="#191919" font-family="sans-serif" font-size="14" lengthAdjust="spacing" textLength="94.6914" x="244.43" y="158.6982">External User</text></g><!--entity Portal--><g class="entity" data-entity="Portal" data-source-line="14" data-uid="ent0003" id="entity_Portal"><polygon fill="#F1F1F1" points="16,618.8931,26,608.8931,339.5547,608.8931,339.5547,661.4869,329.5547,671.4869,16,671.4869,16,618.8931" style="stroke:#181818;stroke-width:0.5;"/><line style="stroke:#181818;stroke-width:0.5;" x1="329.5547" x2="339.5547" y1="618.8931" y2="608.8931"/><line style="stroke:#181818;stroke-width:0.5;" x1="16" x2="329.5547" y1="618.8931" y2="618.8931"/><line style="stroke:#181818;stroke-width:0.5;" x1="329.5547" x2="329.5547" y1="618.8931" y2="671.4869"/><text fill="#000000" font-family="sans-serif" font-size="14" lengthAdjust="spacing" textLength="283.5547" x="31" y="641.8882">&#9312; External User Portal (Java/Node/Ruby)</text><text fill="#000000" font-family="sans-serif" font-size="14" lengthAdjust="spacing" textLength="193.751" x="31" y="658.1851">[Handles Login via Cognito]</text></g><!--entity Cognito--><g class="entity" data-entity="Cognito" data-source-line="16" data-uid="ent0004" id="entity_Cognito"><path d="M347.3013,757.2503 C351.0991,751.23 355.8088,752.7432 359.0269,757.8606 C361.5201,751.4263 366.9429,751.0791 370.4669,756.8983 C373.4427,751.5181 379.2638,749.5445 383.0848,755.9969 C387.1722,749.4922 392.1798,748.5802 396.4268,755.8422 C399.006,750.4124 404.0718,750.6629 406.6196,755.8724 C409.3758,749.6603 415.4787,750.1037 419.1186,754.8659 C422.705,748.6499 428.5228,750.0168 431.7741,755.2368 C435.7788,749.2858 440.3957,749.4857 443.8535,755.7765 C447.8518,749.9711 453.5753,750.1171 456.5337,756.8299 C459.4746,751.528 464.6514,751.1685 467.8097,756.6016 C471.7219,750.1619 476.8811,750.0831 480.9476,756.4433 C485.1585,751.5476 489.8698,752.8692 491.9608,758.6335 C501.293,758.2931 504.5179,763.7226 500.819,772.0111 C505.0834,779.2443 502.0658,785.5836 493.7936,786.9021 C491.0907,794.8701 484.3157,794.8568 479.8927,788.5808 C478.2823,794.4768 473.1186,796.2753 468.8493,791.2759 C465.2125,797.5672 461.0735,798.0321 456.6015,792.1137 C452.4965,797.7464 448.7199,798.7324 444.2455,792.4983 C440.8414,798.4071 435.6932,799.366 431.5521,793.2781 C428.2292,799.3535 424.5869,799.771 420.1405,794.3979 C416.3253,800.6612 409.9557,800.5428 406.7917,793.733 C403.7381,798.5704 399.1537,799.0481 396.5021,793.3408 C391.8984,798.2437 385.2373,798.4348 383.0237,790.7761 C380.0726,796.4275 375.0943,796.0092 371.8623,791.0722 C367.4622,795.7901 361.177,794.8255 358.634,788.788 C354.067,793.8374 350.308,793.1479 347.0173,787.4132 C340.0583,783.3192 339.1762,779.1954 345.4071,773.5675 C339.3115,768.5141 338.6903,760.5964 347.3013,757.2503" fill="#F1F1F1" style="stroke:#181818;stroke-width:0.5;"/><text fill="#000000" font-family="sans-serif" font-size="14" lengthAdjust="spacing" textLength="132.0771" x="352.74" y="776.4782">&#9313; Amazon Cognito</text></g><!--entity DNS--><g class="entity" data-entity="DNS" data-source-line="17" data-uid="ent0005" id="entity_DNS"><path d="M368.5082,248.0622 C371.1415,241.2833 376.546,241.3749 380.3048,246.991 C383.8478,242.0908 388.2107,242.5832 390.7177,248.0334 C393.5111,241.956 398.6357,239.8241 403.4604,245.9043 C407.292,241.6281 411.3528,242.0746 414.3492,246.9032 C416.7683,240.8358 421.8223,241.0337 425.6919,245.3132 C429.1438,240.8796 433.0639,241.4512 435.7692,246.1381 C438.9673,241.2004 443.1984,240.8772 447.1549,245.2063 C449.7514,240.1406 454.3721,240.7873 457.139,245.0234 C460.7222,239.6585 466.3887,239.3192 469.8285,245.1855 C473.7377,240.6892 477.1421,242.0576 479.1432,247.0573 C482.9757,241.2825 487.7192,240.0307 491.7652,246.8432 C495.1666,242.3437 499.8933,241.8293 502.6748,247.5076 C505.9471,242.352 510.218,241.7122 514.1693,246.7412 C517.2044,241.9984 522.1086,241.3426 524.7526,247.1341 C534.3678,250.4178 535.433,255.4988 528.5003,262.7531 C534.9918,269.0026 533.1765,275.2022 524.5448,277.355 C522.0444,283.3707 517.8431,283.471 513.908,278.7804 C511.5711,285.1278 506.9385,285.7078 502.9458,280.3282 C500.4945,285.8413 495.0655,285.947 491.4951,281.6319 C488.7427,287.1846 483.2059,287.681 479.885,282.2318 C476.8537,287.6213 472.3698,288.0983 468.6361,282.9841 C466.7242,288.5771 461.7385,289.3129 458.1659,284.6853 C455.439,289.7841 451.1489,291.0524 447.5193,285.5958 C443.6794,291.0662 438.9259,289.462 436.7061,283.9941 C431.9012,290.0884 427.8337,289.5571 423.9638,283.0488 C419.8917,286.952 416.3787,286.4477 413.4021,281.7098 C409.6649,287.1232 405.8309,286.7564 402.4977,281.3043 C399.1469,286.4295 394.77,285.3071 391.9085,280.7681 C387.5285,286.3974 382.3614,286.3711 379.3509,279.4029 C375.9267,283.2021 371.8491,283.0527 369.8552,277.8878 C360.2628,277.0923 358.3292,270.8273 363.009,263.323 C357.7047,256.7295 358.881,249.2752 368.5082,248.0622" fill="#F1F1F1" style="stroke:#181818;stroke-width:0.5;"/><text fill="#000000" font-family="sans-serif" font-size="14" lengthAdjust="spacing" textLength="141.5654" x="374.99" y="266.9982">&#9314; Amazon Route 53</text></g><!--entity WAF--><g class="entity" data-entity="WAF" data-source-line="18" data-uid="ent0006" id="entity_WAF"><path d="M483.4137,372.032 C485.7,366.7938 490.1967,364.4466 494.6425,369.7265 C498.0591,364.2076 503.6529,363.1488 507.7193,368.9776 C512.068,362.7019 517.1722,363.803 520.5506,369.9777 C523.5081,362.2516 528.4964,362.7919 533.7603,367.5343 C537.4686,363.0274 543.3341,363.2818 545.7059,369.083 C550.0568,362.9489 555.3878,364.4403 557.9397,370.8391 C561.9534,365.4182 566.254,365.7043 570.3763,370.7096 C573.6955,363.787 579.8157,363.6338 583.2208,370.6303 C591.7252,373.6064 595.2863,379.8402 587.7146,387.1812 C592.5626,393.9665 591.6029,398.7237 583.5431,401.8344 C580.7132,408.7345 575.4754,409.4299 571.0484,403.3747 C568.7627,411.2466 563.7243,412.7917 557.6288,407.1612 C554.04,412.7463 549.4656,412.9812 545.3641,407.7422 C542.8106,414.3921 537.7103,416.6438 532.4897,410.4068 C528.0144,415.1621 523.3159,414.4336 520.2698,408.7362 C515.1572,413.6641 511.0617,412.487 508.6862,405.9668 C503.567,410.9744 498.6731,410.3853 496.2602,403.2071 C491.8975,409.2604 486.3993,408.9285 482.7998,402.3912 C473.221,402.1236 469.7376,394.4295 475.7791,387.025 C472.0711,379.4639 473.0495,372.4273 483.4137,372.032" fill="#F1F1F1" style="stroke:#181818;stroke-width:0.5;"/><text fill="#000000" font-family="sans-serif" font-size="14" lengthAdjust="spacing" textLength="85.2305" x="489.16" y="390.2882">&#9315; AWS WAF</text></g><!--entity ACM--><g class="entity" data-entity="ACM" data-source-line="19" data-uid="ent0007" id="entity_ACM"><path d="M431.0817,495.1674 C434.32,487.5239 439.5398,487.8353 444.5965,493.2913 C449.1227,487.3473 455.386,485.6607 459.6206,493.6066 C463.7399,485.8621 470.6312,486.7385 474.7163,493.642 C477.4642,485.2481 484.4783,484.932 489.3957,491.5156 C493.4998,485.4974 499.9882,487.2963 502.6504,493.1284 C507.5925,486.123 512.2472,485.3908 517.457,492.8546 C520.6432,484.944 527.9983,483.6949 533.8247,489.7633 C538.9176,483.4596 544.5416,485.5289 547.1444,492.3 C550.6445,484.5134 557.8428,485.1894 562.2728,491.2867 C567.1724,484.7497 572.0298,485.0658 576.6328,491.6123 C582.9587,484.2275 589.8641,484.3014 593.474,494.251 C596.5448,488.9917 601.9076,487.8228 605.6493,493.5043 C610.7018,484.9271 618.5076,487.3393 622.1086,494.9777 C627.0832,488.7627 631.5142,488.2494 636.1154,495.3698 C644.3396,496.4514 648.5735,501.0877 643.5082,509.2483 C648.8886,516.1123 646.7007,523.6572 637.0956,524.0126 C632.3314,532.2587 626.5553,532.7382 621.337,524.4452 C618.1731,532.7339 611.1482,533.014 605.4658,527.2996 C600.9473,534.1744 595.9362,534.6606 591.6012,527.1231 C586.2795,533.4448 581.6238,534.1611 576.482,526.9225 C572.0528,533.5015 567.3432,535.1482 561.5978,528.3916 C556.463,535.5328 552.3937,533.301 548.0461,527.5634 C544.9929,533.6557 538.9476,534.7354 534.5297,529.1418 C528.5447,535.1369 522.3604,534.9306 518.7726,526.5199 C515.1654,534.0625 507.881,536.0143 502.4909,528.4403 C497.4096,534.4709 492.589,533.1122 489.9146,526.1165 C485.6772,533.6412 477.5687,534.3834 473.5433,525.8997 C469.0018,533.6554 463.1212,533.2156 458.5163,525.9631 C454.3411,531.3102 449.8347,531.8208 445.8298,525.7735 C441.3165,532.6063 432.8051,532.5053 428.6834,525.2955 C418.4212,523.1792 418.3108,516.7687 423.3422,509.4857 C418.4313,500.8499 420.8179,495.6008 431.0817,495.1674" fill="#F1F1F1" style="stroke:#181818;stroke-width:0.5;"/><text fill="#000000" font-family="sans-serif" font-size="14" lengthAdjust="spacing" textLength="192.2949" x="435.63" y="513.5882">&#9316; AWS Certificate Manager</text></g><!--entity ALB--><g class="entity" data-entity="ALB" data-source-line="20" data-uid="ent0008" id="entity_ALB"><polygon fill="#F1F1F1" points="698.62,495.5931,708.62,485.5931,842.9364,485.5931,842.9364,521.89,832.9364,531.89,698.62,531.89,698.62,495.5931" style="stroke:#181818;stroke-width:0.5;"/><line style="stroke:#181818;stroke-width:0.5;" x1="832.9364" x2="842.9364" y1="495.5931" y2="485.5931"/><line style="stroke:#181818;stroke-width:0.5;" x1="698.62" x2="832.9364" y1="495.5931" y2="495.5931"/><line style="stroke:#181818;stroke-width:0.5;" x1="832.9364" x2="832.9364" y1="495.5931" y2="531.89"/><text fill="#000000" font-family="sans-serif" font-size="14" lengthAdjust="spacing" textLength="104.3164" x="713.62" y="518.5882">&#9317; ALB (HTTPS)</text></g><!--entity APIGW--><g class="entity" data-entity="APIGW" data-source-line="21" data-uid="ent0009" id="entity_APIGW"><path d="M704.4949,626.167 C709.1594,620.6549 713.9231,619.492 717.8249,626.9508 C720.135,620.6209 724.2832,619.8854 729.2064,624.1413 C733.7661,618.8196 737.5059,618.118 741.277,624.926 C744.6811,618.6883 751.811,618.0343 756.0239,623.9442 C758.95,618.7445 765.0623,617.9441 768.3833,623.4901 C773.0431,616.7739 777.4309,617.3897 781.4878,624.0795 C784.3887,617.1622 789.4641,616.2983 794.1416,622.3455 C799.0504,616.6691 802.8918,616.5848 806.3548,623.7235 C810.3118,617.0282 814.6884,616.8224 819.7026,622.5915 C824.5656,615.6158 829.515,617.0597 833.1551,623.7917 C836.6274,617.2416 841.3872,617.9086 845.0594,623.5972 C849.9081,618.1429 856.8083,617.719 859.631,625.7814 C863.2794,621.1126 867.0541,619.6049 870.9448,625.5224 C875.6388,620.9351 879.8077,620.3824 883.2237,626.9315 C892.8494,626.9779 897.0246,632.5151 894.4223,641.7823 C900.3244,651.7448 894.2402,657.1129 884.7442,657.7322 C880.3762,663.6555 875.4481,663.4339 871.3592,657.4193 C868.2234,664.556 861.4872,663.8249 857.8641,657.9237 C854.6736,664.5387 849.927,664.7499 845.0673,659.7652 C841.6582,665.3195 836.5263,665.933 832.4316,660.5579 C828.8606,668.0099 824.1651,667.5391 818.8184,662.4917 C815.1977,667.07 810.9832,667.784 807.5018,662.3344 C803.417,669.4162 798.2084,670.6235 793.1928,663.2562 C788.7492,669.5152 784.8374,669.2763 780.4148,663.2344 C775.6571,669.4711 771.5369,669.585 767.4794,662.5519 C763.5196,667.2933 758.8249,668.8315 755.3019,662.0888 C750.9788,667.8492 745.6017,665.6602 743.1073,660.1161 C738.167,665.6727 733.171,666.4773 729.5864,658.7375 C724.8101,665.5386 719.579,664.7266 716.3471,657.3003 C712.4187,661.9734 707.4406,662.0168 704.94,655.8041 C694.7697,657.0757 690.5484,651.3053 693.0313,641.8095 C690.1268,632.4983 693.6406,625.395 704.4949,626.167" fill="#F1F1F1" style="stroke:#181818;stroke-width:0.5;"/><text fill="#000000" font-family="sans-serif" font-size="14" lengthAdjust="spacing" textLength="166.4756" x="709.54" y="645.0382">&#9318; Amazon API Gateway</text></g><!--entity API--><g class="entity" data-entity="API" data-source-line="22" data-uid="ent0010" id="entity_API"><rect fill="#F1F1F1" height="46.2969" rx="3.5" ry="3.5" style="stroke:#181818;stroke-width:0.5;" width="322.126" x="654.71" y="748.4831"/><rect fill="#F1F1F1" height="10" style="stroke:#181818;stroke-width:0.5;" width="15" x="956.836" y="753.4831"/><rect fill="#F1F1F1" height="2" style="stroke:#181818;stroke-width:0.5;" width="4" x="954.836" y="755.4831"/><rect fill="#F1F1F1" height="2" style="stroke:#181818;stroke-width:0.5;" width="4" x="954.836" y="759.4831"/><text fill="#000000" font-family="sans-serif" font-size="14" lengthAdjust="spacing" textLength="282.126" x="669.71" y="781.4782">&#9319; Movie API (Spring Boot - ECS Fargate)</text></g><!--entity RDS--><g class="entity" data-entity="RDS" data-source-line="23" data-uid="ent0011" id="entity_RDS"><path d="M213.2,882.2831 C213.2,872.2831 347.7781,872.2831 347.7781,872.2831 C347.7781,872.2831 482.3563,872.2831 482.3563,882.2831 L482.3563,907.58 C482.3563,917.58 347.7781,917.58 347.7781,917.58 C347.7781,917.58 213.2,917.58 213.2,907.58 L213.2,882.2831" fill="#A4DBD8" style="stroke:#191919;stroke-width:0.5;"/><path d="M213.2,882.2831 C213.2,892.2831 347.7781,892.2831 347.7781,892.2831 C347.7781,892.2831 482.3563,892.2831 482.3563,882.2831" fill="none" style="stroke:#191919;stroke-width:0.5;"/><text fill="#191919" font-family="sans-serif" font-size="14" lengthAdjust="spacing" textLength="249.1563" x="223.2" y="909.2782">&#9320; Amazon RDS (PostgreSQL - Prod)</text></g><!--entity CW--><g class="entity" data-entity="CW" data-source-line="24" data-uid="ent0012" id="entity_CW"><path d="M526.4967,881.5935 C531.075,874.5725 535.2475,874.2247 540.0331,881.3959 C542.3034,874.3424 547.9862,875.0397 552.0494,879.5296 C555.8743,873.7846 560.1587,873.4559 564.3228,879.1663 C568.5692,872.8926 573.0194,870.4822 578.5688,877.8006 C583.9228,871.7991 588.0793,871.9922 591.5589,879.5909 C593.247,873.2152 598.3111,872.1784 602.5558,877.1029 C606.748,870.9045 611.6886,872.1667 615.109,877.9139 C619.6316,870.4741 625.4234,871.9511 629.1469,878.7043 C633.3237,872.608 637.7737,872.9762 641.1073,879.5032 C645.5212,872.2241 649.8861,873.3797 654.7029,879.0811 C658.9638,873.1453 663.4085,872.4814 667.8558,878.8824 C672.2623,874.6345 675.8153,875.6628 678.4933,880.8346 C682.3186,874.2835 686.9609,874.0358 692.0079,879.4553 C695.6923,873.9261 701.6399,874.5832 704.1177,880.7089 C713.6132,882.3205 716.2814,889.287 709.3308,896.3722 C714.5804,903.3261 712.7391,908.9869 703.9861,910.7274 C701.2526,916.4819 696.5048,916.2127 693.0101,911.5277 C689.3885,919.075 684.5087,919.8449 678.7726,913.7315 C675.6336,919.8135 669.6891,919.3141 666.0882,914.2574 C662.7792,918.7609 658.0987,919.4371 654.9003,914.1314 C651.0415,920.9695 646.8756,920.466 641.9032,915.3413 C638.5887,921.7397 634.2024,922.3931 629.5864,916.6631 C626.5173,922.8696 620.5437,924.2034 616.4417,917.7343 C612.153,924.9216 605.301,923.2175 602.4881,916.2767 C598.7719,921.7205 594.3849,921.1108 591.561,915.4025 C587.2592,921.1555 580.3933,922.2671 576.7698,914.6519 C572.9469,921.466 567.6713,919.664 563.9882,914.5027 C559.4388,918.9275 554.7872,918.5196 552.5584,912.0649 C548.208,917.0091 543.8515,918.5855 540.0179,911.525 C535.2078,917.5305 530.9973,916.2059 527.4317,910.2189 C519.4729,907.9272 517.6802,902.476 523.2079,896.1387 C517.4904,890.7748 518.5918,883.8773 526.4967,881.5935" fill="#F1F1F1" style="stroke:#181818;stroke-width:0.5;"/><text fill="#000000" font-family="sans-serif" font-size="14" lengthAdjust="spacing" textLength="163.9531" x="532.8" y="899.7782">&#9322; Amazon CloudWatch</text></g><!--entity SNS--><g class="entity" data-entity="SNS" data-source-line="25" data-uid="ent0013" id="entity_SNS"><path d="M554.3417,1019.8568 C558.26,1013.6911 561.98,1014.3002 566.2672,1019.4687 C568.7548,1012.6595 575.512,1011.4132 580.2819,1016.8587 C584.3102,1011.8785 588.211,1013.0303 590.7926,1018.3369 C594.0442,1011.8172 599.9989,1011.5077 604.7144,1016.5786 C607.632,1011.5273 612.7027,1011.2421 616.1671,1015.9359 C620.3745,1011.1183 626.2979,1010.7849 628.8193,1017.7468 C631.7442,1012.1814 637.0993,1012.3968 639.8825,1017.8884 C643.5565,1013.1368 647.2422,1011.9726 651.302,1017.4579 C655.713,1011.8341 660.8185,1013.011 663.6076,1019.154 C667.7482,1012.7488 673.0853,1014.1648 676.3018,1020.1043 C683.9001,1021.8931 686.5236,1028.8062 680.9214,1034.7569 C686.6742,1040.5795 684.7826,1048.0651 676.6106,1049.9322 C673.5825,1054.921 668.6529,1054.7561 665.2967,1050.3262 C662.1716,1056.0915 657.8865,1056.9126 653.166,1052.1675 C650.8811,1059.2164 644.0517,1059.8137 639.4686,1054.7708 C637.1851,1060.2031 631.8123,1062.8026 627.559,1056.8273 C624.4785,1062.5122 619.141,1063.1478 615.2424,1057.7353 C611.6606,1062.222 607.3707,1062.9919 604.4296,1057.0697 C598.7505,1062.6576 594.1922,1060.4221 591.9132,1053.6317 C587.781,1058.2428 582.5018,1058.3726 579.7713,1052.072 C576.0225,1058.1255 570.3401,1057.1135 567.9317,1050.7898 C562.9924,1056.0711 557.7949,1056.6251 554.0336,1049.4731 C543.2622,1050.0166 539.6776,1042.2225 545.4125,1033.7282 C540.9756,1025.4018 544.7873,1019.1767 554.3417,1019.8568" fill="#F1F1F1" style="stroke:#181818;stroke-width:0.5;"/><text fill="#000000" font-family="sans-serif" font-size="14" lengthAdjust="spacing" textLength="107.7275" x="560.91" y="1038.0782">&#9324; Amazon SNS</text></g><!--entity ECR--><g class="entity" data-entity="ECR" data-source-line="26" data-uid="ent0014" id="entity_ECR"><path d="M755.2917,881.5568 C759.2135,875.3859 762.9368,875.9957 767.2275,881.1687 C769.7177,874.355 776.4799,873.1088 781.2524,878.5587 C785.2839,873.5732 789.1886,874.7256 791.7734,880.0369 C795.0279,873.5128 800.9869,873.2036 805.7054,878.2786 C808.6258,873.2229 813.7011,872.9378 817.1684,877.6359 C821.3785,872.814 827.3066,872.4797 829.8309,879.4468 C832.7583,873.8762 838.1184,874.0917 840.9043,879.5884 C844.5817,874.8327 848.2707,873.6675 852.3341,879.1579 C856.748,873.529 861.8578,874.7063 864.6499,880.854 C868.7935,874.4434 874.1349,875.8602 877.3543,881.8043 C884.9527,883.5931 887.5762,890.5062 881.9739,896.4569 C887.7267,902.2795 885.8352,909.7651 877.6631,911.6322 C874.6322,916.6254 869.6981,916.4603 866.339,912.0262 C863.2106,917.7958 858.9218,918.6171 854.1981,913.8675 C851.9105,920.9212 845.0761,921.518 840.4904,916.4708 C838.2042,921.9073 832.8266,924.5082 828.5705,918.5273 C825.4871,924.2167 820.1451,924.8525 816.2436,919.4353 C812.6588,923.9265 808.3648,924.6973 805.4206,918.7697 C799.7384,924.3631 795.1762,922.1268 792.894,915.3317 C788.7588,919.9471 783.4753,920.0776 780.7418,913.772 C776.9904,919.831 771.303,918.8187 768.892,912.4898 C763.9494,917.7753 758.7482,918.3301 754.9836,911.1731 C744.2122,911.7166 740.6276,903.9225 746.3625,895.4282 C741.9256,887.1018 745.7373,880.8767 755.2917,881.5568" fill="#F1F1F1" style="stroke:#181818;stroke-width:0.5;"/><text fill="#000000" font-family="sans-serif" font-size="14" lengthAdjust="spacing" textLength="107.83" x="761.86" y="899.7782">&#9325; Amazon ECR</text></g><!--entity Secrets--><g class="entity" data-entity="Secrets" data-source-line="27" data-uid="ent0015" id="entity_Secrets"><path d="M929.4448,880.5634 C934.2859,874.6071 939.2621,874.1669 943.3368,881.3724 C947.0729,875.3177 952.2499,875.8562 956.2092,881.1184 C960.2225,874.5753 965.1594,875.3004 969.6827,880.5349 C973.3899,874.4833 978.8797,874.9788 982.8611,880.2146 C985.3257,872.2659 990.8208,872.8189 995.8825,877.5469 C999.4661,871.9781 1004.9889,872.0285 1007.6737,878.4321 C1011.4971,870.596 1016.6872,871.245 1022.2598,876.4801 C1027.6764,870.8741 1032.3603,871.422 1036.4279,878.0432 C1040.3027,872.087 1044.7288,873.1499 1048.0555,878.6019 C1052.3772,871.7245 1057.7225,871.8416 1061.339,879.2573 C1065.4103,872.719 1071.048,874.2183 1074.5137,879.9098 C1078.3301,873.115 1084.6783,873.5936 1088.4249,879.9835 C1092.9012,873.8045 1098.2165,873.9693 1101.8774,880.825 C1104.8722,874.3531 1110.6776,873.6299 1114.523,879.9867 C1124.7059,883.0284 1126.7275,888.1194 1120.1772,896.7913 C1125.931,903.9852 1124.1788,909.8437 1114.7116,911.306 C1111.262,917.0534 1107.348,917.6436 1102.9568,912.3043 C1098.9129,919.9073 1091.3109,919.9573 1087.3045,912.2659 C1084.0818,918.9349 1078.8797,919.5477 1074.2369,913.7551 C1070.4223,919.9355 1065.0488,918.8738 1062.3793,912.6597 C1058.9047,918.849 1051.5714,919.7877 1047.6167,913.215 C1044.1815,919.2415 1039.41,920.1476 1035.4434,913.7351 C1032.3405,921.1843 1027.6953,921.3751 1022.3953,915.9643 C1017.1182,921.4913 1012.8318,921.2199 1009.0573,914.3479 C1003.6629,921.1529 999.4749,919.5283 995.0843,913.274 C990.0487,920.5019 985.8225,919.0789 981.48,912.5868 C977.526,918.4663 973.2884,919.3439 968.5486,913.4497 C964.0309,919.3325 958.9781,918.8879 954.6848,913.1812 C950.8378,918.9963 944.5815,917.9903 941.8372,911.9828 C937.6756,918.4296 934.0128,918.1375 929.8835,911.9523 C920.6099,911.281 917.2529,905.6953 921.4077,897.2713 C915.797,888.6849 920.2753,882.0399 929.4448,880.5634" fill="#F1F1F1" style="stroke:#181818;stroke-width:0.5;"/><text fill="#000000" font-family="sans-serif" font-size="14" lengthAdjust="spacing" textLength="171.9238" x="934.82" y="899.7782">&#9321; AWS Secrets Manager</text></g><!--entity XRay--><g class="entity" data-entity="XRay" data-source-line="28" data-uid="ent0016" id="entity_XRay"><path d="M1164.5808,881.5742 C1167.095,874.8609 1172.7457,874.4097 1176.9415,879.8663 C1179.9113,875.48 1184.9044,875.1081 1187.112,880.6474 C1189.4946,874.6043 1194.8694,874.539 1198.7494,878.9862 C1201.936,872.3077 1207.3038,872.1975 1210.9141,878.5919 C1213.5714,874.336 1216.4478,873.8693 1220.0073,877.5596 C1223.8213,871.0179 1227.774,872.6278 1231.8557,877.2762 C1236.7621,872.4043 1240.9195,873.814 1243.4191,879.8319 C1246.492,874.466 1250.2882,874.8422 1253.5365,879.6576 C1257.8089,875.1776 1262.0985,874.6257 1265.103,881.0078 C1268.4094,874.946 1272.3803,875.0003 1276.0804,880.6385 C1282.9449,884.0513 1285.3884,891.6689 1277.2258,896.1886 C1284.9217,900.9983 1284.4525,906.7841 1277.0381,911.4075 C1274.1221,917.4825 1269.533,917.2233 1266.1127,911.8905 C1261.8845,918.1704 1257.9242,916.5251 1254.2669,911.3025 C1251.0184,917.5247 1246.6242,918.0913 1241.9439,912.8404 C1239.0611,917.0344 1235.0061,917.1016 1231.9843,913.0075 C1230.1808,918.5217 1225.2279,918.5038 1221.8354,914.7469 C1216.9988,920.8092 1212.9786,919.9148 1209.4482,913.4548 C1204.8155,919.2532 1200.8244,918.4005 1197.9192,911.843 C1195.5285,917.1126 1190.884,917.2167 1188.1302,912.1881 C1184.9323,917.9273 1178.9261,917.864 1176.1226,911.7873 C1172.324,915.4702 1168.2805,914.8847 1165.8032,910.1647 C1158.8551,907.3659 1156.6294,901.9909 1162.0933,895.9522 C1156.0258,890.4943 1156.6135,884.6041 1164.5808,881.5742" fill="#F1F1F1" style="stroke:#181818;stroke-width:0.5;"/><text fill="#000000" font-family="sans-serif" font-size="14" lengthAdjust="spacing" textLength="96.4413" x="1171.56" y="899.7782">&#9323; AWS X-Ray</text></g><!--entity DevOps--><g class="entity" data-entity="DevOps" data-source-line="30" data-uid="ent0017" id="entity_DevOps"><ellipse cx="532.7749" cy="1156.8731" fill="#191919" rx="8" ry="8" style="stroke:#191919;stroke-width:0.5;"/><path d="M532.7749,1164.8731 L532.7749,1191.8731 M519.7749,1172.8731 L545.7749,1172.8731 M532.7749,1191.8731 L519.7749,1206.8731 M532.7749,1191.8731 L545.7749,1206.8731" fill="none" style="stroke:#191919;stroke-width:0.5;"/><text fill="#191919" font-family="sans-serif" font-size="14" lengthAdjust="spacing" textLength="140.1298" x="462.71" y="1221.3682">&#9326; DevOps Engineer</text></g><!--entity Security--><g class="entity" data-entity="Security" data-source-line="31" data-uid="ent0018" id="entity_Security"><ellipse cx="697.7762" cy="1156.8731" fill="#191919" rx="8" ry="8" style="stroke:#191919;stroke-width:0.5;"/><path d="M697.7762,1164.8731 L697.7762,1191.8731 M684.7762,1172.8731 L710.7762,1172.8731 M697.7762,1191.8731 L684.7762,1206.8731 M697.7762,1191.8731 L710.7762,1206.8731" fill="none" style="stroke:#191919;stroke-width:0.5;"/><text fill="#191919" font-family="sans-serif" font-size="14" lengthAdjust="spacing" textLength="119.7724" x="637.89" y="1221.3682">&#9327; Security Team</text></g><!--entity PerfAnalyst--><g class="entity" data-entity="PerfAnalyst" data-source-line="32" data-uid="ent0019" id="entity_PerfAnalyst"><ellipse cx="1219.7748" cy="1003.5831" fill="#191919" rx="8" ry="8" style="stroke:#191919;stroke-width:0.5;"/><path d="M1219.7748,1011.5831 L1219.7748,1038.5831 M1206.7748,1019.5831 L1232.7748,1019.5831 M1219.7748,1038.5831 L1206.7748,1053.5831 M1219.7748,1038.5831 L1232.7748,1053.5831" fill="none" style="stroke:#191919;stroke-width:0.5;"/><text fill="#191919" font-family="sans-serif" font-size="14" lengthAdjust="spacing" textLength="164.3495" x="1137.6" y="1068.0782">&#9328; Performance Analyst</text></g><g class="entity" data-entity="GMN23" data-source-line="39" data-uid="ent0024" id="entity_GMN23"><path d="M374.36,615.9931 L374.36,636.1931 L339.99,640.1931 L374.36,644.1931 L374.36,664.3916 A3.5,3.5 0 0 0 377.86,667.8916 L655.7003,667.8916 A3.5,3.5 0 0 0 659.2003,664.3916 L659.2003,622.4931 L649.2003,612.4931 L377.86,612.4931 A3.5,3.5 0 0 0 374.36,615.9931" fill="#E5E5E5" style="stroke:#191919;stroke-width:1.5;"/><path d="M649.2003,612.4931 L649.2003,620.7431 A1.75,1.75 0 0 0 650.9503,622.4931 L659.2003,622.4931 L649.2003,612.4931" fill="#E5E5E5" style="stroke:#191919;stroke-width:1.5;"/><text fill="#191919" font-family="sans-serif" font-size="13" lengthAdjust="spacing" textLength="263.8403" x="380.36" y="629.56">&#160; Auth occurs outside Movie API scope.\n</text><text fill="#191919" font-family="sans-serif" font-size="13" lengthAdjust="spacing" textLength="251.3101" x="380.36" y="644.6928">&#160; This portal acquires Cognito tokens\n</text><text fill="#191919" font-family="sans-serif" font-size="13" lengthAdjust="spacing" textLength="241.0015" x="380.36" y="659.8256">&#160; for use in API calls via API Gateway.</text></g><!--link User to Portal--><g class="link" data-entity-1="User" data-entity-2="Portal" data-source-line="35" data-uid="lnk20" id="link_User_Portal"><path d="M279.39,162.2931 C271.51,189.4231 262.78,227.1631 262.78,261.1531 C262.78,261.1531 262.78,261.1531 262.78,509.7431 C262.78,548.3231 240.2481,580.0169 216.7781,604.2069" fill="none" id="User-to-Portal" style="stroke:#191919;stroke-width:1;"/><polygon fill="#191919" points="212.6,608.5131,221.7379,604.8391,216.0817,604.9246,215.9963,599.2684,212.6,608.5131" style="stroke:#191919;stroke-width:1;"/><text fill="#000000" font-family="sans-serif" font-size="13" lengthAdjust="spacing" textLength="132.8564" x="263.78" y="390.01">Logs in (via OAuth2)</text></g><!--link Portal to Cognito--><g class="link" data-entity-1="Portal" data-entity-2="Cognito" data-source-line="36" data-uid="lnk21" id="link_Portal_Cognito"><path d="M155.41,671.6331 C147.01,687.0231 141.84,705.2031 152.78,718.4831 C175.88,746.5531 262.0026,759.2229 331.4026,765.2629" fill="none" id="Portal-to-Cognito" style="stroke:#191919;stroke-width:1;"/><polygon fill="#191919" points="337.38,765.7831,328.7607,761.0179,332.3988,765.3496,328.0671,768.9877,337.38,765.7831" style="stroke:#191919;stroke-width:1;"/><text fill="#000000" font-family="sans-serif" font-size="13" lengthAdjust="spacing" textLength="221.4189" x="153.78" y="714.55">Initiates Auth Flow (OAuth2/OIDC)</text></g><!--link Cognito to Portal--><g class="link" data-entity-1="Cognito" data-entity-2="Portal" data-source-line="37" data-uid="lnk22" id="link_Cognito_Portal"><path d="M411.17,747.9931 C404.96,732.7931 394.75,713.4331 379.78,701.4831 C364.62,689.3831 352.6056,682.0515 334.3156,674.3115" fill="none" id="Cognito-to-Portal" style="stroke:#191919;stroke-width:1;"/><polygon fill="#191919" points="328.79,671.9731,335.5195,679.1644,333.3947,673.9217,338.6373,671.7969,328.79,671.9731" style="stroke:#191919;stroke-width:1;"/><text fill="#000000" font-family="sans-serif" font-size="13" lengthAdjust="spacing" textLength="196.7202" x="394.78" y="714.55">Returns ID and Access Tokens</text></g><!--link User to DNS--><g class="link" data-entity-1="User" data-entity-2="DNS" data-source-line="45" data-uid="lnk26" id="link_User_DNS"><path d="M334.27,162.4531 C361.87,186.8831 392.4266,213.937 415.7966,234.617" fill="none" id="User-to-DNS" style="stroke:#191919;stroke-width:1;"/><polygon fill="#191919" points="420.29,238.5931,416.2007,229.6333,416.5455,235.2797,410.8992,235.6245,420.29,238.5931" style="stroke:#191919;stroke-width:1;"/><text fill="#000000" font-family="sans-serif" font-size="13" lengthAdjust="spacing" textLength="160.3862" x="382.78" y="205.07">movie-api.company.com</text></g><!--link DNS to WAF--><g class="link" data-entity-1="DNS" data-entity-2="WAF" data-source-line="46" data-uid="lnk27" id="link_DNS_WAF"><path d="M461.75,285.6831 C477.2,307.4631 496.9988,335.3992 512.4188,357.1392" fill="none" id="DNS-to-WAF" style="stroke:#191919;stroke-width:1;"/><polygon fill="#191919" points="515.89,362.0331,513.9458,352.3781,512.9973,357.9548,507.4205,357.0064,515.89,362.0331" style="stroke:#191919;stroke-width:1;"/><text fill="#000000" font-family="sans-serif" font-size="13" lengthAdjust="spacing" textLength="99.5376" x="494.78" y="328.36">Secure Routing</text></g><!--link WAF to ACM--><g class="link" data-entity-1="WAF" data-entity-2="ACM" data-source-line="47" data-uid="lnk28" id="link_WAF_ACM"><path d="M531.78,408.9731 C531.78,430.7631 531.78,457.5831 531.78,479.3331" fill="none" id="WAF-to-ACM" style="stroke:#191919;stroke-width:1;"/><polygon fill="#191919" points="531.78,485.3331,535.78,476.3331,531.78,480.3331,527.78,476.3331,531.78,485.3331" style="stroke:#191919;stroke-width:1;"/><text fill="#000000" font-family="sans-serif" font-size="13" lengthAdjust="spacing" textLength="106.2344" x="532.78" y="451.66">TLS Termination</text></g><!--link WAF to ALB--><g class="link" data-entity-1="WAF" data-entity-2="ALB" data-source-line="48" data-uid="lnk29" id="link_WAF_ALB"><path d="M584.8,409.0831 C604.73,417.9031 627.47,428.3531 647.78,438.5931 C676.76,453.2131 703.5022,468.2088 727.5622,482.1888" fill="none" id="WAF-to-ALB" style="stroke:#191919;stroke-width:1;"/><polygon fill="#191919" points="732.75,485.2031,726.9778,477.223,728.4268,482.6911,722.9587,484.1401,732.75,485.2031" style="stroke:#191919;stroke-width:1;"/><text fill="#000000" font-family="sans-serif" font-size="13" lengthAdjust="spacing" textLength="99.271" x="678.78" y="451.66">HTTPS Request</text></g><!--link ALB to APIGW--><g class="link" data-entity-1="ALB" data-entity-2="APIGW" data-source-line="49" data-uid="lnk30" id="link_ALB_APIGW"><path d="M774.61,532.2931 C778.65,556.0531 783.965,587.3279 787.985,610.9879" fill="none" id="ALB-to-APIGW" style="stroke:#191919;stroke-width:1;"/><polygon fill="#191919" points="788.99,616.9031,791.4259,607.3603,788.1525,611.9738,783.539,608.7003,788.99,616.9031" style="stroke:#191919;stroke-width:1;"/><text fill="#000000" font-family="sans-serif" font-size="13" lengthAdjust="spacing" textLength="65.8633" x="782.78" y="574.96">API Traffic</text></g><!--link APIGW to Cognito--><g class="link" data-entity-1="APIGW" data-entity-2="Cognito" data-source-line="50" data-uid="lnk31" id="link_APIGW_Cognito"><path d="M740.48,663.7931 C701.95,680.0331 648.08,701.9031 599.78,718.4831 C567.46,729.5831 537.1369,738.6923 505.7369,747.5023" fill="none" id="APIGW-to-Cognito" style="stroke:#191919;stroke-width:1;"/><polygon fill="#191919" points="499.96,749.1231,509.706,750.5431,504.7741,747.7724,507.5448,742.8406,499.96,749.1231" style="stroke:#191919;stroke-width:1;"/><text fill="#000000" font-family="sans-serif" font-size="13" lengthAdjust="spacing" textLength="117.8442" x="642.78" y="714.55">Token Verification</text></g><!--link APIGW to API--><g class="link" data-entity-1="APIGW" data-entity-2="API" data-source-line="51" data-uid="lnk32" id="link_APIGW_API"><path d="M796.78,663.7331 C801.01,687.4931 806.5589,718.7759 810.7689,742.4359" fill="none" id="APIGW-to-API" style="stroke:#191919;stroke-width:1;"/><polygon fill="#191919" points="811.82,748.3431,814.1815,738.7816,810.9441,743.4204,806.3052,740.183,811.82,748.3431" style="stroke:#191919;stroke-width:1;"/><text fill="#000000" font-family="sans-serif" font-size="13" lengthAdjust="spacing" textLength="126.7437" x="806.78" y="714.55">Forwarded Request</text></g><!--link API to RDS--><g class="link" data-entity-1="API" data-entity-2="RDS" data-source-line="52" data-uid="lnk33" id="link_API_RDS"><path d="M663.76,795.2131 C620.43,803.0631 573.42,812.9231 530.78,824.7831 C485.13,837.4731 440.4335,854.5675 404.1635,869.5875" fill="none" id="API-to-RDS" style="stroke:#191919;stroke-width:1;"/><polygon fill="#191919" points="398.62,871.8831,408.4656,872.1353,403.2396,869.9701,405.4048,864.744,398.62,871.8831" style="stroke:#191919;stroke-width:1;"/><text fill="#000000" font-family="sans-serif" font-size="13" lengthAdjust="spacing" textLength="153.772" x="531.78" y="837.85">Secure JDBC (IAM Auth)</text></g><!--link API to Secrets--><g class="link" data-entity-1="API" data-entity-2="Secrets" data-source-line="53" data-uid="lnk34" id="link_API_Secrets"><path d="M883.69,795.2631 C903.74,803.2531 925.27,813.1931 943.78,824.7831 C964.64,837.8431 981.0018,852.4761 995.6318,867.2061" fill="none" id="API-to-Secrets" style="stroke:#191919;stroke-width:1;"/><polygon fill="#191919" points="999.86,871.4631,996.3558,862.2587,996.3365,867.9156,990.6797,867.8963,999.86,871.4631" style="stroke:#191919;stroke-width:1;"/><text fill="#000000" font-family="sans-serif" font-size="13" lengthAdjust="spacing" textLength="137.1221" x="966.78" y="837.85">Fetch DB Credentials</text></g><!--link API to CW--><g class="link" data-entity-1="API" data-entity-2="CW" data-source-line="54" data-uid="lnk35" id="link_API_CW"><path d="M773.3,795.0631 C756.75,804.0231 737.72,814.6231 720.78,824.7831 C695.9,839.6931 673.4871,854.2772 652.7671,868.1372" fill="none" id="API-to-CW" style="stroke:#191919;stroke-width:1;"/><polygon fill="#191919" points="647.78,871.4731,657.4846,869.7939,651.9359,868.6931,653.0367,863.1444,647.78,871.4731" style="stroke:#191919;stroke-width:1;"/><text fill="#000000" font-family="sans-serif" font-size="13" lengthAdjust="spacing" textLength="85.6743" x="721.78" y="837.85">Logs, Metrics</text></g><!--link API to XRay--><g class="link" data-entity-1="API" data-entity-2="XRay" data-source-line="55" data-uid="lnk36" id="link_API_XRay"><path d="M976.98,788.9331 C1021.94,796.6731 1070.13,808.0531 1112.78,824.7831 C1141.81,836.1731 1166.5217,852.3909 1187.1817,867.9009" fill="none" id="API-to-XRay" style="stroke:#191919;stroke-width:1;"/><polygon fill="#191919" points="1191.98,871.5031,1187.184,862.9009,1187.9814,868.5013,1182.381,869.2987,1191.98,871.5031" style="stroke:#191919;stroke-width:1;"/><text fill="#000000" font-family="sans-serif" font-size="13" lengthAdjust="spacing" textLength="43.1704" x="1147.78" y="837.85">Traces</text></g><!--link CW to SNS--><g class="link" data-entity-1="CW" data-entity-2="SNS" data-source-line="56" data-uid="lnk37" id="link_CW_SNS"><path d="M614.78,918.4331 C614.78,943.6931 614.78,978.4231 614.78,1003.6831" fill="none" id="CW-to-SNS" style="stroke:#191919;stroke-width:1;"/><polygon fill="#191919" points="614.78,1009.6831,618.78,1000.6831,614.78,1004.6831,610.78,1000.6831,614.78,1009.6831" style="stroke:#191919;stroke-width:1;"/><text fill="#000000" font-family="sans-serif" font-size="13" lengthAdjust="spacing" textLength="37.7178" x="615.78" y="961.15">Alerts</text></g><!--link SNS to DevOps--><g class="link" data-entity-1="SNS" data-entity-2="DevOps" data-source-line="57" data-uid="lnk38" id="link_SNS_DevOps"><path d="M602.68,1056.5531 C589.62,1080.6331 571.4787,1114.1179 555.8987,1142.8679" fill="none" id="SNS-to-DevOps" style="stroke:#191919;stroke-width:1;"/><polygon fill="#191919" points="553.04,1148.1431,560.8449,1142.1361,555.4223,1143.7471,553.8113,1138.3245,553.04,1148.1431" style="stroke:#191919;stroke-width:1;"/><text fill="#000000" font-family="sans-serif" font-size="13" lengthAdjust="spacing" textLength="74.5913" x="576.78" y="1114.44">Notification</text></g><!--link SNS to Security--><g class="link" data-entity-1="SNS" data-entity-2="Security" data-source-line="58" data-uid="lnk39" id="link_SNS_Security"><path d="M630.7,1056.7131 C639.46,1069.5131 650.25,1086.0231 658.78,1101.3731 C667.07,1116.2931 672.715,1127.8228 679.375,1142.6028" fill="none" id="SNS-to-Security" style="stroke:#191919;stroke-width:1;"/><polygon fill="#191919" points="681.84,1148.0731,681.7894,1138.2244,679.7859,1143.5146,674.4957,1141.511,681.84,1148.0731" style="stroke:#191919;stroke-width:1;"/><text fill="#000000" font-family="sans-serif" font-size="13" lengthAdjust="spacing" textLength="95.2339" x="667.78" y="1114.44">Security Alerts</text></g><!--link API to ECR--><g class="link" data-entity-1="API" data-entity-2="ECR" data-source-line="59" data-uid="lnk40" id="link_API_ECR"><path d="M815.78,795.1631 C815.78,816.9531 815.78,843.7731 815.78,865.5231" fill="none" id="API-to-ECR" style="stroke:#191919;stroke-width:1;"/><polygon fill="#191919" points="815.78,871.5231,819.78,862.5231,815.78,866.5231,811.78,862.5231,815.78,871.5231" style="stroke:#191919;stroke-width:1;"/><text fill="#000000" font-family="sans-serif" font-size="13" lengthAdjust="spacing" textLength="118.2632" x="816.78" y="837.85">Docker Image Pull</text></g><!--link XRay to PerfAnalyst--><g class="link" data-entity-1="XRay" data-entity-2="PerfAnalyst" data-source-line="60" data-uid="lnk41" id="link_XRay_PerfAnalyst"><path d="M1219.78,918.4331 C1219.78,939.1531 1219.78,964.2831 1219.78,988.7531" fill="none" id="XRay-to-PerfAnalyst" style="stroke:#191919;stroke-width:1;"/><polygon fill="#191919" points="1219.78,994.7531,1223.78,985.7531,1219.78,989.7531,1215.78,985.7531,1219.78,994.7531" style="stroke:#191919;stroke-width:1;"/><text fill="#000000" font-family="sans-serif" font-size="13" lengthAdjust="spacing" textLength="94.0913" x="1220.78" y="961.15">Trace Analysis</text></g><g class="legend" data-source-line="62"><rect fill="#F2F2F2" height="307.3438" rx="3.5" ry="3.5" style="stroke:#CCCCCC;stroke-width:1;" width="607.3721" x="350.7496" y="1240.8682"/><text fill="#000000" font-family="sans-serif" font-size="14" font-weight="bold" lengthAdjust="spacing" textLength="36.292" x="360.6236" y="1260.8634">Step</text><text fill="#000000" font-family="sans-serif" font-size="14" font-weight="bold" lengthAdjust="spacing" textLength="90.2412" x="406.6637" y="1260.8634">Component</text><text fill="#000000" font-family="sans-serif" font-size="14" font-weight="bold" lengthAdjust="spacing" textLength="90.5488" x="561.4635" y="1260.8634">Description</text><text fill="#000000" font-family="sans-serif" font-size="14" font-weight="bold" lengthAdjust="spacing" textLength="71.5791" x="827.4498" y="1260.8634">Category</text><text fill="#000000" font-family="sans-serif" font-size="14" lengthAdjust="spacing" textLength="12.5508" x="360.1998" y="1277.1602">&#9312;</text><text fill="#000000" font-family="sans-serif" font-size="14" lengthAdjust="spacing" textLength="103.5029" x="406.2399" y="1277.1602">External Portal</text><text fill="#000000" font-family="sans-serif" font-size="14" lengthAdjust="spacing" textLength="82.209" x="561.0397" y="1277.1602">User logs in</text><text fill="#000000" font-family="sans-serif" font-size="14" lengthAdjust="spacing" textLength="102.7715" x="827.026" y="1277.1602">Authentication</text><text fill="#000000" font-family="sans-serif" font-size="14" lengthAdjust="spacing" textLength="12.5508" x="360.1998" y="1293.4571">&#9313;</text><text fill="#000000" font-family="sans-serif" font-size="14" lengthAdjust="spacing" textLength="54.0449" x="406.2399" y="1293.4571">Cognito</text><text fill="#000000" font-family="sans-serif" font-size="14" lengthAdjust="spacing" textLength="155.1416" x="561.0397" y="1293.4571">Issues OAuth2 Tokens</text><text fill="#000000" font-family="sans-serif" font-size="14" lengthAdjust="spacing" textLength="121.6455" x="827.026" y="1293.4571">Identity &amp; Access</text><text fill="#000000" font-family="sans-serif" font-size="14" lengthAdjust="spacing" textLength="12.5508" x="360.1998" y="1309.754">&#9314;</text><text fill="#000000" font-family="sans-serif" font-size="14" lengthAdjust="spacing" textLength="63.5332" x="406.2399" y="1309.754">Route 53</text><text fill="#000000" font-family="sans-serif" font-size="14" lengthAdjust="spacing" textLength="108.3701" x="561.0397" y="1309.754">DNS Resolution</text><text fill="#000000" font-family="sans-serif" font-size="14" lengthAdjust="spacing" textLength="80.1035" x="827.026" y="1309.754">Networking</text><text fill="#000000" font-family="sans-serif" font-size="14" lengthAdjust="spacing" textLength="12.5508" x="360.1998" y="1326.0509">&#9315;</text><text fill="#000000" font-family="sans-serif" font-size="14" lengthAdjust="spacing" textLength="83.5352" x="406.2399" y="1326.0509">WAF + ACM</text><text fill="#000000" font-family="sans-serif" font-size="14" lengthAdjust="spacing" textLength="153.043" x="561.0397" y="1326.0509">TLS + Web Protection</text><text fill="#000000" font-family="sans-serif" font-size="14" lengthAdjust="spacing" textLength="57.4902" x="827.026" y="1326.0509">Security</text><text fill="#000000" font-family="sans-serif" font-size="14" lengthAdjust="spacing" textLength="12.5508" x="360.1998" y="1342.3477">&#9316;</text><text fill="#000000" font-family="sans-serif" font-size="14" lengthAdjust="spacing" textLength="26.9814" x="406.2399" y="1342.3477">ALB</text><text fill="#000000" font-family="sans-serif" font-size="14" lengthAdjust="spacing" textLength="107.1533" x="561.0397" y="1342.3477">Load Balancing</text><text fill="#000000" font-family="sans-serif" font-size="14" lengthAdjust="spacing" textLength="80.1035" x="827.026" y="1342.3477">Networking</text><text fill="#000000" font-family="sans-serif" font-size="14" lengthAdjust="spacing" textLength="12.5508" x="360.1998" y="1358.6446">&#9317;</text><text fill="#000000" font-family="sans-serif" font-size="14" lengthAdjust="spacing" textLength="88.4434" x="406.2399" y="1358.6446">API Gateway</text><text fill="#000000" font-family="sans-serif" font-size="14" lengthAdjust="spacing" textLength="158.0674" x="561.0397" y="1358.6446">API Routing, Throttling</text><text fill="#000000" font-family="sans-serif" font-size="14" lengthAdjust="spacing" textLength="118.8223" x="827.026" y="1358.6446">API Management</text><text fill="#000000" font-family="sans-serif" font-size="14" lengthAdjust="spacing" textLength="12.5508" x="360.1998" y="1374.9415">&#9318;</text><text fill="#000000" font-family="sans-serif" font-size="14" lengthAdjust="spacing" textLength="54.0449" x="406.2399" y="1374.9415">Cognito</text><text fill="#000000" font-family="sans-serif" font-size="14" lengthAdjust="spacing" textLength="152.3457" x="561.0397" y="1374.9415">Verifies Access Token</text><text fill="#000000" font-family="sans-serif" font-size="14" lengthAdjust="spacing" textLength="121.6455" x="827.026" y="1374.9415">Identity &amp; Access</text><text fill="#000000" font-family="sans-serif" font-size="14" lengthAdjust="spacing" textLength="12.5508" x="360.1998" y="1391.2384">&#9319;</text><text fill="#000000" font-family="sans-serif" font-size="14" lengthAdjust="spacing" textLength="85.9141" x="406.2399" y="1391.2384">ECS Fargate</text><text fill="#000000" font-family="sans-serif" font-size="14" lengthAdjust="spacing" textLength="136.3223" x="561.0397" y="1391.2384">Movie API Compute</text><text fill="#000000" font-family="sans-serif" font-size="14" lengthAdjust="spacing" textLength="63.8408" x="827.026" y="1391.2384">Compute</text><text fill="#000000" font-family="sans-serif" font-size="14" lengthAdjust="spacing" textLength="12.5508" x="360.1998" y="1407.5352">&#9320;</text><text fill="#000000" font-family="sans-serif" font-size="14" lengthAdjust="spacing" textLength="29.3945" x="406.2399" y="1407.5352">RDS</text><text fill="#000000" font-family="sans-serif" font-size="14" lengthAdjust="spacing" textLength="152.0039" x="561.0397" y="1407.5352">PostgreSQL Database</text><text fill="#000000" font-family="sans-serif" font-size="14" lengthAdjust="spacing" textLength="76.9111" x="827.026" y="1407.5352">Data Layer</text><text fill="#000000" font-family="sans-serif" font-size="14" lengthAdjust="spacing" textLength="12.5508" x="360.1998" y="1423.8321">&#9321;</text><text fill="#000000" font-family="sans-serif" font-size="14" lengthAdjust="spacing" textLength="118.166" x="406.2399" y="1423.8321">Secrets Manager</text><text fill="#000000" font-family="sans-serif" font-size="14" lengthAdjust="spacing" textLength="132.5488" x="561.0397" y="1423.8321">Secure Credentials</text><text fill="#000000" font-family="sans-serif" font-size="14" lengthAdjust="spacing" textLength="57.4902" x="827.026" y="1423.8321">Security</text><text fill="#000000" font-family="sans-serif" font-size="14" lengthAdjust="spacing" textLength="13.9999" x="360.1998" y="1440.129">&#9322;</text><text fill="#000000" font-family="sans-serif" font-size="14" lengthAdjust="spacing" textLength="84.4717" x="406.2399" y="1440.129">CloudWatch</text><text fill="#000000" font-family="sans-serif" font-size="14" lengthAdjust="spacing" textLength="103.1816" x="561.0397" y="1440.129">Logs &amp; Metrics</text><text fill="#000000" font-family="sans-serif" font-size="14" lengthAdjust="spacing" textLength="92.7637" x="827.026" y="1440.129">Observability</text><text fill="#000000" font-family="sans-serif" font-size="14" lengthAdjust="spacing" textLength="13.9999" x="360.1998" y="1456.4259">&#9323;</text><text fill="#000000" font-family="sans-serif" font-size="14" lengthAdjust="spacing" textLength="41.2344" x="406.2399" y="1456.4259">X-Ray</text><text fill="#000000" font-family="sans-serif" font-size="14" lengthAdjust="spacing" textLength="52.2334" x="561.0397" y="1456.4259">Tracing</text><text fill="#000000" font-family="sans-serif" font-size="14" lengthAdjust="spacing" textLength="92.7637" x="827.026" y="1456.4259">Observability</text><text fill="#000000" font-family="sans-serif" font-size="14" lengthAdjust="spacing" textLength="13.9999" x="360.1998" y="1472.7227">&#9324;</text><text fill="#000000" font-family="sans-serif" font-size="14" lengthAdjust="spacing" textLength="28.2461" x="406.2399" y="1472.7227">SNS</text><text fill="#000000" font-family="sans-serif" font-size="14" lengthAdjust="spacing" textLength="80.3291" x="561.0397" y="1472.7227">Notification</text><text fill="#000000" font-family="sans-serif" font-size="14" lengthAdjust="spacing" textLength="74.8672" x="827.026" y="1472.7227">Monitoring</text><text fill="#000000" font-family="sans-serif" font-size="14" lengthAdjust="spacing" textLength="13.9999" x="360.1998" y="1489.0196">&#9325;</text><text fill="#000000" font-family="sans-serif" font-size="14" lengthAdjust="spacing" textLength="28.3486" x="406.2399" y="1489.0196">ECR</text><text fill="#000000" font-family="sans-serif" font-size="14" lengthAdjust="spacing" textLength="130.8057" x="561.0397" y="1489.0196">Container Registry</text><text fill="#000000" font-family="sans-serif" font-size="14" lengthAdjust="spacing" textLength="39.1768" x="827.026" y="1489.0196">CI/CD</text><text fill="#000000" font-family="sans-serif" font-size="14" lengthAdjust="spacing" textLength="13.9999" x="360.1998" y="1505.3165">&#9326;</text><text fill="#000000" font-family="sans-serif" font-size="14" lengthAdjust="spacing" textLength="121.6797" x="406.2399" y="1505.3165">DevOps Engineer</text><text fill="#000000" font-family="sans-serif" font-size="14" lengthAdjust="spacing" textLength="190.9414" x="561.0397" y="1505.3165">Receives operational alerts</text><text fill="#000000" font-family="sans-serif" font-size="14" lengthAdjust="spacing" textLength="103.4551" x="827.026" y="1505.3165">Alert Recipient</text><text fill="#000000" font-family="sans-serif" font-size="14" lengthAdjust="spacing" textLength="13.9999" x="360.1998" y="1521.6134">&#9327;</text><text fill="#000000" font-family="sans-serif" font-size="14" lengthAdjust="spacing" textLength="101.3223" x="406.2399" y="1521.6134">Security Team</text><text fill="#000000" font-family="sans-serif" font-size="14" lengthAdjust="spacing" textLength="222.0313" x="561.0397" y="1521.6134">Receives security-related alerts</text><text fill="#000000" font-family="sans-serif" font-size="14" lengthAdjust="spacing" textLength="103.4551" x="827.026" y="1521.6134">Alert Recipient</text><text fill="#000000" font-family="sans-serif" font-size="14" lengthAdjust="spacing" textLength="13.9999" x="360.1998" y="1537.9102">&#9328;</text><text fill="#000000" font-family="sans-serif" font-size="14" lengthAdjust="spacing" textLength="145.8994" x="406.2399" y="1537.9102">Performance Analyst</text><text fill="#000000" font-family="sans-serif" font-size="14" lengthAdjust="spacing" textLength="257.0859" x="561.0397" y="1537.9102">Analyzes trace data for performance</text><text fill="#000000" font-family="sans-serif" font-size="14" lengthAdjust="spacing" textLength="92.7637" x="827.026" y="1537.9102">Observability</text><line style="stroke:#000000;stroke-width:1;" x1="355.7496" x2="953.1217" y1="1247.8682" y2="1247.8682"/><line style="stroke:#000000;stroke-width:1;" x1="355.7496" x2="953.1217" y1="1264.1651" y2="1264.1651"/><line style="stroke:#000000;stroke-width:1;" x1="355.7496" x2="953.1217" y1="1280.462" y2="1280.462"/><line style="stroke:#000000;stroke-width:1;" x1="355.7496" x2="953.1217" y1="1296.7589" y2="1296.7589"/><line style="stroke:#000000;stroke-width:1;" x1="355.7496" x2="953.1217" y1="1313.0557" y2="1313.0557"/><line style="stroke:#000000;stroke-width:1;" x1="355.7496" x2="953.1217" y1="1329.3526" y2="1329.3526"/><line style="stroke:#000000;stroke-width:1;" x1="355.7496" x2="953.1217" y1="1345.6495" y2="1345.6495"/><line style="stroke:#000000;stroke-width:1;" x1="355.7496" x2="953.1217" y1="1361.9464" y2="1361.9464"/><line style="stroke:#000000;stroke-width:1;" x1="355.7496" x2="953.1217" y1="1378.2432" y2="1378.2432"/><line style="stroke:#000000;stroke-width:1;" x1="355.7496" x2="953.1217" y1="1394.5401" y2="1394.5401"/><line style="stroke:#000000;stroke-width:1;" x1="355.7496" x2="953.1217" y1="1410.837" y2="1410.837"/><line style="stroke:#000000;stroke-width:1;" x1="355.7496" x2="953.1217" y1="1427.1339" y2="1427.1339"/><line style="stroke:#000000;stroke-width:1;" x1="355.7496" x2="953.1217" y1="1443.4307" y2="1443.4307"/><line style="stroke:#000000;stroke-width:1;" x1="355.7496" x2="953.1217" y1="1459.7276" y2="1459.7276"/><line style="stroke:#000000;stroke-width:1;" x1="355.7496" x2="953.1217" y1="1476.0245" y2="1476.0245"/><line style="stroke:#000000;stroke-width:1;" x1="355.7496" x2="953.1217" y1="1492.3214" y2="1492.3214"/><line style="stroke:#000000;stroke-width:1;" x1="355.7496" x2="953.1217" y1="1508.6182" y2="1508.6182"/><line style="stroke:#000000;stroke-width:1;" x1="355.7496" x2="953.1217" y1="1524.9151" y2="1524.9151"/><line style="stroke:#000000;stroke-width:1;" x1="355.7496" x2="953.1217" y1="1541.212" y2="1541.212"/><line style="stroke:#000000;stroke-width:1;" x1="355.7496" x2="355.7496" y1="1247.8682" y2="1541.212"/><line style="stroke:#000000;stroke-width:1;" x1="401.7897" x2="401.7897" y1="1247.8682" y2="1541.212"/><line style="stroke:#000000;stroke-width:1;" x1="556.5895" x2="556.5895" y1="1247.8682" y2="1541.212"/><line style="stroke:#000000;stroke-width:1;" x1="822.5758" x2="822.5758" y1="1247.8682" y2="1541.212"/><line style="stroke:#000000;stroke-width:1;" x1="953.1217" x2="953.1217" y1="1247.8682" y2="1541.212"/></g><!--SRC=[XLPhRXit4Fw_fvYcG2eXSImaBM0OSG1frqeKoBQgLQe0JH7GArfYlI8Lacj7WIwH6-JzVfsXHyb9EaDoToKuQEqVo-LyC-H-Cz-CVh8pFkSmPzf4aJaLSi4qcyCTpYPSTvMqgNZ2uNhhXxPOvKh3potys-b4CxSFRMubWvwqN9y9VWu3hVxccLsFReNDUHNyHYjo6z3QOG_xQYeobZziwsmcBFeLcZyS38-IU_6eTtIu7gNFfrnEEYmxdMfLo4cuJVSw_L_4AOst2vZO_KKHooo-Njf_Z9ULB8TxXkjBm8nRH59DE5pw_lGPR01WeBJ5TUCkEsFRXmZQ7XR7o-O3-UST9YSvDq1V8U5CC8ZLL0gh_d9HlMCKPRag9XJvERJdx8cI9SoXmhf6lIXHGrLO3h_TSB3aCAqXBw4zJc7SxZeJFclJAsUAkRRY1Ad500TCicduq7PyK7tdQsZtEz2uCneDqgQtzZjre3VbDTg37jp6GETiwL63tkrnbAdvGaakBM7Vme72x3je8rre8QVGKSh25kp7ANIPdcA0PkaUJPXbnyouQxohFZT9eJ5GnaurJt_leo_MqiGxeQs-sOUAHjePCvlDF9FZ6lEfnAI7gJEcw_nzBgtxyT1PyLbRtpiAKvvfRiq6VM6lXdvqqFjRmy3DVLnKTVRzwHT8-DdH0kDBh10UeeIzcpUHgwjOmTsTkDLgmgrRjUDNEghGmYvXnDcyFDplb8wTLlnhih_f-0q6N9yeFMSomtnW4I-DzTM8- -6zYh3JxSGxNHSX-WNszlP2ANTpTGwDIWPOvfWBeNIJC95JnTRMhL8Pk-Hb0FqQf86ZTc5drvjHi18mr3WYU_WKM0jO1uWA1tcFxQDU4ZUZ4hjnm91ZPv06UecxJ3lBk34mKgTS6Yneh78jfZCBwgHKtJ_F_0agGzOCe9ICmBglwzHaQi6lFP247Cs4WOK_Z6MF2g5v9KomxXGFH6QXmBeLNXROkdBZXBycaciHzX-WIvMaaj5rI4oJK87U3IPHtVYLSxhS5bk8QwGk9fVqZCX669GvObmLSDSRK6KHRP8HXOt6KJ_5Uj5p8HaTL5jHwBlWb8vKFYguiH7jEHl96QrqoP5c9zWr8h-tcJb7Dlp1jUyh5Bw6aVCkT9K-PzXt9_KXk4zsqdPrzxj99uP6httWCjIiGANYC117JKFIWLZp2VOOmN9JmU9ngBYhSC2j5bbj8ldHLP5eRgBOtorrtBPpR8acIWEPGOExSAXi_K6bjPBQRhqC0SgZi6EWDL7PAQQmDySM0OCYpoDt1LUxQteBLmfw53XxSpUbu5XPYobUxK5g-GBm6LTz5LyIRZ8j5gveo8O5DbLw2Qje1JIeLlMe2b9P-PcL1q6k7CN4eF_2uFaS3MLcSTap1hCLX1jKHTkEUlpqowNWlFSBj9Mp2PTKdqDkL5xu4-2GstEbJsa8U8UNk4cbUCMLwSgLwHKOysFgy3JrlLz5jVTwHRV78brXija4EYp7dkQ2NZpXDM5h2OQt89Ahg6yyn-RUcIo-gSyTpIx0cqr6V9bJbrhhDFz1oLjAHJtfyArkD9JHmkrLA-VpZcX4NU1ZRUebvMXSkINqsHBpwJtUUvBMnr996r-NoaKkFz3frRHqb6A1N2u5X1j7nrWtP-nOvBNNHzntiuroXWNi-ViHyXCTYNMmsj2Jeu4erNMcFZkcXeuDQHbEHOtLCnN6Kbr3tDkEam3zGXnipa-YZ6TSd65gi7rhTmmrRITEIYuj22CMeixkrtL6QA2knp71iALvZhcR_5-mRvImYqEMyBHwWY6jKplzod4JOx66liWVfn-Hr0t-1G00]--></g></svg>