<?xml version="1.0" encoding="us-ascii" standalone="no"?><svg xmlns="http://www.w3.org/2000/svg" xmlns:xlink="http://www.w3.org/1999/xlink" contentStyleType="text/css" height="1121px" preserveAspectRatio="none" style="width:616px;height:1121px;background:#FFFFFF;" version="1.1" viewBox="0 0 616 1121" width="616px" zoomAndPan="magnify"><defs/><g><text fill="#00008B" font-family="sans-serif" font-size="20" lengthAdjust="spacing" textLength="204" x="404" y="20.7617">Aetna Interview Project</text><text fill="#000000" font-family="sans-serif" font-size="30" font-weight="bold" lengthAdjust="spacing" textLength="588" x="10" y="67.2988">08c_Logical_Architecture_CICD_Pipeline</text><!--entity Dev--><g id="elem_Dev"><ellipse cx="279.8268" cy="98.8906" fill="#F1F1F1" rx="8" ry="8" style="stroke:#181818;stroke-width:0.5;"/><path d="M279.8268,106.8906 L279.8268,133.8906 M266.8268,114.8906 L292.8268,114.8906 M279.8268,133.8906 L266.8268,148.8906 M279.8268,133.8906 L292.8268,148.8906 " fill="none" style="stroke:#181818;stroke-width:0.5;"/><text fill="#000000" font-family="sans-serif" font-size="14" lengthAdjust="spacing" textLength="65" x="247.3268" y="164.9238">Developer</text></g><!--entity GitHub--><g id="elem_GitHub"><path d="M251.766,256.006 C255.0932,248.3165 259.8653,246.139 266.5754,252.42 C269.8487,245.4805 276.6649,243.8244 281.1424,251.1941 C285.9947,245.1467 291.0519,245.4001 294.981,252.1893 C301.1136,245.599 308.4166,247.2192 310.5046,256.2171 C320.4849,255.9312 324.1903,263.1598 319.8422,271.5817 C323.4903,280.4755 320.2729,288.5313 309.1029,287.302 C307.183,294.8366 301.9975,295.8329 296.0948,291.7686 C294.7402,300.4395 287.4216,302.7296 281.3335,296.4386 C275.3425,303.1017 267.9682,301.0284 265.969,292.4219 C260.0895,296.1543 254.6233,295.4329 253.1737,287.5444 C243.2347,287.9954 237.8319,281.06 241.961,271.6109 C236.7355,261.3635 241.9013,256.7718 251.766,256.006 " fill="#F1F1F1" style="stroke:#181818;stroke-width:0.5;"/><text fill="#000000" font-family="sans-serif" font-size="14" lengthAdjust="spacing" textLength="43" x="258.3268" y="275.9238">GitHub</text></g><!--entity GHActions--><g id="elem_GHActions"><path d="M228.372,381.0084 C231.6368,374.8144 237.0885,375.1839 241.1627,380.0744 C244.7207,373.1453 249.5501,372.6851 253.9607,379.2667 C257.0809,372.179 262.9603,371.6921 267.3792,377.9622 C270.5693,371.7792 277.2794,369.6077 281.7409,376.5736 C285.8818,369.9035 290.7083,369.6752 294.6095,376.7973 C299.0382,371.1561 304.6135,372.1613 307.1523,378.7375 C312.4793,372.9027 316.7708,374.6278 320.1406,380.8465 C325.5394,374.6643 330.7234,373.5944 335.1151,381.8883 C343.2802,384.9002 346.069,388.9406 339.8343,396.5784 C344.421,404.3625 343.8561,409.8391 334.1329,412.4985 C330.1177,419.3542 325.9314,419.2889 320.7678,413.7354 C318.0365,420.5408 313.5201,422.0133 308.4211,416.0193 C305.7832,422.2174 299.9268,424.5418 295.2727,418.1199 C292.1875,425.8256 284.8277,425.3755 280.4891,419.4825 C275.4229,425.9544 269.8092,423.2446 266.9924,417.0799 C262.4855,422.874 256.4095,422.873 253.4924,415.4554 C250.0344,420.5089 244.9802,420.7516 241.6893,415.2682 C235.9476,422.3238 231.1455,419.9314 227.1564,413.3944 C216.7438,412.3392 213.3998,404.3558 220.8507,396.5954 C216.2556,387.682 218.7139,383.0442 228.372,381.0084 " fill="#F1F1F1" style="stroke:#181818;stroke-width:0.5;"/><text fill="#000000" font-family="sans-serif" font-size="14" lengthAdjust="spacing" textLength="93" x="233.3268" y="401.9238">GitHub Actions</text></g><!--entity ECR--><g id="elem_ECR"><path d="M177.55,507.0432 C180.2527,501.2973 186.0739,500.1459 190.0185,505.6691 C193.0814,498.8324 199.0019,498.2616 202.7354,505.0429 C204.8644,500.5379 209.8478,499.9813 212.8145,504.0591 C216.0707,497.1671 222.7694,496.3194 226.8692,503.1982 C230.3206,496.7707 234.2313,497.8729 238.226,502.6474 C243.0221,498.4258 247.2405,498.6557 250.1684,504.7998 C253.8151,498.8683 259.6326,499.1271 262.9643,505.1374 C267.8506,500.8029 271.3138,502.2545 273.919,507.694 C283.0538,511.52 282.1124,517.7848 276.2509,523.7842 C282.5541,529.605 280.8672,534.7411 274.0014,538.5565 C271.71,545.3278 267.1478,547.6313 261.4813,541.9499 C258.701,547.1795 254.8372,548.0469 250.8483,543.2288 C248.4154,550.0007 243.0178,552.3304 237.4697,546.5488 C234.815,552.6792 231.1346,552.5486 226.6488,548.4942 C222.3903,552.6031 216.656,551.3774 214.8935,545.5433 C209.868,551.5671 205.4095,551.3489 202.0864,543.9224 C196.2051,547.8652 191.8689,548.1567 189.2115,540.3805 C185.0649,545.1232 181.2372,545.017 178.3742,539.0782 C169.6818,537.6007 165.1609,530.3704 171.2449,522.5278 C165.1979,514.196 167.0601,508.6415 177.55,507.0432 " fill="#F1F1F1" style="stroke:#181818;stroke-width:0.5;"/><text fill="#000000" font-family="sans-serif" font-size="14" lengthAdjust="spacing" textLength="83" x="183.3268" y="527.9238">Amazon ECR</text></g><!--entity ECS--><g id="elem_ECS"><path d="M284.9534,633.5136 C287.3722,626.7703 293.464,626.4532 297.1501,632.2844 C300.6035,625.991 304.0924,626.1987 308.4512,631.3938 C311.9438,626.7802 316.458,625.9028 319.3263,632.0261 C322.6541,626.5185 327.0161,625.9925 331.1161,631.1744 C332.9554,626.0238 337.8199,625.0657 341.5413,629.0191 C345.155,623.1218 349.8636,623.4755 352.7563,629.6869 C355.236,623.6551 359.9914,622.2234 364.8341,627.0613 C369.754,621.6264 373.5214,621.6284 376.7901,628.6466 C380.4859,623.5448 385.0124,622.8523 388.6647,628.6938 C393.2051,624.5031 397.654,624.9193 399.4791,631.4362 C402.1552,625.3364 408.0121,625.1636 411.7407,630.2861 C415.2151,624.9738 420.4591,626.0786 422.8068,631.4529 C426.5175,626.7645 431.9694,626.7471 434.2874,632.9244 C438.36,627.1052 442.3535,627.9429 446.0009,633.3674 C454.1743,636.347 455.8391,644.2033 448.502,649.5762 C454.8442,655.5752 453.0321,662.0726 444.7044,664.2837 C441.6746,669.3889 438.4652,670.3542 434.1827,665.6239 C431.1744,670.592 427.1174,672.3884 422.935,666.885 C417.9157,671.8142 413.4893,673.3704 409.6503,665.6459 C407.4221,671.1431 402.8167,671.3552 399.7319,666.4637 C397.3752,671.6478 392.1873,673.4157 388.6236,667.693 C385.2006,672.9329 380.4489,674.2738 376.778,667.9469 C373.1188,674.0985 368.2681,673.7914 365.1478,667.4454 C361.8612,672.9394 357.9426,673.9266 353.6747,668.4738 C349.2215,673.4761 344.887,674.5601 341.0377,667.8237 C336.6405,672.4305 332.9705,672.5985 330.117,666.2806 C326.4516,671.2616 323.162,671.0275 319.9921,665.7896 C316.6025,673.2979 311.3573,673.632 306.8456,666.8198 C302.7404,671.7237 298.5416,672.4937 295.3261,665.9263 C291.7047,670.8827 287.3941,669.8237 284.3818,665.2283 C276.0735,663.2071 274.0011,656.8995 279.5303,650.3624 C273.1811,642.095 275.114,636.5704 284.9534,633.5136 " fill="#F1F1F1" style="stroke:#181818;stroke-width:0.5;"/><text fill="#000000" font-family="sans-serif" font-size="14" lengthAdjust="spacing" textLength="146" x="290.8268" y="653.9238">Amazon ECS (Fargate)</text></g><!--entity CDK--><g id="elem_CDK"><path d="M325.563,507.4048 C328.8332,500.4283 334.5105,500.1516 339.6942,505.1459 C343.0851,499.8813 346.9801,498.9786 351.2582,504.1641 C354.2137,495.9581 360.9239,496.7807 365.8195,502.0709 C370.6758,497.7839 374.162,497.5534 376.8434,504.2532 C381.9219,497.7981 386.7543,497.4659 390.7627,505.296 C395.5821,498.8088 401.791,499.5112 404.3029,507.4603 C413.3413,509.9729 414.3399,516.2954 407.6556,522.3486 C414.591,529.2584 414.0957,536.056 404.338,539.7908 C402.2636,546.4364 396.4111,548.3146 391.3235,543.096 C388.3669,550.9977 382.589,550.9171 377.4801,545.2998 C375.1412,551.4448 369.4963,553.1565 364.6354,548.2242 C360.1007,553.5727 354.3141,552.9781 352.0281,545.9361 C347.0051,551.4845 341.1868,548.9469 339.8513,542.2648 C334.5886,548.3959 327.7422,546.8938 325.0678,539.4467 C317.8146,534.0704 318.4649,528.5434 325.2251,523.3037 C317.2173,518.5949 318.3207,511.7895 325.563,507.4048 " fill="#F1F1F1" style="stroke:#181818;stroke-width:0.5;"/><text fill="#000000" font-family="sans-serif" font-size="14" lengthAdjust="spacing" textLength="64" x="331.8268" y="527.9238">AWS CDK</text></g><!--entity CW--><g id="elem_CW"><path d="M292.9024,760.4241 C295.2199,754.2856 298.6896,754.1325 303.478,757.7439 C307.8927,752.1525 312.805,751.2425 316.7057,758.2823 C320.7724,751.441 324.7261,751.0137 329.7042,757.3857 C332.4408,752.0115 337.0253,751.6491 341.116,755.7558 C343.3973,750.4734 348.3412,750.1314 351.9677,754.1936 C355.4283,747.8033 360.768,747.597 364.8057,753.5956 C369.6775,747.8741 373.8794,748.3785 377.9705,754.466 C381.4372,749.5719 386.1461,748.9193 389.332,754.7632 C393.6433,750.0167 398.355,750.8017 401.4522,756.212 C405.0856,750.7551 411.2129,751.5953 413.8214,757.3433 C417.3159,751.5159 421.8127,752.8633 424.8366,757.8238 C429.258,752.7753 434.5074,751.496 437.8659,758.933 C446.8869,760.9331 450.9454,767.6777 444.9431,775.9324 C449.5975,784.3456 447.236,790.2239 437.3268,791.5223 C434.225,796.507 429.5832,797.2939 426.1341,791.8966 C422.323,799.2335 418.1369,798.6498 412.9648,793.3106 C409.2751,799.2668 404.2368,797.7769 401.1156,792.7 C398.0603,798.2437 394.0684,799.5238 389.2046,794.7974 C385.7863,800.7341 381.5279,800.6468 377.7272,795.1823 C374.4537,800.03 368.5832,801.2806 365.8233,794.6497 C360.907,800.1127 356.5439,799.5912 352.3827,793.7517 C349.0899,800.0016 343.1703,799.9287 340.044,793.5885 C335.736,798.8792 331.143,798.6224 327.6276,792.71 C325.0026,798.0064 319.5805,797.9445 316.4253,793.3079 C311.5581,798.3369 307.5618,796.5538 304.7469,791.0356 C300.9325,796.749 296.1663,797.8377 291.7624,791.6803 C282.5223,787.5917 282.6846,780.793 289.7202,774.7421 C283.6276,769.4517 284.3899,762.4685 292.9024,760.4241 " fill="#F1F1F1" style="stroke:#181818;stroke-width:0.5;"/><text fill="#000000" font-family="sans-serif" font-size="14" lengthAdjust="spacing" textLength="131" x="298.3268" y="779.9238">Amazon CloudWatch</text></g><!--entity Notifications--><g id="elem_Notifications"><path d="M322.4479,884.6643 C325.7069,878.4021 331.6265,878.6505 334.9399,884.6086 C338.9558,875.5427 344.1482,876.7897 350.3752,882.2608 C354.4378,874.3044 359.6682,872.6912 365.7668,880.2396 C369.8231,873.9876 376.8912,874.9105 380.1308,881.1766 C385.7848,875.2435 391.1549,877.8395 393.4061,884.7059 C398.8596,878.7041 403.6974,879.2184 407.9564,886.0591 C416.209,889.7973 417.7347,896.7179 409.9056,902.377 C416.0372,908.4397 414.4087,913.2606 407.4196,917.1091 C404.9317,923.596 399.1871,923.9063 395.005,918.9465 C390.8798,926.0268 385.1822,926.2664 380.1885,919.9037 C376.1665,928.3747 369.8051,928.2462 363.8455,922.0648 C359.9527,927.215 353.5734,928.2328 350.6049,921.0708 C345.4397,927.7168 338.711,927.3677 335.7146,918.9298 C330.326,924.3078 324.9352,924.3911 321.2375,917.0111 C311.5997,915.744 308.6982,909.809 314.0291,901.559 C307.9754,892.0376 311.857,885.8915 322.4479,884.6643 " fill="#F1F1F1" style="stroke:#181818;stroke-width:0.5;"/><text fill="#000000" font-family="sans-serif" font-size="14" lengthAdjust="spacing" textLength="73" x="327.3268" y="905.9238">Slack / SNS</text></g><!--link Dev to GitHub--><g id="link_Dev_GitHub"><path d="M279.8268,168.7406 C279.8268,193.6506 279.8268,219.2906 279.8268,240.3806 " fill="none" id="Dev-to-GitHub" style="stroke:#181818;stroke-width:1.0;"/><polygon fill="#181818" points="279.8268,246.3806,283.8268,237.3806,279.8268,241.3806,275.8268,237.3806,279.8268,246.3806" style="stroke:#181818;stroke-width:1.0;"/><text fill="#000000" font-family="sans-serif" font-size="13" lengthAdjust="spacing" textLength="64" x="280.8268" y="212.8857">Push Code</text></g><!--link GitHub to GHActions--><g id="link_GitHub_GHActions"><path d="M279.8268,294.4206 C279.8268,316.5606 279.8268,343.8306 279.8268,366.0606 " fill="none" id="GitHub-to-GHActions" style="stroke:#181818;stroke-width:1.0;"/><polygon fill="#181818" points="279.8268,372.0606,283.8268,363.0606,279.8268,367.0606,275.8268,363.0606,279.8268,372.0606" style="stroke:#181818;stroke-width:1.0;"/><text fill="#000000" font-family="sans-serif" font-size="13" lengthAdjust="spacing" textLength="72" x="280.8268" y="338.8857">Trigger Build</text></g><!--link GHActions to GHActions--><g id="link_GHActions_GHActions"><path d="M341.5468,384.7706 C360.9868,384.9506 376.3268,388.8206 376.3268,396.3906 C376.3268,403.9606 366.9866,407.7751 347.5466,407.9551 " fill="none" id="GHActions-to-GHActions" style="stroke:#181818;stroke-width:1.0;"/><polygon fill="#181818" points="341.5468,408.0106,350.5835,411.9271,346.5466,407.9643,350.5094,403.9275,341.5468,408.0106" style="stroke:#181818;stroke-width:1.0;"/><text fill="#000000" font-family="sans-serif" font-size="13" lengthAdjust="spacing" textLength="58" x="382.3268" y="401.8857">Build/Test</text></g><!--link GHActions to ECR--><g id="link_GHActions_ECR"><path d="M255.9668,420.5606 C248.3768,429.2206 240.6868,439.6006 235.8268,450.3906 C229.0668,465.4006 226.7817,477.8264 225.7417,492.1364 " fill="none" id="GHActions-to-ECR" style="stroke:#181818;stroke-width:1.0;"/><polygon fill="#181818" points="225.3068,498.1206,229.9487,489.4342,225.6693,493.1338,221.9697,488.8544,225.3068,498.1206" style="stroke:#181818;stroke-width:1.0;"/><text fill="#000000" font-family="sans-serif" font-size="13" lengthAdjust="spacing" textLength="69" x="236.8268" y="464.8857">Push Image</text></g><!--link GHActions to CDK--><g id="link_GHActions_CDK"><path d="M295.4268,420.4206 C310.4268,442.5606 329.6016,470.8632 344.6616,493.0932 " fill="none" id="GHActions-to-CDK" style="stroke:#181818;stroke-width:1.0;"/><polygon fill="#181818" points="348.0268,498.0606,346.2906,488.366,345.2225,493.9211,339.6674,492.853,348.0268,498.0606" style="stroke:#181818;stroke-width:1.0;"/><text fill="#000000" font-family="sans-serif" font-size="13" lengthAdjust="spacing" textLength="93" x="328.8268" y="464.8857">Deploy Infra/API</text></g><!--link CDK to ECS--><g id="link_CDK_ECS"><path d="M363.8268,546.4206 C363.8268,568.5606 363.8268,595.8306 363.8268,618.0606 " fill="none" id="CDK-to-ECS" style="stroke:#181818;stroke-width:1.0;"/><polygon fill="#181818" points="363.8268,624.0606,367.8268,615.0606,363.8268,619.0606,359.8268,615.0606,363.8268,624.0606" style="stroke:#181818;stroke-width:1.0;"/><text fill="#000000" font-family="sans-serif" font-size="13" lengthAdjust="spacing" textLength="87" x="364.8268" y="590.8857">Update Service</text></g><!--link ECS to CW--><g id="link_ECS_CW"><path d="M363.8268,672.4206 C363.8268,694.5606 363.8268,721.8306 363.8268,744.0606 " fill="none" id="ECS-to-CW" style="stroke:#181818;stroke-width:1.0;"/><polygon fill="#181818" points="363.8268,750.0606,367.8268,741.0606,363.8268,745.0606,359.8268,741.0606,363.8268,750.0606" style="stroke:#181818;stroke-width:1.0;"/><text fill="#000000" font-family="sans-serif" font-size="13" lengthAdjust="spacing" textLength="75" x="364.8268" y="716.8857">Logs/Metrics</text></g><!--link CW to Notifications--><g id="link_CW_Notifications"><path d="M363.8268,798.4206 C363.8268,820.5606 363.8268,847.8306 363.8268,870.0606 " fill="none" id="CW-to-Notifications" style="stroke:#181818;stroke-width:1.0;"/><polygon fill="#181818" points="363.8268,876.0606,367.8268,867.0606,363.8268,871.0606,359.8268,867.0606,363.8268,876.0606" style="stroke:#181818;stroke-width:1.0;"/><text fill="#000000" font-family="sans-serif" font-size="13" lengthAdjust="spacing" textLength="82" x="364.8268" y="842.8857">Alerts/Notices</text></g><rect fill="none" height="154.875" id="_legend" rx="7.5" ry="7.5" style="stroke:#FFFFFF;stroke-width:1.0;" width="422" x="93" y="946.3747"/><text fill="#000000" font-family="sans-serif" font-size="14" font-weight="bold" lengthAdjust="spacing" textLength="32" x="102" y="967.9079">Step</text><text fill="#000000" font-family="sans-serif" font-size="14" font-weight="bold" lengthAdjust="spacing" textLength="81" x="142" y="967.9079">Component</text><text fill="#000000" font-family="sans-serif" font-size="14" font-weight="bold" lengthAdjust="spacing" textLength="81" x="243" y="967.9079">Description</text><text fill="#000000" font-family="sans-serif" font-size="14" font-weight="bold" lengthAdjust="spacing" textLength="63" x="392" y="967.9079">Category</text><text fill="#000000" font-family="sans-serif" font-size="14" lengthAdjust="spacing" textLength="8" x="102" y="985.5173">1</text><text fill="#000000" font-family="sans-serif" font-size="14" lengthAdjust="spacing" textLength="43" x="142" y="985.5173">GitHub</text><text fill="#000000" font-family="sans-serif" font-size="14" lengthAdjust="spacing" textLength="96" x="243" y="985.5173">Repo + Trigger</text><text fill="#000000" font-family="sans-serif" font-size="14" lengthAdjust="spacing" textLength="95" x="392" y="985.5173">Source Control</text><text fill="#000000" font-family="sans-serif" font-size="14" lengthAdjust="spacing" textLength="8" x="106" y="1003.1267">2</text><text fill="#000000" font-family="sans-serif" font-size="14" lengthAdjust="spacing" textLength="93" x="142" y="1003.1267">GitHub Actions</text><text fill="#000000" font-family="sans-serif" font-size="14" lengthAdjust="spacing" textLength="74" x="243" y="1003.1267">CI Workflow</text><text fill="#000000" font-family="sans-serif" font-size="14" lengthAdjust="spacing" textLength="37" x="392" y="1003.1267">CI/CD</text><text fill="#000000" font-family="sans-serif" font-size="14" lengthAdjust="spacing" textLength="8" x="106" y="1020.7361">3</text><text fill="#000000" font-family="sans-serif" font-size="14" lengthAdjust="spacing" textLength="29" x="142" y="1020.7361">ECR</text><text fill="#000000" font-family="sans-serif" font-size="14" lengthAdjust="spacing" textLength="125" x="243" y="1020.7361">Docker Image Store</text><text fill="#000000" font-family="sans-serif" font-size="14" lengthAdjust="spacing" textLength="118" x="392" y="1020.7361">Container Registry</text><text fill="#000000" font-family="sans-serif" font-size="14" lengthAdjust="spacing" textLength="8" x="106" y="1038.3454">4</text><text fill="#000000" font-family="sans-serif" font-size="14" lengthAdjust="spacing" textLength="29" x="142" y="1038.3454">CDK</text><text fill="#000000" font-family="sans-serif" font-size="14" lengthAdjust="spacing" textLength="141" x="243" y="1038.3454">Infrastructure as Code</text><text fill="#000000" font-family="sans-serif" font-size="14" lengthAdjust="spacing" textLength="21" x="392" y="1038.3454">IaC</text><text fill="#000000" font-family="sans-serif" font-size="14" lengthAdjust="spacing" textLength="8" x="106" y="1055.9548">5</text><text fill="#000000" font-family="sans-serif" font-size="14" lengthAdjust="spacing" textLength="28" x="142" y="1055.9548">ECS</text><text fill="#000000" font-family="sans-serif" font-size="14" lengthAdjust="spacing" textLength="129" x="243" y="1055.9548">Fargate Deployment</text><text fill="#000000" font-family="sans-serif" font-size="14" lengthAdjust="spacing" textLength="57" x="392" y="1055.9548">Compute</text><text fill="#000000" font-family="sans-serif" font-size="14" lengthAdjust="spacing" textLength="8" x="106" y="1073.5642">6</text><text fill="#000000" font-family="sans-serif" font-size="14" lengthAdjust="spacing" textLength="77" x="142" y="1073.5642">CloudWatch</text><text fill="#000000" font-family="sans-serif" font-size="14" lengthAdjust="spacing" textLength="92" x="243" y="1073.5642">Logs + Metrics</text><text fill="#000000" font-family="sans-serif" font-size="14" lengthAdjust="spacing" textLength="66" x="392" y="1073.5642">Monitoring</text><text fill="#000000" font-family="sans-serif" font-size="14" lengthAdjust="spacing" textLength="8" x="106" y="1091.1736">7</text><text fill="#000000" font-family="sans-serif" font-size="14" lengthAdjust="spacing" textLength="65" x="142" y="1091.1736">SNS/Slack</text><text fill="#000000" font-family="sans-serif" font-size="14" lengthAdjust="spacing" textLength="36" x="243" y="1091.1736">Alerts</text><text fill="#000000" font-family="sans-serif" font-size="14" lengthAdjust="spacing" textLength="69" x="392" y="1091.1736">Notification</text><line style="stroke:#000000;stroke-width:1.0;" x1="98" x2="510" y1="953.3747" y2="953.3747"/><line style="stroke:#000000;stroke-width:1.0;" x1="98" x2="510" y1="970.9841" y2="970.9841"/><line style="stroke:#000000;stroke-width:1.0;" x1="98" x2="510" y1="988.5935" y2="988.5935"/><line style="stroke:#000000;stroke-width:1.0;" x1="98" x2="510" y1="1006.2029" y2="1006.2029"/><line style="stroke:#000000;stroke-width:1.0;" x1="98" x2="510" y1="1023.8122" y2="1023.8122"/><line style="stroke:#000000;stroke-width:1.0;" x1="98" x2="510" y1="1041.4216" y2="1041.4216"/><line style="stroke:#000000;stroke-width:1.0;" x1="98" x2="510" y1="1059.031" y2="1059.031"/><line style="stroke:#000000;stroke-width:1.0;" x1="98" x2="510" y1="1076.6404" y2="1076.6404"/><line style="stroke:#000000;stroke-width:1.0;" x1="98" x2="510" y1="1094.2497" y2="1094.2497"/><line style="stroke:#000000;stroke-width:1.0;" x1="98" x2="98" y1="953.3747" y2="1094.2497"/><line style="stroke:#000000;stroke-width:1.0;" x1="138" x2="138" y1="953.3747" y2="1094.2497"/><line style="stroke:#000000;stroke-width:1.0;" x1="239" x2="239" y1="953.3747" y2="1094.2497"/><line style="stroke:#000000;stroke-width:1.0;" x1="388" x2="388" y1="953.3747" y2="1094.2497"/><line style="stroke:#000000;stroke-width:1.0;" x1="510" x2="510" y1="953.3747" y2="1094.2497"/><!--SRC=[RLDjRzem4FxkNt7gFh1fgiBQlLIJDWcITKKh5Mge-8YCSmGFOqUsquegFtvd9w65BaWuTyzplhSd0vXPynU51wuBc4kl46wG5sYPsqfTSSjtdUFQQ9_BPuIBuN-nr2XZuTsGdginsqG_ZD1h3XFjqJvAVEgpiLSt-93qSFdba4K73A_4yjQKKd2r75cnaPxYQelBT99covciK4cDZ0rWohS8VeEWi4HT99wlA5x9SkEFshYDy9YBRMbDhOkkuEkBy0COj25GMhv_6sKijTD5fF61zXc0grUXu5MaCCQ59z9PXe-eJ8Ns3BW3ifXGfYxWxBVqD_KgUjlNOm16makZNKkuwQoUCzhnPwFXLteVSJhV83cyl-Qsv1u_T9pym5daa6P_eflEaz0qM0lknQObB7eyLpGpI22_ooDoPxnSqsBQoXZr1kVdFxjku3lCQhU1r1J8EbT4-rQ8CBUoB4aTurggWhqWfxo89tDq_eH4VVTv9ZjUuWbClH6SOQNCdiItjZmPpIOikDledE27gg0PGHwKAP05PunT44R2SyaKlPN2CV84uAXhuemKMk-Iu1ReWX0VfhSmZ-9RamBIIP9cD8PTPJHgxrWhJzA9zsR7cX-GUwo0pWCd61awOMKLiaICQYoDtKF36lW4JJ_b1kwnCl3nCCi6SbDRWNIRzjOeacO8WOkNc7v43TK62sEtQsMUeaMLHl8bMM6s3MH6REdME5qgr5WCHBgQqrTdANafdRVx6FKvG3JRffqr-UlugKOLaGm2mDD8_H8JvFJVQRJRqYvs7oTHUupKhy4-I9ACi1Hgk5iBEQP6IwfCwZ86V0ipkCkJLgvDjo1wURsvXj4Esaty0m00]--></g></svg>